<?xml version="1.0" encoding="iso-8859-1"?>
<!DOCTYPE svg PUBLIC "-//W3C//DTD SVG 20000303 Stylable//EN"
"http://www.w3.org/TR/2000/03/WD-SVG-20000303/DTD/svg-20000303-stylable.dtd">
<!-- Generator: --> 
<svg width="512pt" height="512pt" viewBox="0 0 512 512">
	<g  id="FRAME_0" style="visibility:visible" fill-rule="evenodd">
		<path style="fill:rgb(178,178,178);opacity:1;stroke-width:0"
		 d="M58.000000,426.000000 L57.000000,426.000000 L57.000000,110.500000 L174.250000,110.500000 L200.750000,157.750000 L415.250000,157.750000 L415.500000,207.750000 L462.500000,208.250000 L453.750000,252.750000 L416.250000,426.000000 L58.000000,426.000000 "/>
		<path style="stroke:rgb(31,31,31);stroke-width:14.400000;stroke-linecap:round;stroke-linejoin:round;fill:none"
		 d="M57.750000,425.000000 L58.750000,423.250000 L105.250000,251.250000 L273.750000,251.250000 L274.500000,251.250000 L286.250000,207.750000 L415.500000,207.750000 L415.250000,157.750000 L200.750000,157.750000 L174.250000,110.500000 L57.000000,110.500000 L57.000000,426.000000 L58.000000,426.000000 L57.750000,425.000000 		"/>
		<path style="stroke:rgb(31,31,31);stroke-width:14.400000;stroke-linecap:round;stroke-linejoin:round;fill:none"
		 d="M58.000000,426.000000 L416.250000,426.000000 L453.750000,252.750000 L462.500000,208.250000 L415.500000,207.750000 		"/>
	</g>
</svg>