<?xml version="1.0" encoding="UTF-8" standalone="no"?>
<!-- Generator: -->

<svg
   width="512pt"
   height="512pt"
   viewBox="0 0 512 512"
   version="1.1"
   id="svg4066"
   sodipodi:docname="folder_link.svg"
   inkscape:version="1.1 (c68e22c387, 2021-05-23)"
   xmlns:inkscape="http://www.inkscape.org/namespaces/inkscape"
   xmlns:sodipodi="http://sodipodi.sourceforge.net/DTD/sodipodi-0.dtd"
   xmlns="http://www.w3.org/2000/svg"
   xmlns:svg="http://www.w3.org/2000/svg">
  <defs
     id="defs4070" />
  <sodipodi:namedview
     id="namedview4068"
     pagecolor="#505050"
     bordercolor="#eeeeee"
     borderopacity="1"
     inkscape:pageshadow="0"
     inkscape:pageopacity="0"
     inkscape:pagecheckerboard="0"
     inkscape:document-units="pt"
     showgrid="false"
     inkscape:zoom="0.38997906"
     inkscape:cx="-332.06911"
     inkscape:cy="357.71151"
     inkscape:window-width="1920"
     inkscape:window-height="1147"
     inkscape:window-x="-8"
     inkscape:window-y="-8"
     inkscape:window-maximized="1"
     inkscape:current-layer="svg4066" />
  <g
     id="FRAME_0"
     style="visibility:visible"
     fill-rule="evenodd"
     transform="matrix(1.1090158,0,0,1.1090158,-29.690365,-29.243478)">
    <path
       style="opacity:1;fill:#42789a;fill-opacity:1;stroke:#1f1f1f;stroke-width:14.4272;stroke-linecap:butt;stroke-linejoin:round;stroke-miterlimit:4;stroke-dasharray:none;stroke-opacity:1;paint-order:stroke markers fill"
       d="m 207.70061,233.69105 c -4.79555,13.94586 -5.682,24.50478 -2.65933,31.67674 l -95.02422,61.3801 c -9.29878,14.60201 -9.89157,27.28412 -1.77833,38.04633 8.20047,12.11501 20.3647,16.42462 36.4927,12.92886 l 93.97186,-60.68525 c 20.12828,-18.97095 28.59642,-23.66375 22.09067,-43.90189 l -1.9334,-5.67477 -5.11822,-5.23426 c -6.39432,-19.75515 1.36365,-33.94431 23.27393,-42.56751 19.60532,11.5362 30.45676,27.89515 32.5543,49.07686 2.56438,10.59759 1.53357,22.15851 -3.09245,34.68276 l -11.45819,20.41015 -17.70433,17.12952 -105.2661,67.84009 -23.90261,10.9461 c -34.42958,8.12443 -61.482113,-1.41634 -81.157578,-28.62226 -16.901048,-27.12364 -14.991194,-55.43431 5.72956,-84.93204 l 16.858387,-15.66428 104.213701,-67.14524 26.1106,-11.95058 -12.20095,22.26057"
       id="path4047"
       sodipodi:nodetypes="cccccccccccccccccccccc" />
    <path
       style="opacity:1;fill:#679967;fill-opacity:1;stroke:#1f1f1f;stroke-width:14.4272;stroke-linecap:butt;stroke-linejoin:round;stroke-miterlimit:4;stroke-dasharray:none;stroke-opacity:1;paint-order:stroke markers fill"
       d="m 207.70061,233.69105 12.20095,-22.26057 17.80756,-16.74433 105.26608,-67.84009 24.28782,-11.04931 c 33.72799,-7.66121 60.36091,1.85436 79.89876,28.5467 16.93792,29.31565 15.25045,57.42912 -5.06238,84.34041 l -16.47319,15.56107 -6.98148,4.76068 -87.06107,59.94147 -6.03231,3.68062 -19.69309,8.16674 11.45819,-20.41015 c 4.62602,-12.52425 5.65683,-24.08517 3.09245,-34.68276 l 81.90236,-56.08207 c 10.46359,-14.36367 11.40717,-27.27739 2.83071,-38.74118 -13.90537,-13.88923 -25.76918,-17.59127 -35.59144,-11.10607 l -92.53426,59.88719 c -21.91028,8.6232 -34.87967,28.02378 -28.48535,47.77893 4.68119,27.38409 -1.43347,29.50616 -23.00946,42.8553 -24.34363,-18.98448 -28.93858,-57.98576 -17.82085,-76.60258"
       id="path4049"
       sodipodi:nodetypes="ccccccccccccccccccccc" />
  </g>
</svg>
