<?xml version="1.0" encoding="iso-8859-1"?>
<!DOCTYPE svg PUBLIC "-//W3C//DTD SVG 20000303 Stylable//EN"
"http://www.w3.org/TR/2000/03/WD-SVG-20000303/DTD/svg-20000303-stylable.dtd">
<!-- Generator: --> 
<svg width="512pt" height="512pt" viewBox="0 0 512 512">
	<g  id="FRAME_0" style="visibility:visible" fill-rule="evenodd">
		<path style="fill:rgb(127,127,127);opacity:1;stroke-width:0"
		 d="M103.849998,327.250000 L185.500000,269.850006 Q192.600006,263.100006 191.750000,253.350006 Q191.000000,245.250000 183.600006,239.500000 L89.250000,173.000000 L89.500000,27.350000 Q92.099998,12.350000 111.250000,13.250000 Q114.750000,14.000000 117.599998,16.100000 L412.750000,238.750000 Q421.000000,244.500000 421.750000,254.600006 Q422.500000,263.850006 413.750000,271.600006 L122.599998,491.250000 L116.000000,496.000000 L112.000000,497.750000 Q97.599998,502.100006 89.599998,484.350006 L89.250000,481.350006 L89.250000,355.250000 L89.250000,355.000000 L89.349998,354.100006 L89.849998,348.500000 L90.849998,344.600006 L92.849998,340.250000 L93.099998,339.500000 L93.500000,338.850006 Q97.849998,330.850006 103.250000,327.750000 L103.750000,327.250000 L103.849998,327.250000 M113.099998,349.750000 L113.000000,433.100006 L113.500000,435.500000 L113.250000,436.250000 Q120.349998,454.750000 137.850006,449.100006 L374.100006,271.600006 Q381.850006,265.600006 382.000000,255.600006 Q380.350006,242.500000 374.250000,239.600006 L205.000000,112.250000 L143.100006,65.250000 L138.750000,62.349998 L135.750000,61.250000 Q129.000000,59.349998 122.750000,62.500000 Q120.750000,62.750000 115.599998,68.849998 L113.349998,74.849998 L113.000000,84.000000 L113.099998,160.750000 L225.350006,239.750000 Q233.100006,244.850006 233.350006,256.350006 Q233.350006,264.850006 224.850006,271.750000 L113.099998,349.750000 "/>
		<path style="fill:rgb(53,53,53);opacity:1;stroke-width:0"
		 d="M113.099998,349.750000 L224.850006,271.750000 Q233.350006,264.850006 233.350006,256.350006 Q233.100006,244.850006 225.350006,239.750000 L113.099998,160.750000 L113.000000,84.000000 L113.349998,74.849998 L115.599998,68.849998 Q120.750000,62.750000 122.750000,62.500000 Q129.000000,59.349998 135.750000,61.250000 L138.750000,62.349998 L143.100006,65.250000 L205.000000,112.250000 L374.250000,239.600006 Q380.350006,242.500000 382.000000,255.600006 Q381.850006,265.600006 374.100006,271.600006 L137.850006,449.100006 Q120.349998,454.750000 113.250000,436.250000 L113.500000,435.500000 L113.000000,433.100006 L113.099998,349.750000 "/>
	</g>
</svg>