<?xml version="1.0" encoding="UTF-8" standalone="no"?>
<!-- Generator: -->

<svg
   width="256pt"
   height="256pt"
   viewBox="0 0 256 256"
   version="1.1"
   id="svg853"
   sodipodi:docname="refresh.svg"
   inkscape:version="1.1 (c68e22c387, 2021-05-23)"
   xmlns:inkscape="http://www.inkscape.org/namespaces/inkscape"
   xmlns:sodipodi="http://sodipodi.sourceforge.net/DTD/sodipodi-0.dtd"
   xmlns="http://www.w3.org/2000/svg"
   xmlns:svg="http://www.w3.org/2000/svg">
  <defs
     id="defs857" />
  <sodipodi:namedview
     id="namedview855"
     pagecolor="#505050"
     bordercolor="#eeeeee"
     borderopacity="1"
     inkscape:pageshadow="0"
     inkscape:pageopacity="0"
     inkscape:pagecheckerboard="0"
     inkscape:document-units="pt"
     showgrid="false"
     inkscape:zoom="0.92911345"
     inkscape:cx="523.61743"
     inkscape:cy="178.12679"
     inkscape:window-width="1920"
     inkscape:window-height="1147"
     inkscape:window-x="-8"
     inkscape:window-y="-8"
     inkscape:window-maximized="1"
     inkscape:current-layer="svg853" />
  <path
     style="fill:#323232;fill-opacity:1;stroke:#7d7d7d;stroke-width:14.1316;stroke-linecap:butt;stroke-linejoin:round;stroke-miterlimit:4;stroke-dasharray:none;stroke-dashoffset:3.82667;stroke-opacity:1;paint-order:stroke markers fill"
     d="m 130.24443,48.833432 c -50.764732,-6.6e-5 -91.917661,39.747418 -91.917475,88.778328 -1.76e-4,49.0309 41.152751,88.77838 91.917475,88.77831 50.76473,7e-5 91.91766,-39.7474 91.91748,-88.77831 1.9e-4,-49.030912 -41.15275,-88.778396 -91.91748,-88.778328 z M 131.22437,74.502 c 35.66328,0.560128 64.35387,34.58511 65.52871,61.95794 10e-6,33.44653 -33.36898,64.81181 -67.24108,65.95349 C 95.971238,202.01051 64.78932,171.30185 63.981838,139.88469 63.982104,99.588109 96.27098,73.895897 131.22437,74.502 Z"
     sodipodi:nodetypes="cccccccccc"
     id="path2813" />
  <g
     id="FRAME_0"
     style="visibility:visible"
     fill-rule="evenodd"
     transform="matrix(0.43497891,-0.78784644,0.78784644,0.43497891,-28.035868,119.53667)">
    <path
       style="opacity:1;fill:#7e7e7e;stroke-width:0"
       d="m 108.75,57.75 -24.150002,16.75 -1.25,1.599998 -0.5,1.400002 C 80.949999,80.399999 93.850001,91.016665 102.25,95.849998 M 98.349998,138.60001 100.25,139.5 l 1.6,0.10001 c 4.16667,-1.06667 5.96667,-3.31667 5.4,-6.75 L 107,108.25 72.25,84 C 70.483332,82.566665 69.683331,81.099998 69.849998,79.599998 69.449999,77.533333 70.333333,75.583333 72.5,73.75 l 34.6,-24 0.15,-26.5 c -1,-3 -2.55,-4.583333 -4.65,-4.75 -2.56667,-0.266667 -4.516667,0.433333 -5.85,2.1 L 25.85,74 c -1,0.666667 -1.7,1.666667 -2.1,3 l -0.4,2.099998 1.4,3.900002 4.1,3.349998 69.499998,52.250012 M 114.6,104.75 l -0.1,45.10001 c -1.26667,3.5 -3.68333,4.96666 -7.25,4.39999 L 105.5,153.35001 15,85.099998 c -3.266667,-2.399999 -4.516667,-4.899999 -3.75,-7.5 0.166667,-1.066665 1,-2.316665 2.5,-3.75 L 106.85,3.85 110.5,3.6 c 1.73333,0.4333333 3.1,2.1 4.1,5 v 39.65 c -0.4,4.333333 -2.35,7.5 -5.85,9.5 l -6.5,38.099998 12.35,8.900002"
       id="path848"
       sodipodi:nodetypes="ccccccccccccccccccccccccccccccccccccc" />
    <path
       style="opacity:1;fill:#343434;stroke-width:0"
       d="M 98.349998,138.60001 28.85,86.349998 24.75,83 23.35,79.099998 23.75,77 c 0.4,-1.333333 1.1,-2.333333 2.1,-3 l 70.9,-53.4 c 1.333333,-1.666667 3.28333,-2.366667 5.85,-2.1 2.1,0.166667 3.65,1.75 4.65,4.75 l -0.15,26.5 -34.6,24 c -2.166667,1.833333 -3.050001,3.783333 -2.650002,5.849998 -0.166667,1.5 0.633334,2.966667 2.400002,4.400002 l 34.75,24.25 0.25,24.60001 c 0.56667,3.43333 -1.23333,5.68333 -5.4,6.75 l -1.6,-0.10001 -1.900002,-0.89999"
       id="path850"
       sodipodi:nodetypes="cccccccccccccccccc" />
  </g>
  <g
     id="FRAME_0-8"
     style="visibility:visible"
     fill-rule="evenodd"
     transform="matrix(-0.50763717,0.51680144,-0.51680144,-0.50763717,275.70914,176.23976)">
    <path
       style="opacity:1;fill:#7e7e7e;stroke-width:0"
       d="M 98.349998,138.60001 100.25,139.5 l 1.6,0.10001 c 4.16667,-1.06667 5.96667,-3.31667 5.4,-6.75 -31.001221,-59.213455 -1.48212,-77.050709 0,-109.60001 -1,-3 -2.55,-4.583333 -4.65,-4.75 -2.56667,-0.266667 -4.516667,0.433333 -5.85,2.1 L 25.85,74 c -1,0.666667 -1.7,1.666667 -2.1,3 l -0.4,2.099998 1.4,3.900002 4.1,3.349998 69.499998,52.250012 m 16.150002,11.25 c -1.26667,3.5 -3.68333,4.96666 -7.25,4.39999 L 105.5,153.35001 15,85.099998 c -3.266667,-2.399999 -4.516667,-4.899999 -3.75,-7.5 0.166667,-1.066665 1,-2.316665 2.5,-3.75 L 106.85,3.85 110.5,3.6 c 1.73333,0.4333333 3.1,2.1 4.1,5"
       id="path848-3"
       sodipodi:nodetypes="cccccccccccccccccccccc" />
    <path
       style="opacity:1;fill:#343434;stroke-width:0"
       d="M 98.349998,138.60001 28.85,86.349998 24.75,83 23.35,79.099998 23.75,77 c 0.4,-1.333333 1.1,-2.333333 2.1,-3 l 70.9,-53.4 c 1.333333,-1.666667 3.28333,-2.366667 5.85,-2.1 2.1,0.166667 3.65,1.75 4.65,4.75 l -1.4472,32.476328 17.0704,2.321024 c 0.20083,10.968693 5.14987,27.743155 7.68248,38.940171 L 105.46317,93.192529 107.25,132.85001 c 0.56667,3.43333 -1.23333,5.68333 -5.4,6.75 l -1.6,-0.10001 -1.900002,-0.89999"
       id="path850-8"
       sodipodi:nodetypes="ccccccccccccccccc" />
  </g>
</svg>
