<?xml version="1.0" encoding="iso-8859-1"?>
<!DOCTYPE svg PUBLIC "-//W3C//DTD SVG 20000303 Stylable//EN"
"http://www.w3.org/TR/2000/03/WD-SVG-20000303/DTD/svg-20000303-stylable.dtd">
<!-- Generator: --> 
<svg width="256pt" height="256pt" viewBox="0 0 256 256">
	<g  id="FRAME_0" style="visibility:visible" fill-rule="evenodd">
		<path style="fill:rgb(93,93,93);opacity:1;stroke-width:0"
		 d="M112.500000,84.599998 L112.250000,84.750000 Q109.750000,86.000000 107.250000,90.599998 L101.500000,94.000000 L96.250000,91.099998 L81.599998,100.250000 L66.250000,91.099998 L125.849998,54.599998 L187.350006,91.000000 L172.500000,100.099998 L162.250000,100.099998 L162.000000,96.250000 L162.000000,95.750000 L161.600006,92.500000 L161.100006,90.000000 L157.100006,89.849998 L151.250000,89.599998 L144.500000,89.849998 L128.000000,87.250000 L122.099998,84.599998 L118.599998,83.750000 L114.599998,82.599998 L112.500000,84.599998 "/>
		<path style="fill:rgb(95,95,95);opacity:1;stroke-width:0"
		 d="M112.500000,84.599998 L114.599998,82.599998 L118.599998,83.750000 L112.500000,84.599998 M157.100006,89.849998 L161.100006,90.000000 L161.600006,92.500000 L157.100006,89.849998 M162.000000,96.250000 L162.250000,100.099998 L162.350006,101.000000 L161.750000,99.849998 L161.600006,97.599998 L162.000000,96.250000 M172.500000,100.099998 L187.350006,91.000000 L248.850006,127.349998 L233.750000,136.600006 L187.750000,109.250000 L174.000000,117.599998 L174.100006,117.849998 L170.750000,119.250000 L172.250000,115.599998 Q171.100006,113.000000 166.350006,110.099998 L164.100006,105.099998 L172.500000,100.099998 M81.599998,100.250000 L84.000000,101.750000 L84.599998,101.599998 L83.000000,105.250000 L81.349998,103.349998 L79.500000,117.000000 L66.349998,109.349998 L21.500000,136.750000 L6.100000,127.599998 L66.250000,91.099998 L81.599998,100.250000 M93.750000,128.350006 L98.099998,131.000000 L94.099998,130.850006 L93.750000,128.750000 L93.750000,128.350006 M136.750000,137.100006 L143.000000,136.100006 L140.500000,138.250000 L136.750000,137.100006 "/>
		<path style="fill:rgb(185,185,185);opacity:1;stroke-width:0"
		 d="M112.500000,84.599998 L118.599998,83.750000 L122.099998,84.599998 L128.000000,87.250000 L144.500000,89.849998 L151.250000,89.599998 L157.100006,89.849998 L161.600006,92.500000 L162.000000,95.750000 L162.000000,96.250000 L161.600006,97.599998 L161.250000,99.250000 L161.750000,99.849998 L162.350006,101.000000 L164.100006,105.099998 L166.350006,110.099998 Q171.100006,113.000000 172.250000,115.599998 L170.750000,119.250000 L167.100006,120.849998 L161.000000,122.349998 L154.500000,126.500000 L147.850006,130.350006 Q145.000000,135.250000 143.000000,136.100006 L136.750000,137.100006 L132.750000,136.100006 L130.100006,135.000000 L127.250000,133.600006 L110.000000,130.850006 L103.599998,131.250000 L98.099998,131.000000 L93.750000,128.350006 L93.349998,127.000000 L93.250000,125.750000 L94.000000,121.599998 L91.500000,116.500000 L89.000000,110.849998 Q83.750000,107.349998 83.000000,105.250000 L84.599998,101.599998 L87.250000,100.349998 L94.500000,98.349998 L101.500000,94.000000 L107.250000,90.599998 Q109.750000,86.000000 112.250000,84.750000 L112.500000,84.599998 M142.100006,101.599998 Q125.500000,93.500000 112.849998,101.750000 L109.000000,103.849998 L106.250000,110.500000 L109.099998,116.849998 L112.750000,118.849998 L112.849998,119.000000 L113.500000,119.349998 L114.099998,119.599998 L114.349998,119.849998 L114.750000,120.000000 L115.000000,120.250000 L115.349998,120.349998 L115.599998,120.599998 L116.250000,121.000000 L116.849998,121.349998 L117.500000,121.599998 L127.849998,123.349998 L137.250000,121.750000 L138.600006,121.599998 L142.600006,119.099998 Q155.600006,109.750000 142.100006,101.599998 "/>
		<path style="fill:rgb(114,114,114);opacity:1;stroke-width:0"
		 d="M161.600006,97.599998 L161.750000,99.849998 L161.250000,99.250000 L161.600006,97.599998 "/>
		<path style="fill:rgb(96,96,96);opacity:1;stroke-width:0"
		 d="M162.250000,100.099998 L172.500000,100.099998 L164.100006,105.099998 L162.350006,101.000000 L162.250000,100.099998 M81.599998,100.250000 L96.250000,91.099998 L101.500000,94.000000 L94.500000,98.349998 L87.250000,100.349998 L84.599998,101.599998 L84.000000,101.750000 L81.599998,100.250000 M141.850006,118.750000 L137.250000,121.750000 L127.849998,123.349998 L117.500000,121.599998 L116.849998,121.349998 L116.250000,121.000000 L115.599998,120.599998 L115.349998,120.349998 L115.000000,120.250000 L114.750000,120.000000 L114.349998,119.849998 L114.099998,119.599998 L113.500000,119.349998 L112.849998,119.000000 L112.750000,118.849998 Q126.849998,110.500000 141.850006,118.750000 "/>
		<path style="fill:rgb(207,207,207);opacity:1;stroke-width:0"
		 d="M142.100006,101.599998 L141.850006,118.750000 Q126.849998,110.500000 112.750000,118.849998 L112.849998,101.750000 Q125.500000,93.500000 142.100006,101.599998 "/>
		<path style="fill:rgb(150,150,150);opacity:1;stroke-width:0"
		 d="M81.349998,103.349998 L83.000000,105.250000 Q83.750000,107.349998 89.000000,110.849998 L91.500000,116.500000 L89.750000,133.100006 L87.500000,128.250000 Q82.849998,125.349998 79.250000,119.849998 L79.500000,117.000000 L81.349998,103.349998 "/>
		<path style="fill:rgb(98,98,98);opacity:1;stroke-width:0"
		 d="M174.000000,117.599998 L187.750000,109.250000 L233.750000,136.600006 L188.850006,164.000000 L155.600006,144.100006 L162.100006,140.000000 L169.250000,138.100006 L175.750000,135.350006 L174.100006,117.849998 L174.000000,117.599998 M141.850006,118.750000 L142.600006,119.099998 L138.600006,121.599998 L137.250000,121.750000 L141.850006,118.750000 M79.250000,119.849998 Q82.849998,125.349998 87.500000,128.250000 L89.750000,133.100006 L92.099998,138.000000 L91.750000,143.500000 L92.250000,144.750000 L92.599998,147.000000 L92.750000,148.750000 L67.599998,164.100006 L21.500000,136.750000 L66.349998,109.349998 L79.500000,117.000000 L79.250000,119.849998 "/>
		<path style="fill:rgb(138,138,138);opacity:1;stroke-width:0"
		 d="M141.850006,118.750000 L142.100006,101.599998 Q155.600006,109.750000 142.600006,119.099998 L141.850006,118.750000 M112.750000,118.849998 L109.099998,116.849998 L106.250000,110.500000 L109.000000,103.849998 L112.849998,101.750000 L112.750000,118.849998 "/>
		<path style="fill:rgb(196,196,196);opacity:1;stroke-width:0"
		 d="M170.750000,119.250000 L174.100006,117.849998 L175.750000,135.350006 L169.250000,138.100006 L162.100006,140.000000 L155.600006,144.100006 L155.250000,144.100006 L154.500000,126.500000 L161.000000,122.349998 L167.100006,120.849998 L170.750000,119.250000 "/>
		<path style="fill:rgb(119,119,119);opacity:1;stroke-width:0"
		 d="M94.000000,121.599998 L93.250000,125.750000 L93.349998,127.000000 L92.099998,138.000000 L89.750000,133.100006 L91.500000,116.500000 L94.000000,121.599998 "/>
		<path style="fill:rgb(99,99,99);opacity:1;stroke-width:0"
		 d="M93.349998,127.000000 L93.750000,128.350006 L93.750000,128.750000 L92.250000,144.750000 L91.750000,143.500000 L92.099998,138.000000 L93.349998,127.000000 "/>
		<path style="fill:rgb(110,110,110);opacity:1;stroke-width:0"
		 d="M93.750000,128.750000 L94.099998,130.850006 L92.599998,147.000000 L92.250000,144.750000 L93.750000,128.750000 "/>
		<path style="fill:rgb(219,219,219);opacity:1;stroke-width:0"
		 d="M94.099998,130.850006 L98.099998,131.000000 L103.599998,131.250000 L110.000000,130.850006 L127.250000,133.600006 L130.100006,135.000000 L127.250000,151.750000 L108.500000,148.750000 L101.250000,149.250000 L92.750000,148.750000 L92.599998,147.000000 L94.099998,130.850006 "/>
		<path style="fill:rgb(166,166,166);opacity:1;stroke-width:0"
		 d="M147.850006,130.350006 L154.500000,126.500000 L155.250000,144.100006 L148.750000,148.100006 Q147.100006,152.250000 140.850006,156.350006 L140.500000,138.250000 L143.000000,136.100006 Q145.000000,135.250000 147.850006,130.350006 "/>
		<path style="fill:rgb(209,209,209);opacity:1;stroke-width:0"
		 d="M132.750000,136.100006 L136.750000,137.100006 L140.500000,138.250000 L140.850006,156.350006 L132.250000,154.000000 L127.250000,151.750000 L130.100006,135.000000 L132.750000,136.100006 "/>
		<path style="fill:rgb(100,100,100);opacity:1;stroke-width:0"
		 d="M155.250000,144.100006 L155.600006,144.100006 L188.850006,164.000000 L173.850006,173.100006 L143.500000,173.100006 L128.350006,182.250000 L97.750000,164.100006 L82.849998,173.250000 L67.599998,164.100006 L92.750000,148.750000 L101.250000,149.250000 L108.500000,148.750000 L127.250000,151.750000 L132.250000,154.000000 L140.850006,156.350006 Q147.100006,152.250000 148.750000,148.100006 L155.250000,144.100006 "/>
		<path style="fill:rgb(103,103,103);opacity:1;stroke-width:0"
		 d="M82.849998,173.250000 L97.750000,164.100006 L128.350006,182.250000 L143.500000,173.100006 L173.850006,173.100006 L128.850006,200.500000 L82.849998,173.250000 "/>
		<path style="stroke:rgb(0,0,0);stroke-width:4.300000;stroke-linecap:round;stroke-linejoin:round;fill:none"
		 d="M114.599998,82.599998 L118.599998,83.750000 L122.099998,84.599998 L128.000000,87.250000 L144.500000,89.849998 L151.250000,89.599998 L157.100006,89.849998 L161.100006,90.000000 L161.600006,92.500000 L162.000000,95.750000 L162.000000,96.250000 L162.250000,100.099998 L162.350006,101.000000 L164.100006,105.099998 L172.500000,100.099998 L187.350006,91.000000 L125.849998,54.599998 L66.250000,91.099998 L81.599998,100.250000 L84.000000,101.750000 L84.599998,101.599998 L87.250000,100.349998 L94.500000,98.349998 L101.500000,94.000000 L107.250000,90.599998 Q109.750000,86.000000 112.250000,84.750000 L112.500000,84.599998 L114.599998,82.599998 		"/>
		<path style="stroke:rgb(0,0,0);stroke-width:4.300000;stroke-linecap:round;stroke-linejoin:round;fill:none"
		 d="M162.000000,96.250000 L161.600006,97.599998 L161.250000,99.250000 L161.750000,99.849998 L162.350006,101.000000 		"/>
		<path style="stroke:rgb(0,0,0);stroke-width:4.300000;stroke-linecap:round;stroke-linejoin:round;fill:none"
		 d="M112.849998,101.750000 L109.000000,103.849998 L106.250000,110.500000 L109.099998,116.849998 L112.750000,118.849998 Q126.849998,110.500000 141.850006,118.750000 L142.600006,119.099998 Q155.600006,109.750000 142.100006,101.599998 Q125.500000,93.500000 112.849998,101.750000 		"/>
		<path style="stroke:rgb(0,0,0);stroke-width:4.300000;stroke-linecap:round;stroke-linejoin:round;fill:none"
		 d="M164.100006,105.099998 L166.350006,110.099998 Q171.100006,113.000000 172.250000,115.599998 L174.000000,117.599998 L174.100006,117.849998 L170.750000,119.250000 L167.100006,120.849998 L161.000000,122.349998 L154.500000,126.500000 L147.850006,130.350006 Q145.000000,135.250000 143.000000,136.100006 L140.500000,138.250000 L136.750000,137.100006 L132.750000,136.100006 L130.100006,135.000000 L127.250000,133.600006 L110.000000,130.850006 L103.599998,131.250000 L98.099998,131.000000 L94.099998,130.850006 L93.750000,128.750000 L93.750000,128.350006 L93.349998,127.000000 L93.250000,125.750000 L94.000000,121.599998 L91.500000,116.500000 L89.000000,110.849998 Q83.750000,107.349998 83.000000,105.250000 L81.349998,103.349998 L81.250000,103.000000 L84.000000,101.750000 		"/>
		<path style="stroke:rgb(0,0,0);stroke-width:4.300000;stroke-linecap:round;stroke-linejoin:round;fill:none"
		 d="M81.349998,103.349998 L79.500000,117.000000 L79.250000,119.849998 Q82.849998,125.349998 87.500000,128.250000 L89.750000,133.100006 L92.099998,138.000000 L93.349998,127.000000 		"/>
		<path style="stroke:rgb(0,0,0);stroke-width:4.300000;stroke-linecap:round;stroke-linejoin:round;fill:none"
		 d="M141.850006,118.750000 L137.250000,121.750000 L127.849998,123.349998 L117.500000,121.599998 L116.849998,121.349998 L116.250000,121.000000 L115.599998,120.599998 L115.349998,120.349998 L115.000000,120.250000 L114.750000,120.000000 L114.349998,119.849998 L114.099998,119.599998 L113.500000,119.349998 L112.849998,119.000000 L112.750000,118.849998 		"/>
		<path style="stroke:rgb(0,0,0);stroke-width:4.300000;stroke-linecap:round;stroke-linejoin:round;fill:none"
		 d="M137.250000,121.750000 L138.600006,121.599998 L142.600006,119.099998 		"/>
		<path style="stroke:rgb(0,0,0);stroke-width:4.300000;stroke-linecap:round;stroke-linejoin:round;fill:none"
		 d="M174.100006,117.849998 L175.750000,135.350006 L169.250000,138.100006 L162.100006,140.000000 L155.600006,144.100006 L188.850006,164.000000 L233.750000,136.600006 L248.850006,127.349998 L187.350006,91.000000 		"/>
		<path style="stroke:rgb(0,0,0);stroke-width:4.300000;stroke-linecap:round;stroke-linejoin:round;fill:none"
		 d="M92.099998,138.000000 L91.750000,143.500000 L92.250000,144.750000 L92.599998,147.000000 L92.750000,148.750000 L67.599998,164.100006 L21.500000,136.750000 L6.100000,127.599998 L66.250000,91.099998 		"/>
		<path style="stroke:rgb(0,0,0);stroke-width:4.300000;stroke-linecap:round;stroke-linejoin:round;fill:none"
		 d="M140.500000,138.250000 L140.850006,156.350006 Q147.100006,152.250000 148.750000,148.100006 L155.250000,144.100006 L155.600006,144.100006 		"/>
		<path style="stroke:rgb(0,0,0);stroke-width:4.300000;stroke-linecap:round;stroke-linejoin:round;fill:none"
		 d="M92.599998,147.000000 L94.099998,130.850006 		"/>
		<path style="stroke:rgb(0,0,0);stroke-width:4.300000;stroke-linecap:round;stroke-linejoin:round;fill:none"
		 d="M140.850006,156.350006 L132.250000,154.000000 L127.250000,151.750000 L108.500000,148.750000 L101.250000,149.250000 L92.750000,148.750000 		"/>
		<path style="stroke:rgb(0,0,0);stroke-width:4.300000;stroke-linecap:round;stroke-linejoin:round;fill:none"
		 d="M188.850006,164.000000 L173.850006,173.100006 L128.850006,200.500000 L82.849998,173.250000 L67.599998,164.100006 		"/>
	</g>
</svg>