<?xml version="1.0" encoding="iso-8859-1"?>
<!DOCTYPE svg PUBLIC "-//W3C//DTD SVG 20000303 Stylable//EN"
"http://www.w3.org/TR/2000/03/WD-SVG-20000303/DTD/svg-20000303-stylable.dtd">
<!-- Generator: --> 
<svg width="256pt" height="256pt" viewBox="0 0 256 256">
	<g  id="FRAME_0" style="visibility:visible" fill-rule="evenodd">
		<path style="fill:rgb(126,126,126);opacity:1;stroke-width:0"
		 d="M92.599998,89.099998 L145.350006,89.099998 L155.600006,89.500000 Q164.600006,89.349998 178.000000,100.500000 Q185.000000,105.849998 190.350006,120.500000 L190.100006,120.750000 L191.000000,124.500000 L191.350006,131.500000 L191.350006,171.850006 L191.250000,177.850006 L190.350006,184.850006 Q185.000000,206.000000 160.500000,215.500000 L156.100006,216.350006 L149.750000,216.750000 L58.500000,217.000000 Q54.500000,228.850006 58.000000,241.100006 L60.599998,241.500000 L148.850006,241.500000 L159.250000,240.750000 L165.500000,239.600006 L171.250000,238.000000 Q207.600006,221.100006 214.350006,190.600006 L216.000000,179.100006 L215.750000,178.600006 L216.100006,169.350006 L216.250000,138.100006 L215.750000,127.500000 L216.000000,126.849998 L215.250000,120.500000 Q213.600006,105.250000 200.350006,88.250000 Q181.500000,68.599998 165.500000,66.250000 L156.500000,64.849998 L148.600006,64.349998 L99.250000,64.349998 L84.599998,74.500000 L83.349998,76.099998 L82.849998,77.500000 Q80.000000,81.849998 92.599998,89.099998 M98.349998,138.600006 L100.250000,139.500000 L101.849998,139.600006 Q108.099998,138.000000 107.250000,132.850006 L107.000000,108.250000 L72.250000,84.000000 Q69.599998,81.849998 69.849998,79.599998 Q69.250000,76.500000 72.500000,73.750000 L107.099998,49.750000 L107.250000,23.250000 Q105.750000,18.750000 102.599998,18.500000 Q98.750000,18.100000 96.750000,20.600000 L25.850000,74.000000 Q24.350000,75.000000 23.750000,77.000000 L23.350000,79.099998 L24.750000,83.000000 L28.850000,86.349998 L98.349998,138.600006 M114.599998,104.750000 L114.500000,149.850006 Q112.599998,155.100006 107.250000,154.250000 L105.500000,153.350006 L15.000000,85.099998 Q10.100000,81.500000 11.250000,77.599998 Q11.500000,76.000000 13.750000,73.849998 L106.849998,3.850000 L110.500000,3.600000 Q113.099998,4.250000 114.599998,8.600000 L114.599998,48.250000 Q114.000000,54.750000 108.750000,57.750000 L149.500000,57.750000 L159.100006,58.500000 L167.750000,60.000000 Q185.600006,63.250000 205.350006,83.849998 Q218.600006,98.849998 221.850006,120.099998 L222.750000,131.250000 L222.750000,174.850006 L221.600006,187.250000 Q213.100006,228.250000 173.600006,244.100006 L166.100006,246.250000 L159.500000,247.350006 L152.750000,248.000000 L53.099998,248.100006 L51.000000,247.500000 Q49.000000,246.350006 47.849998,240.100006 L47.000000,228.100006 L48.000000,216.850006 Q49.099998,211.750000 51.250000,210.500000 L54.099998,210.000000 L152.750000,210.000000 L158.600006,209.100006 Q179.250000,200.750000 183.750000,183.750000 L184.500000,177.850006 L184.600006,168.000000 L184.600006,132.500000 L184.100006,124.099998 Q181.100006,112.250000 174.600006,106.599998 Q164.500000,97.000000 155.250000,96.099998 L102.250000,95.849998 L114.599998,104.750000 "/>
		<path style="fill:rgb(52,52,52);opacity:1;stroke-width:0"
		 d="M92.599998,89.099998 Q80.000000,81.849998 82.849998,77.500000 L83.349998,76.099998 L84.599998,74.500000 L99.250000,64.349998 L148.600006,64.349998 L156.500000,64.849998 L165.500000,66.250000 Q181.500000,68.599998 200.350006,88.250000 Q213.600006,105.250000 215.250000,120.500000 L216.000000,126.849998 L215.750000,127.500000 L216.250000,138.100006 L216.100006,169.350006 L215.750000,178.600006 L216.000000,179.100006 L214.350006,190.600006 Q207.600006,221.100006 171.250000,238.000000 L165.500000,239.600006 L159.250000,240.750000 L148.850006,241.500000 L60.599998,241.500000 L58.000000,241.100006 Q54.500000,228.850006 58.500000,217.000000 L149.750000,216.750000 L156.100006,216.350006 L160.500000,215.500000 Q185.000000,206.000000 190.350006,184.850006 L191.250000,177.850006 L191.350006,171.850006 L191.350006,131.500000 L191.000000,124.500000 L190.100006,120.750000 L190.350006,120.500000 Q185.000000,105.849998 178.000000,100.500000 Q164.600006,89.349998 155.600006,89.500000 L145.350006,89.099998 L92.599998,89.099998 M98.349998,138.600006 L28.850000,86.349998 L24.750000,83.000000 L23.350000,79.099998 L23.750000,77.000000 Q24.350000,75.000000 25.850000,74.000000 L96.750000,20.600000 Q98.750000,18.100000 102.599998,18.500000 Q105.750000,18.750000 107.250000,23.250000 L107.099998,49.750000 L72.500000,73.750000 Q69.250000,76.500000 69.849998,79.599998 Q69.599998,81.849998 72.250000,84.000000 L107.000000,108.250000 L107.250000,132.850006 Q108.099998,138.000000 101.849998,139.600006 L100.250000,139.500000 L98.349998,138.600006 "/>
	</g>
</svg>