<?xml version="1.0" encoding="iso-8859-1"?>
<!DOCTYPE svg PUBLIC "-//W3C//DTD SVG 20000303 Stylable//EN"
"http://www.w3.org/TR/2000/03/WD-SVG-20000303/DTD/svg-20000303-stylable.dtd">
<!-- Generator: --> 
<svg width="256pt" height="256pt" viewBox="0 0 256 256">
	<g  id="FRAME_0" style="visibility:visible" fill-rule="evenodd">
		<path style="fill:rgb(89,89,89);opacity:1;stroke-width:0"
		 d="M138.100006,65.250000 L172.350006,65.250000 L172.350006,72.099998 L138.100006,72.099998 L131.750000,72.500000 L128.500000,73.849998 L127.599998,76.099998 L127.500000,78.849998 L127.599998,122.500000 L172.350006,122.500000 L172.350006,132.600006 L127.599998,132.600006 L127.500000,176.250000 Q125.349998,183.500000 138.100006,183.000000 L172.350006,183.000000 L172.350006,189.850006 L138.100006,189.850006 Q120.849998,191.350006 120.599998,176.250000 L120.599998,132.600006 L82.750000,132.600006 L82.750000,122.500000 L120.599998,122.500000 L120.599998,78.849998 Q119.349998,64.849998 138.100006,65.250000 "/>
		<path style="fill:rgb(140,140,140);opacity:1;stroke-width:0"
		 d="M172.350006,65.250000 L172.500000,53.500000 Q173.250000,50.500000 176.500000,49.849998 L235.500000,49.849998 Q240.250000,50.250000 240.500000,54.000000 L240.500000,83.349998 Q239.850006,86.349998 237.100006,87.349998 L176.100006,87.349998 Q170.500000,87.099998 172.350006,72.099998 L172.350006,65.250000 M82.750000,122.500000 L82.750000,132.600006 L82.599998,143.600006 Q82.000000,146.000000 79.349998,146.850006 L19.350000,147.000000 Q16.000000,147.350006 14.600000,142.600006 L14.600000,114.500000 Q14.000000,111.849998 17.850000,109.599998 L79.000000,109.500000 Q84.000000,109.349998 82.750000,122.500000 M172.350006,122.500000 L172.500000,113.250000 Q173.000000,110.349998 175.850006,109.500000 L235.350006,109.349998 Q238.250000,108.500000 240.500000,113.500000 L240.500000,142.600006 Q240.500000,145.250000 237.500000,146.750000 L175.750000,146.850006 Q170.750000,146.500000 172.350006,132.600006 L172.350006,122.500000 M172.350006,183.000000 L172.500000,172.750000 Q173.600006,169.500000 175.750000,169.100006 L236.350006,169.000000 Q239.750000,169.350006 240.500000,173.100006 L240.500000,202.000000 Q240.850006,204.500000 237.250000,206.350006 L176.000000,206.500000 Q170.350006,205.850006 172.350006,189.850006 L172.350006,183.000000 "/>
		<path style="stroke:rgb(25,25,25);stroke-width:1.450000;stroke-linecap:round;stroke-linejoin:round;fill:none"
		 d="M172.350006,72.099998 Q170.500000,87.099998 176.100006,87.349998 L237.100006,87.349998 Q239.850006,86.349998 240.500000,83.349998 L240.500000,54.000000 Q240.250000,50.250000 235.500000,49.849998 L176.500000,49.849998 Q173.250000,50.500000 172.500000,53.500000 L172.350006,65.250000 L172.350006,72.099998 L138.100006,72.099998 L138.100006,65.250000 L172.350006,65.250000 		"/>
		<path style="stroke:rgb(25,25,25);stroke-width:1.450000;stroke-linecap:round;stroke-linejoin:round;fill:none"
		 d="M138.100006,65.250000 Q119.349998,64.849998 120.599998,78.849998 L127.500000,78.849998 L127.599998,76.099998 L128.500000,73.849998 L131.750000,72.500000 L138.100006,72.099998 		"/>
		<path style="stroke:rgb(25,25,25);stroke-width:1.450000;stroke-linecap:round;stroke-linejoin:round;fill:none"
		 d="M127.500000,78.849998 L127.599998,122.500000 L172.350006,122.500000 L172.350006,132.600006 L127.599998,132.600006 L120.599998,132.600006 L82.750000,132.600006 L82.750000,122.500000 L120.599998,122.500000 L120.599998,78.849998 		"/>
		<path style="stroke:rgb(25,25,25);stroke-width:1.450000;stroke-linecap:round;stroke-linejoin:round;fill:none"
		 d="M120.599998,122.500000 L127.599998,122.500000 		"/>
		<path style="stroke:rgb(25,25,25);stroke-width:1.450000;stroke-linecap:round;stroke-linejoin:round;fill:none"
		 d="M82.750000,132.600006 L82.599998,143.600006 Q82.000000,146.000000 79.349998,146.850006 L19.350000,147.000000 Q16.000000,147.350006 14.600000,142.600006 L14.600000,114.500000 Q14.000000,111.849998 17.850000,109.599998 L79.000000,109.500000 Q84.000000,109.349998 82.750000,122.500000 		"/>
		<path style="stroke:rgb(25,25,25);stroke-width:1.450000;stroke-linecap:round;stroke-linejoin:round;fill:none"
		 d="M172.350006,132.600006 Q170.750000,146.500000 175.750000,146.850006 L237.500000,146.750000 Q240.500000,145.250000 240.500000,142.600006 L240.500000,113.500000 Q238.250000,108.500000 235.350006,109.349998 L175.850006,109.500000 Q173.000000,110.349998 172.500000,113.250000 L172.350006,122.500000 		"/>
		<path style="stroke:rgb(25,25,25);stroke-width:1.450000;stroke-linecap:round;stroke-linejoin:round;fill:none"
		 d="M127.599998,132.600006 L127.500000,176.250000 L120.599998,176.250000 L120.599998,132.600006 		"/>
		<path style="stroke:rgb(25,25,25);stroke-width:1.450000;stroke-linecap:round;stroke-linejoin:round;fill:none"
		 d="M127.500000,176.250000 Q125.349998,183.500000 138.100006,183.000000 L172.350006,183.000000 L172.350006,189.850006 L138.100006,189.850006 L138.100006,183.000000 		"/>
		<path style="stroke:rgb(25,25,25);stroke-width:1.450000;stroke-linecap:round;stroke-linejoin:round;fill:none"
		 d="M120.599998,176.250000 Q120.849998,191.350006 138.100006,189.850006 		"/>
		<path style="stroke:rgb(25,25,25);stroke-width:1.450000;stroke-linecap:round;stroke-linejoin:round;fill:none"
		 d="M172.350006,183.000000 L172.500000,172.750000 Q173.600006,169.500000 175.750000,169.100006 L236.350006,169.000000 Q239.750000,169.350006 240.500000,173.100006 L240.500000,202.000000 Q240.850006,204.500000 237.250000,206.350006 L176.000000,206.500000 Q170.350006,205.850006 172.350006,189.850006 		"/>
	</g>
</svg>