<?xml version="1.0" encoding="iso-8859-1"?>
<!DOCTYPE svg PUBLIC "-//W3C//DTD SVG 20000303 Stylable//EN"
"http://www.w3.org/TR/2000/03/WD-SVG-20000303/DTD/svg-20000303-stylable.dtd">
<!-- Generator: --> 
<svg width="256pt" height="256pt" viewBox="0 0 256 256">
	<g  id="FRAME_0" style="visibility:visible" fill-rule="evenodd">
		<path style="fill:rgb(89,89,89);opacity:1;stroke-width:0"
		 d="M39.349998,25.100000 L25.500000,25.000000 L32.349998,15.250000 L39.349998,25.100000 M123.750000,138.100006 L109.500000,138.100006 L134.850006,101.849998 L135.350006,102.099998 L160.350006,137.750000 L160.500000,138.100006 L146.250000,138.100006 L163.000000,162.100006 L145.100006,162.100006 L169.100006,196.500000 L139.350006,196.500000 L139.350006,215.850006 L131.100006,215.850006 L131.100006,196.500000 L100.849998,196.500000 L125.000000,162.100006 L107.000000,162.100006 L123.750000,138.100006 M65.500000,191.350006 L54.099998,191.350006 L54.099998,148.850006 L85.000000,148.850006 L85.000000,191.350006 L73.599998,191.350006 L73.599998,215.850006 L65.500000,215.850006 L65.500000,191.350006 M182.600006,148.250000 L183.100006,137.600006 L185.100006,122.750000 L196.350006,67.750000 L201.100006,48.750000 Q204.350006,39.000000 206.850006,39.250000 Q210.750000,39.500000 215.000000,56.599998 L227.850006,117.849998 L230.500000,134.600006 L231.250000,147.350006 L230.600006,161.000000 L229.000000,170.350006 L226.600006,178.350006 Q222.350006,192.500000 210.600006,196.600006 L210.600006,215.750000 L204.250000,215.850006 L202.500000,215.850006 L202.500000,196.350006 Q183.100006,187.350006 182.600006,148.250000 M236.750000,225.750000 L236.500000,211.750000 L246.500000,218.600006 L236.750000,225.750000 M209.750000,241.250000 L17.350000,241.250000 L17.350000,54.349998 L27.100000,32.849998 L37.599998,32.750000 L37.599998,221.100006 L231.100006,221.100006 L231.500000,221.100006 L231.500000,231.350006 L209.750000,241.250000 "/>
		<path style="fill:rgb(140,140,140);opacity:1;stroke-width:0"
		 d="M78.099998,70.750000 L78.099998,26.100000 L91.750000,26.100000 L91.750000,70.750000 L112.099998,70.750000 L85.000000,109.500000 L57.750000,70.849998 L78.099998,70.750000 "/>
	</g>
</svg>