<?xml version="1.0" encoding="iso-8859-1"?>
<!DOCTYPE svg PUBLIC "-//W3C//DTD SVG 20000303 Stylable//EN"
"http://www.w3.org/TR/2000/03/WD-SVG-20000303/DTD/svg-20000303-stylable.dtd">
<!-- Generator: --> 
<svg width="256pt" height="256pt" viewBox="0 0 256 256">
	<g  id="FRAME_0" style="visibility:visible" fill-rule="evenodd">
		<path style="fill:rgb(93,93,93);opacity:1;stroke-width:0"
		 d="M116.099998,64.500000 Q114.599998,64.849998 112.500000,68.599998 L104.099998,73.750000 L98.849998,75.250000 L96.750000,76.250000 L94.250000,77.250000 L94.349998,77.599998 L92.849998,85.599998 Q95.099998,89.349998 98.750000,91.500000 L99.250000,92.750000 L96.250000,91.099998 L81.599998,100.250000 L66.250000,91.099998 L125.599998,54.750000 L126.250000,54.599998 L148.850006,68.099998 L147.500000,68.000000 L139.600006,68.250000 L127.099998,66.250000 L123.000000,64.349998 L120.349998,63.750000 L117.599998,63.000000 L116.099998,64.500000 M150.600006,69.099998 L187.350006,91.000000 L172.500000,100.099998 L150.750000,100.099998 L156.500000,98.349998 L160.750000,96.500000 L159.500000,87.750000 L158.100006,86.099998 Q157.350006,84.099998 154.100006,82.349998 L151.350006,76.000000 L151.000000,72.750000 L151.000000,72.500000 L150.850006,72.250000 L150.750000,70.000000 L150.600006,69.099998 M116.349998,84.849998 Q126.000000,79.099998 137.000000,84.849998 L139.850006,86.750000 Q128.600006,96.250000 113.750000,86.500000 L116.349998,84.849998 "/>
		<path style="fill:rgb(95,95,95);opacity:1;stroke-width:0"
		 d="M116.099998,64.500000 L117.599998,63.000000 L120.349998,63.750000 L116.099998,64.500000 M147.500000,68.000000 L148.850006,68.099998 L150.250000,68.099998 L150.600006,69.099998 L150.750000,70.000000 L147.500000,68.000000 M94.349998,77.599998 L94.250000,77.250000 L96.750000,76.250000 L95.500000,78.849998 L94.349998,77.599998 M158.100006,86.099998 L159.500000,87.750000 L157.000000,88.750000 L158.100006,86.099998 M103.000000,95.099998 L106.250000,97.000000 L103.349998,96.849998 L103.099998,95.750000 L103.000000,95.099998 M172.500000,100.099998 L187.350006,91.000000 L248.850006,127.349998 L233.750000,136.600006 L217.600006,127.000000 L217.600006,123.250000 L212.100006,125.750000 L214.850006,119.349998 L212.000000,115.349998 L210.100006,115.099998 Q203.600006,115.599998 195.500000,109.349998 L193.000000,104.099998 L186.500000,102.500000 L175.850006,104.250000 L171.600006,107.599998 L171.750000,108.250000 L171.500000,116.750000 L172.000000,117.099998 L171.000000,119.500000 L165.100006,123.099998 L157.600006,127.500000 L142.500000,118.500000 L172.500000,100.099998 M81.599998,100.250000 L112.099998,118.349998 L97.099998,127.599998 L87.500000,121.849998 Q78.599998,103.599998 64.599998,106.250000 Q47.500000,111.250000 46.250000,121.750000 L21.500000,136.750000 L6.100000,127.599998 L66.250000,91.099998 L81.599998,100.250000 M133.250000,101.250000 L137.500000,100.599998 L135.850006,102.000000 L133.250000,101.250000 M167.000000,131.500000 L166.000000,127.250000 L174.000000,132.000000 L167.000000,131.500000 M118.500000,137.500000 L119.500000,135.750000 L122.099998,137.000000 L118.500000,137.500000 M157.350006,157.850006 L159.500000,159.250000 L159.350006,159.500000 L156.500000,160.000000 L157.350006,157.850006 M106.349998,166.100006 L108.849998,167.750000 L105.750000,168.100006 L106.349998,166.100006 "/>
		<path style="fill:rgb(183,183,183);opacity:1;stroke-width:0"
		 d="M116.099998,64.500000 L120.349998,63.750000 L123.000000,64.349998 L127.099998,66.250000 L139.600006,68.250000 L147.500000,68.000000 L150.750000,70.000000 L150.850006,72.250000 L151.000000,72.500000 L151.000000,72.750000 L150.750000,73.599998 L150.500000,74.599998 L151.000000,75.500000 L151.350006,76.000000 L154.100006,82.349998 Q157.350006,84.099998 158.100006,86.099998 L157.000000,88.750000 L154.500000,89.849998 L150.250000,90.849998 L145.750000,93.750000 L141.000000,96.500000 Q139.000000,100.099998 137.500000,100.599998 L133.250000,101.250000 L130.500000,100.599998 L128.600006,99.750000 L126.500000,98.750000 L114.750000,96.849998 L106.250000,97.000000 L103.000000,95.099998 L102.750000,94.349998 L103.250000,90.349998 L101.500000,86.849998 L99.599998,82.750000 Q95.849998,80.349998 95.500000,78.849998 L96.750000,76.250000 L98.849998,75.250000 L104.099998,73.750000 L112.500000,68.599998 Q114.599998,64.849998 116.099998,64.500000 M116.500000,76.349998 Q113.250000,76.349998 111.849998,82.349998 L113.750000,86.500000 Q128.600006,96.250000 139.850006,86.750000 L141.850006,82.500000 L141.750000,82.099998 L139.750000,77.849998 L137.000000,76.349998 Q125.500000,70.599998 116.500000,76.349998 "/>
		<path style="fill:rgb(98,98,98);opacity:1;stroke-width:0"
		 d="M151.000000,72.750000 L151.350006,76.000000 L151.000000,75.500000 L150.750000,73.599998 L151.000000,72.750000 M191.250000,120.000000 L195.750000,122.599998 L197.500000,123.599998 L197.000000,124.099998 L185.000000,126.000000 L178.850006,122.250000 L179.000000,122.000000 L191.250000,120.000000 M165.100006,123.099998 L165.250000,124.349998 L165.000000,132.000000 L166.750000,138.600006 L167.000000,140.500000 L181.000000,141.350006 L187.250000,137.600006 L197.850006,136.000000 L206.250000,137.250000 L217.600006,132.250000 L217.600006,127.000000 L233.750000,136.600006 L188.850006,164.000000 L127.599998,127.599998 L67.599998,164.100006 L21.500000,136.750000 L46.250000,121.750000 L45.599998,125.599998 L45.849998,130.000000 L47.349998,132.250000 L47.750000,133.500000 L52.000000,136.850006 L54.500000,137.850006 Q74.250000,142.850006 79.500000,137.850006 Q91.250000,132.600006 87.500000,121.849998 L97.099998,127.599998 L112.099998,118.349998 L127.599998,127.599998 L142.500000,118.500000 L157.600006,127.500000 L165.100006,123.099998 "/>
		<path style="fill:rgb(111,111,111);opacity:1;stroke-width:0"
		 d="M150.750000,73.599998 L151.000000,75.500000 L150.500000,74.599998 L150.750000,73.599998 "/>
		<path style="fill:rgb(209,209,209);opacity:1;stroke-width:0"
		 d="M116.500000,76.349998 Q125.500000,70.599998 137.000000,76.349998 L137.000000,84.849998 Q126.000000,79.099998 116.349998,84.849998 L116.500000,76.349998 "/>
		<path style="fill:rgb(155,155,155);opacity:1;stroke-width:0"
		 d="M94.349998,77.599998 L95.500000,78.849998 Q95.849998,80.349998 99.599998,82.750000 L101.500000,86.849998 L100.349998,94.849998 L99.250000,92.750000 L98.750000,91.500000 Q95.099998,89.349998 92.849998,85.599998 L94.349998,77.599998 "/>
		<path style="fill:rgb(138,138,138);opacity:1;stroke-width:0"
		 d="M116.500000,76.349998 L116.349998,84.849998 L113.750000,86.500000 L111.849998,82.349998 Q113.250000,76.349998 116.500000,76.349998 M137.000000,76.349998 L139.750000,77.849998 L141.750000,82.099998 L141.850006,82.500000 L139.850006,86.750000 L137.000000,84.849998 L137.000000,76.349998 "/>
		<path style="fill:rgb(201,201,201);opacity:1;stroke-width:0"
		 d="M159.500000,87.750000 L160.750000,96.500000 L156.500000,98.349998 L150.750000,100.099998 L146.100006,102.849998 L145.750000,93.750000 L150.250000,90.849998 L154.500000,89.849998 L157.000000,88.750000 L159.500000,87.750000 "/>
		<path style="fill:rgb(122,122,122);opacity:1;stroke-width:0"
		 d="M103.250000,90.349998 L102.750000,94.349998 L102.000000,98.349998 L100.250000,95.250000 L100.349998,94.849998 L101.500000,86.849998 L103.250000,90.349998 "/>
		<path style="fill:rgb(96,96,96);opacity:1;stroke-width:0"
		 d="M99.250000,92.750000 L100.349998,94.849998 L100.250000,95.250000 L102.000000,98.349998 L101.750000,102.349998 L102.000000,103.099998 L102.349998,104.599998 L102.250000,106.000000 L110.000000,106.250000 L114.250000,106.000000 L126.599998,108.000000 L131.500000,110.099998 L136.100006,111.250000 Q140.350006,108.500000 141.500000,105.750000 L146.100006,102.849998 L150.750000,100.099998 L172.500000,100.099998 L142.500000,118.500000 L127.599998,127.599998 L112.099998,118.349998 L81.599998,100.250000 L96.250000,91.099998 L99.250000,92.750000 "/>
		<path style="fill:rgb(102,102,102);opacity:1;stroke-width:0"
		 d="M102.750000,94.349998 L103.000000,95.099998 L103.099998,95.750000 L102.000000,103.099998 L101.750000,102.349998 L102.000000,98.349998 L102.750000,94.349998 "/>
		<path style="fill:rgb(114,114,114);opacity:1;stroke-width:0"
		 d="M103.349998,96.849998 L102.349998,104.599998 L102.000000,103.099998 L103.099998,95.750000 L103.349998,96.849998 "/>
		<path style="fill:rgb(225,225,225);opacity:1;stroke-width:0"
		 d="M103.349998,96.849998 L106.250000,97.000000 L114.750000,96.849998 L126.500000,98.750000 L128.600006,99.750000 L126.599998,108.000000 L114.250000,106.000000 L110.000000,106.250000 L102.250000,106.000000 L102.349998,104.599998 L103.349998,96.849998 "/>
		<path style="fill:rgb(170,170,170);opacity:1;stroke-width:0"
		 d="M141.000000,96.500000 L145.750000,93.750000 L146.100006,102.849998 L141.500000,105.750000 Q140.350006,108.500000 136.100006,111.250000 L135.850006,102.000000 L137.500000,100.599998 Q139.000000,100.099998 141.000000,96.500000 "/>
		<path style="fill:rgb(214,214,214);opacity:1;stroke-width:0"
		 d="M130.500000,100.599998 L133.250000,101.250000 L135.850006,102.000000 L136.100006,111.250000 L131.500000,110.099998 L126.599998,108.000000 L128.600006,99.750000 L130.500000,100.599998 "/>
		<path style="fill:rgb(186,186,186);opacity:1;stroke-width:0"
		 d="M175.850006,104.250000 L186.500000,102.500000 L193.000000,104.099998 L195.500000,109.349998 Q203.600006,115.599998 210.100006,115.099998 L212.000000,115.349998 L214.850006,119.349998 L212.100006,125.750000 L211.850006,125.849998 L206.350006,132.850006 L206.250000,128.350006 L198.000000,127.000000 L192.500000,127.849998 L187.100006,128.850006 L180.850006,132.500000 L174.000000,132.000000 L166.000000,127.250000 L165.250000,124.349998 L165.100006,123.099998 L171.000000,119.500000 L172.000000,117.099998 L174.000000,112.750000 L171.750000,108.250000 L171.600006,107.599998 L175.850006,104.250000 M179.000000,113.599998 L175.850006,120.599998 L178.850006,122.250000 L185.000000,126.000000 L197.000000,124.099998 L197.500000,123.599998 L200.500000,116.500000 L191.600006,111.349998 L190.600006,111.099998 L189.100006,111.349998 L179.100006,113.000000 L179.000000,113.599998 "/>
		<path style="fill:rgb(212,212,212);opacity:1;stroke-width:0"
		 d="M179.000000,113.599998 L179.100006,113.000000 L189.100006,111.349998 L190.600006,111.099998 L191.600006,111.349998 L191.500000,115.750000 L179.000000,117.500000 L179.000000,113.599998 "/>
		<path style="fill:rgb(189,189,189);opacity:1;stroke-width:0"
		 d="M191.600006,111.349998 L200.500000,116.500000 L197.500000,123.599998 L195.750000,122.599998 L191.500000,115.750000 L191.600006,111.349998 M118.500000,137.500000 L122.099998,137.000000 L130.000000,140.850006 L149.000000,152.100006 L157.350006,157.850006 L156.500000,160.000000 L147.100006,162.100006 L133.000000,164.350006 L118.599998,166.750000 L108.849998,167.750000 L106.349998,166.100006 L107.849998,160.350006 L115.000000,143.600006 L118.500000,137.500000 M125.099998,153.250000 L124.250000,155.100006 L125.099998,155.500000 L127.250000,156.850006 L129.350006,156.500000 Q131.850006,157.350006 132.350006,153.600006 L129.350006,152.000000 L125.250000,152.500000 L125.099998,153.250000 "/>
		<path style="fill:rgb(134,134,134);opacity:1;stroke-width:0"
		 d="M172.000000,117.099998 L171.500000,116.750000 L171.750000,108.250000 L174.000000,112.750000 L172.000000,117.099998 "/>
		<path style="fill:rgb(119,119,119);opacity:1;stroke-width:0"
		 d="M179.000000,113.599998 L179.000000,117.500000 L179.000000,122.000000 L178.850006,122.250000 L175.850006,120.599998 L179.000000,113.599998 "/>
		<path style="fill:rgb(211,211,211);opacity:1;stroke-width:0"
		 d="M191.500000,115.750000 L191.250000,120.000000 L179.000000,122.000000 L179.000000,117.500000 L191.500000,115.750000 M187.100006,128.850006 L192.500000,127.849998 L187.250000,133.100006 L187.100006,128.850006 M125.099998,153.250000 L125.250000,152.500000 L129.350006,152.000000 L129.350006,156.500000 L127.250000,156.850006 L125.099998,155.500000 L125.099998,153.250000 M108.849998,167.750000 L118.599998,166.750000 L133.000000,164.350006 L132.750000,174.000000 L118.599998,176.350006 L105.599998,177.600006 L105.750000,168.750000 L105.750000,168.100006 L108.849998,167.750000 "/>
		<path style="fill:rgb(188,188,188);opacity:1;stroke-width:0"
		 d="M191.250000,120.000000 L191.500000,115.750000 L195.750000,122.599998 L191.250000,120.000000 "/>
		<path style="fill:rgb(143,143,143);opacity:1;stroke-width:0"
		 d="M46.250000,121.750000 Q47.500000,111.250000 64.599998,106.250000 Q78.599998,103.599998 87.500000,121.849998 Q91.250000,132.600006 79.500000,137.850006 L79.500000,136.350006 Q82.500000,135.600006 84.000000,133.750000 L83.500000,129.750000 L82.849998,127.849998 L84.849998,126.250000 L85.500000,124.500000 L85.250000,123.849998 L82.250000,119.250000 Q76.599998,113.349998 74.849998,113.349998 L75.099998,111.599998 L71.099998,110.750000 L68.750000,110.750000 Q55.250000,112.849998 50.599998,120.849998 L50.750000,123.849998 L51.750000,126.849998 L50.500000,130.250000 L50.099998,132.500000 L51.849998,135.350006 L54.500000,137.850006 L52.000000,136.850006 L47.750000,133.500000 L47.349998,132.250000 L45.849998,130.000000 L45.599998,125.599998 L46.250000,121.750000 "/>
		<path style="fill:rgb(185,185,185);opacity:1;stroke-width:0"
		 d="M217.600006,123.250000 L217.600006,127.000000 L217.600006,132.250000 L206.250000,137.250000 L206.350006,132.850006 L211.850006,125.849998 L212.100006,125.750000 L217.600006,123.250000 "/>
		<path style="fill:rgb(116,116,116);opacity:1;stroke-width:0"
		 d="M165.250000,124.349998 L166.000000,127.250000 L167.000000,131.500000 L166.850006,136.000000 L166.750000,138.600006 L165.000000,132.000000 L165.250000,124.349998 "/>
		<path style="fill:rgb(210,210,210);opacity:1;stroke-width:0"
		 d="M198.000000,127.000000 L198.000000,131.500000 L197.850006,136.000000 L187.250000,137.600006 L187.250000,133.100006 L192.500000,127.849998 L198.000000,127.000000 "/>
		<path style="fill:rgb(216,216,216);opacity:1;stroke-width:0"
		 d="M198.000000,127.000000 L206.250000,128.350006 L206.350006,132.850006 L198.000000,131.500000 L198.000000,127.000000 M166.850006,136.000000 L181.000000,137.000000 L181.000000,141.350006 L167.000000,140.500000 L166.750000,138.600006 L166.850006,136.000000 M54.500000,137.850006 L51.849998,135.350006 L50.099998,132.500000 L50.500000,130.250000 L51.750000,126.849998 L50.750000,123.849998 L50.599998,120.849998 Q55.250000,112.849998 68.750000,110.750000 L71.099998,110.750000 L75.099998,111.599998 L74.849998,113.349998 Q76.599998,113.349998 82.250000,119.250000 L85.250000,123.849998 L85.500000,124.500000 L84.849998,126.250000 L82.849998,127.849998 L83.500000,129.750000 L84.000000,133.750000 Q82.500000,135.600006 79.500000,136.350006 L79.500000,137.850006 Q74.250000,142.850006 54.500000,137.850006 "/>
		<path style="fill:rgb(217,217,217);opacity:1;stroke-width:0"
		 d="M167.000000,131.500000 L174.000000,132.000000 L180.850006,132.500000 L181.000000,137.000000 L166.850006,136.000000 L167.000000,131.500000 "/>
		<path style="fill:rgb(175,175,175);opacity:1;stroke-width:0"
		 d="M187.100006,128.850006 L187.250000,133.100006 L187.250000,137.600006 L181.000000,141.350006 L181.000000,137.000000 L180.850006,132.500000 L187.100006,128.850006 "/>
		<path style="fill:rgb(215,215,215);opacity:1;stroke-width:0"
		 d="M198.000000,131.500000 L206.350006,132.850006 L206.250000,137.250000 L197.850006,136.000000 L198.000000,131.500000 "/>
		<path style="fill:rgb(100,100,100);opacity:1;stroke-width:0"
		 d="M118.500000,137.500000 L115.000000,143.600006 L107.849998,160.350006 L106.349998,166.100006 L105.750000,168.100006 L105.750000,168.750000 L97.750000,164.100006 L82.849998,173.250000 L67.599998,164.100006 L127.599998,127.599998 L188.850006,164.000000 L173.850006,173.100006 L143.500000,173.100006 L128.500000,182.250000 L118.599998,176.350006 L132.750000,174.000000 L147.100006,171.750000 L159.100006,169.100006 L159.500000,169.000000 L159.350006,159.500000 L159.500000,159.250000 L157.350006,157.850006 L149.000000,152.100006 L130.000000,140.850006 L122.099998,137.000000 L119.500000,135.750000 L118.500000,137.500000 "/>
		<path style="fill:rgb(124,124,124);opacity:1;stroke-width:0"
		 d="M125.099998,155.500000 L124.250000,155.100006 L125.099998,153.250000 L125.099998,155.500000 "/>
		<path style="fill:rgb(182,182,182);opacity:1;stroke-width:0"
		 d="M129.350006,152.000000 L132.350006,153.600006 Q131.850006,157.350006 129.350006,156.500000 L129.350006,152.000000 "/>
		<path style="fill:rgb(206,206,206);opacity:1;stroke-width:0"
		 d="M159.350006,159.500000 L159.500000,169.000000 L159.100006,169.100006 L147.100006,171.750000 L132.750000,174.000000 L133.000000,164.350006 L147.100006,162.100006 L156.500000,160.000000 L159.350006,159.500000 "/>
		<path style="fill:rgb(103,103,103);opacity:1;stroke-width:0"
		 d="M82.849998,173.250000 L97.750000,164.100006 L105.750000,168.750000 L105.599998,177.600006 L118.599998,176.350006 L128.500000,182.250000 L143.500000,173.100006 L173.850006,173.100006 L128.850006,200.500000 L82.849998,173.250000 "/>
		<path style="stroke:rgb(0,0,0);stroke-width:4.300000;stroke-linecap:round;stroke-linejoin:round;fill:none"
		 d="M117.599998,63.000000 L120.349998,63.750000 L123.000000,64.349998 L127.099998,66.250000 L139.600006,68.250000 L147.500000,68.000000 L148.850006,68.099998 L150.250000,68.099998 L150.600006,69.099998 L150.750000,70.000000 L150.850006,72.250000 L151.000000,72.500000 L151.000000,72.750000 L151.350006,76.000000 L154.100006,82.349998 Q157.350006,84.099998 158.100006,86.099998 L159.500000,87.750000 L157.000000,88.750000 L154.500000,89.849998 L150.250000,90.849998 L145.750000,93.750000 L141.000000,96.500000 Q139.000000,100.099998 137.500000,100.599998 L135.850006,102.000000 L133.250000,101.250000 L130.500000,100.599998 L128.600006,99.750000 L126.500000,98.750000 L114.750000,96.849998 L106.250000,97.000000 L103.349998,96.849998 L103.099998,95.750000 L103.000000,95.099998 L102.750000,94.349998 L103.250000,90.349998 L101.500000,86.849998 L99.599998,82.750000 Q95.849998,80.349998 95.500000,78.849998 L94.349998,77.599998 L94.250000,77.250000 L96.750000,76.250000 L98.849998,75.250000 L104.099998,73.750000 L112.500000,68.599998 Q114.599998,64.849998 116.099998,64.500000 L117.599998,63.000000 		"/>
		<path style="stroke:rgb(0,0,0);stroke-width:4.300000;stroke-linecap:round;stroke-linejoin:round;fill:none"
		 d="M151.000000,72.750000 L150.750000,73.599998 L150.500000,74.599998 L151.000000,75.500000 L151.350006,76.000000 		"/>
		<path style="stroke:rgb(0,0,0);stroke-width:4.300000;stroke-linecap:round;stroke-linejoin:round;fill:none"
		 d="M137.000000,76.349998 L139.750000,77.849998 L141.750000,82.099998 L141.850006,82.500000 L139.850006,86.750000 L137.000000,84.849998 Q126.000000,79.099998 116.349998,84.849998 L113.750000,86.500000 L111.849998,82.349998 Q113.250000,76.349998 116.500000,76.349998 Q125.500000,70.599998 137.000000,76.349998 		"/>
		<path style="stroke:rgb(0,0,0);stroke-width:4.300000;stroke-linecap:round;stroke-linejoin:round;fill:none"
		 d="M148.850006,68.099998 L126.250000,54.599998 L125.599998,54.750000 L66.250000,91.099998 L81.599998,100.250000 L112.099998,118.349998 L127.599998,127.599998 L142.500000,118.500000 L172.500000,100.099998 L187.350006,91.000000 L150.600006,69.099998 		"/>
		<path style="stroke:rgb(0,0,0);stroke-width:4.300000;stroke-linecap:round;stroke-linejoin:round;fill:none"
		 d="M113.750000,86.500000 Q128.600006,96.250000 139.850006,86.750000 		"/>
		<path style="stroke:rgb(0,0,0);stroke-width:4.300000;stroke-linecap:round;stroke-linejoin:round;fill:none"
		 d="M102.750000,94.349998 L102.000000,98.349998 L100.250000,95.250000 L100.349998,94.849998 L99.250000,92.750000 L98.750000,91.500000 Q95.099998,89.349998 92.849998,85.599998 L94.349998,77.599998 		"/>
		<path style="stroke:rgb(0,0,0);stroke-width:4.300000;stroke-linecap:round;stroke-linejoin:round;fill:none"
		 d="M135.850006,102.000000 L136.100006,111.250000 Q140.350006,108.500000 141.500000,105.750000 L146.100006,102.849998 L150.750000,100.099998 L156.500000,98.349998 L160.750000,96.500000 L159.500000,87.750000 		"/>
		<path style="stroke:rgb(0,0,0);stroke-width:4.300000;stroke-linecap:round;stroke-linejoin:round;fill:none"
		 d="M103.349998,96.849998 L102.349998,104.599998 L102.000000,103.099998 L101.750000,102.349998 L102.000000,98.349998 		"/>
		<path style="stroke:rgb(0,0,0);stroke-width:4.300000;stroke-linecap:round;stroke-linejoin:round;fill:none"
		 d="M171.750000,108.250000 L174.000000,112.750000 L172.000000,117.099998 L171.500000,116.750000 L171.750000,108.250000 L171.600006,107.599998 L175.850006,104.250000 L179.850006,100.849998 L186.500000,102.500000 L193.000000,104.099998 L195.500000,109.349998 Q203.600006,115.599998 210.100006,115.099998 L212.000000,115.349998 L214.850006,119.349998 L217.600006,123.250000 L212.100006,125.750000 L211.850006,125.849998 L206.250000,128.350006 L198.000000,127.000000 L192.500000,127.849998 L187.100006,128.850006 L180.850006,132.500000 L174.000000,132.000000 L167.000000,131.500000 L166.000000,127.250000 L165.250000,124.349998 L165.100006,123.099998 L171.000000,119.500000 L172.000000,117.099998 		"/>
		<path style="stroke:rgb(0,0,0);stroke-width:4.300000;stroke-linecap:round;stroke-linejoin:round;fill:none"
		 d="M102.349998,104.599998 L102.250000,106.000000 L110.000000,106.250000 L114.250000,106.000000 L126.599998,108.000000 L131.500000,110.099998 L136.100006,111.250000 		"/>
		<path style="stroke:rgb(0,0,0);stroke-width:4.300000;stroke-linecap:round;stroke-linejoin:round;fill:none"
		 d="M179.100006,113.000000 L189.100006,111.349998 L190.600006,111.099998 L191.600006,111.349998 L191.500000,115.750000 L191.250000,120.000000 L179.000000,122.000000 L179.000000,117.500000 L179.000000,113.599998 L179.100006,113.000000 		"/>
		<path style="stroke:rgb(0,0,0);stroke-width:4.300000;stroke-linecap:round;stroke-linejoin:round;fill:none"
		 d="M64.599998,106.250000 Q78.599998,103.599998 87.500000,121.849998 Q91.250000,132.600006 79.500000,137.850006 Q74.250000,142.850006 54.500000,137.850006 L52.000000,136.850006 L47.750000,133.500000 L47.349998,132.250000 L45.849998,130.000000 L45.599998,125.599998 L46.250000,121.750000 Q47.500000,111.250000 64.599998,106.250000 		"/>
		<path style="stroke:rgb(0,0,0);stroke-width:4.300000;stroke-linecap:round;stroke-linejoin:round;fill:none"
		 d="M179.000000,122.000000 L178.850006,122.250000 L175.850006,120.599998 L179.000000,113.599998 		"/>
		<path style="stroke:rgb(0,0,0);stroke-width:4.300000;stroke-linecap:round;stroke-linejoin:round;fill:none"
		 d="M191.250000,120.000000 L195.750000,122.599998 L197.500000,123.599998 L200.500000,116.500000 L191.600006,111.349998 		"/>
		<path style="stroke:rgb(0,0,0);stroke-width:4.300000;stroke-linecap:round;stroke-linejoin:round;fill:none"
		 d="M197.500000,123.599998 L197.000000,124.099998 L185.000000,126.000000 L178.850006,122.250000 		"/>
		<path style="stroke:rgb(0,0,0);stroke-width:4.300000;stroke-linecap:round;stroke-linejoin:round;fill:none"
		 d="M217.600006,123.250000 L217.600006,127.000000 L217.600006,132.250000 L206.250000,137.250000 L206.350006,132.850006 L206.250000,128.350006 		"/>
		<path style="stroke:rgb(0,0,0);stroke-width:4.300000;stroke-linecap:round;stroke-linejoin:round;fill:none"
		 d="M198.000000,127.000000 L198.000000,131.500000 L197.850006,136.000000 L206.250000,137.250000 		"/>
		<path style="stroke:rgb(0,0,0);stroke-width:4.300000;stroke-linecap:round;stroke-linejoin:round;fill:none"
		 d="M187.100006,128.850006 L187.250000,133.100006 L187.250000,137.600006 L197.850006,136.000000 		"/>
		<path style="stroke:rgb(0,0,0);stroke-width:4.300000;stroke-linecap:round;stroke-linejoin:round;fill:none"
		 d="M167.000000,131.500000 L166.850006,136.000000 L166.750000,138.600006 L165.000000,132.000000 L165.250000,124.349998 		"/>
		<path style="stroke:rgb(0,0,0);stroke-width:4.300000;stroke-linecap:round;stroke-linejoin:round;fill:none"
		 d="M66.250000,91.099998 L6.100000,127.599998 L21.500000,136.750000 L67.599998,164.100006 L127.599998,127.599998 L188.850006,164.000000 L233.750000,136.600006 L248.850006,127.349998 L187.350006,91.000000 		"/>
		<path style="stroke:rgb(0,0,0);stroke-width:4.300000;stroke-linecap:round;stroke-linejoin:round;fill:none"
		 d="M180.850006,132.500000 L181.000000,137.000000 L181.000000,141.350006 L167.000000,140.500000 L166.750000,138.600006 		"/>
		<path style="stroke:rgb(0,0,0);stroke-width:4.300000;stroke-linecap:round;stroke-linejoin:round;fill:none"
		 d="M119.500000,135.750000 L122.099998,137.000000 L130.000000,140.850006 L149.000000,152.100006 L157.350006,157.850006 L159.500000,159.250000 L159.350006,159.500000 L156.500000,160.000000 L147.100006,162.100006 L133.000000,164.350006 L118.599998,166.750000 L108.849998,167.750000 L105.750000,168.100006 L106.349998,166.100006 L107.849998,160.350006 L115.000000,143.600006 L118.500000,137.500000 L119.500000,135.750000 		"/>
		<path style="stroke:rgb(0,0,0);stroke-width:4.300000;stroke-linecap:round;stroke-linejoin:round;fill:none"
		 d="M181.000000,141.350006 L187.250000,137.600006 		"/>
		<path style="stroke:rgb(0,0,0);stroke-width:4.300000;stroke-linecap:round;stroke-linejoin:round;fill:none"
		 d="M125.099998,153.250000 L125.099998,155.500000 L124.250000,155.100006 L125.099998,153.250000 L125.250000,152.500000 L129.350006,152.000000 L129.350006,156.500000 Q131.850006,157.350006 132.350006,153.600006 L129.350006,152.000000 		"/>
		<path style="stroke:rgb(0,0,0);stroke-width:4.300000;stroke-linecap:round;stroke-linejoin:round;fill:none"
		 d="M125.099998,155.500000 L127.250000,156.850006 L129.350006,156.500000 		"/>
		<path style="stroke:rgb(0,0,0);stroke-width:4.300000;stroke-linecap:round;stroke-linejoin:round;fill:none"
		 d="M105.750000,168.100006 L105.750000,168.750000 L105.599998,177.600006 L118.599998,176.350006 L132.750000,174.000000 L147.100006,171.750000 L159.100006,169.100006 L159.500000,169.000000 L159.350006,159.500000 		"/>
		<path style="stroke:rgb(0,0,0);stroke-width:4.300000;stroke-linecap:round;stroke-linejoin:round;fill:none"
		 d="M67.599998,164.100006 L82.849998,173.250000 L128.850006,200.500000 L173.850006,173.100006 L188.850006,164.000000 		"/>
	</g>
</svg>