<?xml version="1.0" encoding="UTF-8" standalone="no"?>
<!-- Generator: -->

<svg
   width="256pt"
   height="256pt"
   viewBox="0 0 256 256"
   version="1.1"
   id="svg136"
   sodipodi:docname="collection.svg"
   inkscape:version="1.1 (c68e22c387, 2021-05-23)"
   xmlns:inkscape="http://www.inkscape.org/namespaces/inkscape"
   xmlns:sodipodi="http://sodipodi.sourceforge.net/DTD/sodipodi-0.dtd"
   xmlns="http://www.w3.org/2000/svg"
   xmlns:svg="http://www.w3.org/2000/svg">
  <defs
     id="defs140" />
  <sodipodi:namedview
     id="namedview138"
     pagecolor="#505050"
     bordercolor="#eeeeee"
     borderopacity="1"
     inkscape:pageshadow="0"
     inkscape:pageopacity="0"
     inkscape:pagecheckerboard="0"
     inkscape:document-units="pt"
     showgrid="false"
     inkscape:zoom="0.65698242"
     inkscape:cx="-73.822371"
     inkscape:cy="496.96916"
     inkscape:window-width="1920"
     inkscape:window-height="1147"
     inkscape:window-x="-8"
     inkscape:window-y="-8"
     inkscape:window-maximized="1"
     inkscape:current-layer="svg136" />
  <g
     id="FRAME_0"
     style="visibility:visible"
     fill-rule="evenodd">
    <path
       style="opacity:1;fill:#a7a7a7;fill-opacity:1;stroke-width:0"
       d="m 248.85001,127.35 -60,36.65 L 127.6,127.6 67.599998,164.10001 6.1,127.6 C 32.151121,112.1931 44.597537,106.35327 66.25,91.099998 90.499834,105.47041 90.379147,105.38756 127.6,127.6 L 187.35001,91"
       id="path15"
       sodipodi:nodetypes="cccccccc" />
    <path
       style="fill:none;stroke:#000000;stroke-width:4.3;stroke-linecap:round;stroke-linejoin:round"
       d="M 66.25,91.099998 81.599998,100.25 112.1,118.35 l 15.5,9.25 14.9,-9.1 30,-18.4 14.85001,-9.1"
       id="path87"
       sodipodi:nodetypes="ccccccc" />
    <path
       style="fill:none;stroke:#000000;stroke-width:4.3;stroke-linecap:round;stroke-linejoin:round"
       d="M 66.25,91.099998 6.1,127.6 21.5,136.75 67.599998,164.10001 127.6,127.6 188.85001,164 233.75,136.60001 248.85001,127.35 187.35001,91"
       id="path119" />
  </g>
  <g
     id="FRAME_0-7-8"
     style="visibility:visible"
     fill-rule="evenodd"
     transform="matrix(1.1785771,0,0,1.3136688,-332.67332,88.205399)" />
  <g
     id="FRAME_0-7"
     style="visibility:visible"
     fill-rule="evenodd"
     transform="matrix(1.5146278,0,0,1.5842188,-558.14592,-11.798301)">
    <path
       style="opacity:1;fill:#1879fc;fill-opacity:1;stroke:#000000;stroke-width:3;stroke-miterlimit:4;stroke-dasharray:none;stroke-opacity:1"
       d="m 440.51507,143.24265 c -16.37661,-13.22126 -0.51127,-31.61395 12.69474,-32.50049 14.53929,-0.61111 23.20038,12.76982 20.55122,23.19684 -3.9391,15.50426 -22.16004,18.371 -33.24596,9.30365"
       id="path8043"
       sodipodi:nodetypes="ccsc" />
  </g>
  <rect
     style="fill:#c3b39f;fill-opacity:1;stroke:#000000;stroke-width:4;stroke-linejoin:round;stroke-miterlimit:4;stroke-dasharray:none;stroke-dashoffset:3.82667;stroke-opacity:1"
     id="rect15117"
     width="92.426819"
     height="45.406189"
     x="82.660774"
     y="32.135284" />
</svg>
