<?xml version="1.0" encoding="iso-8859-1"?>
<!DOCTYPE svg PUBLIC "-//W3C//DTD SVG 20000303 Stylable//EN"
"http://www.w3.org/TR/2000/03/WD-SVG-20000303/DTD/svg-20000303-stylable.dtd">
<!-- Generator: --> 
<svg width="256pt" height="256pt" viewBox="0 0 256 256">
	<g  id="FRAME_0" style="visibility:visible" fill-rule="evenodd">
		<path style="fill:rgb(183,183,183);opacity:1;stroke-width:0"
		 d="M66.250000,91.250000 L125.500000,54.750000 L126.500000,54.750000 L187.500000,91.000000 L172.250000,100.250000 L111.500000,100.250000 L96.000000,91.250000 L81.750000,100.250000 L66.250000,91.250000 "/>
		<path style="fill:rgb(185,185,185);opacity:1;stroke-width:0"
		 d="M81.750000,100.250000 L96.000000,91.250000 L111.500000,100.250000 L172.250000,100.250000 L127.750000,127.750000 L81.750000,100.250000 "/>
		<path style="fill:rgb(186,186,186);opacity:1;stroke-width:0"
		 d="M66.250000,91.250000 L81.750000,100.250000 L127.750000,127.750000 L172.250000,100.250000 L187.500000,91.000000 L248.750000,127.250000 L233.500000,136.750000 L173.250000,136.750000 L158.750000,128.000000 L157.250000,127.750000 L143.000000,136.750000 L127.750000,127.750000 L112.500000,136.750000 L96.750000,127.750000 L72.250000,143.000000 Q67.500000,146.250000 66.500000,145.500000 L37.000000,127.750000 L21.500000,136.750000 L6.250000,127.500000 L66.250000,91.250000 "/>
		<path style="fill:rgb(188,188,188);opacity:1;stroke-width:0"
		 d="M127.750000,127.750000 L143.000000,136.750000 L188.750000,164.000000 L173.750000,173.250000 L127.500000,146.000000 L83.000000,173.250000 L67.750000,164.250000 L112.500000,136.750000 L127.750000,127.750000 "/>
		<path style="fill:rgb(189,189,189);opacity:1;stroke-width:0"
		 d="M143.000000,136.750000 L157.250000,127.750000 L158.750000,128.000000 L173.250000,136.750000 L233.500000,136.750000 L188.750000,164.000000 L143.000000,136.750000 M37.000000,127.750000 L66.500000,145.500000 Q67.500000,146.250000 72.250000,143.000000 L96.750000,127.750000 L112.500000,136.750000 L67.750000,164.250000 L21.500000,136.750000 L37.000000,127.750000 "/>
		<path style="fill:rgb(191,191,191);opacity:1;stroke-width:0"
		 d="M83.000000,173.250000 L127.500000,146.000000 L173.750000,173.250000 L129.500000,200.500000 L128.500000,200.500000 L83.000000,173.250000 "/>
		<path style="stroke:rgb(0,0,0);stroke-width:4.300000;stroke-linecap:round;stroke-linejoin:round;fill:none"
		 d="M125.500000,54.750000 L126.500000,54.750000 L187.500000,91.000000 L172.250000,100.250000 L127.750000,127.750000 L81.750000,100.250000 L66.250000,91.250000 L125.500000,54.750000 		"/>
		<path style="stroke:rgb(0,0,0);stroke-width:4.300000;stroke-linecap:round;stroke-linejoin:round;fill:none"
		 d="M187.500000,91.000000 L248.750000,127.250000 L233.500000,136.750000 L188.750000,164.000000 L143.000000,136.750000 L127.750000,127.750000 L112.500000,136.750000 L67.750000,164.250000 L21.500000,136.750000 L6.250000,127.500000 L66.250000,91.250000 		"/>
		<path style="stroke:rgb(0,0,0);stroke-width:4.300000;stroke-linecap:round;stroke-linejoin:round;fill:none"
		 d="M67.750000,164.250000 L83.000000,173.250000 L128.500000,200.500000 L129.500000,200.500000 L173.750000,173.250000 L188.750000,164.000000 		"/>
	</g>
</svg>