<?xml version="1.0" encoding="iso-8859-1"?>
<!DOCTYPE svg PUBLIC "-//W3C//DTD SVG 20000303 Stylable//EN"
"http://www.w3.org/TR/2000/03/WD-SVG-20000303/DTD/svg-20000303-stylable.dtd">
<!-- Generator: --> 
<svg width="512pt" height="512pt" viewBox="0 0 512 512">
	<g  id="FRAME_0" style="visibility:visible" fill-rule="evenodd">
		<path style="fill:rgb(65,117,154);opacity:1;stroke-width:0"
		 d="M239.500000,299.500000 Q231.750000,311.000000 232.750000,318.250000 L165.250000,340.000000 Q153.250000,351.000000 158.000000,362.750000 Q162.500000,375.750000 178.000000,376.500000 L244.750000,355.000000 Q266.000000,353.500000 265.250000,332.000000 L265.000000,328.250000 L262.750000,324.250000 Q261.750000,304.750000 283.750000,302.250000 Q298.750000,317.500000 295.500000,337.250000 Q295.250000,347.500000 288.000000,357.750000 L277.750000,368.250000 L264.250000,375.750000 L189.500000,399.750000 L173.250000,402.500000 Q140.000000,401.500000 128.750000,372.000000 Q120.000000,343.250000 146.000000,321.500000 L158.750000,314.750000 L232.750000,291.000000 L250.500000,288.000000 L239.500000,299.500000 "/>
		<path style="fill:rgb(117,149,117);opacity:1;stroke-width:0"
		 d="M239.500000,299.500000 L250.500000,288.000000 L264.000000,280.750000 L338.750000,256.750000 L355.250000,254.000000 Q387.750000,255.250000 399.000000,284.250000 Q407.250000,315.000000 382.250000,334.500000 L369.750000,341.250000 L364.750000,343.000000 L295.250000,365.250000 L291.000000,366.500000 L277.750000,368.250000 L288.000000,357.750000 Q295.250000,347.500000 295.500000,337.250000 L361.250000,316.500000 Q374.250000,306.000000 369.250000,293.500000 Q360.000000,277.500000 349.500000,281.000000 L283.750000,302.250000 Q261.750000,304.750000 262.750000,324.250000 L263.750000,329.250000 L265.250000,332.000000 Q266.000000,353.500000 244.750000,355.000000 Q229.250000,339.750000 232.750000,318.250000 Q231.750000,311.000000 239.500000,299.500000 "/>
		<path style="fill:rgb(178,178,178);opacity:1;stroke-width:0"
		 d="M265.250000,332.000000 L263.750000,329.250000 L262.750000,324.250000 L265.000000,328.250000 L265.250000,332.000000 M283.750000,302.250000 L349.500000,281.000000 Q360.000000,277.500000 369.250000,293.500000 Q374.250000,306.000000 361.250000,316.500000 L295.500000,337.250000 Q298.750000,317.500000 283.750000,302.250000 M244.750000,355.000000 L178.000000,376.500000 Q162.500000,375.750000 158.000000,362.750000 Q153.250000,351.000000 165.250000,340.000000 L232.750000,318.250000 Q229.250000,339.750000 244.750000,355.000000 M264.000000,280.750000 L250.500000,288.000000 L232.750000,291.000000 L158.750000,314.750000 L146.000000,321.500000 Q120.000000,343.250000 128.750000,372.000000 Q140.000000,401.500000 173.250000,402.500000 L189.500000,399.750000 L264.250000,375.750000 L277.750000,368.250000 L291.000000,366.500000 L295.250000,365.250000 L364.750000,343.000000 L369.750000,341.250000 L382.250000,334.500000 Q407.250000,315.000000 399.000000,284.250000 Q387.750000,255.250000 355.250000,254.000000 L338.750000,256.750000 L264.000000,280.750000 M58.000000,426.000000 L57.000000,426.000000 L57.000000,110.500000 L174.250000,110.500000 L200.750000,157.750000 L415.250000,157.750000 L415.500000,207.750000 L462.500000,208.250000 L453.750000,252.750000 L416.250000,426.000000 L58.000000,426.000000 "/>
		<path style="stroke:rgb(31,31,31);stroke-width:14.400000;stroke-linecap:round;stroke-linejoin:round;fill:none"
		 d="M283.750000,302.250000 L349.500000,281.000000 Q360.000000,277.500000 369.250000,293.500000 Q374.250000,306.000000 361.250000,316.500000 L295.500000,337.250000 Q298.750000,317.500000 283.750000,302.250000 Q261.750000,304.750000 262.750000,324.250000 L263.750000,329.250000 L265.250000,332.000000 Q266.000000,353.500000 244.750000,355.000000 Q229.250000,339.750000 232.750000,318.250000 Q231.750000,311.000000 239.500000,299.500000 L250.500000,288.000000 L264.000000,280.750000 L338.750000,256.750000 L355.250000,254.000000 Q387.750000,255.250000 399.000000,284.250000 Q407.250000,315.000000 382.250000,334.500000 L369.750000,341.250000 L364.750000,343.000000 L295.250000,365.250000 L291.000000,366.500000 L277.750000,368.250000 L288.000000,357.750000 Q295.250000,347.500000 295.500000,337.250000 		"/>
		<path style="stroke:rgb(31,31,31);stroke-width:14.400000;stroke-linecap:round;stroke-linejoin:round;fill:none"
		 d="M262.750000,324.250000 L265.000000,328.250000 L265.250000,332.000000 		"/>
		<path style="stroke:rgb(31,31,31);stroke-width:14.400000;stroke-linecap:round;stroke-linejoin:round;fill:none"
		 d="M232.750000,318.250000 L165.250000,340.000000 Q153.250000,351.000000 158.000000,362.750000 Q162.500000,375.750000 178.000000,376.500000 L244.750000,355.000000 		"/>
		<path style="stroke:rgb(31,31,31);stroke-width:14.400000;stroke-linecap:round;stroke-linejoin:round;fill:none"
		 d="M250.500000,288.000000 L232.750000,291.000000 L158.750000,314.750000 L146.000000,321.500000 Q120.000000,343.250000 128.750000,372.000000 Q140.000000,401.500000 173.250000,402.500000 L189.500000,399.750000 L264.250000,375.750000 L277.750000,368.250000 		"/>
		<path style="stroke:rgb(31,31,31);stroke-width:14.400000;stroke-linecap:round;stroke-linejoin:round;fill:none"
		 d="M57.750000,425.000000 L58.750000,423.250000 L105.250000,251.250000 L273.750000,251.250000 L274.500000,251.250000 L286.250000,207.750000 L415.500000,207.750000 L415.250000,157.750000 L200.750000,157.750000 L174.250000,110.500000 L57.000000,110.500000 L57.000000,426.000000 L58.000000,426.000000 L57.750000,425.000000 		"/>
		<path style="stroke:rgb(31,31,31);stroke-width:14.400000;stroke-linecap:round;stroke-linejoin:round;fill:none"
		 d="M58.000000,426.000000 L416.250000,426.000000 L453.750000,252.750000 L462.500000,208.250000 L415.500000,207.750000 		"/>
	</g>
</svg>