<?xml version="1.0" encoding="iso-8859-1"?>
<!DOCTYPE svg PUBLIC "-//W3C//DTD SVG 20000303 Stylable//EN"
"http://www.w3.org/TR/2000/03/WD-SVG-20000303/DTD/svg-20000303-stylable.dtd">
<!-- Generator: --> 
<svg width="256pt" height="256pt" viewBox="0 0 256 256">
	<g  id="FRAME_0" style="visibility:visible" fill-rule="evenodd">
		<defs>
			<radialGradient id="GRAD_0" gradientUnits="userSpaceOnUse" cx="32.890000" cy="25.850000" r="88.714000">
			<stop offset="0" style="stop-color:rgb(255,255,231)" opacity="1"/>
			<stop offset="1" style="stop-color:rgb(255,255,230)" opacity="1"/>
			</radialGradient>
		</defs>
		<path style="fill:url(#GRAD_0);stroke-width:0"
		 d="M33.500000,26.250000 L34.500000,26.750000 L35.000000,27.000000 L35.500000,27.250000 L36.000000,27.500000 L36.500000,27.750000 L37.250000,28.250000 L37.750000,28.500000 L38.250000,28.750000 L38.750000,29.000000 L39.250000,29.250000 L39.750000,29.500000 L40.250000,29.750000 L40.750000,30.000000 L42.000000,30.750000 L42.500000,31.000000 L43.000000,31.250000 L43.500000,31.500000 L44.000000,31.750000 L44.500000,32.000000 L45.000000,32.250000 L45.500000,32.500000 L46.750000,33.250000 L47.250000,33.500000 L47.750000,33.750000 L50.750000,35.250000 L51.750000,35.750000 L55.000000,37.500000 L56.500000,38.250000 L59.750000,40.000000 L61.250000,40.750000 L64.500000,42.500000 L66.500000,43.500000 L68.750000,44.750000 L71.250000,46.000000 L73.500000,47.250000 L76.000000,48.500000 L78.250000,49.750000 L80.750000,51.000000 L82.500000,52.000000 L86.000000,53.750000 L87.250000,54.500000 L90.750000,56.250000 L92.000000,57.000000 L95.500000,58.750000 L96.250000,59.250000 L100.750000,61.500000 L101.000000,61.750000 L111.000000,67.000000 L111.250000,67.250000 L109.000000,71.250000 L102.500000,73.500000 L98.750000,71.500000 L27.500000,34.250000 Q31.750000,26.250000 33.500000,26.250000 "/>
		<defs>
			<radialGradient id="GRAD_1" gradientUnits="userSpaceOnUse" cx="151.490000" cy="101.870000" r="74.559041">
			<stop offset="0" style="stop-color:rgb(119,119,119)" opacity="1"/>
			<stop offset="1" style="stop-color:rgb(113,113,113)" opacity="1"/>
			</radialGradient>
		</defs>
		<path style="fill:url(#GRAD_1);stroke-width:0"
		 d="M99.000000,50.250000 L140.500000,37.250000 L169.250000,33.750000 L183.500000,36.750000 Q203.250000,45.000000 211.000000,57.000000 L211.250000,57.500000 L216.500000,70.000000 L213.750000,78.000000 L194.250000,89.000000 L151.250000,102.000000 L132.000000,83.000000 L117.500000,68.500000 L99.000000,50.250000 "/>
		<defs>
			<radialGradient id="GRAD_2" gradientUnits="userSpaceOnUse" cx="98.510000" cy="121.250000" r="110.569528">
			<stop offset="0" style="stop-color:rgb(255,255,255)" opacity="1"/>
			<stop offset="1" style="stop-color:rgb(255,255,255)" opacity="1"/>
			</radialGradient>
		</defs>
		<path style="fill:url(#GRAD_2);stroke-width:0"
		 d="M99.000000,60.500000 L99.000000,50.250000 L117.500000,68.500000 L112.250000,70.250000 L113.500000,68.250000 L112.500000,67.750000 L111.500000,67.250000 L111.250000,67.250000 L111.000000,67.000000 L101.000000,61.750000 L100.750000,61.500000 L99.000000,60.500000 M98.750000,71.500000 L102.500000,73.500000 L102.000000,119.000000 L98.500000,120.250000 L98.750000,71.500000 M107.750000,128.750000 L139.750000,159.000000 L150.750000,155.500000 L150.750000,173.250000 L145.750000,168.750000 L145.500000,168.750000 L145.750000,168.250000 L146.250000,167.500000 L147.250000,166.250000 L138.250000,161.000000 L106.500000,129.250000 L107.750000,128.750000 "/>
		<defs>
			<radialGradient id="GRAD_3" gradientUnits="userSpaceOnUse" cx="34.940000" cy="26.790000" r="88.714000">
			<stop offset="0" style="stop-color:rgb(255,247,134)" opacity="1"/>
			<stop offset="1" style="stop-color:rgb(255,247,134)" opacity="1"/>
			</radialGradient>
		</defs>
		<path style="fill:url(#GRAD_3);stroke-width:0"
		 d="M96.250000,59.250000 L99.000000,60.500000 L100.750000,61.500000 L96.250000,59.250000 "/>
		<defs>
			<radialGradient id="GRAD_4" gradientUnits="userSpaceOnUse" cx="108.220000" cy="76.190000" r="9.677779">
			<stop offset="0" style="stop-color:rgb(255,255,157)" opacity="1"/>
			<stop offset="1" style="stop-color:rgb(255,255,157)" opacity="1"/>
			</radialGradient>
		</defs>
		<path style="fill:url(#GRAD_4);stroke-width:0"
		 d="M111.250000,67.250000 L111.500000,67.250000 L112.500000,67.750000 L113.500000,68.250000 L112.250000,70.250000 L109.000000,71.250000 L111.250000,67.250000 "/>
		<defs>
			<radialGradient id="GRAD_5" gradientUnits="userSpaceOnUse" cx="102.540000" cy="73.390000" r="49.712317">
			<stop offset="0" style="stop-color:rgb(255,255,203)" opacity="1"/>
			<stop offset="1" style="stop-color:rgb(255,255,201)" opacity="1"/>
			</radialGradient>
		</defs>
		<path style="fill:url(#GRAD_5);stroke-width:0"
		 d="M117.500000,68.500000 L132.000000,83.000000 L131.500000,113.500000 L108.500000,121.250000 L107.000000,118.000000 L105.000000,118.000000 L102.000000,119.000000 L102.500000,73.500000 L109.000000,71.250000 L112.250000,70.250000 L117.500000,68.500000 "/>
		<defs>
			<radialGradient id="GRAD_6" gradientUnits="userSpaceOnUse" cx="141.830000" cy="36.880000" r="130.843273">
			<stop offset="0" style="stop-color:rgb(149,149,149)" opacity="1"/>
			<stop offset="1" style="stop-color:rgb(82,82,82)" opacity="1"/>
			</radialGradient>
		</defs>
		<path style="fill:url(#GRAD_6);stroke-width:0"
		 d="M194.250000,89.000000 L213.750000,78.000000 L216.500000,70.000000 L211.250000,57.500000 L222.250000,73.000000 Q229.250000,84.750000 231.250000,105.000000 L225.750000,91.750000 L217.500000,87.000000 L194.250000,89.000000 "/>
		<defs>
			<radialGradient id="GRAD_7" gradientUnits="userSpaceOnUse" cx="170.000000" cy="99.380000" r="52.116417">
			<stop offset="0" style="stop-color:rgb(255,255,177)" opacity="1"/>
			<stop offset="1" style="stop-color:rgb(255,255,176)" opacity="1"/>
			</radialGradient>
		</defs>
		<path style="fill:url(#GRAD_7);stroke-width:0"
		 d="M132.000000,83.000000 L151.250000,102.000000 L151.000000,131.500000 L131.500000,113.500000 L132.000000,83.000000 "/>
		<defs>
			<radialGradient id="GRAD_8" gradientUnits="userSpaceOnUse" cx="151.490000" cy="101.870000" r="81.956531">
			<stop offset="0" style="stop-color:rgb(144,144,144)" opacity="1"/>
			<stop offset="1" style="stop-color:rgb(137,137,137)" opacity="1"/>
			</radialGradient>
		</defs>
		<path style="fill:url(#GRAD_8);stroke-width:0"
		 d="M194.250000,89.000000 L217.500000,87.000000 L225.750000,91.750000 L231.250000,105.000000 L231.250000,121.000000 L229.500000,125.500000 L229.250000,126.250000 L229.000000,127.000000 L228.750000,127.750000 L228.500000,128.500000 L228.250000,129.250000 L228.000000,130.000000 L227.750000,130.750000 L227.500000,131.500000 L227.250000,132.250000 L227.250000,132.500000 L227.000000,133.250000 L226.750000,134.000000 L226.500000,134.750000 L226.250000,135.500000 L226.000000,135.750000 Q222.250000,148.750000 195.250000,159.500000 L150.750000,173.250000 L150.750000,155.500000 L151.000000,131.500000 L151.250000,102.000000 L194.250000,89.000000 "/>
		<defs>
			<radialGradient id="GRAD_9" gradientUnits="userSpaceOnUse" cx="24.500000" cy="145.910000" r="86.626027">
			<stop offset="0" style="stop-color:rgb(255,255,230)" opacity="1"/>
			<stop offset="1" style="stop-color:rgb(255,255,229)" opacity="1"/>
			</radialGradient>
		</defs>
		<path style="fill:url(#GRAD_9);stroke-width:0"
		 d="M105.000000,118.000000 L109.250000,127.500000 L29.000000,155.500000 Q27.500000,155.000000 24.500000,146.000000 L98.500000,120.250000 L102.000000,119.000000 L105.000000,118.000000 "/>
		<defs>
			<radialGradient id="GRAD_10" gradientUnits="userSpaceOnUse" cx="140.010000" cy="158.820000" r="52.116417">
			<stop offset="0" style="stop-color:rgb(255,255,193)" opacity="1"/>
			<stop offset="1" style="stop-color:rgb(255,255,191)" opacity="1"/>
			</radialGradient>
		</defs>
		<path style="fill:url(#GRAD_10);stroke-width:0"
		 d="M108.500000,121.250000 L131.500000,113.500000 L151.000000,131.500000 L150.750000,155.500000 L139.750000,159.000000 L107.750000,128.750000 L110.750000,127.500000 L108.500000,121.250000 "/>
		<defs>
			<radialGradient id="GRAD_11" gradientUnits="userSpaceOnUse" cx="104.990000" cy="117.820000" r="11.340944">
			<stop offset="0" style="stop-color:rgb(255,255,152)" opacity="1"/>
			<stop offset="1" style="stop-color:rgb(255,255,152)" opacity="1"/>
			</radialGradient>
		</defs>
		<path style="fill:url(#GRAD_11);stroke-width:0"
		 d="M105.000000,118.000000 L107.000000,118.000000 L108.500000,121.250000 L110.750000,127.500000 L109.250000,127.500000 L105.000000,118.000000 "/>
		<defs>
			<radialGradient id="GRAD_12" gradientUnits="userSpaceOnUse" cx="28.620000" cy="155.420000" r="86.979828">
			<stop offset="0" style="stop-color:rgb(255,255,139)" opacity="1"/>
			<stop offset="1" style="stop-color:rgb(255,255,139)" opacity="1"/>
			</radialGradient>
		</defs>
		<path style="fill:url(#GRAD_12);stroke-width:0"
		 d="M109.250000,127.500000 L110.750000,127.500000 L107.750000,128.750000 L106.500000,129.250000 L36.500000,153.750000 Q30.000000,156.250000 29.000000,155.500000 L109.250000,127.500000 "/>
		<defs>
			<radialGradient id="GRAD_13" gradientUnits="userSpaceOnUse" cx="147.110000" cy="166.000000" r="85.492908">
			<stop offset="0" style="stop-color:rgb(255,255,230)" opacity="1"/>
			<stop offset="1" style="stop-color:rgb(255,255,229)" opacity="1"/>
			</radialGradient>
		</defs>
		<path style="fill:url(#GRAD_13);stroke-width:0"
		 d="M138.250000,161.000000 L147.250000,166.250000 L146.250000,167.500000 L145.750000,168.250000 L145.500000,168.750000 L145.250000,169.250000 L144.750000,170.000000 L144.500000,170.500000 L144.250000,171.000000 L143.750000,171.750000 L143.500000,172.250000 L143.250000,172.750000 L143.000000,173.250000 L105.000000,239.750000 L96.000000,234.750000 L138.250000,161.000000 "/>
		<defs>
			<radialGradient id="GRAD_14" gradientUnits="userSpaceOnUse" cx="95.780000" cy="235.470000" r="10.288683">
			<stop offset="0" style="stop-color:rgb(255,255,150)" opacity="1"/>
			<stop offset="1" style="stop-color:rgb(255,255,150)" opacity="1"/>
			</radialGradient>
		</defs>
		<path style="fill:url(#GRAD_14);stroke-width:0"
		 d="M96.000000,234.750000 L105.000000,239.750000 L105.000000,240.250000 L104.750000,240.750000 L97.000000,236.500000 L95.750000,235.750000 L96.000000,234.750000 "/>
		<path style="stroke:rgb(0,0,0);stroke-width:4.300000;stroke-linecap:round;stroke-linejoin:round;fill:none"
		 d="M99.000000,50.250000 L117.500000,68.500000 L132.000000,83.000000 L151.250000,102.000000 L194.250000,89.000000 L213.750000,78.000000 L216.500000,70.000000 L211.250000,57.500000 L211.000000,57.000000 Q203.250000,45.000000 183.500000,36.750000 L169.250000,33.750000 L140.500000,37.250000 L99.000000,50.250000 L99.000000,60.500000 L100.750000,61.500000 L101.000000,61.750000 L111.000000,67.000000 L111.250000,67.250000 L109.000000,71.250000 L102.500000,73.500000 L98.750000,71.500000 L27.500000,34.250000 Q31.750000,26.250000 33.500000,26.250000 L34.500000,26.750000 L35.000000,27.000000 L35.500000,27.250000 L36.000000,27.500000 L36.500000,27.750000 L37.250000,28.250000 L37.750000,28.500000 L38.250000,28.750000 L38.750000,29.000000 L39.250000,29.250000 L39.750000,29.500000 L40.250000,29.750000 L40.750000,30.000000 L42.000000,30.750000 L42.500000,31.000000 L43.000000,31.250000 L43.500000,31.500000 L44.000000,31.750000 L44.500000,32.000000 L45.000000,32.250000 L45.500000,32.500000 L46.750000,33.250000 L47.250000,33.500000 L47.750000,33.750000 L50.750000,35.250000 L51.750000,35.750000 L55.000000,37.500000 L56.500000,38.250000 L59.750000,40.000000 L61.250000,40.750000 L64.500000,42.500000 L66.500000,43.500000 L68.750000,44.750000 L71.250000,46.000000 L73.500000,47.250000 L76.000000,48.500000 L78.250000,49.750000 L80.750000,51.000000 L82.500000,52.000000 L86.000000,53.750000 L87.250000,54.500000 L90.750000,56.250000 L92.000000,57.000000 L95.500000,58.750000 L96.250000,59.250000 L99.000000,60.500000 		"/>
		<path style="stroke:rgb(0,0,0);stroke-width:4.300000;stroke-linecap:round;stroke-linejoin:round;fill:none"
		 d="M96.250000,59.250000 L100.750000,61.500000 		"/>
		<path style="stroke:rgb(0,0,0);stroke-width:4.300000;stroke-linecap:round;stroke-linejoin:round;fill:none"
		 d="M111.250000,67.250000 L111.500000,67.250000 L112.500000,67.750000 L113.500000,68.250000 L112.250000,70.250000 L117.500000,68.500000 		"/>
		<path style="stroke:rgb(0,0,0);stroke-width:4.300000;stroke-linecap:round;stroke-linejoin:round;fill:none"
		 d="M112.250000,70.250000 L109.000000,71.250000 		"/>
		<path style="stroke:rgb(0,0,0);stroke-width:4.300000;stroke-linecap:round;stroke-linejoin:round;fill:none"
		 d="M194.250000,89.000000 L217.500000,87.000000 L225.750000,91.750000 L231.250000,105.000000 Q229.250000,84.750000 222.250000,73.000000 L211.250000,57.500000 		"/>
		<path style="stroke:rgb(0,0,0);stroke-width:4.300000;stroke-linecap:round;stroke-linejoin:round;fill:none"
		 d="M132.000000,83.000000 L131.500000,113.500000 L108.500000,121.250000 L107.000000,118.000000 L105.000000,118.000000 L102.000000,119.000000 L102.500000,73.500000 		"/>
		<path style="stroke:rgb(0,0,0);stroke-width:4.300000;stroke-linecap:round;stroke-linejoin:round;fill:none"
		 d="M102.000000,119.000000 L98.500000,120.250000 L98.750000,71.500000 		"/>
		<path style="stroke:rgb(0,0,0);stroke-width:4.300000;stroke-linecap:round;stroke-linejoin:round;fill:none"
		 d="M151.250000,102.000000 L151.000000,131.500000 L150.750000,155.500000 L150.750000,173.250000 L195.250000,159.500000 Q222.250000,148.750000 226.000000,135.750000 L226.250000,135.500000 L226.500000,134.750000 L226.750000,134.000000 L227.000000,133.250000 L227.250000,132.500000 L227.250000,132.250000 L227.500000,131.500000 L227.750000,130.750000 L228.000000,130.000000 L228.250000,129.250000 L228.500000,128.500000 L228.750000,127.750000 L229.000000,127.000000 L229.250000,126.250000 L229.500000,125.500000 L231.250000,121.000000 L231.250000,105.000000 		"/>
		<path style="stroke:rgb(0,0,0);stroke-width:4.300000;stroke-linecap:round;stroke-linejoin:round;fill:none"
		 d="M105.000000,118.000000 L109.250000,127.500000 L110.750000,127.500000 L108.500000,121.250000 		"/>
		<path style="stroke:rgb(0,0,0);stroke-width:4.300000;stroke-linecap:round;stroke-linejoin:round;fill:none"
		 d="M110.750000,127.500000 L107.750000,128.750000 L106.500000,129.250000 L36.500000,153.750000 Q30.000000,156.250000 29.000000,155.500000 L109.250000,127.500000 		"/>
		<path style="stroke:rgb(0,0,0);stroke-width:4.300000;stroke-linecap:round;stroke-linejoin:round;fill:none"
		 d="M151.000000,131.500000 L131.500000,113.500000 		"/>
		<path style="stroke:rgb(0,0,0);stroke-width:4.300000;stroke-linecap:round;stroke-linejoin:round;fill:none"
		 d="M29.000000,155.500000 Q27.500000,155.000000 24.500000,146.000000 L98.500000,120.250000 		"/>
		<path style="stroke:rgb(0,0,0);stroke-width:4.300000;stroke-linecap:round;stroke-linejoin:round;fill:none"
		 d="M150.750000,155.500000 L139.750000,159.000000 L107.750000,128.750000 		"/>
		<path style="stroke:rgb(0,0,0);stroke-width:4.300000;stroke-linecap:round;stroke-linejoin:round;fill:none"
		 d="M150.750000,173.250000 L145.750000,168.750000 L145.500000,168.750000 L145.750000,168.250000 L146.250000,167.500000 L147.250000,166.250000 L138.250000,161.000000 L106.500000,129.250000 		"/>
		<path style="stroke:rgb(0,0,0);stroke-width:4.300000;stroke-linecap:round;stroke-linejoin:round;fill:none"
		 d="M145.500000,168.750000 L145.250000,169.250000 L144.750000,170.000000 L144.500000,170.500000 L144.250000,171.000000 L143.750000,171.750000 L143.500000,172.250000 L143.250000,172.750000 L143.000000,173.250000 L105.000000,239.750000 L96.000000,234.750000 L138.250000,161.000000 		"/>
		<path style="stroke:rgb(0,0,0);stroke-width:4.300000;stroke-linecap:round;stroke-linejoin:round;fill:none"
		 d="M105.000000,239.750000 L105.000000,240.250000 L104.750000,240.750000 L97.000000,236.500000 L95.750000,235.750000 L96.000000,234.750000 		"/>
	</g>
</svg>