<?xml version="1.0" encoding="iso-8859-1"?>
<!DOCTYPE svg PUBLIC "-//W3C//DTD SVG 20000303 Stylable//EN"
"http://www.w3.org/TR/2000/03/WD-SVG-20000303/DTD/svg-20000303-stylable.dtd">
<!-- Generator: --> 
<svg width="256pt" height="256pt" viewBox="0 0 256 256">
	<g  id="FRAME_0" style="visibility:visible" fill-rule="evenodd">
		<path style="fill:rgb(112,208,206);opacity:1;stroke-width:0"
		 d="M146.199997,31.350000 L150.100006,31.049999 L169.699997,30.750000 L172.199997,30.799999 L154.600006,65.000000 L154.600006,65.050003 L154.250000,65.750000 L154.199997,65.800003 L154.199997,65.900002 L154.149994,66.000000 L154.100006,66.050003 L154.050003,66.150002 L154.000000,66.199997 L154.000000,66.300003 L153.949997,66.400002 L153.899994,66.400002 L153.750000,66.699997 L153.699997,66.800003 L153.649994,66.849998 L153.600006,66.949997 L153.600006,67.000000 L153.550003,67.099998 L151.800003,70.250000 L146.199997,31.350000 "/>
		<path style="fill:rgb(68,222,216);opacity:1;stroke-width:0"
		 d="M85.199997,31.750000 L85.800003,31.450001 L108.949997,28.799999 L110.400002,28.650000 L110.750000,28.650000 L127.800003,71.750000 L127.849998,72.000000 L128.149994,72.550003 L128.850006,74.449997 L128.949997,74.650002 L129.000000,74.800003 L129.050003,74.900002 L129.100006,75.000000 L129.149994,75.099998 L129.199997,75.199997 L129.199997,75.300003 L129.350006,75.500000 L129.350006,75.550003 L129.750000,76.650002 L129.800003,76.849998 L130.000000,77.400002 L130.100006,77.550003 L130.199997,77.750000 L130.250000,77.949997 L130.350006,78.150002 L130.399994,78.199997 L130.399994,78.349998 L130.449997,78.400002 L130.500000,78.550003 L130.550003,78.599998 L130.600006,78.800003 L130.699997,79.000000 L136.800003,94.699997 L121.099998,95.050003 L107.650002,72.050003 L107.599998,71.800003 L104.199997,65.800003 L104.050003,65.599998 L104.000000,65.550003 L104.000000,65.449997 L103.849998,65.250000 L103.800003,65.199997 L103.800003,65.099998 L103.699997,65.000000 L103.650002,64.900002 L103.599998,64.800003 L103.550003,64.699997 L103.500000,64.599998 L103.449997,64.550003 L103.349998,64.349998 L103.300003,64.250000 L103.150002,64.000000 L103.150002,63.950001 L85.199997,31.750000 "/>
		<path style="fill:rgb(255,255,255);opacity:1;stroke-width:0"
		 d="M172.199997,30.799999 L172.199997,32.000000 L170.399994,35.349998 L170.350006,35.400002 L170.300003,35.500000 L170.250000,35.599998 L170.199997,35.650002 L170.199997,35.750000 L170.149994,35.799999 L170.100006,35.900002 L170.050003,36.000000 L170.050003,36.000000 L155.250000,65.699997 L152.100006,72.199997 L151.800003,70.599998 L151.800003,70.400002 L151.800003,70.250000 L153.550003,67.099998 L153.600006,67.000000 L153.600006,66.949997 L153.649994,66.849998 L153.699997,66.800003 L153.750000,66.699997 L153.899994,66.400002 L153.949997,66.400002 L154.000000,66.300003 L154.000000,66.199997 L154.050003,66.150002 L154.100006,66.050003 L154.149994,66.000000 L154.199997,65.900002 L154.199997,65.800003 L154.250000,65.750000 L154.600006,65.050003 L154.600006,65.000000 L172.199997,30.799999 M85.199997,31.750000 L103.150002,63.950001 L103.150002,64.000000 L103.300003,64.250000 L103.349998,64.349998 L103.449997,64.550003 L103.500000,64.599998 L103.550003,64.699997 L103.599998,64.800003 L103.650002,64.900002 L103.699997,65.000000 L103.800003,65.099998 L103.800003,65.199997 L103.849998,65.250000 L104.000000,65.449997 L104.000000,65.550003 L104.050003,65.599998 L104.199997,65.800003 L107.599998,71.800003 L107.650002,72.050003 L107.300003,73.500000 L87.349998,36.549999 L87.300003,36.450001 L87.199997,36.250000 L87.150002,36.200001 L87.099998,36.099998 L87.050003,36.000000 L87.000000,35.900002 L86.949997,35.799999 L86.900002,35.750000 L86.750000,35.450001 L85.300003,32.950001 L85.199997,32.750000 L85.150002,32.650002 L85.199997,31.750000 M128.699997,71.550003 L136.600006,91.800003 L136.600006,91.849998 L136.699997,92.050003 L136.750000,92.150002 L136.800003,92.250000 L136.800003,92.349998 L137.600006,94.099998 L137.300003,94.599998 L136.800003,94.699997 L130.699997,79.000000 L130.600006,78.800003 L130.550003,78.599998 L130.500000,78.550003 L130.449997,78.400002 L130.399994,78.349998 L130.399994,78.199997 L130.350006,78.150002 L130.250000,77.949997 L130.199997,77.750000 L130.100006,77.550003 L130.000000,77.400002 L129.800003,76.849998 L129.750000,76.650002 L129.350006,75.550003 L129.350006,75.500000 L129.199997,75.300003 L129.199997,75.199997 L129.149994,75.099998 L129.100006,75.000000 L129.050003,74.900002 L129.000000,74.800003 L128.949997,74.650002 L128.850006,74.449997 L128.149994,72.550003 L128.699997,71.550003 "/>
		<path style="fill:rgb(109,209,207);opacity:1;stroke-width:0"
		 d="M85.199997,32.750000 L85.300003,32.950001 L86.750000,35.450001 L86.900002,35.750000 L86.949997,35.799999 L87.000000,35.900002 L87.050003,36.000000 L87.099998,36.099998 L87.150002,36.200001 L87.199997,36.250000 L87.300003,36.450001 L87.349998,36.549999 L107.300003,73.500000 L85.199997,110.599998 L85.199997,32.750000 "/>
		<path style="fill:rgb(109,208,206);opacity:1;stroke-width:0"
		 d="M172.199997,32.000000 L171.750000,110.150002 L152.100006,72.199997 L155.250000,65.699997 L170.050003,36.000000 L170.050003,36.000000 L170.100006,35.900002 L170.149994,35.799999 L170.199997,35.750000 L170.199997,35.650002 L170.250000,35.599998 L170.300003,35.500000 L170.350006,35.400002 L170.399994,35.349998 L172.199997,32.000000 "/>
		<path style="fill:rgb(203,203,203);opacity:1;stroke-width:0"
		 d="M74.400002,31.799999 L79.050003,28.299999 L79.050003,37.400002 L79.050003,48.250000 L78.900002,57.099998 L78.949997,64.699997 L78.900002,71.349998 L78.949997,77.349998 L79.000000,82.849998 L79.050003,88.050003 L79.099998,93.050003 L79.099998,97.949997 L78.949997,102.800003 L79.000000,107.800003 L79.000000,113.000000 L79.050003,113.000000 L78.849998,115.000000 L82.550003,117.099998 L87.699997,119.900002 L92.099998,122.449997 L96.099998,124.750000 L99.800003,126.900002 L103.349998,128.949997 L106.800003,130.899994 L110.150002,132.850006 L113.550003,134.800003 L117.000000,136.800003 L120.650002,138.949997 L124.550003,141.199997 L128.750000,143.800003 L132.949997,141.199997 L136.800003,138.949997 L140.449997,136.800003 L143.949997,134.800003 L147.350006,132.850006 L150.699997,130.899994 L154.100006,128.949997 L157.649994,126.900002 L161.399994,124.750000 L165.399994,122.449997 L169.800003,119.900002 L174.750000,117.000000 L178.399994,114.900002 L178.399994,113.000000 L178.399994,107.800003 L178.399994,102.800003 L178.399994,97.949997 L178.399994,93.050003 L178.399994,88.050003 L178.399994,82.849998 L178.399994,77.349998 L178.399994,71.400002 L178.399994,64.750000 L178.399994,57.200001 L178.399994,48.250000 L178.399994,37.400002 L178.399994,28.250000 L183.100006,31.750000 L189.250000,37.400002 L194.800003,43.650002 L199.750000,50.400002 L204.300003,57.549999 L207.899994,65.150002 L210.449997,73.099998 L212.600006,81.199997 L213.750000,89.550003 L214.399994,97.949997 L213.899994,106.349998 L212.550003,114.599998 L210.750000,122.800003 L207.899994,130.699997 L204.300003,138.300003 L200.000000,145.500000 L195.000000,152.250000 L189.300003,158.500000 L183.050003,164.149994 L176.350006,169.149994 L169.100006,173.449997 L161.500000,177.050003 L161.500000,255.000000 L160.250000,255.000000 L153.600006,255.000000 L152.250000,255.000000 L145.399994,255.000000 L144.050003,255.000000 L137.149994,255.000000 L135.750000,255.000000 L128.750000,255.000000 L121.800003,255.000000 L120.349998,255.000000 L113.400002,255.000000 L112.000000,255.000000 L105.199997,255.000000 L103.849998,255.000000 L97.199997,255.000000 L95.949997,255.000000 L96.000000,180.350006 L95.949997,177.100006 L95.949997,177.050003 L95.900002,177.000000 L88.400002,173.449997 L81.150002,169.100006 L74.400002,164.100006 L68.199997,158.449997 L62.549999,152.199997 L57.549999,145.500000 L57.549999,145.449997 L55.500000,142.199997 L53.200001,138.250000 L49.599998,130.699997 L49.599998,130.649994 L46.799999,122.800003 L44.700001,114.599998 L43.549999,106.349998 L43.099998,97.949997 L43.500000,89.550003 L44.750000,81.199997 L46.799999,73.099998 L49.599998,65.199997 L52.849998,58.200001 L53.200001,57.599998 L57.500000,50.400002 L62.500000,43.599998 L68.150002,37.400002 L74.400002,31.799999 "/>
		<path style="fill:rgb(110,232,231);opacity:1;stroke-width:0"
		 d="M151.800003,70.250000 L151.800003,70.400002 L128.699997,71.550003 L146.199997,31.350000 L151.800003,70.250000 "/>
		<path style="fill:rgb(108,249,248);opacity:1;stroke-width:0"
		 d="M151.800003,70.400002 L151.800003,70.599998 L137.600006,94.099998 L136.800003,92.349998 L136.800003,92.250000 L136.750000,92.150002 L136.699997,92.050003 L136.600006,91.849998 L136.600006,91.800003 L128.699997,71.550003 L151.800003,70.400002 "/>
		<path style="fill:rgb(106,205,203);opacity:1;stroke-width:0"
		 d="M171.750000,110.150002 L171.699997,110.250000 L152.399994,109.849998 L152.100006,72.199997 L171.750000,110.150002 M85.199997,110.599998 L107.300003,73.500000 L106.150002,110.500000 L86.849998,110.699997 L85.199997,110.599998 "/>
		<path style="stroke:rgb(0,0,0);stroke-width:4.300000;stroke-linecap:round;stroke-linejoin:round;fill:none"
		 d="M85.199997,31.750000 L103.150002,63.950001 L103.150002,64.000000 L103.300003,64.250000 L103.349998,64.349998 L103.449997,64.550003 L103.500000,64.599998 L103.550003,64.699997 L103.599998,64.800003 L103.650002,64.900002 L103.699997,65.000000 L103.800003,65.099998 L103.800003,65.199997 L103.849998,65.250000 L104.000000,65.449997 L104.000000,65.550003 L104.050003,65.599998 L104.199997,65.800003 L107.599998,71.800003 L107.650002,72.050003 L107.300003,73.500000 L87.349998,36.549999 L87.300003,36.450001 L87.199997,36.250000 L87.150002,36.200001 L87.099998,36.099998 L87.050003,36.000000 L87.000000,35.900002 L86.949997,35.799999 L86.900002,35.750000 L86.750000,35.450001 L85.300003,32.950001 L85.199997,32.750000 L85.150002,32.650002 L85.199997,31.750000 L85.800003,31.450001 L108.949997,28.799999 L110.400002,28.650000 L110.750000,28.650000 L127.800003,71.750000 L127.849998,72.000000 L128.149994,72.550003 L128.699997,71.550003 L146.199997,31.350000 L150.100006,31.049999 L169.699997,30.750000 L172.199997,30.799999 L172.199997,32.000000 L170.399994,35.349998 L170.350006,35.400002 L170.300003,35.500000 L170.250000,35.599998 L170.199997,35.650002 L170.199997,35.750000 L170.149994,35.799999 L170.100006,35.900002 L170.050003,36.000000 L170.050003,36.000000 L155.250000,65.699997 L152.100006,72.199997 L151.800003,70.599998 L151.800003,70.400002 L151.800003,70.250000 L153.550003,67.099998 L153.600006,67.000000 L153.600006,66.949997 L153.649994,66.849998 L153.699997,66.800003 L153.750000,66.699997 L153.899994,66.400002 L153.949997,66.400002 L154.000000,66.300003 L154.000000,66.199997 L154.050003,66.150002 L154.100006,66.050003 L154.149994,66.000000 L154.199997,65.900002 L154.199997,65.800003 L154.250000,65.750000 L154.600006,65.050003 L154.600006,65.000000 L172.199997,30.799999 		"/>
		<path style="stroke:rgb(0,0,0);stroke-width:4.300000;stroke-linecap:round;stroke-linejoin:round;fill:none"
		 d="M79.050003,28.299999 L79.050003,37.400002 L79.050003,48.250000 L78.900002,57.099998 L78.949997,64.699997 L78.900002,71.349998 L78.949997,77.349998 L79.000000,82.849998 L79.050003,88.050003 L79.099998,93.050003 L79.099998,97.949997 L78.949997,102.800003 L79.000000,107.800003 L79.000000,113.000000 L79.050003,113.000000 L78.849998,115.000000 L82.550003,117.099998 L87.699997,119.900002 L92.099998,122.449997 L96.099998,124.750000 L99.800003,126.900002 L103.349998,128.949997 L106.800003,130.899994 L110.150002,132.850006 L113.550003,134.800003 L117.000000,136.800003 L120.650002,138.949997 L124.550003,141.199997 L128.750000,143.800003 L132.949997,141.199997 L136.800003,138.949997 L140.449997,136.800003 L143.949997,134.800003 L147.350006,132.850006 L150.699997,130.899994 L154.100006,128.949997 L157.649994,126.900002 L161.399994,124.750000 L165.399994,122.449997 L169.800003,119.900002 L174.750000,117.000000 L178.399994,114.900002 L178.399994,113.000000 L178.399994,107.800003 L178.399994,102.800003 L178.399994,97.949997 L178.399994,93.050003 L178.399994,88.050003 L178.399994,82.849998 L178.399994,77.349998 L178.399994,71.400002 L178.399994,64.750000 L178.399994,57.200001 L178.399994,48.250000 L178.399994,37.400002 L178.399994,28.250000 L183.100006,31.750000 L189.250000,37.400002 L194.800003,43.650002 L199.750000,50.400002 L204.300003,57.549999 L207.899994,65.150002 L210.449997,73.099998 L212.600006,81.199997 L213.750000,89.550003 L214.399994,97.949997 L213.899994,106.349998 L212.550003,114.599998 L210.750000,122.800003 L207.899994,130.699997 L204.300003,138.300003 L200.000000,145.500000 L195.000000,152.250000 L189.300003,158.500000 L183.050003,164.149994 L176.350006,169.149994 L169.100006,173.449997 L161.500000,177.050003 L161.500000,255.000000 L160.250000,255.000000 L153.600006,255.000000 L152.250000,255.000000 L145.399994,255.000000 L144.050003,255.000000 L137.149994,255.000000 L135.750000,255.000000 L128.750000,255.000000 L121.800003,255.000000 L120.349998,255.000000 L113.400002,255.000000 L112.000000,255.000000 L105.199997,255.000000 L103.849998,255.000000 L97.199997,255.000000 L95.949997,255.000000 L96.000000,180.350006 L95.949997,177.100006 L95.949997,177.050003 L95.900002,177.000000 L88.400002,173.449997 L81.150002,169.100006 L74.400002,164.100006 L68.199997,158.449997 L62.549999,152.199997 L57.549999,145.500000 L57.549999,145.449997 L55.500000,142.199997 L53.200001,138.250000 L49.599998,130.699997 L49.599998,130.649994 L46.799999,122.800003 L44.700001,114.599998 L43.549999,106.349998 L43.099998,97.949997 L43.500000,89.550003 L44.750000,81.199997 L46.799999,73.099998 L49.599998,65.199997 L52.849998,58.200001 L53.200001,57.599998 L57.500000,50.400002 L62.500000,43.599998 L68.150002,37.400002 L74.400002,31.799999 L79.050003,28.299999 		"/>
		<path style="stroke:rgb(0,0,0);stroke-width:4.300000;stroke-linecap:round;stroke-linejoin:round;fill:none"
		 d="M128.699997,71.550003 L136.600006,91.800003 L136.600006,91.849998 L136.699997,92.050003 L136.750000,92.150002 L136.800003,92.250000 L136.800003,92.349998 L137.600006,94.099998 L137.300003,94.599998 L136.800003,94.699997 L130.699997,79.000000 L130.600006,78.800003 L130.550003,78.599998 L130.500000,78.550003 L130.449997,78.400002 L130.399994,78.349998 L130.399994,78.199997 L130.350006,78.150002 L130.250000,77.949997 L130.199997,77.750000 L130.100006,77.550003 L130.000000,77.400002 L129.800003,76.849998 L129.750000,76.650002 L129.350006,75.550003 L129.350006,75.500000 L129.199997,75.300003 L129.199997,75.199997 L129.149994,75.099998 L129.100006,75.000000 L129.050003,74.900002 L129.000000,74.800003 L128.949997,74.650002 L128.850006,74.449997 L128.149994,72.550003 		"/>
		<path style="stroke:rgb(0,0,0);stroke-width:4.300000;stroke-linecap:round;stroke-linejoin:round;fill:none"
		 d="M137.600006,94.099998 L151.800003,70.599998 		"/>
		<path style="stroke:rgb(0,0,0);stroke-width:4.300000;stroke-linecap:round;stroke-linejoin:round;fill:none"
		 d="M136.800003,94.699997 L121.099998,95.050003 L107.650002,72.050003 		"/>
		<path style="stroke:rgb(0,0,0);stroke-width:4.300000;stroke-linecap:round;stroke-linejoin:round;fill:none"
		 d="M152.100006,72.199997 L152.399994,109.849998 L171.699997,110.250000 L171.750000,110.150002 L172.199997,32.000000 		"/>
		<path style="stroke:rgb(0,0,0);stroke-width:4.300000;stroke-linecap:round;stroke-linejoin:round;fill:none"
		 d="M107.300003,73.500000 L106.150002,110.500000 L86.849998,110.699997 L85.199997,110.599998 L85.199997,32.750000 		"/>
	</g>
</svg>