<?xml version="1.0" encoding="iso-8859-1"?>
<!DOCTYPE svg PUBLIC "-//W3C//DTD SVG 20000303 Stylable//EN"
"http://www.w3.org/TR/2000/03/WD-SVG-20000303/DTD/svg-20000303-stylable.dtd">
<!-- Generator: --> 
<svg width="1024pt" height="1024pt" viewBox="0 0 1024 1024">
	<g  id="FRAME_0" style="visibility:visible" fill-rule="evenodd">
		<defs>
			<linearGradient id="GRAD_0" gradientUnits="userSpaceOnUse" x1="113.720000" y1="385.560000" x2="-20.090000" y2="300.430000">
			<stop offset="0" style="stop-color:rgb(197,193,185)" opacity="1"/>
			<stop offset="1" style="stop-color:rgb(218,214,206)" opacity="1"/>
			</linearGradient>
		</defs>
		<path style="fill:url(#GRAD_0);stroke-width:0"
		 d="M277.750000,35.750000 L113.750000,386.000000 L43.250000,201.000000 L278.000000,35.000000 L277.750000,35.750000 "/>
		<defs>
			<linearGradient id="GRAD_1" gradientUnits="userSpaceOnUse" x1="277.940000" y1="269.440000" x2="394.050000" y2="222.580000">
			<stop offset="0" style="stop-color:rgb(83,81,74)" opacity="1"/>
			<stop offset="1" style="stop-color:rgb(89,86,80)" opacity="1"/>
			</linearGradient>
		</defs>
		<path style="fill:url(#GRAD_1);stroke-width:0"
		 d="M277.750000,35.750000 L278.000000,35.000000 L333.750000,74.250000 L334.250000,75.250000 L293.750000,215.000000 L278.000000,226.250000 L277.750000,35.750000 "/>
		<defs>
			<linearGradient id="GRAD_2" gradientUnits="userSpaceOnUse" x1="746.520000" y1="273.620000" x2="637.120000" y2="118.900000">
			<stop offset="0" style="stop-color:rgb(153,149,141)" opacity="1"/>
			<stop offset="1" style="stop-color:rgb(162,158,150)" opacity="1"/>
			</linearGradient>
		</defs>
		<path style="fill:url(#GRAD_2);stroke-width:0"
		 d="M751.500000,53.250000 L747.750000,226.750000 L746.250000,225.500000 L745.750000,42.000000 L751.750000,38.250000 L751.500000,53.250000 "/>
		<defs>
			<linearGradient id="GRAD_3" gradientUnits="userSpaceOnUse" x1="751.570000" y1="272.570000" x2="957.070000" y2="156.900000">
			<stop offset="0" style="stop-color:rgb(190,186,179)" opacity="1"/>
			<stop offset="1" style="stop-color:rgb(218,214,206)" opacity="1"/>
			</linearGradient>
		</defs>
		<path style="fill:url(#GRAD_3);stroke-width:0"
		 d="M751.500000,53.250000 L751.750000,38.250000 L981.500000,201.000000 L794.250000,259.500000 L751.750000,229.500000 L751.500000,53.250000 "/>
		<defs>
			<linearGradient id="GRAD_4" gradientUnits="userSpaceOnUse" x1="277.940000" y1="269.440000" x2="395.350000" y2="220.250000">
			<stop offset="0" style="stop-color:rgb(83,81,74)" opacity="1"/>
			<stop offset="1" style="stop-color:rgb(89,86,80)" opacity="1"/>
			</linearGradient>
		</defs>
		<path style="fill:url(#GRAD_4);stroke-width:0"
		 d="M334.250000,75.250000 L334.500000,186.250000 L293.750000,215.000000 L334.250000,75.250000 "/>
		<defs>
			<linearGradient id="GRAD_5" gradientUnits="userSpaceOnUse" x1="512.540000" y1="60.410000" x2="604.320000" y2="463.880000">
			<stop offset="0" style="stop-color:rgb(150,146,139)" opacity="1"/>
			<stop offset="1" style="stop-color:rgb(189,185,177)" opacity="1"/>
			</linearGradient>
		</defs>
		<path style="fill:url(#GRAD_5);stroke-width:0"
		 d="M334.500000,186.250000 L512.750000,60.750000 L543.500000,478.000000 L538.000000,474.000000 L537.500000,473.750000 L536.750000,473.250000 L536.000000,472.750000 L233.000000,258.250000 L278.000000,226.250000 L293.750000,215.000000 L334.500000,186.250000 "/>
		<defs>
			<linearGradient id="GRAD_6" gradientUnits="userSpaceOnUse" x1="512.540000" y1="60.410000" x2="413.800000" y2="444.310000">
			<stop offset="0" style="stop-color:rgb(150,146,139)" opacity="1"/>
			<stop offset="1" style="stop-color:rgb(189,185,177)" opacity="1"/>
			</linearGradient>
		</defs>
		<path style="fill:url(#GRAD_6);stroke-width:0"
		 d="M512.750000,60.750000 L746.250000,225.500000 L747.750000,226.750000 L751.750000,229.500000 L794.250000,259.500000 L823.250000,280.250000 L543.500000,478.000000 L512.750000,60.750000 "/>
		<defs>
			<linearGradient id="GRAD_7" gradientUnits="userSpaceOnUse" x1="277.940000" y1="269.440000" x2="167.870000" y2="192.690000">
			<stop offset="0" style="stop-color:rgb(190,186,178)" opacity="1"/>
			<stop offset="1" style="stop-color:rgb(204,199,192)" opacity="1"/>
			</linearGradient>
		</defs>
		<path style="fill:url(#GRAD_7);stroke-width:0"
		 d="M277.750000,35.750000 L278.000000,226.250000 L233.000000,258.250000 L225.000000,265.000000 L217.500000,273.250000 L211.000000,283.000000 L206.000000,292.750000 L203.000000,302.500000 L201.750000,311.500000 L201.750000,323.500000 L113.750000,386.000000 L277.750000,35.750000 "/>
		<defs>
			<linearGradient id="GRAD_8" gradientUnits="userSpaceOnUse" x1="751.570000" y1="272.570000" x2="704.990000" y2="47.620000">
			<stop offset="0" style="stop-color:rgb(153,149,141)" opacity="1"/>
			<stop offset="1" style="stop-color:rgb(162,158,150)" opacity="1"/>
			</linearGradient>
		</defs>
		<path style="fill:url(#GRAD_8);stroke-width:0"
		 d="M751.500000,53.250000 L751.750000,229.500000 L747.750000,226.750000 L751.500000,53.250000 "/>
		<defs>
			<linearGradient id="GRAD_9" gradientUnits="userSpaceOnUse" x1="751.570000" y1="272.570000" x2="931.710000" y2="135.140000">
			<stop offset="0" style="stop-color:rgb(190,186,179)" opacity="1"/>
			<stop offset="1" style="stop-color:rgb(218,214,206)" opacity="1"/>
			</linearGradient>
		</defs>
		<path style="fill:url(#GRAD_9);stroke-width:0"
		 d="M794.250000,259.500000 L981.500000,201.000000 L912.500000,386.750000 L911.750000,386.250000 L823.250000,323.500000 L823.250000,280.250000 L794.250000,259.500000 "/>
		<defs>
			<linearGradient id="GRAD_10" gradientUnits="userSpaceOnUse" x1="233.000000" y1="258.070000" x2="222.890000" y2="273.990000">
			<stop offset="0" style="stop-color:rgb(163,159,151)" opacity="1"/>
			<stop offset="1" style="stop-color:rgb(189,185,177)" opacity="1"/>
			</linearGradient>
		</defs>
		<path style="fill:url(#GRAD_10);stroke-width:0"
		 d="M233.000000,258.250000 L536.000000,472.750000 L233.250000,270.750000 L232.500000,270.250000 L231.750000,269.750000 L231.000000,269.250000 L225.000000,265.000000 L233.000000,258.250000 "/>
		<defs>
			<linearGradient id="GRAD_11" gradientUnits="userSpaceOnUse" x1="224.960000" y1="264.810000" x2="202.600000" y2="306.710000">
			<stop offset="0" style="stop-color:rgb(177,173,165)" opacity="1"/>
			<stop offset="1" style="stop-color:rgb(208,204,196)" opacity="1"/>
			</linearGradient>
		</defs>
		<path style="fill:url(#GRAD_11);stroke-width:0"
		 d="M225.000000,265.000000 L231.000000,269.250000 L231.750000,269.750000 L232.500000,270.250000 L233.250000,270.750000 L529.500000,480.500000 L223.750000,277.750000 L223.000000,277.250000 L222.250000,276.750000 L217.500000,273.250000 L225.000000,265.000000 "/>
		<defs>
			<linearGradient id="GRAD_12" gradientUnits="userSpaceOnUse" x1="211.040000" y1="282.700000" x2="559.710000" y2="390.700000">
			<stop offset="0" style="stop-color:rgb(184,180,172)" opacity="1"/>
			<stop offset="1" style="stop-color:rgb(218,214,206)" opacity="1"/>
			</linearGradient>
		</defs>
		<path style="fill:url(#GRAD_12);stroke-width:0"
		 d="M217.500000,273.250000 L222.250000,276.750000 L223.000000,277.250000 L223.750000,277.750000 L521.000000,488.250000 L217.000000,287.000000 L216.250000,286.500000 L215.500000,286.000000 L211.000000,283.000000 L217.500000,273.250000 "/>
		<defs>
			<linearGradient id="GRAD_13" gradientUnits="userSpaceOnUse" x1="206.110000" y1="292.620000" x2="244.470000" y2="250.410000">
			<stop offset="0" style="stop-color:rgb(176,172,164)" opacity="1"/>
			<stop offset="1" style="stop-color:rgb(218,213,205)" opacity="1"/>
			</linearGradient>
		</defs>
		<path style="fill:url(#GRAD_13);stroke-width:0"
		 d="M211.000000,283.000000 L215.500000,286.000000 L216.250000,286.500000 L217.000000,287.000000 L514.250000,497.500000 L213.250000,297.750000 L212.500000,297.250000 L211.750000,296.750000 L211.000000,296.250000 L206.000000,292.750000 L211.000000,283.000000 "/>
		<defs>
			<linearGradient id="GRAD_14" gradientUnits="userSpaceOnUse" x1="203.000000" y1="302.300000" x2="221.660000" y2="278.730000">
			<stop offset="0" style="stop-color:rgb(161,157,149)" opacity="1"/>
			<stop offset="1" style="stop-color:rgb(207,202,195)" opacity="1"/>
			</linearGradient>
		</defs>
		<path style="fill:url(#GRAD_14);stroke-width:0"
		 d="M206.000000,292.750000 L211.000000,296.250000 L211.750000,296.750000 L212.500000,297.250000 L213.250000,297.750000 L509.750000,507.750000 L209.500000,307.000000 L208.750000,306.500000 L208.000000,306.000000 L203.000000,302.500000 L206.000000,292.750000 "/>
		<defs>
			<linearGradient id="GRAD_15" gradientUnits="userSpaceOnUse" x1="201.950000" y1="311.090000" x2="212.840000" y2="296.550000">
			<stop offset="0" style="stop-color:rgb(140,137,129)" opacity="1"/>
			<stop offset="1" style="stop-color:rgb(187,183,175)" opacity="1"/>
			</linearGradient>
		</defs>
		<path style="fill:url(#GRAD_15);stroke-width:0"
		 d="M203.000000,302.500000 L208.000000,306.000000 L208.750000,306.500000 L209.500000,307.000000 L505.000000,516.250000 L211.250000,317.750000 L210.500000,317.250000 L209.750000,316.750000 L209.000000,316.250000 L201.750000,311.500000 L203.000000,302.500000 "/>
		<defs>
			<linearGradient id="GRAD_16" gradientUnits="userSpaceOnUse" x1="512.540000" y1="810.250000" x2="641.210000" y2="725.060000">
			<stop offset="0" style="stop-color:rgb(138,134,127)" opacity="1"/>
			<stop offset="1" style="stop-color:rgb(159,155,148)" opacity="1"/>
			</linearGradient>
		</defs>
		<path style="fill:url(#GRAD_16);stroke-width:0"
		 d="M201.750000,311.500000 L209.000000,316.250000 L209.750000,316.750000 L210.500000,317.250000 L211.250000,317.750000 L512.500000,530.750000 L512.500000,810.250000 L512.000000,810.000000 L201.750000,311.500000 "/>
		<defs>
			<linearGradient id="GRAD_17" gradientUnits="userSpaceOnUse" x1="201.950000" y1="590.630000" x2="333.780000" y2="497.290000">
			<stop offset="0" style="stop-color:rgb(129,126,118)" opacity="1"/>
			<stop offset="1" style="stop-color:rgb(140,137,129)" opacity="1"/>
			</linearGradient>
		</defs>
		<path style="fill:url(#GRAD_17);stroke-width:0"
		 d="M201.750000,311.500000 L512.000000,810.000000 L417.750000,743.500000 L415.500000,742.000000 L413.750000,740.750000 L202.250000,591.250000 L201.750000,558.250000 L201.750000,547.750000 L240.750000,575.000000 L245.250000,572.500000 L311.250000,525.500000 L201.750000,447.750000 L201.750000,403.500000 L201.500000,380.500000 L201.750000,323.500000 L201.750000,311.500000 "/>
		<defs>
			<linearGradient id="GRAD_18" gradientUnits="userSpaceOnUse" x1="823.130000" y1="590.630000" x2="543.620000" y2="477.630000">
			<stop offset="0" style="stop-color:rgb(129,125,118)" opacity="1"/>
			<stop offset="1" style="stop-color:rgb(159,155,148)" opacity="1"/>
			</linearGradient>
		</defs>
		<path style="fill:url(#GRAD_18);stroke-width:0"
		 d="M823.250000,323.500000 L823.250000,352.500000 L823.250000,398.000000 L823.250000,448.000000 L712.750000,521.000000 L779.000000,571.500000 L823.250000,542.500000 L823.250000,558.250000 L823.000000,590.750000 L822.250000,590.500000 L543.500000,478.000000 L823.250000,280.250000 L823.250000,323.500000 "/>
		<path style="fill:rgb(93,90,83);opacity:1;stroke-width:0"
		 d="M823.250000,352.500000 L823.250000,323.500000 L911.750000,386.250000 L823.250000,352.500000 "/>
		<defs>
			<linearGradient id="GRAD_19" gradientUnits="userSpaceOnUse" x1="277.940000" y1="269.440000" x2="312.610000" y2="381.380000">
			<stop offset="0" style="stop-color:rgb(92,89,82)" opacity="1"/>
			<stop offset="1" style="stop-color:rgb(96,93,87)" opacity="1"/>
			</linearGradient>
		</defs>
		<path style="fill:url(#GRAD_19);stroke-width:0"
		 d="M201.500000,380.500000 L170.750000,425.250000 L170.250000,425.750000 L113.750000,386.000000 L201.750000,323.500000 L201.500000,380.500000 "/>
		<defs>
			<linearGradient id="GRAD_20" gradientUnits="userSpaceOnUse" x1="113.720000" y1="385.560000" x2="-19.380000" y2="279.280000">
			<stop offset="0" style="stop-color:rgb(197,193,185)" opacity="1"/>
			<stop offset="1" style="stop-color:rgb(218,214,206)" opacity="1"/>
			</linearGradient>
		</defs>
		<path style="fill:url(#GRAD_20);stroke-width:0"
		 d="M113.750000,386.000000 L43.250000,435.500000 L43.250000,201.000000 L113.750000,386.000000 "/>
		<path style="fill:rgb(94,91,85);opacity:1;stroke-width:0"
		 d="M823.250000,352.500000 L911.750000,386.250000 L912.500000,386.750000 L858.500000,425.000000 L823.250000,398.000000 L823.250000,352.500000 "/>
		<defs>
			<linearGradient id="GRAD_21" gradientUnits="userSpaceOnUse" x1="912.690000" y1="386.500000" x2="1043.810000" y2="271.480000">
			<stop offset="0" style="stop-color:rgb(198,193,186)" opacity="1"/>
			<stop offset="1" style="stop-color:rgb(218,214,206)" opacity="1"/>
			</linearGradient>
		</defs>
		<path style="fill:url(#GRAD_21);stroke-width:0"
		 d="M912.500000,386.750000 L981.500000,201.000000 L981.750000,435.750000 L912.500000,386.750000 "/>
		<defs>
			<linearGradient id="GRAD_22" gradientUnits="userSpaceOnUse" x1="277.940000" y1="269.440000" x2="289.480000" y2="416.100000">
			<stop offset="0" style="stop-color:rgb(92,89,82)" opacity="1"/>
			<stop offset="1" style="stop-color:rgb(96,93,87)" opacity="1"/>
			</linearGradient>
		</defs>
		<path style="fill:url(#GRAD_22);stroke-width:0"
		 d="M201.500000,380.500000 L201.750000,403.500000 L198.000000,406.250000 L170.750000,425.250000 L201.500000,380.500000 "/>
		<defs>
			<linearGradient id="GRAD_23" gradientUnits="userSpaceOnUse" x1="277.940000" y1="504.040000" x2="161.840000" y2="403.490000">
			<stop offset="0" style="stop-color:rgb(176,172,164)" opacity="1"/>
			<stop offset="1" style="stop-color:rgb(190,186,178)" opacity="1"/>
			</linearGradient>
		</defs>
		<path style="fill:url(#GRAD_23);stroke-width:0"
		 d="M201.750000,403.500000 L201.750000,447.750000 L182.000000,433.750000 L198.000000,406.250000 L201.750000,403.500000 M201.750000,547.750000 L201.750000,558.250000 L49.500000,666.000000 L43.250000,669.750000 L43.750000,669.250000 L140.500000,504.250000 L201.750000,547.750000 "/>
		<defs>
			<linearGradient id="GRAD_24" gradientUnits="userSpaceOnUse" x1="751.570000" y1="507.180000" x2="918.450000" y2="395.070000">
			<stop offset="0" style="stop-color:rgb(176,172,165)" opacity="1"/>
			<stop offset="1" style="stop-color:rgb(198,193,186)" opacity="1"/>
			</linearGradient>
		</defs>
		<path style="fill:url(#GRAD_24);stroke-width:0"
		 d="M823.250000,398.000000 L858.500000,425.000000 L823.250000,448.000000 L823.250000,398.000000 "/>
		<path style="fill:rgb(95,92,86);opacity:1;stroke-width:0"
		 d="M912.500000,386.750000 L981.750000,435.750000 L858.500000,425.000000 L912.500000,386.750000 M113.750000,386.000000 L170.250000,425.750000 L100.000000,475.500000 L92.750000,470.500000 L43.250000,435.500000 L113.750000,386.000000 "/>
		<defs>
			<linearGradient id="GRAD_25" gradientUnits="userSpaceOnUse" x1="43.330000" y1="669.930000" x2="-51.090000" y2="595.960000">
			<stop offset="0" style="stop-color:rgb(182,178,171)" opacity="1"/>
			<stop offset="1" style="stop-color:rgb(197,193,185)" opacity="1"/>
			</linearGradient>
		</defs>
		<path style="fill:url(#GRAD_25);stroke-width:0"
		 d="M198.000000,406.250000 L182.000000,433.750000 L170.250000,425.750000 L170.750000,425.250000 L198.000000,406.250000 M92.750000,470.500000 L100.000000,475.500000 L140.500000,504.250000 L43.750000,669.250000 L92.750000,470.500000 "/>
		<defs>
			<linearGradient id="GRAD_26" gradientUnits="userSpaceOnUse" x1="170.190000" y1="425.490000" x2="210.290000" y2="556.310000">
			<stop offset="0" style="stop-color:rgb(96,93,87)" opacity="1"/>
			<stop offset="1" style="stop-color:rgb(101,98,92)" opacity="1"/>
			</linearGradient>
		</defs>
		<path style="fill:url(#GRAD_26);stroke-width:0"
		 d="M170.250000,425.750000 L182.000000,433.750000 L201.750000,447.750000 L311.250000,525.500000 L100.000000,475.500000 L170.250000,425.750000 "/>
		<path style="fill:rgb(96,93,87);opacity:1;stroke-width:0"
		 d="M858.500000,425.000000 L981.750000,435.750000 L933.000000,470.000000 L925.500000,475.250000 L858.500000,425.000000 "/>
		<defs>
			<linearGradient id="GRAD_27" gradientUnits="userSpaceOnUse" x1="858.760000" y1="424.640000" x2="835.630000" y2="579.800000">
			<stop offset="0" style="stop-color:rgb(96,93,87)" opacity="1"/>
			<stop offset="1" style="stop-color:rgb(103,100,93)" opacity="1"/>
			</linearGradient>
		</defs>
		<path style="fill:url(#GRAD_27);stroke-width:0"
		 d="M858.500000,425.000000 L779.000000,571.500000 L712.750000,521.000000 L823.250000,448.000000 L858.500000,425.000000 "/>
		<defs>
			<linearGradient id="GRAD_28" gradientUnits="userSpaceOnUse" x1="981.740000" y1="669.930000" x2="1097.720000" y2="570.200000">
			<stop offset="0" style="stop-color:rgb(182,178,171)" opacity="1"/>
			<stop offset="1" style="stop-color:rgb(200,196,188)" opacity="1"/>
			</linearGradient>
		</defs>
		<path style="fill:url(#GRAD_28);stroke-width:0"
		 d="M933.000000,470.000000 L981.750000,435.750000 L981.500000,670.000000 L933.000000,470.000000 "/>
		<defs>
			<linearGradient id="GRAD_29" gradientUnits="userSpaceOnUse" x1="43.330000" y1="669.930000" x2="-70.440000" y2="581.120000">
			<stop offset="0" style="stop-color:rgb(182,178,171)" opacity="1"/>
			<stop offset="1" style="stop-color:rgb(200,196,188)" opacity="1"/>
			</linearGradient>
		</defs>
		<path style="fill:url(#GRAD_29);stroke-width:0"
		 d="M92.750000,470.500000 L43.750000,669.250000 L43.250000,669.750000 L43.250000,435.500000 L92.750000,470.500000 "/>
		<defs>
			<linearGradient id="GRAD_30" gradientUnits="userSpaceOnUse" x1="224.960000" y1="264.810000" x2="216.210000" y2="278.390000">
			<stop offset="0" style="stop-color:rgb(177,173,165)" opacity="1"/>
			<stop offset="1" style="stop-color:rgb(208,204,196)" opacity="1"/>
			</linearGradient>
		</defs>
		<path style="fill:url(#GRAD_30);stroke-width:0"
		 d="M536.000000,472.750000 L536.750000,473.250000 L537.500000,473.750000 L538.000000,474.000000 L543.500000,478.000000 L535.500000,484.750000 L529.500000,480.500000 L233.250000,270.750000 L536.000000,472.750000 "/>
		<defs>
			<linearGradient id="GRAD_31" gradientUnits="userSpaceOnUse" x1="858.760000" y1="424.640000" x2="801.030000" y2="579.570000">
			<stop offset="0" style="stop-color:rgb(96,93,87)" opacity="1"/>
			<stop offset="1" style="stop-color:rgb(103,100,93)" opacity="1"/>
			</linearGradient>
		</defs>
		<path style="fill:url(#GRAD_31);stroke-width:0"
		 d="M925.500000,475.250000 L823.250000,542.500000 L779.000000,571.500000 L858.500000,425.000000 L925.500000,475.250000 "/>
		<defs>
			<linearGradient id="GRAD_32" gradientUnits="userSpaceOnUse" x1="751.570000" y1="507.180000" x2="896.790000" y2="369.700000">
			<stop offset="0" style="stop-color:rgb(176,172,165)" opacity="1"/>
			<stop offset="1" style="stop-color:rgb(198,193,186)" opacity="1"/>
			</linearGradient>
		</defs>
		<path style="fill:url(#GRAD_32);stroke-width:0"
		 d="M933.000000,470.000000 L981.500000,670.000000 L823.250000,558.250000 L823.250000,542.500000 L925.500000,475.250000 L933.000000,470.000000 "/>
		<defs>
			<linearGradient id="GRAD_33" gradientUnits="userSpaceOnUse" x1="217.470000" y1="273.210000" x2="199.440000" y2="304.720000">
			<stop offset="0" style="stop-color:rgb(184,180,173)" opacity="1"/>
			<stop offset="1" style="stop-color:rgb(218,214,206)" opacity="1"/>
			</linearGradient>
		</defs>
		<path style="fill:url(#GRAD_33);stroke-width:0"
		 d="M529.500000,480.500000 L535.500000,484.750000 L527.750000,493.000000 L522.250000,489.000000 L521.750000,488.750000 L521.000000,488.250000 L223.750000,277.750000 L529.500000,480.500000 "/>
		<path style="fill:rgb(159,155,147);opacity:1;stroke-width:0"
		 d="M543.500000,478.000000 L514.750000,527.000000 L514.000000,527.750000 L513.000000,529.750000 L512.500000,530.750000 L513.500000,522.000000 L516.500000,512.750000 L521.500000,502.500000 L527.750000,493.000000 L535.500000,484.750000 L543.500000,478.000000 "/>
		<defs>
			<linearGradient id="GRAD_34" gradientUnits="userSpaceOnUse" x1="211.040000" y1="282.700000" x2="529.870000" y2="285.470000">
			<stop offset="0" style="stop-color:rgb(184,180,172)" opacity="1"/>
			<stop offset="1" style="stop-color:rgb(218,214,206)" opacity="1"/>
			</linearGradient>
		</defs>
		<path style="fill:url(#GRAD_34);stroke-width:0"
		 d="M521.000000,488.250000 L521.750000,488.750000 L522.250000,489.000000 L527.750000,493.000000 L521.500000,502.500000 L515.500000,498.250000 L515.000000,498.000000 L514.250000,497.500000 L217.000000,287.000000 L521.000000,488.250000 "/>
		<defs>
			<linearGradient id="GRAD_35" gradientUnits="userSpaceOnUse" x1="206.110000" y1="292.620000" x2="232.060000" y2="261.420000">
			<stop offset="0" style="stop-color:rgb(176,172,164)" opacity="1"/>
			<stop offset="1" style="stop-color:rgb(218,213,205)" opacity="1"/>
			</linearGradient>
		</defs>
		<path style="fill:url(#GRAD_35);stroke-width:0"
		 d="M514.250000,497.500000 L515.000000,498.000000 L515.500000,498.250000 L521.500000,502.500000 L516.500000,512.750000 L511.750000,509.000000 L511.250000,508.750000 L510.500000,508.250000 L509.750000,507.750000 L213.250000,297.750000 L514.250000,497.500000 "/>
		<defs>
			<linearGradient id="GRAD_36" gradientUnits="userSpaceOnUse" x1="99.810000" y1="475.260000" x2="115.630000" y2="592.070000">
			<stop offset="0" style="stop-color:rgb(97,94,88)" opacity="1"/>
			<stop offset="1" style="stop-color:rgb(103,100,94)" opacity="1"/>
			</linearGradient>
		</defs>
		<path style="fill:url(#GRAD_36);stroke-width:0"
		 d="M140.500000,504.250000 L100.000000,475.500000 L311.250000,525.500000 L245.250000,572.500000 L240.750000,575.000000 L201.750000,547.750000 L140.500000,504.250000 "/>
		<defs>
			<linearGradient id="GRAD_37" gradientUnits="userSpaceOnUse" x1="203.000000" y1="302.300000" x2="216.060000" y2="285.030000">
			<stop offset="0" style="stop-color:rgb(161,157,149)" opacity="1"/>
			<stop offset="1" style="stop-color:rgb(207,202,195)" opacity="1"/>
			</linearGradient>
		</defs>
		<path style="fill:url(#GRAD_37);stroke-width:0"
		 d="M509.750000,507.750000 L510.500000,508.250000 L511.250000,508.750000 L511.750000,509.000000 L516.500000,512.750000 L513.500000,522.000000 L506.250000,517.000000 L505.750000,516.750000 L505.000000,516.250000 L209.500000,307.000000 L509.750000,507.750000 "/>
		<defs>
			<linearGradient id="GRAD_38" gradientUnits="userSpaceOnUse" x1="201.950000" y1="311.090000" x2="209.350000" y2="300.900000">
			<stop offset="0" style="stop-color:rgb(140,137,129)" opacity="1"/>
			<stop offset="1" style="stop-color:rgb(187,183,175)" opacity="1"/>
			</linearGradient>
		</defs>
		<path style="fill:url(#GRAD_38);stroke-width:0"
		 d="M505.000000,516.250000 L505.750000,516.750000 L506.250000,517.000000 L513.500000,522.000000 L512.500000,530.750000 L211.250000,317.750000 L505.000000,516.250000 "/>
		<defs>
			<linearGradient id="GRAD_39" gradientUnits="userSpaceOnUse" x1="823.130000" y1="590.630000" x2="576.610000" y2="427.730000">
			<stop offset="0" style="stop-color:rgb(129,125,118)" opacity="1"/>
			<stop offset="1" style="stop-color:rgb(159,155,148)" opacity="1"/>
			</linearGradient>
		</defs>
		<path style="fill:url(#GRAD_39);stroke-width:0"
		 d="M514.750000,527.000000 L543.500000,478.000000 L822.250000,590.500000 L512.500000,530.750000 L513.000000,529.750000 L514.000000,527.750000 L514.750000,527.000000 "/>
		<defs>
			<linearGradient id="GRAD_40" gradientUnits="userSpaceOnUse" x1="823.130000" y1="590.630000" x2="626.530000" y2="408.000000">
			<stop offset="0" style="stop-color:rgb(129,125,118)" opacity="1"/>
			<stop offset="1" style="stop-color:rgb(159,155,147)" opacity="1"/>
			</linearGradient>
		</defs>
		<path style="fill:url(#GRAD_40);stroke-width:0"
		 d="M512.500000,530.750000 L822.250000,590.500000 L823.000000,590.750000 L649.250000,714.000000 L629.000000,728.250000 L611.750000,740.500000 L512.500000,810.250000 L512.500000,530.750000 "/>
		<path style="fill:rgb(85,82,76);opacity:1;stroke-width:0"
		 d="M649.250000,714.000000 L746.500000,779.000000 L747.250000,779.500000 L747.000000,836.000000 L745.250000,834.500000 L629.000000,728.250000 L649.250000,714.000000 "/>
		<path style="fill:rgb(84,81,74);opacity:1;stroke-width:0"
		 d="M629.000000,728.250000 L745.250000,834.500000 L611.750000,740.500000 L629.000000,728.250000 "/>
		<defs>
			<linearGradient id="GRAD_41" gradientUnits="userSpaceOnUse" x1="514.440000" y1="669.800000" x2="462.460000" y2="624.880000">
			<stop offset="0" style="stop-color:rgb(151,147,140)" opacity="1"/>
			<stop offset="1" style="stop-color:rgb(157,153,146)" opacity="1"/>
			</linearGradient>
		</defs>
		<path style="fill:url(#GRAD_41);stroke-width:0"
		 d="M413.750000,740.750000 L415.500000,742.000000 L298.000000,828.000000 L296.250000,829.250000 L295.750000,829.500000 L295.250000,830.000000 L294.500000,830.500000 L294.000000,830.750000 L293.500000,831.250000 L293.000000,831.500000 L291.750000,832.500000 L291.250000,832.750000 L282.250000,839.000000 L282.250000,833.250000 L413.750000,740.750000 "/>
		<defs>
			<linearGradient id="GRAD_42" gradientUnits="userSpaceOnUse" x1="516.970000" y1="673.060000" x2="457.840000" y2="624.650000">
			<stop offset="0" style="stop-color:rgb(151,147,139)" opacity="1"/>
			<stop offset="1" style="stop-color:rgb(157,153,145)" opacity="1"/>
			</linearGradient>
		</defs>
		<path style="fill:url(#GRAD_42);stroke-width:0"
		 d="M415.500000,742.000000 L417.750000,743.500000 L298.000000,828.000000 L415.500000,742.000000 "/>
		<defs>
			<linearGradient id="GRAD_43" gradientUnits="userSpaceOnUse" x1="516.970000" y1="673.060000" x2="514.220000" y2="842.710000">
			<stop offset="0" style="stop-color:rgb(205,201,193)" opacity="1"/>
			<stop offset="1" style="stop-color:rgb(216,211,204)" opacity="1"/>
			</linearGradient>
		</defs>
		<path style="fill:url(#GRAD_43);stroke-width:0"
		 d="M417.750000,743.500000 L512.000000,810.000000 L512.500000,810.250000 L611.750000,740.500000 L745.250000,834.500000 L747.000000,836.000000 L282.250000,839.000000 L291.250000,832.750000 L291.750000,832.500000 L293.000000,831.500000 L293.500000,831.250000 L294.000000,830.750000 L294.500000,830.500000 L295.250000,830.000000 L295.750000,829.500000 L296.250000,829.250000 L298.000000,828.000000 L417.750000,743.500000 "/>
		<defs>
			<linearGradient id="GRAD_44" gradientUnits="userSpaceOnUse" x1="747.140000" y1="835.820000" x2="745.410000" y2="1004.110000">
			<stop offset="0" style="stop-color:rgb(215,211,203)" opacity="1"/>
			<stop offset="1" style="stop-color:rgb(229,225,217)" opacity="1"/>
			</linearGradient>
		</defs>
		<path style="fill:url(#GRAD_44);stroke-width:0"
		 d="M747.000000,836.000000 L512.500000,1001.750000 L282.250000,839.000000 L747.000000,836.000000 "/>
		<path style="stroke:rgb(0,0,0);stroke-width:8.650000;stroke-linecap:round;stroke-linejoin:round;fill:none"
		 d="M278.000000,226.250000 L233.000000,258.250000 L225.000000,265.000000 L217.500000,273.250000 L211.000000,283.000000 L206.000000,292.750000 L203.000000,302.500000 L201.750000,311.500000 L201.750000,323.500000 L113.750000,386.000000 L43.250000,435.500000 L43.250000,201.000000 L278.000000,35.000000 L333.750000,74.250000 L334.250000,75.250000 L334.500000,186.250000 L293.750000,215.000000 L278.000000,226.250000 L277.750000,35.750000 L278.000000,35.000000 		"/>
		<path style="stroke:rgb(0,0,0);stroke-width:8.650000;stroke-linecap:round;stroke-linejoin:round;fill:none"
		 d="M751.750000,229.500000 L794.250000,259.500000 L823.250000,280.250000 L823.250000,323.500000 L911.750000,386.250000 L912.500000,386.750000 L981.750000,435.750000 L981.500000,201.000000 L751.750000,38.250000 L745.750000,42.000000 L746.250000,225.500000 L747.750000,226.750000 L751.750000,229.500000 L751.500000,53.250000 L751.750000,38.250000 		"/>
		<path style="stroke:rgb(0,0,0);stroke-width:8.650000;stroke-linecap:round;stroke-linejoin:round;fill:none"
		 d="M334.500000,186.250000 L512.750000,60.750000 L746.250000,225.500000 		"/>
		<path style="stroke:rgb(0,0,0);stroke-width:8.650000;stroke-linecap:round;stroke-linejoin:round;fill:none"
		 d="M823.250000,398.000000 L823.250000,448.000000 L858.500000,425.000000 L823.250000,398.000000 L823.250000,352.500000 L823.250000,323.500000 		"/>
		<path style="stroke:rgb(0,0,0);stroke-width:8.650000;stroke-linecap:round;stroke-linejoin:round;fill:none"
		 d="M201.750000,403.500000 L201.750000,447.750000 L182.000000,433.750000 L170.250000,425.750000 L170.750000,425.250000 L198.000000,406.250000 L201.750000,403.500000 L201.500000,380.500000 L201.750000,323.500000 		"/>
		<path style="stroke:rgb(0,0,0);stroke-width:8.650000;stroke-linecap:round;stroke-linejoin:round;fill:none"
		 d="M823.250000,280.250000 L543.500000,478.000000 L535.500000,484.750000 L527.750000,493.000000 L521.500000,502.500000 L516.500000,512.750000 L513.500000,522.000000 L512.500000,530.750000 L512.500000,810.250000 L611.750000,740.500000 L629.000000,728.250000 L649.250000,714.000000 L823.000000,590.750000 L823.250000,558.250000 L823.250000,542.500000 L925.500000,475.250000 L933.000000,470.000000 L981.750000,435.750000 L981.500000,670.000000 L823.250000,558.250000 		"/>
		<path style="stroke:rgb(0,0,0);stroke-width:8.650000;stroke-linecap:round;stroke-linejoin:round;fill:none"
		 d="M43.250000,435.500000 L43.250000,669.750000 L49.500000,666.000000 L201.750000,558.250000 L201.750000,547.750000 L140.500000,504.250000 L100.000000,475.500000 L92.750000,470.500000 L43.250000,435.500000 		"/>
		<path style="stroke:rgb(0,0,0);stroke-width:8.650000;stroke-linecap:round;stroke-linejoin:round;fill:none"
		 d="M201.750000,547.750000 L240.750000,575.000000 L245.250000,572.500000 L311.250000,525.500000 L201.750000,447.750000 		"/>
		<path style="stroke:rgb(0,0,0);stroke-width:8.650000;stroke-linecap:round;stroke-linejoin:round;fill:none"
		 d="M823.250000,542.500000 L779.000000,571.500000 L712.750000,521.000000 L823.250000,448.000000 		"/>
		<path style="stroke:rgb(0,0,0);stroke-width:8.650000;stroke-linecap:round;stroke-linejoin:round;fill:none"
		 d="M512.500000,810.250000 L512.000000,810.000000 L417.750000,743.500000 L415.500000,742.000000 L413.750000,740.750000 L202.250000,591.250000 L201.750000,558.250000 		"/>
		<path style="stroke:rgb(0,0,0);stroke-width:8.650000;stroke-linecap:round;stroke-linejoin:round;fill:none"
		 d="M417.750000,743.500000 L298.000000,828.000000 L296.250000,829.250000 L295.750000,829.500000 L295.250000,830.000000 L294.500000,830.500000 L294.000000,830.750000 L293.500000,831.250000 L293.000000,831.500000 L291.750000,832.500000 L291.250000,832.750000 L282.250000,839.000000 L282.250000,833.250000 L413.750000,740.750000 		"/>
		<path style="stroke:rgb(0,0,0);stroke-width:8.650000;stroke-linecap:round;stroke-linejoin:round;fill:none"
		 d="M649.250000,714.000000 L746.500000,779.000000 L747.250000,779.500000 L747.000000,836.000000 L745.250000,834.500000 L611.750000,740.500000 		"/>
		<path style="stroke:rgb(0,0,0);stroke-width:8.650000;stroke-linecap:round;stroke-linejoin:round;fill:none"
		 d="M282.250000,839.000000 L512.500000,1001.750000 L747.000000,836.000000 		"/>
	</g>
</svg>