<?xml version="1.0" encoding="iso-8859-1"?>
<!DOCTYPE svg PUBLIC "-//W3C//DTD SVG 20000303 Stylable//EN"
"http://www.w3.org/TR/2000/03/WD-SVG-20000303/DTD/svg-20000303-stylable.dtd">
<!-- Generator: --> 
<svg width="256pt" height="256pt" viewBox="0 0 256 256">
	<g  id="FRAME_0" style="visibility:visible" fill-rule="evenodd">
		<path style="fill:rgb(255,216,75);opacity:1;stroke-width:0"
		 d="M124.500000,34.450001 L128.949997,34.200001 L133.399994,34.450001 L137.800003,35.150002 L142.149994,36.250000 L146.350006,37.750000 L149.250000,38.900002 L149.750000,39.150002 L150.350006,39.650002 L151.350006,40.000000 L152.149994,40.500000 L152.199997,40.500000 L154.199997,41.900002 L157.750000,44.599998 L161.000000,47.599998 L164.000000,50.849998 L166.649994,54.400002 L168.949997,58.200001 L170.850006,62.200001 L172.399994,66.050003 L172.399994,66.400002 L173.449997,70.750000 L174.149994,75.150002 L174.199997,75.150002 L174.199997,75.199997 L174.399994,79.599998 L174.149994,84.099998 L173.500000,88.449997 L172.399994,92.800003 L170.899994,97.000000 L169.000000,101.000000 L166.699997,104.800003 L164.050003,108.400002 L161.000000,111.699997 L157.750000,114.750000 L154.149994,117.349998 L150.300003,119.599998 L146.300003,121.599998 L142.100006,123.099998 L137.800003,124.199997 L133.399994,124.800003 L128.899994,125.050003 L124.400002,124.800003 L120.000000,124.150002 L115.650002,123.050003 L111.550003,121.599998 L107.500000,119.650002 L107.400002,119.599998 L103.650002,117.400002 L100.050003,114.699997 L100.000000,114.650002 L96.800003,111.750000 L96.750000,111.599998 L93.800003,108.400002 L93.750000,108.349998 L91.099998,104.800003 L88.800003,101.000000 L86.949997,96.949997 L85.400002,92.800003 L84.349998,88.400002 L83.650002,84.000000 L83.449997,79.599998 L83.650002,75.150002 L84.250000,70.949997 L84.400002,70.699997 L85.449997,66.400002 L86.949997,62.200001 L88.800003,58.200001 L91.099998,54.349998 L93.800003,50.799999 L96.750000,47.450001 L100.050003,44.500000 L103.599998,41.799999 L107.599998,39.599998 L111.500000,37.599998 L115.699997,36.099998 L120.099998,35.099998 L124.500000,34.450001 M128.899994,40.700001 L125.099998,40.900002 L121.300003,41.450001 L117.650002,42.400002 L113.949997,43.599998 L110.500000,45.200001 L107.250000,47.200001 L105.050003,49.000000 L105.000000,49.049999 L104.949997,49.099998 L104.199997,49.500000 L102.099998,51.599998 L101.349998,52.049999 L100.050003,53.700001 L98.849998,54.900002 L98.599998,55.400002 L97.699997,56.599998 L96.949997,57.650002 L96.599998,58.000000 L96.050003,59.049999 L95.300003,60.299999 L94.650002,61.250000 L93.000000,64.750000 L91.699997,68.349998 L90.800003,72.000000 L90.199997,75.800003 L90.050003,79.599998 L90.199997,83.400002 L90.699997,87.199997 L91.599998,90.900002 L92.900002,94.550003 L94.550003,98.000000 L96.500000,101.300003 L98.800003,104.400002 L101.349998,107.250000 L104.199997,109.800003 L107.300003,112.050003 L110.599998,114.050003 L114.000000,115.650002 L117.650002,117.000000 L121.400002,117.949997 L125.199997,118.500000 L129.000000,118.599998 L132.800003,118.400002 L136.600006,117.849998 L140.350006,116.949997 L143.800003,115.500000 L147.250000,113.849998 L148.350006,113.150002 L149.000000,112.750000 L149.750000,112.349998 L150.250000,112.000000 L150.500000,111.900002 L150.750000,111.699997 L151.050003,111.449997 L151.399994,111.199997 L152.000000,110.750000 L153.100006,109.949997 L153.600006,109.650002 L154.399994,108.849998 L155.949997,107.400002 L156.399994,107.099998 L157.550003,105.750000 L159.000000,104.250000 L161.250000,101.199997 L163.199997,97.949997 L164.850006,94.500000 L166.149994,90.900002 L167.000000,87.199997 L167.600006,83.400002 L167.800003,79.599998 L167.600006,75.800003 L167.050003,72.000000 L166.100006,68.300003 L164.800003,64.699997 L163.500000,62.000000 L163.199997,61.250000 L162.300003,59.799999 L162.050003,59.400002 L161.199997,58.000000 L160.750000,57.400002 L160.600006,57.200001 L160.500000,57.049999 L160.399994,56.900002 L160.250000,56.750000 L160.100006,56.549999 L160.000000,56.400002 L159.850006,56.200001 L159.750000,56.049999 L159.750000,56.000000 L158.949997,54.900002 L158.699997,54.700001 L158.550003,54.500000 L156.399994,52.099998 L154.550003,50.450001 L153.600006,49.500000 L150.800003,47.500000 L150.500000,47.200001 L147.350006,45.400002 L147.250000,45.299999 L143.800003,43.599998 L143.600006,43.599998 L142.800003,43.349998 L140.199997,42.400002 L136.500000,41.450001 L132.750000,40.900002 L128.899994,40.700001 "/>
		<path style="fill:rgb(203,203,203);opacity:1;stroke-width:0"
		 d="M74.400002,31.799999 L79.050003,28.299999 L79.050003,37.400002 L79.050003,48.250000 L78.900002,57.099998 L78.949997,64.699997 L78.900002,71.349998 L78.949997,77.349998 L79.000000,82.849998 L79.050003,88.050003 L79.099998,93.050003 L79.099998,97.949997 L78.949997,102.800003 L79.000000,107.800003 L79.000000,113.000000 L79.050003,113.000000 L78.849998,115.000000 L82.550003,117.099998 L87.699997,119.900002 L92.099998,122.449997 L96.099998,124.750000 L99.800003,126.900002 L103.349998,128.949997 L106.800003,130.899994 L110.150002,132.850006 L113.550003,134.800003 L117.000000,136.800003 L120.650002,138.949997 L124.550003,141.199997 L128.750000,143.800003 L132.949997,141.199997 L136.800003,138.949997 L140.449997,136.800003 L143.949997,134.800003 L147.350006,132.850006 L150.699997,130.899994 L154.100006,128.949997 L157.649994,126.900002 L161.399994,124.750000 L165.399994,122.449997 L169.800003,119.900002 L174.750000,117.000000 L178.399994,114.900002 L178.399994,113.000000 L178.399994,107.800003 L178.399994,102.800003 L178.399994,97.949997 L178.399994,93.050003 L178.399994,88.050003 L178.399994,82.849998 L178.399994,77.349998 L178.399994,71.400002 L178.399994,64.750000 L178.399994,57.200001 L178.399994,48.250000 L178.399994,37.400002 L178.399994,28.250000 L183.100006,31.750000 L189.250000,37.400002 L194.800003,43.650002 L199.750000,50.400002 L204.300003,57.549999 L207.899994,65.150002 L210.449997,73.099998 L212.600006,81.199997 L213.750000,89.550003 L214.399994,97.949997 L213.899994,106.349998 L212.550003,114.599998 L210.750000,122.800003 L207.899994,130.699997 L204.300003,138.300003 L200.000000,145.500000 L195.000000,152.250000 L189.300003,158.500000 L183.050003,164.149994 L176.350006,169.149994 L169.100006,173.449997 L161.500000,177.050003 L161.500000,255.000000 L160.250000,255.000000 L153.600006,255.000000 L152.250000,255.000000 L145.399994,255.000000 L144.050003,255.000000 L137.149994,255.000000 L135.750000,255.000000 L128.750000,255.000000 L121.800003,255.000000 L120.349998,255.000000 L113.400002,255.000000 L112.000000,255.000000 L105.199997,255.000000 L103.849998,255.000000 L97.250000,255.000000 L95.949997,255.000000 L96.000000,180.350006 L95.949997,177.100006 L95.949997,177.050003 L95.900002,177.000000 L88.400002,173.449997 L81.150002,169.100006 L74.400002,164.100006 L68.199997,158.449997 L62.549999,152.199997 L57.549999,145.500000 L57.549999,145.449997 L55.500000,142.199997 L53.200001,138.250000 L49.599998,130.699997 L49.599998,130.649994 L46.799999,122.800003 L44.700001,114.599998 L43.549999,106.349998 L43.099998,97.949997 L43.500000,89.550003 L44.750000,81.199997 L46.799999,73.099998 L49.599998,65.199997 L52.849998,58.200001 L53.200001,57.599998 L57.500000,50.400002 L62.500000,43.599998 L68.150002,37.400002 L74.400002,31.799999 "/>
		<path style="fill:rgb(255,206,61);opacity:1;stroke-width:0"
		 d="M149.750000,39.150002 L151.000000,39.500000 L151.250000,39.750000 L152.149994,40.500000 L151.350006,40.000000 L150.350006,39.650002 L149.750000,39.150002 M143.800003,43.599998 L147.250000,45.299999 L147.350006,45.400002 L150.500000,47.200001 L150.800003,47.500000 L153.600006,49.500000 L154.550003,50.450001 L156.399994,52.099998 L158.550003,54.500000 L158.699997,54.700001 L158.949997,54.900002 L159.750000,56.000000 L159.750000,56.049999 L159.850006,56.200001 L160.000000,56.400002 L160.100006,56.549999 L160.250000,56.750000 L160.399994,56.900002 L160.500000,57.049999 L160.600006,57.200001 L160.750000,57.400002 L161.199997,58.000000 L162.050003,59.400002 L162.300003,59.799999 L163.199997,61.250000 L163.500000,62.000000 L162.199997,62.650002 L162.149994,62.700001 L162.050003,62.750000 L162.000000,62.799999 L161.800003,62.900002 L161.699997,62.950001 L161.600006,63.000000 L161.600006,63.000000 L158.500000,64.500000 L158.300003,64.699997 L158.199997,64.750000 L158.149994,64.800003 L158.100006,64.800003 L156.050003,65.900002 L155.550003,66.199997 L155.449997,66.199997 L155.399994,66.250000 L155.300003,66.300003 L155.100006,66.400002 L155.000000,66.449997 L154.949997,66.500000 L154.850006,66.550003 L154.800003,66.599998 L154.600006,66.699997 L154.500000,66.750000 L154.399994,66.800003 L154.350006,66.800003 L154.300003,66.800003 L147.800003,70.199997 L147.699997,70.250000 L147.699997,70.400002 L147.699997,70.449997 L147.699997,70.550003 L147.649994,71.099998 L147.600006,71.599998 L147.500000,72.150002 L147.399994,72.650002 L147.250000,73.199997 L147.199997,73.750000 L147.149994,74.300003 L147.000000,74.849998 L146.949997,75.400002 L146.850006,76.000000 L146.750000,76.599998 L146.600006,77.250000 L146.500000,77.949997 L146.399994,78.650002 L146.250000,79.400002 L146.149994,80.199997 L146.000000,81.050003 L145.800003,82.000000 L145.649994,83.050003 L145.449997,84.199997 L145.199997,85.199997 L145.399994,85.400002 L145.850006,86.099998 L146.300003,86.849998 L146.800003,87.650002 L147.250000,88.449997 L147.800003,89.300003 L148.350006,90.199997 L148.899994,91.099998 L149.500000,92.199997 L150.149994,93.150002 L150.800003,94.250000 L151.399994,95.300003 L151.600006,95.449997 L152.399994,96.849998 L152.750000,97.449997 L152.949997,97.849998 L153.449997,98.650002 L154.699997,100.750000 L154.899994,100.900002 L155.350006,101.650002 L155.600006,102.099998 L156.800003,104.199997 L157.550003,105.650002 L157.550003,105.750000 L156.399994,107.099998 L155.949997,107.400002 L154.399994,108.849998 L153.600006,109.650002 L153.100006,109.949997 L152.000000,110.750000 L151.399994,111.199997 L151.050003,111.449997 L150.750000,111.699997 L150.500000,111.900002 L150.250000,112.000000 L149.750000,112.349998 L149.000000,112.750000 L139.850006,114.550003 L138.399994,114.599998 L137.000000,114.099998 L136.949997,114.099998 L135.500000,113.199997 L134.350006,111.949997 L133.550003,110.449997 L133.199997,108.800003 L133.300003,108.750000 L133.199997,108.349998 L132.699997,101.849998 L132.800003,101.800003 L132.649994,100.900002 L131.750000,87.900002 L131.750000,87.800003 L131.250000,87.349998 L120.349998,75.650002 L120.400002,75.599998 L119.900002,75.599998 L107.300003,74.550003 L100.800003,74.000000 L99.300003,73.699997 L97.849998,72.849998 L96.650002,71.650002 L95.800003,70.199997 L95.400002,68.550003 L95.300003,67.050003 L95.400002,66.900002 L95.400002,66.849998 L95.449997,66.699997 L95.500000,66.599998 L95.550003,65.849998 L95.599998,65.599998 L95.849998,64.000000 L96.949997,57.650002 L97.699997,56.599998 L98.599998,55.400002 L98.849998,54.900002 L100.050003,53.700001 L101.349998,52.049999 L102.099998,51.599998 L104.199997,49.500000 L104.949997,49.099998 L105.000000,49.049999 L105.050003,49.000000 L108.500000,51.200001 L111.000000,53.000000 L111.150002,53.049999 L113.000000,54.299999 L115.449997,56.000000 L115.550003,56.049999 L122.599998,61.000000 L122.800003,61.200001 L126.300003,60.500000 L129.100006,59.950001 L131.550003,59.450001 L133.750000,59.000000 L135.699997,58.650002 L136.800003,58.549999 L137.149994,57.450001 L137.199997,57.400002 L137.199997,57.250000 L137.250000,57.200001 L142.000000,46.950001 L142.199997,46.349998 L142.250000,46.250000 L143.600006,43.599998 L143.800003,43.599998 M133.050003,67.099998 L133.000000,67.150002 L132.850006,67.199997 L132.800003,67.199997 L131.350006,67.400002 L130.899994,67.750000 L130.800003,67.800003 L130.350006,68.000000 L130.000000,68.349998 L129.399994,68.949997 L129.199997,69.449997 L128.899994,69.949997 L128.800003,70.199997 L128.800003,70.849998 L128.449997,72.000000 L128.550003,72.099998 L128.550003,72.300003 L128.600006,73.349998 L128.800003,73.750000 L129.000000,74.550003 L129.149994,74.900002 L129.350006,75.150002 L129.800003,76.000000 L130.000000,76.250000 L130.300003,76.500000 L131.300003,77.650002 L132.500000,78.449997 L133.300003,78.699997 L133.800003,78.949997 L135.199997,79.099998 L136.850006,78.750000 L137.149994,78.550003 L137.949997,78.199997 L138.600006,77.400002 L138.800003,77.199997 L139.199997,76.199997 L139.350006,76.000000 L139.600006,74.300003 L139.649994,74.199997 L139.449997,72.900002 L139.600006,72.800003 L139.199997,71.550003 L139.149994,71.449997 L139.100006,71.349998 L138.300003,70.050003 L138.199997,70.000000 L136.949997,68.599998 L136.800003,68.199997 L135.649994,67.800003 L134.399994,67.250000 L134.399994,67.199997 L133.050003,67.099998 "/>
		<path style="fill:rgb(182,106,31);opacity:1;stroke-width:0"
		 d="M142.800003,43.349998 L143.600006,43.599998 L142.250000,46.250000 L142.800003,43.349998 "/>
		<path style="fill:rgb(0,0,0);opacity:1;stroke-width:0"
		 d="M128.949997,44.700001 L132.399994,45.000000 L135.800003,45.450001 L139.100006,46.349998 L141.100006,46.799999 L140.800003,47.700001 L140.250000,48.799999 L140.199997,48.950001 L140.199997,49.000000 L140.199997,49.049999 L139.899994,49.450001 L139.399994,50.750000 L139.000000,51.450001 L138.649994,52.299999 L137.699997,51.000000 L137.600006,50.950001 L134.899994,50.299999 L138.050003,53.450001 L137.399994,54.799999 L136.850006,56.150002 L136.250000,57.400002 L135.699997,58.650002 L133.750000,59.000000 L131.550003,59.450001 L129.100006,59.950001 L126.300003,60.500000 L122.800003,61.200001 L122.599998,61.000000 L115.550003,56.049999 L115.449997,56.000000 L113.000000,54.299999 L111.150002,53.049999 L111.000000,53.000000 L108.500000,51.200001 L109.449997,50.549999 L112.400002,48.799999 L115.500000,47.299999 L118.750000,46.150002 L122.050003,45.299999 L125.550003,44.950001 L128.949997,44.700001 M159.600006,64.199997 L160.149994,63.900002 L161.149994,66.250000 L162.300003,69.449997 L163.149994,72.800003 L163.699997,76.199997 L163.850006,79.599998 L163.699997,83.050003 L163.199997,86.400002 L162.350006,89.750000 L162.250000,90.199997 L161.199997,93.000000 L159.750000,96.050003 L158.000000,99.000000 L156.000000,101.750000 L155.600006,102.099998 L155.350006,101.650002 L154.899994,100.900002 L154.699997,100.750000 L153.449997,98.650002 L152.949997,97.849998 L152.750000,97.449997 L152.399994,96.849998 L151.600006,95.449997 L151.399994,95.300003 L150.800003,94.250000 L150.149994,93.150002 L149.500000,92.199997 L148.899994,91.099998 L148.350006,90.199997 L147.800003,89.300003 L147.250000,88.449997 L146.800003,87.650002 L146.300003,86.849998 L145.850006,86.099998 L145.399994,85.400002 L145.199997,85.199997 L145.449997,84.199997 L145.649994,83.050003 L145.800003,82.000000 L146.000000,81.050003 L146.149994,80.199997 L146.250000,79.400002 L146.399994,78.650002 L146.500000,77.949997 L146.600006,77.250000 L146.750000,76.599998 L146.850006,76.000000 L146.949997,75.400002 L147.000000,74.849998 L147.149994,74.300003 L147.199997,73.750000 L147.250000,73.199997 L147.399994,72.650002 L147.500000,72.150002 L147.600006,71.599998 L147.649994,71.099998 L147.699997,70.550003 L147.699997,70.449997 L147.699997,70.400002 L147.850006,70.400002 L148.300003,70.199997 L148.899994,69.849998 L149.100006,69.750000 L149.199997,69.699997 L149.399994,69.599998 L149.550003,69.500000 L149.600006,69.449997 L149.699997,69.400002 L149.800003,69.400002 L149.850006,69.349998 L149.949997,69.300003 L150.050003,69.199997 L150.149994,69.199997 L150.199997,69.150002 L150.300003,69.099998 L150.399994,69.050003 L150.399994,69.050003 L150.699997,68.849998 L150.750000,68.849998 L150.800003,68.800003 L150.850006,68.800003 L151.300003,68.599998 L151.699997,68.400002 L152.050003,68.199997 L152.449997,68.000000 L156.699997,72.099998 L152.800003,67.800003 L153.149994,67.599998 L153.500000,67.400002 L153.850006,67.199997 L154.199997,67.099998 L154.550003,66.900002 L154.850006,66.750000 L155.199997,66.550003 L155.550003,66.400002 L157.600006,65.250000 L157.600006,65.199997 L157.649994,65.199997 L157.699997,65.199997 L157.800003,65.150002 L158.000000,65.000000 L158.050003,65.000000 L158.149994,64.949997 L158.449997,64.800003 L158.750000,64.650002 L159.000000,64.500000 L159.100006,64.449997 L159.199997,64.400002 L159.250000,64.400002 L159.449997,64.250000 L159.550003,64.199997 L159.600006,64.199997 M133.000000,68.150002 L134.399994,68.650002 L134.949997,69.099998 L135.600006,69.449997 L135.649994,69.500000 L136.449997,70.500000 L137.000000,70.900002 L137.350006,71.650002 L137.750000,72.199997 L137.800003,72.300003 L137.899994,72.750000 L138.199997,73.750000 L138.300003,74.750000 L138.350006,75.199997 L138.199997,75.750000 L138.050003,76.900002 L137.550003,77.849998 L137.500000,78.050003 L137.500000,78.099998 L137.149994,78.550003 L136.850006,78.750000 L135.199997,79.099998 L133.800003,78.949997 L133.300003,78.699997 L132.500000,78.449997 L131.300003,77.650002 L130.300003,76.500000 L130.000000,76.250000 L129.800003,76.000000 L129.350006,75.150002 L129.149994,74.900002 L129.000000,74.550003 L128.800003,73.750000 L128.600006,73.349998 L128.550003,72.300003 L128.550003,72.099998 L128.449997,72.000000 L128.800003,70.849998 L128.800003,70.199997 L128.899994,69.949997 L129.199997,69.449997 L129.399994,68.949997 L130.000000,68.349998 L130.100006,68.349998 L130.649994,68.250000 L131.750000,68.050003 L133.000000,68.150002 M95.300003,72.400002 L95.300003,72.599998 L95.650002,72.949997 L96.550003,73.750000 L97.900002,74.599998 L98.000000,74.599998 L99.400002,74.949997 L99.500000,75.000000 L106.000000,75.449997 L106.449997,75.500000 L112.349998,76.000000 L119.000000,76.550003 L119.500000,77.000000 L119.900002,77.550003 L120.000000,77.550003 L121.449997,79.199997 L122.949997,80.800003 L124.349998,82.250000 L125.599998,83.650002 L126.849998,84.900002 L128.050003,86.250000 L129.199997,87.500000 L130.300003,88.699997 L130.399994,88.750000 L130.500000,89.550003 L130.550003,89.750000 L130.500000,90.400002 L130.600006,90.699997 L130.600006,92.250000 L130.800003,94.199997 L130.899994,96.250000 L131.050003,98.449997 L131.199997,100.849998 L131.449997,102.599998 L131.449997,103.050003 L131.399994,103.400002 L131.550003,103.800003 L131.600006,106.300003 L131.800003,109.300003 L131.949997,109.599998 L132.050003,110.699997 L132.199997,111.250000 L133.000000,112.800003 L134.149994,114.050003 L134.149994,114.099998 L132.350006,114.400002 L128.899994,114.550003 L125.500000,114.400002 L122.050003,113.849998 L118.800003,113.000000 L115.550003,111.849998 L112.400002,110.400002 L112.400002,110.349998 L109.500000,108.599998 L106.750000,106.599998 L106.699997,106.500000 L104.199997,104.250000 L104.199997,104.199997 L101.900002,101.750000 L101.849998,101.650002 L99.849998,99.000000 L99.800003,98.949997 L98.099998,96.050003 L96.599998,92.949997 L95.449997,89.699997 L94.599998,86.400002 L94.150002,83.000000 L94.000000,79.599998 L94.199997,76.150002 L94.599998,72.800003 L94.900002,71.849998 L95.300003,72.400002 "/>
		<path style="fill:rgb(183,107,31);opacity:1;stroke-width:0"
		 d="M142.250000,46.250000 L142.199997,46.349998 L142.000000,46.950001 L140.800003,47.700001 L141.100006,46.799999 L142.800003,43.349998 L142.250000,46.250000 "/>
		<path style="fill:rgb(185,108,32);opacity:1;stroke-width:0"
		 d="M142.000000,46.950001 L137.250000,57.200001 L137.199997,57.250000 L137.199997,57.400002 L137.149994,57.450001 L136.800003,58.549999 L135.699997,58.650002 L136.250000,57.400002 L136.850006,56.150002 L137.399994,54.799999 L138.050003,53.450001 L138.649994,52.299999 L139.000000,51.450001 L139.399994,50.750000 L139.899994,49.450001 L140.199997,49.049999 L140.199997,49.000000 L140.199997,48.950001 L140.250000,48.799999 L140.800003,47.700001 L142.000000,46.950001 "/>
		<path style="fill:rgb(218,127,38);opacity:1;stroke-width:0"
		 d="M96.949997,57.650002 L95.849998,64.000000 L95.599998,65.599998 L96.050003,59.049999 L96.599998,58.000000 L96.949997,57.650002 "/>
		<path style="fill:rgb(219,128,38);opacity:1;stroke-width:0"
		 d="M95.300003,60.299999 L96.050003,59.049999 L95.599998,65.599998 L95.550003,65.849998 L95.500000,66.599998 L95.449997,66.699997 L95.400002,66.849998 L95.400002,66.900002 L95.300003,67.050003 L94.150002,67.800003 L95.300003,60.299999 M99.250000,73.750000 L99.300003,73.699997 L100.800003,74.000000 L99.500000,75.000000 L99.400002,74.949997 L99.250000,73.750000 "/>
		<path style="fill:rgb(125,73,21);opacity:1;stroke-width:0"
		 d="M163.500000,62.000000 L162.600006,62.650002 L160.149994,63.900002 L159.600006,64.199997 L160.000000,64.000000 L161.600006,63.000000 L161.600006,63.000000 L161.699997,62.950001 L161.800003,62.900002 L162.000000,62.799999 L162.050003,62.750000 L162.149994,62.700001 L162.199997,62.650002 L163.500000,62.000000 "/>
		<path style="fill:rgb(126,74,21);opacity:1;stroke-width:0"
		 d="M159.600006,64.199997 L159.550003,64.199997 L159.449997,64.250000 L159.250000,64.400002 L159.199997,64.400002 L159.100006,64.449997 L159.000000,64.500000 L158.750000,64.650002 L158.449997,64.800003 L158.149994,64.949997 L158.050003,65.000000 L158.000000,65.000000 L157.800003,65.150002 L157.699997,65.199997 L157.649994,65.199997 L157.600006,65.199997 L158.100006,64.800003 L158.149994,64.800003 L158.199997,64.750000 L158.300003,64.699997 L158.500000,64.500000 L161.600006,63.000000 L160.000000,64.000000 L159.600006,64.199997 "/>
		<path style="fill:rgb(128,75,22);opacity:1;stroke-width:0"
		 d="M158.100006,64.800003 L157.600006,65.199997 L157.600006,65.250000 L155.550003,66.400002 L155.199997,66.550003 L154.850006,66.750000 L154.550003,66.900002 L154.199997,67.099998 L153.850006,67.199997 L153.500000,67.400002 L153.149994,67.599998 L152.800003,67.800003 L152.449997,68.000000 L152.050003,68.199997 L151.699997,68.400002 L151.300003,68.599998 L150.850006,68.800003 L150.800003,68.800003 L150.750000,68.849998 L150.699997,68.849998 L150.399994,69.050003 L150.399994,69.050003 L150.300003,69.099998 L150.199997,69.150002 L150.149994,69.199997 L150.050003,69.199997 L149.949997,69.300003 L149.850006,69.349998 L149.800003,69.400002 L149.699997,69.400002 L149.600006,69.449997 L149.550003,69.500000 L149.399994,69.599998 L149.199997,69.699997 L149.100006,69.750000 L148.899994,69.849998 L148.300003,70.199997 L147.850006,70.400002 L147.699997,70.400002 L147.699997,70.250000 L147.800003,70.199997 L154.300003,66.800003 L154.350006,66.800003 L154.399994,66.800003 L154.500000,66.750000 L154.600006,66.699997 L154.800003,66.599998 L154.850006,66.550003 L154.949997,66.500000 L155.000000,66.449997 L155.100006,66.400002 L155.300003,66.300003 L155.399994,66.250000 L155.449997,66.199997 L155.550003,66.199997 L156.050003,65.900002 L158.100006,64.800003 "/>
		<path style="fill:rgb(210,123,36);opacity:1;stroke-width:0"
		 d="M133.050003,67.099998 L134.399994,67.199997 L134.399994,67.250000 L133.050003,68.150002 L133.000000,67.150002 L133.050003,67.099998 "/>
		<path style="fill:rgb(173,101,30);opacity:1;stroke-width:0"
		 d="M133.000000,67.150002 L131.750000,68.050003 L130.649994,68.250000 L130.100006,68.349998 L130.100006,68.300003 L132.800003,67.199997 L132.850006,67.199997 L133.000000,67.150002 "/>
		<path style="fill:rgb(161,94,28);opacity:1;stroke-width:0"
		 d="M131.350006,67.400002 L132.800003,67.199997 L130.100006,68.300003 L130.100006,68.349998 L130.000000,68.349998 L130.100006,68.300003 L130.800003,67.800003 L130.899994,67.750000 L131.350006,67.400002 "/>
		<path style="fill:rgb(232,136,40);opacity:1;stroke-width:0"
		 d="M135.649994,67.800003 L133.050003,68.150002 L134.399994,67.250000 L135.649994,67.800003 "/>
		<path style="fill:rgb(230,135,40);opacity:1;stroke-width:0"
		 d="M94.150002,67.800003 L95.300003,67.050003 L95.250000,67.349998 L94.050003,69.400002 L94.150002,67.800003 "/>
		<path style="fill:rgb(253,154,45);opacity:1;stroke-width:0"
		 d="M135.649994,67.800003 L136.800003,68.199997 L136.949997,68.599998 L135.600006,69.449997 L135.649994,67.800003 L135.649994,67.800003 M133.550003,110.449997 L132.199997,111.250000 L133.199997,109.050003 L133.199997,108.800003 L133.550003,110.449997 "/>
		<path style="fill:rgb(241,141,41);opacity:1;stroke-width:0"
		 d="M135.649994,67.800003 L135.649994,67.800003 L134.399994,68.650002 L133.000000,68.150002 L133.050003,68.150002 L135.649994,67.800003 "/>
		<path style="fill:rgb(140,82,24);opacity:1;stroke-width:0"
		 d="M130.800003,67.800003 L130.100006,68.300003 L130.000000,68.349998 L130.350006,68.000000 L130.800003,67.800003 "/>
		<path style="fill:rgb(197,115,34);opacity:1;stroke-width:0"
		 d="M131.750000,68.050003 L133.000000,67.150002 L133.050003,68.150002 L133.000000,68.150002 L131.750000,68.050003 "/>
		<path style="fill:rgb(241,141,42);opacity:1;stroke-width:0"
		 d="M95.400002,68.550003 L95.300003,68.900002 L94.050003,69.400002 L95.250000,67.349998 L95.300003,67.050003 L95.400002,68.550003 "/>
		<path style="fill:rgb(254,155,46);opacity:1;stroke-width:0"
		 d="M95.400002,68.550003 L95.800003,70.199997 L95.800003,70.199997 L94.449997,71.000000 L95.300003,68.900002 L95.400002,68.550003 "/>
		<path style="fill:rgb(252,150,44);opacity:1;stroke-width:0"
		 d="M134.399994,68.650002 L135.649994,67.800003 L135.600006,69.449997 L134.949997,69.099998 L134.399994,68.650002 "/>
		<path style="fill:rgb(253,151,45);opacity:1;stroke-width:0"
		 d="M94.050003,69.400002 L95.300003,68.900002 L94.449997,71.000000 L94.050003,69.400002 "/>
		<path style="fill:rgb(255,159,47);opacity:1;stroke-width:0"
		 d="M135.600006,69.449997 L136.949997,68.599998 L138.199997,70.000000 L135.649994,69.500000 L135.600006,69.449997 M133.550003,110.449997 L133.600006,110.650002 L133.000000,112.800003 L132.199997,111.250000 L133.550003,110.449997 M135.500000,113.199997 L135.449997,113.250000 L134.149994,114.050003 L134.350006,111.949997 L135.500000,113.199997 "/>
		<path style="fill:rgb(255,160,47);opacity:1;stroke-width:0"
		 d="M138.199997,70.000000 L138.300003,70.050003 L139.100006,71.349998 L139.149994,71.449997 L137.750000,72.199997 L138.300003,70.300003 L137.000000,70.900002 L136.449997,70.500000 L135.649994,69.500000 L138.199997,70.000000 M94.449997,71.000000 L95.800003,70.199997 L95.300003,72.400002 L94.900002,71.849998 L94.449997,71.000000 M95.300003,72.599998 L96.699997,71.800003 L96.550003,73.750000 L95.650002,72.949997 L95.300003,72.599998 M134.350006,111.949997 L134.149994,114.050003 L133.000000,112.800003 L133.600006,110.650002 L133.550003,110.449997 L134.350006,111.949997 "/>
		<path style="fill:rgb(255,161,47);opacity:1;stroke-width:0"
		 d="M95.800003,70.199997 L96.650002,71.650002 L96.699997,71.800003 L95.300003,72.599998 L95.300003,72.400002 L95.800003,70.199997 L95.800003,70.199997 M137.000000,70.900002 L138.300003,70.300003 L137.750000,72.199997 L137.350006,71.650002 L137.000000,70.900002 "/>
		<path style="fill:rgb(255,157,46);opacity:1;stroke-width:0"
		 d="M139.149994,71.449997 L139.199997,71.550003 L139.600006,72.800003 L137.800003,72.300003 L137.750000,72.199997 L139.149994,71.449997 "/>
		<path style="fill:rgb(255,158,46);opacity:1;stroke-width:0"
		 d="M96.650002,71.650002 L97.849998,72.849998 L97.800003,72.900002 L96.550003,73.750000 L96.699997,71.800003 L96.650002,71.650002 "/>
		<path style="fill:rgb(255,154,45);opacity:1;stroke-width:0"
		 d="M137.800003,72.300003 L139.600006,72.800003 L139.449997,72.900002 L138.199997,73.750000 L137.899994,72.750000 L137.800003,72.300003 "/>
		<path style="fill:rgb(245,146,43);opacity:1;stroke-width:0"
		 d="M97.849998,72.849998 L99.300003,73.699997 L99.250000,73.750000 L98.000000,74.599998 L97.900002,74.599998 L97.800003,72.900002 L97.849998,72.849998 "/>
		<path style="fill:rgb(247,146,43);opacity:1;stroke-width:0"
		 d="M138.199997,73.750000 L139.449997,72.900002 L139.300003,73.199997 L138.300003,74.750000 L138.199997,73.750000 "/>
		<path style="fill:rgb(250,151,44);opacity:1;stroke-width:0"
		 d="M96.550003,73.750000 L97.800003,72.900002 L97.900002,74.599998 L96.550003,73.750000 "/>
		<path style="fill:rgb(239,141,41);opacity:1;stroke-width:0"
		 d="M139.649994,74.199997 L139.600006,74.300003 L138.350006,75.199997 L138.300003,74.750000 L139.300003,73.199997 L139.449997,72.900002 L139.649994,74.199997 "/>
		<path style="fill:rgb(206,121,35);opacity:1;stroke-width:0"
		 d="M107.300003,74.550003 L107.300003,74.599998 L99.500000,75.000000 L100.800003,74.000000 L107.300003,74.550003 "/>
		<path style="fill:rgb(230,134,40);opacity:1;stroke-width:0"
		 d="M98.000000,74.599998 L99.250000,73.750000 L99.400002,74.949997 L98.000000,74.599998 "/>
		<path style="fill:rgb(204,120,35);opacity:1;stroke-width:0"
		 d="M107.300003,74.550003 L119.900002,75.599998 L120.400002,75.599998 L120.349998,75.650002 L119.000000,76.550003 L112.349998,76.000000 L106.449997,75.500000 L106.000000,75.449997 L107.300003,74.599998 L107.300003,74.550003 "/>
		<path style="fill:rgb(205,120,35);opacity:1;stroke-width:0"
		 d="M99.500000,75.000000 L107.300003,74.599998 L106.000000,75.449997 L99.500000,75.000000 "/>
		<path style="fill:rgb(222,130,38);opacity:1;stroke-width:0"
		 d="M138.350006,75.199997 L139.600006,74.300003 L139.350006,76.000000 L138.350006,75.199997 "/>
		<path style="fill:rgb(213,125,36);opacity:1;stroke-width:0"
		 d="M138.199997,75.750000 L138.350006,75.199997 L139.350006,76.000000 L139.199997,76.199997 L138.050003,76.900002 L138.199997,75.750000 "/>
		<path style="fill:rgb(255,161,48);opacity:1;stroke-width:0"
		 d="M119.000000,76.550003 L120.349998,75.650002 L131.250000,87.349998 L131.750000,87.800003 L131.750000,87.900002 L130.399994,88.750000 L130.300003,88.699997 L129.199997,87.500000 L128.050003,86.250000 L126.849998,84.900002 L125.599998,83.650002 L124.349998,82.250000 L122.949997,80.800003 L121.449997,79.199997 L120.000000,77.550003 L119.900002,77.550003 L119.500000,77.000000 L119.000000,76.550003 "/>
		<path style="fill:rgb(190,111,32);opacity:1;stroke-width:0"
		 d="M139.199997,76.199997 L138.899994,76.599998 L137.500000,78.050003 L137.550003,77.849998 L138.050003,76.900002 L139.199997,76.199997 "/>
		<path style="fill:rgb(176,103,30);opacity:1;stroke-width:0"
		 d="M138.800003,77.199997 L138.600006,77.400002 L137.500000,78.050003 L138.899994,76.599998 L139.199997,76.199997 L138.800003,77.199997 "/>
		<path style="fill:rgb(148,87,25);opacity:1;stroke-width:0"
		 d="M138.600006,77.400002 L137.949997,78.199997 L137.500000,78.099998 L137.500000,78.050003 L138.600006,77.400002 "/>
		<path style="fill:rgb(134,79,23);opacity:1;stroke-width:0"
		 d="M137.500000,78.099998 L137.949997,78.199997 L137.149994,78.550003 L137.500000,78.099998 "/>
		<path style="fill:rgb(246,144,43);opacity:1;stroke-width:0"
		 d="M131.750000,87.900002 L132.649994,100.900002 L132.800003,101.800003 L132.699997,101.849998 L131.449997,102.599998 L131.199997,100.849998 L131.050003,98.449997 L130.899994,96.250000 L130.800003,94.199997 L130.600006,92.250000 L130.600006,90.699997 L130.500000,90.400002 L130.550003,89.750000 L130.500000,89.550003 L130.399994,88.750000 L131.750000,87.900002 "/>
		<path style="fill:rgb(247,144,43);opacity:1;stroke-width:0"
		 d="M132.699997,101.849998 L133.199997,108.349998 L131.399994,103.400002 L131.449997,103.050003 L131.449997,102.599998 L132.699997,101.849998 "/>
		<path style="fill:rgb(248,145,43);opacity:1;stroke-width:0"
		 d="M131.600006,106.300003 L131.550003,103.800003 L131.399994,103.400002 L133.199997,108.349998 L133.300003,108.750000 L133.199997,108.800003 L131.949997,109.599998 L131.800003,109.300003 L131.600006,106.300003 "/>
		<path style="fill:rgb(251,150,44);opacity:1;stroke-width:0"
		 d="M131.949997,109.599998 L133.199997,108.800003 L133.199997,109.050003 L132.199997,111.250000 L132.050003,110.699997 L131.949997,109.599998 "/>
		<path style="fill:rgb(168,99,29);opacity:1;stroke-width:0"
		 d="M148.350006,113.150002 L139.800003,115.199997 L139.649994,115.199997 L139.449997,115.250000 L139.300003,115.300003 L139.149994,115.349998 L138.899994,115.400002 L138.750000,115.400002 L138.600006,115.400002 L139.850006,114.550003 L149.000000,112.750000 L148.350006,113.150002 "/>
		<path style="fill:rgb(249,149,44);opacity:1;stroke-width:0"
		 d="M135.500000,113.199997 L136.949997,114.099998 L136.850006,114.150002 L135.550003,115.000000 L135.449997,113.250000 L135.500000,113.199997 "/>
		<path style="fill:rgb(167,98,29);opacity:1;stroke-width:0"
		 d="M148.350006,113.150002 L147.250000,113.849998 L139.800003,115.199997 L148.350006,113.150002 "/>
		<path style="fill:rgb(252,153,45);opacity:1;stroke-width:0"
		 d="M135.449997,113.250000 L135.550003,115.000000 L134.149994,114.099998 L134.149994,114.050003 L135.449997,113.250000 "/>
		<path style="fill:rgb(223,131,39);opacity:1;stroke-width:0"
		 d="M136.949997,114.099998 L137.000000,114.099998 L138.399994,114.599998 L137.050003,115.400002 L136.850006,114.150002 L136.949997,114.099998 "/>
		<path style="fill:rgb(184,108,31);opacity:1;stroke-width:0"
		 d="M139.850006,114.550003 L138.600006,115.400002 L138.399994,114.599998 L139.850006,114.550003 "/>
		<path style="fill:rgb(235,138,41);opacity:1;stroke-width:0"
		 d="M136.850006,114.150002 L137.050003,115.400002 L137.000000,115.449997 L135.550003,115.000000 L136.850006,114.150002 "/>
		<path style="fill:rgb(198,116,34);opacity:1;stroke-width:0"
		 d="M138.600006,115.400002 L137.000000,115.449997 L137.050003,115.400002 L138.399994,114.599998 L138.600006,115.400002 "/>
		<path style="stroke:rgb(0,0,0);stroke-width:4.300000;stroke-linecap:round;stroke-linejoin:round;fill:none"
		 d="M128.949997,34.200001 L133.399994,34.450001 L137.800003,35.150002 L142.149994,36.250000 L146.350006,37.750000 L149.250000,38.900002 L149.750000,39.150002 L151.000000,39.500000 L151.250000,39.750000 L152.149994,40.500000 L152.199997,40.500000 L154.199997,41.900002 L157.750000,44.599998 L161.000000,47.599998 L164.000000,50.849998 L166.649994,54.400002 L168.949997,58.200001 L170.850006,62.200001 L172.399994,66.050003 L172.399994,66.400002 L173.449997,70.750000 L174.149994,75.150002 L174.199997,75.150002 L174.199997,75.199997 L174.399994,79.599998 L174.149994,84.099998 L173.500000,88.449997 L172.399994,92.800003 L170.899994,97.000000 L169.000000,101.000000 L166.699997,104.800003 L164.050003,108.400002 L161.000000,111.699997 L157.750000,114.750000 L154.149994,117.349998 L150.300003,119.599998 L146.300003,121.599998 L142.100006,123.099998 L137.800003,124.199997 L133.399994,124.800003 L128.899994,125.050003 L124.400002,124.800003 L120.000000,124.150002 L115.650002,123.050003 L111.550003,121.599998 L107.500000,119.650002 L107.400002,119.599998 L103.650002,117.400002 L100.050003,114.699997 L100.000000,114.650002 L96.800003,111.750000 L96.750000,111.599998 L93.800003,108.400002 L93.750000,108.349998 L91.099998,104.800003 L88.800003,101.000000 L86.949997,96.949997 L85.400002,92.800003 L84.349998,88.400002 L83.650002,84.000000 L83.449997,79.599998 L83.650002,75.150002 L84.250000,70.949997 L84.400002,70.699997 L85.449997,66.400002 L86.949997,62.200001 L88.800003,58.200001 L91.099998,54.349998 L93.800003,50.799999 L96.750000,47.450001 L100.050003,44.500000 L103.599998,41.799999 L107.599998,39.599998 L111.500000,37.599998 L115.699997,36.099998 L120.099998,35.099998 L124.500000,34.450001 L128.949997,34.200001 		"/>
		<path style="stroke:rgb(0,0,0);stroke-width:4.300000;stroke-linecap:round;stroke-linejoin:round;fill:none"
		 d="M79.050003,28.299999 L79.050003,37.400002 L79.050003,48.250000 L78.900002,57.099998 L78.949997,64.699997 L78.900002,71.349998 L78.949997,77.349998 L79.000000,82.849998 L79.050003,88.050003 L79.099998,93.050003 L79.099998,97.949997 L78.949997,102.800003 L79.000000,107.800003 L79.000000,113.000000 L79.050003,113.000000 L78.849998,115.000000 L82.550003,117.099998 L87.699997,119.900002 L92.099998,122.449997 L96.099998,124.750000 L99.800003,126.900002 L103.349998,128.949997 L106.800003,130.899994 L110.150002,132.850006 L113.550003,134.800003 L117.000000,136.800003 L120.650002,138.949997 L124.550003,141.199997 L128.750000,143.800003 L132.949997,141.199997 L136.800003,138.949997 L140.449997,136.800003 L143.949997,134.800003 L147.350006,132.850006 L150.699997,130.899994 L154.100006,128.949997 L157.649994,126.900002 L161.399994,124.750000 L165.399994,122.449997 L169.800003,119.900002 L174.750000,117.000000 L178.399994,114.900002 L178.399994,113.000000 L178.399994,107.800003 L178.399994,102.800003 L178.399994,97.949997 L178.399994,93.050003 L178.399994,88.050003 L178.399994,82.849998 L178.399994,77.349998 L178.399994,71.400002 L178.399994,64.750000 L178.399994,57.200001 L178.399994,48.250000 L178.399994,37.400002 L178.399994,28.250000 L183.100006,31.750000 L189.250000,37.400002 L194.800003,43.650002 L199.750000,50.400002 L204.300003,57.549999 L207.899994,65.150002 L210.449997,73.099998 L212.600006,81.199997 L213.750000,89.550003 L214.399994,97.949997 L213.899994,106.349998 L212.550003,114.599998 L210.750000,122.800003 L207.899994,130.699997 L204.300003,138.300003 L200.000000,145.500000 L195.000000,152.250000 L189.300003,158.500000 L183.050003,164.149994 L176.350006,169.149994 L169.100006,173.449997 L161.500000,177.050003 L161.500000,255.000000 L160.250000,255.000000 L153.600006,255.000000 L152.250000,255.000000 L145.399994,255.000000 L144.050003,255.000000 L137.149994,255.000000 L135.750000,255.000000 L128.750000,255.000000 L121.800003,255.000000 L120.349998,255.000000 L113.400002,255.000000 L112.000000,255.000000 L105.199997,255.000000 L103.849998,255.000000 L97.250000,255.000000 L95.949997,255.000000 L96.000000,180.350006 L95.949997,177.100006 L95.949997,177.050003 L95.900002,177.000000 L88.400002,173.449997 L81.150002,169.100006 L74.400002,164.100006 L68.199997,158.449997 L62.549999,152.199997 L57.549999,145.500000 L57.549999,145.449997 L55.500000,142.199997 L53.200001,138.250000 L49.599998,130.699997 L49.599998,130.649994 L46.799999,122.800003 L44.700001,114.599998 L43.549999,106.349998 L43.099998,97.949997 L43.500000,89.550003 L44.750000,81.199997 L46.799999,73.099998 L49.599998,65.199997 L52.849998,58.200001 L53.200001,57.599998 L57.500000,50.400002 L62.500000,43.599998 L68.150002,37.400002 L74.400002,31.799999 L79.050003,28.299999 		"/>
		<path style="stroke:rgb(0,0,0);stroke-width:4.300000;stroke-linecap:round;stroke-linejoin:round;fill:none"
		 d="M149.750000,39.150002 L150.350006,39.650002 L151.350006,40.000000 L152.149994,40.500000 		"/>
		<path style="stroke:rgb(0,0,0);stroke-width:4.300000;stroke-linecap:round;stroke-linejoin:round;fill:none"
		 d="M132.750000,40.900002 L136.500000,41.450001 L140.199997,42.400002 L142.800003,43.349998 L143.600006,43.599998 L143.800003,43.599998 L147.250000,45.299999 L147.350006,45.400002 L150.500000,47.200001 L150.800003,47.500000 L153.600006,49.500000 L154.550003,50.450001 L156.399994,52.099998 L158.550003,54.500000 L158.699997,54.700001 L158.949997,54.900002 L159.750000,56.000000 L159.750000,56.049999 L159.850006,56.200001 L160.000000,56.400002 L160.100006,56.549999 L160.250000,56.750000 L160.399994,56.900002 L160.500000,57.049999 L160.600006,57.200001 L160.750000,57.400002 L161.199997,58.000000 L162.050003,59.400002 L162.300003,59.799999 L163.199997,61.250000 L163.500000,62.000000 L162.600006,62.650002 L160.149994,63.900002 L159.600006,64.199997 L159.550003,64.199997 L159.449997,64.250000 L159.250000,64.400002 L159.199997,64.400002 L159.100006,64.449997 L159.000000,64.500000 L158.750000,64.650002 L158.449997,64.800003 L158.149994,64.949997 L158.050003,65.000000 L158.000000,65.000000 L157.800003,65.150002 L157.699997,65.199997 L157.649994,65.199997 L157.600006,65.199997 L157.600006,65.250000 L155.550003,66.400002 L155.199997,66.550003 L154.850006,66.750000 L154.550003,66.900002 L154.199997,67.099998 L153.850006,67.199997 L153.500000,67.400002 L153.149994,67.599998 L152.800003,67.800003 L152.449997,68.000000 L152.050003,68.199997 L151.699997,68.400002 L151.300003,68.599998 L150.850006,68.800003 L150.800003,68.800003 L150.750000,68.849998 L150.699997,68.849998 L150.399994,69.050003 L150.399994,69.050003 L150.300003,69.099998 L150.199997,69.150002 L150.149994,69.199997 L150.050003,69.199997 L149.949997,69.300003 L149.850006,69.349998 L149.800003,69.400002 L149.699997,69.400002 L149.600006,69.449997 L149.550003,69.500000 L149.399994,69.599998 L149.199997,69.699997 L149.100006,69.750000 L148.899994,69.849998 L148.300003,70.199997 L147.850006,70.400002 L147.699997,70.400002 L147.699997,70.449997 L147.699997,70.550003 L147.649994,71.099998 L147.600006,71.599998 L147.500000,72.150002 L147.399994,72.650002 L147.250000,73.199997 L147.199997,73.750000 L147.149994,74.300003 L147.000000,74.849998 L146.949997,75.400002 L146.850006,76.000000 L146.750000,76.599998 L146.600006,77.250000 L146.500000,77.949997 L146.399994,78.650002 L146.250000,79.400002 L146.149994,80.199997 L146.000000,81.050003 L145.800003,82.000000 L145.649994,83.050003 L145.449997,84.199997 L145.199997,85.199997 L145.399994,85.400002 L145.850006,86.099998 L146.300003,86.849998 L146.800003,87.650002 L147.250000,88.449997 L147.800003,89.300003 L148.350006,90.199997 L148.899994,91.099998 L149.500000,92.199997 L150.149994,93.150002 L150.800003,94.250000 L151.399994,95.300003 L151.600006,95.449997 L152.399994,96.849998 L152.750000,97.449997 L152.949997,97.849998 L153.449997,98.650002 L154.699997,100.750000 L154.899994,100.900002 L155.350006,101.650002 L155.600006,102.099998 L156.800003,104.199997 L157.550003,105.650002 L157.550003,105.750000 L156.399994,107.099998 L155.949997,107.400002 L154.399994,108.849998 L153.600006,109.650002 L153.100006,109.949997 L152.000000,110.750000 L151.399994,111.199997 L151.050003,111.449997 L150.750000,111.699997 L150.500000,111.900002 L150.250000,112.000000 L149.750000,112.349998 L149.000000,112.750000 L148.350006,113.150002 L147.250000,113.849998 L143.800003,115.500000 L140.350006,116.949997 L136.600006,117.849998 L132.800003,118.400002 L129.000000,118.599998 L125.199997,118.500000 L121.400002,117.949997 L117.650002,117.000000 L114.000000,115.650002 L110.599998,114.050003 L107.300003,112.050003 L104.199997,109.800003 L101.349998,107.250000 L98.800003,104.400002 L96.500000,101.300003 L94.550003,98.000000 L92.900002,94.550003 L91.599998,90.900002 L90.699997,87.199997 L90.199997,83.400002 L90.050003,79.599998 L90.199997,75.800003 L90.800003,72.000000 L91.699997,68.349998 L93.000000,64.750000 L94.650002,61.250000 L95.300003,60.299999 L96.050003,59.049999 L96.599998,58.000000 L96.949997,57.650002 L97.699997,56.599998 L98.599998,55.400002 L98.849998,54.900002 L100.050003,53.700001 L101.349998,52.049999 L102.099998,51.599998 L104.199997,49.500000 L104.949997,49.099998 L105.000000,49.049999 L105.050003,49.000000 L107.250000,47.200001 L110.500000,45.200001 L113.949997,43.599998 L117.650002,42.400002 L121.300003,41.450001 L125.099998,40.900002 L128.899994,40.700001 L132.750000,40.900002 		"/>
		<path style="stroke:rgb(0,0,0);stroke-width:4.300000;stroke-linecap:round;stroke-linejoin:round;fill:none"
		 d="M105.050003,49.000000 L108.500000,51.200001 L109.449997,50.549999 L112.400002,48.799999 L115.500000,47.299999 L118.750000,46.150002 L122.050003,45.299999 L125.550003,44.950001 L128.949997,44.700001 L132.399994,45.000000 L135.800003,45.450001 L139.100006,46.349998 L141.100006,46.799999 L142.800003,43.349998 		"/>
		<path style="stroke:rgb(0,0,0);stroke-width:4.300000;stroke-linecap:round;stroke-linejoin:round;fill:none"
		 d="M108.500000,51.200001 L111.000000,53.000000 L111.150002,53.049999 L113.000000,54.299999 L114.849998,53.200001 L117.500000,52.000000 L117.500000,51.950001 L120.250000,51.000000 L123.050003,50.250000 L123.099998,50.250000 L126.000000,49.799999 L126.000000,49.799999 L128.899994,49.700001 L129.000000,49.700001 L131.850006,49.799999 L131.899994,49.849998 L134.750000,50.250000 L134.899994,50.299999 L137.600006,50.950001 L137.699997,51.000000 L138.649994,52.299999 L138.050003,53.450001 L137.399994,54.799999 L136.850006,56.150002 L136.250000,57.400002 L135.699997,58.650002 L136.800003,58.549999 L137.149994,57.450001 L137.199997,57.400002 L137.199997,57.250000 L137.250000,57.200001 L142.000000,46.950001 L142.199997,46.349998 L142.250000,46.250000 L143.600006,43.599998 		"/>
		<path style="stroke:rgb(0,0,0);stroke-width:4.300000;stroke-linecap:round;stroke-linejoin:round;fill:none"
		 d="M141.100006,46.799999 L140.800003,47.700001 L140.250000,48.799999 L140.199997,48.950001 L140.199997,49.000000 L140.199997,49.049999 L139.899994,49.450001 L139.399994,50.750000 L139.000000,51.450001 L137.699997,51.000000 		"/>
		<path style="stroke:rgb(0,0,0);stroke-width:4.300000;stroke-linecap:round;stroke-linejoin:round;fill:none"
		 d="M138.649994,52.299999 L139.000000,51.450001 		"/>
		<path style="stroke:rgb(0,0,0);stroke-width:4.300000;stroke-linecap:round;stroke-linejoin:round;fill:none"
		 d="M138.050003,53.450001 L134.899994,50.299999 		"/>
		<path style="stroke:rgb(0,0,0);stroke-width:4.300000;stroke-linecap:round;stroke-linejoin:round;fill:none"
		 d="M135.699997,58.650002 L133.750000,59.000000 L131.550003,59.450001 L129.100006,59.950001 L126.300003,60.500000 L122.800003,61.200001 L122.599998,61.000000 L115.550003,56.049999 L115.449997,56.000000 L113.000000,54.299999 		"/>
		<path style="stroke:rgb(0,0,0);stroke-width:4.300000;stroke-linecap:round;stroke-linejoin:round;fill:none"
		 d="M157.550003,105.750000 L159.000000,104.250000 L161.250000,101.199997 L163.199997,97.949997 L164.850006,94.500000 L166.149994,90.900002 L167.000000,87.199997 L167.600006,83.400002 L167.800003,79.599998 L167.600006,75.800003 L167.050003,72.000000 L166.100006,68.300003 L164.800003,64.699997 L163.500000,62.000000 L162.199997,62.650002 L162.149994,62.700001 L162.050003,62.750000 L162.000000,62.799999 L161.800003,62.900002 L161.699997,62.950001 L161.600006,63.000000 L161.600006,63.000000 L158.500000,64.500000 L158.300003,64.699997 L158.199997,64.750000 L158.149994,64.800003 L158.100006,64.800003 L156.050003,65.900002 L155.550003,66.199997 L155.449997,66.199997 L155.399994,66.250000 L155.300003,66.300003 L155.100006,66.400002 L155.000000,66.449997 L154.949997,66.500000 L154.850006,66.550003 L154.800003,66.599998 L154.600006,66.699997 L154.500000,66.750000 L154.399994,66.800003 L154.350006,66.800003 L154.300003,66.800003 L147.800003,70.199997 L147.699997,70.250000 L147.699997,70.400002 		"/>
		<path style="stroke:rgb(0,0,0);stroke-width:4.300000;stroke-linecap:round;stroke-linejoin:round;fill:none"
		 d="M95.300003,60.299999 L94.150002,67.800003 L94.050003,69.400002 L94.449997,71.000000 L94.900002,71.849998 L95.300003,72.400002 L95.300003,72.599998 L95.650002,72.949997 L96.550003,73.750000 L97.900002,74.599998 L98.000000,74.599998 L99.400002,74.949997 L99.500000,75.000000 L106.000000,75.449997 L106.449997,75.500000 L112.349998,76.000000 L119.000000,76.550003 L120.349998,75.650002 L120.400002,75.599998 L119.900002,75.599998 L107.300003,74.550003 L100.800003,74.000000 L99.300003,73.699997 L97.849998,72.849998 L96.650002,71.650002 L95.800003,70.199997 L95.400002,68.550003 L95.300003,67.050003 L95.400002,66.900002 L95.400002,66.849998 L95.449997,66.699997 L95.500000,66.599998 L95.550003,65.849998 L95.599998,65.599998 L95.849998,64.000000 L96.949997,57.650002 		"/>
		<path style="stroke:rgb(0,0,0);stroke-width:4.300000;stroke-linecap:round;stroke-linejoin:round;fill:none"
		 d="M155.600006,102.099998 L156.000000,101.750000 L158.000000,99.000000 L159.750000,96.050003 L161.199997,93.000000 L162.250000,90.199997 L162.350006,89.750000 L163.199997,86.400002 L163.699997,83.050003 L163.850006,79.599998 L163.699997,76.199997 L163.149994,72.800003 L162.300003,69.449997 L161.149994,66.250000 L160.149994,63.900002 		"/>
		<path style="stroke:rgb(0,0,0);stroke-width:4.300000;stroke-linecap:round;stroke-linejoin:round;fill:none"
		 d="M133.000000,67.150002 L132.850006,67.199997 L132.800003,67.199997 L131.350006,67.400002 L130.899994,67.750000 L130.800003,67.800003 L130.350006,68.000000 L130.000000,68.349998 L130.100006,68.349998 L130.649994,68.250000 L131.750000,68.050003 L133.000000,68.150002 L134.399994,68.650002 L134.949997,69.099998 L135.600006,69.449997 L135.649994,69.500000 L136.449997,70.500000 L137.000000,70.900002 L137.350006,71.650002 L137.750000,72.199997 L137.800003,72.300003 L137.899994,72.750000 L138.199997,73.750000 L138.300003,74.750000 L138.350006,75.199997 L138.199997,75.750000 L138.050003,76.900002 L137.550003,77.849998 L137.500000,78.050003 L137.500000,78.099998 L137.149994,78.550003 L137.949997,78.199997 L138.600006,77.400002 L138.800003,77.199997 L139.199997,76.199997 L139.350006,76.000000 L139.600006,74.300003 L139.649994,74.199997 L139.449997,72.900002 L139.600006,72.800003 L139.199997,71.550003 L139.149994,71.449997 L139.100006,71.349998 L138.300003,70.050003 L138.199997,70.000000 L136.949997,68.599998 L136.800003,68.199997 L135.649994,67.800003 L134.399994,67.250000 L134.399994,67.199997 L133.050003,67.099998 L133.000000,67.150002 		"/>
		<path style="stroke:rgb(0,0,0);stroke-width:4.300000;stroke-linecap:round;stroke-linejoin:round;fill:none"
		 d="M152.750000,97.449997 L153.750000,96.199997 L153.850006,95.900002 L155.250000,93.699997 L155.350006,93.400002 L155.399994,93.300003 L156.550003,91.050003 L156.600006,90.699997 L156.600006,90.599998 L157.550003,88.250000 L157.600006,87.750000 L158.250000,85.400002 L158.250000,84.800003 L158.699997,82.500000 L158.649994,81.349998 L158.800003,79.599998 L158.750000,79.099998 L158.699997,78.699997 L158.600006,76.650002 L158.250000,74.400002 L158.250000,74.250000 L158.199997,74.250000 L158.199997,74.000000 L158.199997,73.849998 L158.199997,73.800003 L158.149994,73.750000 L158.149994,73.699997 L158.199997,73.650002 L158.149994,73.650002 L158.149994,73.599998 L158.100006,73.449997 L158.050003,73.300003 L157.500000,70.900002 L156.800003,69.150002 L156.550003,68.150002 L155.550003,66.400002 		"/>
		<path style="stroke:rgb(0,0,0);stroke-width:4.300000;stroke-linecap:round;stroke-linejoin:round;fill:none"
		 d="M137.149994,78.550003 L136.850006,78.750000 L135.199997,79.099998 L133.800003,78.949997 L133.300003,78.699997 L132.500000,78.449997 L131.300003,77.650002 L130.300003,76.500000 L130.000000,76.250000 L129.800003,76.000000 L129.350006,75.150002 L129.149994,74.900002 L129.000000,74.550003 L128.800003,73.750000 L128.600006,73.349998 L128.550003,72.300003 L128.550003,72.099998 L128.449997,72.000000 L128.800003,70.849998 L128.800003,70.199997 L128.899994,69.949997 L129.199997,69.449997 L129.399994,68.949997 L130.000000,68.349998 		"/>
		<path style="stroke:rgb(0,0,0);stroke-width:4.300000;stroke-linecap:round;stroke-linejoin:round;fill:none"
		 d="M152.449997,68.000000 L156.699997,72.099998 L152.800003,67.800003 		"/>
		<path style="stroke:rgb(0,0,0);stroke-width:4.300000;stroke-linecap:round;stroke-linejoin:round;fill:none"
		 d="M120.349998,75.650002 L131.250000,87.349998 L131.750000,87.800003 L131.750000,87.900002 L130.399994,88.750000 L130.500000,89.550003 L130.550003,89.750000 L130.500000,90.400002 L130.600006,90.699997 L130.600006,92.250000 L130.800003,94.199997 L130.899994,96.250000 L131.050003,98.449997 L131.199997,100.849998 L131.449997,102.599998 L131.449997,103.050003 L131.399994,103.400002 L131.550003,103.800003 L131.600006,106.300003 L131.800003,109.300003 L131.949997,109.599998 L132.050003,110.699997 L132.199997,111.250000 L133.000000,112.800003 L134.149994,114.050003 L134.149994,114.099998 L132.350006,114.400002 L128.899994,114.550003 L125.500000,114.400002 L122.050003,113.849998 L118.800003,113.000000 L115.550003,111.849998 L112.400002,110.400002 L112.400002,110.349998 L109.500000,108.599998 L106.750000,106.599998 L106.699997,106.500000 L104.199997,104.250000 L104.199997,104.199997 L101.900002,101.750000 L101.849998,101.650002 L99.849998,99.000000 L99.800003,98.949997 L98.099998,96.050003 L96.599998,92.949997 L95.449997,89.699997 L94.599998,86.400002 L94.150002,83.000000 L94.000000,79.599998 L94.199997,76.150002 L94.599998,72.800003 L94.900002,71.849998 		"/>
		<path style="stroke:rgb(0,0,0);stroke-width:4.300000;stroke-linecap:round;stroke-linejoin:round;fill:none"
		 d="M131.800003,109.300003 L128.949997,109.449997 L126.000000,109.349998 L123.150002,108.900002 L120.300003,108.199997 L117.550003,107.199997 L114.849998,106.000000 L112.349998,104.449997 L110.000000,102.750000 L107.800003,100.800003 L105.800003,98.599998 L104.050003,96.250000 L102.550003,93.699997 L101.250000,91.050003 L100.300003,88.250000 L99.599998,85.500000 L99.599998,85.449997 L99.550003,85.400002 L99.599998,85.400002 L99.150002,82.599998 L99.150002,82.550003 L99.099998,82.500000 L99.199997,82.500000 L99.000000,79.650002 L99.000000,79.599998 L99.150002,76.699997 L99.199997,76.650002 L99.500000,75.000000 		"/>
		<path style="stroke:rgb(0,0,0);stroke-width:4.300000;stroke-linecap:round;stroke-linejoin:round;fill:none"
		 d="M130.399994,88.750000 L130.300003,88.699997 L129.199997,87.500000 L128.050003,86.250000 L126.849998,84.900002 L125.599998,83.650002 L124.349998,82.250000 L122.949997,80.800003 L121.449997,79.199997 L120.000000,77.550003 L119.900002,77.550003 L119.500000,77.000000 L119.000000,76.550003 		"/>
		<path style="stroke:rgb(0,0,0);stroke-width:4.300000;stroke-linecap:round;stroke-linejoin:round;fill:none"
		 d="M149.000000,112.750000 L139.850006,114.550003 L138.399994,114.599998 L137.000000,114.099998 L136.949997,114.099998 L135.500000,113.199997 L134.350006,111.949997 L133.550003,110.449997 L133.199997,108.800003 L133.300003,108.750000 L133.199997,108.349998 L132.699997,101.849998 L132.800003,101.800003 L132.649994,100.900002 L131.750000,87.900002 		"/>
		<path style="stroke:rgb(0,0,0);stroke-width:4.300000;stroke-linecap:round;stroke-linejoin:round;fill:none"
		 d="M147.250000,113.849998 L139.800003,115.199997 L139.649994,115.199997 L139.449997,115.250000 L139.300003,115.300003 L139.149994,115.349998 L138.899994,115.400002 L138.750000,115.400002 L138.600006,115.400002 L137.000000,115.449997 L135.550003,115.000000 L134.149994,114.099998 		"/>
	</g>
</svg>