<?xml version="1.0" encoding="UTF-8" standalone="no"?>
<!-- Generator: -->

<svg
   width="512pt"
   height="512pt"
   viewBox="0 0 512 512"
   version="1.1"
   id="svg191"
   sodipodi:docname="pageArrowLeft.svg"
   inkscape:version="1.1 (c68e22c387, 2021-05-23)"
   xmlns:inkscape="http://www.inkscape.org/namespaces/inkscape"
   xmlns:sodipodi="http://sodipodi.sourceforge.net/DTD/sodipodi-0.dtd"
   xmlns="http://www.w3.org/2000/svg"
   xmlns:svg="http://www.w3.org/2000/svg">
  <defs
     id="defs195" />
  <sodipodi:namedview
     id="namedview193"
     pagecolor="#505050"
     bordercolor="#eeeeee"
     borderopacity="1"
     inkscape:pageshadow="0"
     inkscape:pageopacity="0"
     inkscape:pagecheckerboard="0"
     inkscape:document-units="pt"
     showgrid="false"
     inkscape:zoom="1.3139648"
     inkscape:cx="341.33333"
     inkscape:cy="341.33333"
     inkscape:window-width="1920"
     inkscape:window-height="1147"
     inkscape:window-x="-8"
     inkscape:window-y="-8"
     inkscape:window-maximized="1"
     inkscape:current-layer="svg191" />
  <g
     id="FRAME_0"
     style="visibility:visible"
     fill-rule="evenodd"
     transform="rotate(180,255.52961,255.90264)">
    <path
       style="opacity:1;fill:#7f7f7f;stroke-width:0"
       d="m 103.85,327.25 81.65,-57.39999 q 7.10001,-6.75 6.25,-16.5 Q 191,245.25 183.60001,239.5 L 89.25,173 89.5,27.35 q 2.599998,-15 21.75,-14.1 3.5,0.75 6.35,2.85 l 295.15,222.65 q 8.25,5.75 9,15.85001 0.75,9.25 -8,17 L 122.6,491.25 116,496 l -4,1.75 q -14.400002,4.35001 -22.400002,-13.39999 l -0.349998,-3 V 355.25 355 l 0.1,-0.89999 0.5,-5.60001 1,-3.89999 2,-4.35001 0.25,-0.75 0.4,-0.64999 q 4.349998,-8 9.75,-11.10001 l 0.5,-0.5 h 0.1 m 9.25,22.5 -0.1,83.35001 0.5,2.39999 -0.25,0.75 q 7.1,18.5 24.60001,12.85001 l 236.25,-177.5 q 7.75,-6 7.89999,-16 -1.64999,-13.10001 -7.75,-16 L 205,112.25 143.10001,65.25 138.75,62.349998 135.75,61.25 q -6.75,-1.900002 -13,1.25 -2,0.25 -7.15,6.349998 l -2.25,6 L 113,84 l 0.1,76.75 112.25001,79 q 7.75,5.10001 8,16.60001 0,8.5 -8.5,15.39999 L 113.1,349.75"
       id="path186" />
    <path
       style="opacity:1;fill:#353535;stroke-width:0"
       d="m 113.1,349.75 111.75001,-78 q 8.5,-6.89999 8.5,-15.39999 -0.25,-11.5 -8,-16.60001 L 113.1,160.75 113,84 l 0.35,-9.150002 2.25,-6 Q 120.75,62.75 122.75,62.5 q 6.25,-3.150002 13,-1.25 l 3,1.099998 4.35001,2.900002 61.89999,47 169.25,127.35001 q 6.10001,2.89999 7.75,16 -0.14999,10 -7.89999,16 l -236.25,177.5 Q 120.35,454.75 113.25,436.25 l 0.25,-0.75 -0.5,-2.39999 0.1,-83.35001"
       id="path188" />
  </g>
</svg>
