<?xml version="1.0" encoding="iso-8859-1"?>
<!DOCTYPE svg PUBLIC "-//W3C//DTD SVG 20000303 Stylable//EN"
"http://www.w3.org/TR/2000/03/WD-SVG-20000303/DTD/svg-20000303-stylable.dtd">
<!-- Generator: --> 
<svg width="1024pt" height="1024pt" viewBox="0 0 1024 1024">
	<g  id="FRAME_0" style="visibility:visible" fill-rule="evenodd">
		<path style="fill:rgb(127,127,127);opacity:1;stroke-width:0"
		 d="M364.399994,230.399994 L361.049988,226.100006 L360.799988,225.649994 L360.200012,225.000000 L357.549988,218.649994 L356.700012,212.000000 L357.549988,205.149994 L360.149994,198.899994 L364.299988,193.500000 L401.100006,156.699997 L406.450012,152.600006 L412.700012,150.000000 Q427.200012,146.699997 437.700012,156.500000 L507.500000,226.300003 L562.049988,280.850006 L593.500000,312.299988 L711.049988,429.850006 L744.099976,462.899994 L798.650024,517.450012 L869.000000,587.799988 L873.099976,593.150024 L875.650024,599.400024 L876.549988,606.099976 L875.650024,612.900024 L873.000000,619.200012 L868.950012,624.500000 L832.099976,661.349976 L826.799988,665.400024 L820.500000,668.049988 L813.700012,668.950012 L806.900024,668.049988 L800.700012,665.450012 L795.250000,661.299988 L771.200012,637.250000 L460.000000,793.650024 L454.600006,797.799988 Q444.399994,802.650024 434.899994,800.299988 L428.649994,797.750000 L428.350006,797.500000 L423.350006,793.700012 L416.000000,786.349976 L367.399994,819.000000 L363.700012,821.900024 L359.299988,823.700012 L354.700012,824.299988 L349.750000,823.700012 L345.299988,821.849976 L341.549988,819.000000 L317.850006,795.299988 L228.699997,706.200012 L203.750000,681.200012 L200.800003,677.400024 L200.699997,676.900024 L199.199997,673.450012 L199.000000,672.950012 L198.399994,667.950012 L198.899994,664.700012 L199.000000,663.400024 L200.800003,659.000000 L203.750000,655.299988 L236.000000,606.299988 L227.800003,598.150024 L223.750000,592.849976 L221.399994,587.250000 L221.199997,586.700012 L221.050003,585.950012 L220.250000,579.849976 L221.149994,573.049988 L223.649994,567.000000 L227.899994,561.400024 L382.299988,248.350006 L364.399994,230.399994 M503.000000,422.100006 L603.599976,522.700012 Q606.500000,524.750000 608.000000,524.349976 Q610.200012,524.200012 612.099976,522.599976 Q622.200012,513.250000 622.250000,511.299988 Q622.700012,508.799988 621.650024,506.700012 L620.650024,505.399994 L520.200012,404.899994 Q515.900024,401.450012 511.700012,404.850006 Q501.500000,414.250000 501.450012,416.299988 Q500.950012,418.649994 502.100006,420.899994 L503.000000,422.100006 M594.700012,579.599976 Q596.650024,581.200012 598.950012,581.250000 L600.450012,581.049988 L601.950012,580.450012 L603.200012,579.500000 L611.799988,570.900024 L612.700012,569.700012 L613.349976,568.200012 L613.500000,566.400024 L613.349976,565.000000 L612.700012,563.450012 L611.700012,562.200012 L464.950012,415.450012 Q460.399994,411.799988 456.200012,415.600006 Q446.350006,424.799988 446.200012,426.700012 Q445.600006,428.899994 446.850006,431.500000 L447.799988,432.649994 L594.700012,579.599976 M387.850006,442.500000 L579.349976,634.000000 Q582.400024,636.200012 583.900024,635.750000 Q586.049988,635.650024 587.950012,634.000000 Q597.950012,624.700012 598.099976,622.799988 Q598.650024,620.349976 597.400024,617.950012 L596.400024,616.700012 L404.899994,425.200012 Q400.500000,421.750000 396.299988,425.399994 Q386.250000,434.649994 386.250000,436.649994 Q385.700012,439.000000 386.899994,441.250000 L387.850006,442.500000 "/>
		<path style="fill:rgb(199,197,197);opacity:1;stroke-width:0"
		 d="M562.049988,280.850006 L507.500000,226.300003 L657.049988,76.800003 L658.700012,75.199997 L665.900024,69.650002 L666.599976,69.099998 L675.500000,65.500000 L675.900024,65.349998 L685.700012,64.099998 L695.750000,65.500000 L704.799988,69.300003 L712.900024,75.500000 L719.049988,83.500000 L722.650024,92.050003 L722.900024,92.699997 L723.000000,93.300003 L724.299988,102.500000 L723.299988,110.900002 L723.049988,112.650002 L719.250000,121.900002 L713.299988,129.699997 L562.049988,280.850006 M744.099976,462.899994 L894.900024,312.100006 L902.799988,306.000000 L903.150024,305.700012 L912.299988,302.000000 L922.400024,300.700012 L932.299988,302.100006 L941.450012,305.899994 L949.450012,312.049988 L955.549988,319.950012 L959.500000,329.299988 L960.900024,339.200012 L959.650024,349.149994 L955.900024,358.399994 L949.849976,366.299988 L798.650024,517.450012 L744.099976,462.899994 "/>
		<path style="fill:rgb(76,76,76);opacity:1;stroke-width:0"
		 d="M593.500000,312.299988 L596.099976,309.600006 Q610.599976,295.200012 623.400024,285.450012 Q634.549988,277.350006 638.000000,278.700012 L744.750000,385.450012 L744.900024,388.149994 L742.599976,393.100006 L738.000000,399.950012 Q728.200012,412.700012 715.200012,425.950012 L714.150024,427.000000 L711.049988,429.850006 L593.500000,312.299988 M503.000000,422.100006 L502.100006,420.899994 Q500.950012,418.649994 501.450012,416.299988 Q501.500000,414.250000 511.700012,404.850006 Q515.900024,401.450012 520.200012,404.899994 L620.650024,505.399994 L621.650024,506.700012 Q622.700012,508.799988 622.250000,511.299988 Q622.200012,513.250000 612.099976,522.599976 Q610.200012,524.200012 608.000000,524.349976 Q606.500000,524.750000 603.599976,522.700012 L503.000000,422.100006 M594.700012,579.599976 L447.799988,432.649994 L446.850006,431.500000 Q445.600006,428.899994 446.200012,426.700012 Q446.350006,424.799988 456.200012,415.600006 Q460.399994,411.799988 464.950012,415.450012 L611.700012,562.200012 L612.700012,563.450012 L613.349976,565.000000 L613.500000,566.400024 L613.349976,568.200012 L612.700012,569.700012 L611.799988,570.900024 L603.200012,579.500000 L601.950012,580.450012 L600.450012,581.049988 L598.950012,581.250000 Q596.650024,581.200012 594.700012,579.599976 M387.850006,442.500000 L386.899994,441.250000 Q385.700012,439.000000 386.250000,436.649994 Q386.250000,434.649994 396.299988,425.399994 Q400.500000,421.750000 404.899994,425.200012 L596.400024,616.700012 L597.400024,617.950012 Q598.650024,620.349976 598.099976,622.799988 Q597.950012,624.700012 587.950012,634.000000 Q586.049988,635.650024 583.900024,635.750000 Q582.400024,636.200012 579.349976,634.000000 L387.850006,442.500000 M317.850006,795.299988 L214.399994,891.099976 Q194.399994,907.349976 189.600006,904.299988 L120.400002,835.099976 L119.800003,834.500000 L119.349998,831.549988 L119.699997,830.900024 L121.349998,826.450012 L125.500000,819.650024 L132.050003,810.950012 L139.100006,802.700012 L140.500000,801.099976 L149.350006,791.900024 L149.800003,791.349976 L228.699997,706.200012 L317.850006,795.299988 "/>
		<path style="stroke:rgb(0,0,0);stroke-width:11.500000;stroke-linecap:round;stroke-linejoin:round;fill:none"
		 d="M507.500000,226.300003 L657.049988,76.800003 L658.700012,75.199997 L665.900024,69.650002 L666.599976,69.099998 L675.500000,65.500000 L675.900024,65.349998 L685.700012,64.099998 L695.750000,65.500000 L704.799988,69.300003 L712.900024,75.500000 L719.049988,83.500000 L722.650024,92.050003 L722.900024,92.699997 L723.000000,93.300003 L724.299988,102.500000 L723.299988,110.900002 L723.049988,112.650002 L719.250000,121.900002 L713.299988,129.699997 L562.049988,280.850006 L507.500000,226.300003 L437.700012,156.500000 Q427.200012,146.699997 412.700012,150.000000 L406.450012,152.600006 L401.100006,156.699997 L364.299988,193.500000 L360.149994,198.899994 L357.549988,205.149994 L356.700012,212.000000 L357.549988,218.649994 L360.200012,225.000000 L360.799988,225.649994 L361.049988,226.100006 L364.399994,230.399994 L382.299988,248.350006 L227.899994,561.400024 L223.649994,567.000000 L221.149994,573.049988 L220.250000,579.849976 L221.050003,585.950012 L221.199997,586.700012 L221.399994,587.250000 L223.750000,592.849976 L227.800003,598.150024 L236.000000,606.299988 L203.750000,655.299988 L200.800003,659.000000 L199.000000,663.400024 L198.899994,664.700012 L198.399994,667.950012 L199.000000,672.950012 L199.199997,673.450012 L200.699997,676.900024 L200.800003,677.400024 L203.750000,681.200012 L228.699997,706.200012 L317.850006,795.299988 L341.549988,819.000000 L345.299988,821.849976 L349.750000,823.700012 L354.700012,824.299988 L359.299988,823.700012 L363.700012,821.900024 L367.399994,819.000000 L416.000000,786.349976 L572.799988,680.900024 Q580.000000,673.349976 578.650024,664.200012 L577.299988,660.200012 L574.900024,657.000000 L563.900024,646.000000 L364.100006,446.200012 Q361.250000,443.399994 357.000000,442.600006 Q347.899994,441.299988 340.350006,448.500000 L236.000000,606.299988 		"/>
		<path style="stroke:rgb(0,0,0);stroke-width:11.500000;stroke-linecap:round;stroke-linejoin:round;fill:none"
		 d="M593.500000,312.299988 L596.099976,309.600006 Q610.599976,295.200012 623.400024,285.450012 Q634.549988,277.350006 638.000000,278.700012 L744.750000,385.450012 L744.900024,388.149994 L742.599976,393.100006 L738.000000,399.950012 Q728.200012,412.700012 715.200012,425.950012 L714.150024,427.000000 L711.049988,429.850006 L593.500000,312.299988 L562.049988,280.850006 		"/>
		<path style="stroke:rgb(0,0,0);stroke-width:11.500000;stroke-linecap:round;stroke-linejoin:round;fill:none"
		 d="M744.099976,462.899994 L894.900024,312.100006 L902.799988,306.000000 L903.150024,305.700012 L912.299988,302.000000 L922.400024,300.700012 L932.299988,302.100006 L941.450012,305.899994 L949.450012,312.049988 L955.549988,319.950012 L959.500000,329.299988 L960.900024,339.200012 L959.650024,349.149994 L955.900024,358.399994 L949.849976,366.299988 L798.650024,517.450012 L744.099976,462.899994 L711.049988,429.850006 		"/>
		<path style="stroke:rgb(0,0,0);stroke-width:11.500000;stroke-linecap:round;stroke-linejoin:round;fill:none"
		 d="M603.599976,522.700012 Q606.500000,524.750000 608.000000,524.349976 Q610.200012,524.200012 612.099976,522.599976 Q622.200012,513.250000 622.250000,511.299988 Q622.700012,508.799988 621.650024,506.700012 L620.650024,505.399994 L520.200012,404.899994 Q515.900024,401.450012 511.700012,404.850006 Q501.500000,414.250000 501.450012,416.299988 Q500.950012,418.649994 502.100006,420.899994 L503.000000,422.100006 L603.599976,522.700012 		"/>
		<path style="stroke:rgb(0,0,0);stroke-width:11.500000;stroke-linecap:round;stroke-linejoin:round;fill:none"
		 d="M447.799988,432.649994 L446.850006,431.500000 Q445.600006,428.899994 446.200012,426.700012 Q446.350006,424.799988 456.200012,415.600006 Q460.399994,411.799988 464.950012,415.450012 L611.700012,562.200012 L612.700012,563.450012 L613.349976,565.000000 L613.500000,566.400024 L613.349976,568.200012 L612.700012,569.700012 L611.799988,570.900024 L603.200012,579.500000 L601.950012,580.450012 L600.450012,581.049988 L598.950012,581.250000 Q596.650024,581.200012 594.700012,579.599976 L447.799988,432.649994 		"/>
		<path style="stroke:rgb(0,0,0);stroke-width:11.500000;stroke-linecap:round;stroke-linejoin:round;fill:none"
		 d="M579.349976,634.000000 Q582.400024,636.200012 583.900024,635.750000 Q586.049988,635.650024 587.950012,634.000000 Q597.950012,624.700012 598.099976,622.799988 Q598.650024,620.349976 597.400024,617.950012 L596.400024,616.700012 L404.899994,425.200012 Q400.500000,421.750000 396.299988,425.399994 Q386.250000,434.649994 386.250000,436.649994 Q385.700012,439.000000 386.899994,441.250000 L387.850006,442.500000 L579.349976,634.000000 		"/>
		<path style="stroke:rgb(0,0,0);stroke-width:11.500000;stroke-linecap:round;stroke-linejoin:round;fill:none"
		 d="M798.650024,517.450012 L869.000000,587.799988 L873.099976,593.150024 L875.650024,599.400024 L876.549988,606.099976 L875.650024,612.900024 L873.000000,619.200012 L868.950012,624.500000 L832.099976,661.349976 L826.799988,665.400024 L820.500000,668.049988 L813.700012,668.950012 L806.900024,668.049988 L800.700012,665.450012 L795.250000,661.299988 L771.200012,637.250000 L382.299988,248.350006 		"/>
		<path style="stroke:rgb(0,0,0);stroke-width:11.500000;stroke-linecap:round;stroke-linejoin:round;fill:none"
		 d="M771.200012,637.250000 L460.000000,793.650024 L454.600006,797.799988 Q444.399994,802.650024 434.899994,800.299988 L428.649994,797.750000 L428.350006,797.500000 L423.350006,793.700012 L416.000000,786.349976 		"/>
		<path style="stroke:rgb(0,0,0);stroke-width:11.500000;stroke-linecap:round;stroke-linejoin:round;fill:none"
		 d="M228.699997,706.200012 L149.800003,791.349976 L149.350006,791.900024 L140.500000,801.099976 L139.100006,802.700012 L132.050003,810.950012 L125.500000,819.650024 L121.349998,826.450012 L119.699997,830.900024 L119.349998,831.549988 L119.800003,834.500000 L120.400002,835.099976 L189.600006,904.299988 Q194.399994,907.349976 214.399994,891.099976 L317.850006,795.299988 		"/>
	</g>
</svg>