<?xml version="1.0" encoding="iso-8859-1"?>
<!DOCTYPE svg PUBLIC "-//W3C//DTD SVG 20000303 Stylable//EN"
"http://www.w3.org/TR/2000/03/WD-SVG-20000303/DTD/svg-20000303-stylable.dtd">
<!-- Generator: --> 
<svg width="256pt" height="256pt" viewBox="0 0 256 256">
	<g  id="FRAME_0" style="visibility:visible" fill-rule="evenodd">
		<path style="fill:rgb(107,107,107);opacity:1;stroke-width:0"
		 d="M126.400002,69.800003 L126.599998,70.000000 L125.199997,70.000000 L125.000000,70.000000 L126.400002,69.800003 M116.599998,72.800003 L114.000000,74.199997 L113.800003,74.199997 L113.599998,74.599998 L113.199997,74.800003 L113.800003,74.199997 L117.199997,72.199997 L116.599998,72.800003 M213.000000,117.199997 L214.399994,116.400002 L214.600006,117.400002 L213.600006,118.000000 L213.000000,117.199997 "/>
		<path style="fill:rgb(182,182,182);opacity:1;stroke-width:0"
		 d="M126.400002,69.800003 L125.000000,70.000000 L122.000000,70.400002 L121.000000,70.599998 L119.599998,71.000000 L119.199997,71.199997 L118.800003,71.400002 L118.400002,71.599998 L117.800003,71.800003 L117.400002,72.000000 L117.199997,72.199997 L113.800003,74.199997 L113.199997,74.800003 L112.800003,75.000000 L110.400002,77.400002 L108.400002,80.199997 L96.199997,73.000000 L126.199997,54.799999 L156.800003,72.800003 L145.000000,80.000000 L144.000000,78.599998 L143.000000,77.199997 L142.399994,76.400002 L140.399994,75.000000 L140.000000,74.599998 L137.800003,72.800003 L136.199997,72.000000 L135.399994,71.800003 L134.399994,71.199997 L132.800003,70.599998 L132.600006,70.599998 L129.800003,70.000000 L129.600006,70.000000 L129.199997,69.800003 L128.399994,70.000000 L126.400002,69.800003 M123.000000,74.000000 L123.599998,73.800003 L123.599998,74.599998 L123.400002,74.599998 L121.000000,75.199997 L123.000000,74.000000 M112.199997,80.000000 L114.400002,78.599998 L113.400002,83.000000 L111.800003,80.599998 L112.199997,80.000000 "/>
		<path style="fill:rgb(101,101,101);opacity:1;stroke-width:0"
		 d="M126.400002,69.800003 L128.399994,70.000000 L126.599998,70.000000 L126.400002,69.800003 "/>
		<path style="fill:rgb(109,109,109);opacity:1;stroke-width:0"
		 d="M128.399994,70.000000 L129.199997,69.800003 L129.600006,70.000000 L129.800003,70.000000 L130.399994,70.400002 L128.399994,70.199997 L128.399994,70.000000 M122.000000,70.599998 L121.800003,70.800003 L121.400002,71.000000 L121.199997,71.000000 L118.599998,71.800003 L118.000000,71.800003 L117.800003,71.800003 L118.400002,71.599998 L118.800003,71.400002 L119.199997,71.199997 L119.599998,71.000000 L121.000000,70.599998 L122.000000,70.599998 M73.000000,125.400002 L74.199997,126.199997 L73.000000,126.800003 L73.000000,125.400002 "/>
		<path style="fill:rgb(122,122,122);opacity:1;stroke-width:0"
		 d="M125.000000,70.000000 L125.199997,70.000000 L125.599998,70.800003 L123.000000,70.599998 L124.000000,70.199997 L125.000000,70.000000 M147.600006,86.800003 L147.600006,89.199997 L147.000000,88.000000 L147.000000,87.400002 L147.600006,86.800003 M204.399994,104.199997 L204.600006,103.599998 L205.000000,104.400002 L204.399994,104.199997 M207.800003,109.400002 L217.399994,110.400002 L217.800003,110.400002 L218.399994,110.599998 L219.000000,110.599998 L218.800003,111.199997 L218.199997,113.000000 L216.600006,114.599998 L214.399994,116.400002 L213.000000,117.199997 L211.199997,117.800003 L209.600006,118.400002 L207.399994,118.599998 L205.000000,118.800003 L202.199997,119.000000 L201.800003,119.000000 L198.000000,118.800003 L193.800003,118.800003 L193.399994,118.800003 L191.199997,118.599998 L189.399994,118.800003 L187.800003,119.000000 L187.600006,118.599998 L186.399994,118.800003 L185.399994,119.400002 L184.199997,119.800003 L182.800003,120.599998 L180.800003,119.400002 L180.199997,119.000000 L175.399994,116.599998 L175.199997,116.400002 L174.800003,116.199997 L174.199997,116.000000 L175.000000,115.599998 L177.000000,114.400002 L179.000000,113.599998 L180.800003,113.000000 L182.600006,112.400002 L184.800003,112.199997 L185.399994,112.199997 L187.199997,112.000000 L188.399994,112.000000 L190.000000,112.000000 L191.600006,112.000000 L193.199997,112.199997 L196.199997,112.400002 L198.800003,112.599998 L200.600006,112.800003 L201.800003,112.400002 L203.000000,112.199997 L204.199997,112.400002 L205.399994,111.599998 L206.000000,111.199997 L207.199997,110.400002 L207.800003,109.400002 M161.600006,123.800003 L162.199997,124.400002 L170.199997,129.000000 L170.199997,130.199997 L165.600006,127.599998 L165.000000,127.000000 L164.600006,126.800003 L164.399994,126.599998 L161.600006,125.199997 L161.600006,123.800003 M63.400002,125.400002 L66.400002,126.000000 L66.400002,127.400002 L64.800003,127.000000 L63.400002,125.400002 "/>
		<path style="fill:rgb(120,120,120);opacity:1;stroke-width:0"
		 d="M126.599998,70.000000 L128.399994,70.000000 L128.399994,70.199997 L128.000000,71.000000 L127.400002,70.800003 L125.199997,70.000000 L126.599998,70.000000 M120.400002,71.599998 L119.400002,71.800003 L118.599998,71.800003 L121.199997,71.000000 L120.400002,71.599998 M107.599998,83.199997 L106.599998,86.599998 L106.400002,86.000000 L106.400002,85.199997 L107.599998,82.000000 L107.599998,83.199997 M147.000000,84.000000 L145.800003,85.000000 L145.800003,81.800003 L147.000000,84.000000 M191.600006,94.199997 L195.399994,94.199997 L199.399994,94.599998 L203.399994,95.599998 L207.199997,97.000000 L210.800003,98.800003 L212.000000,99.400002 L213.600006,101.199997 L216.600006,103.400002 L216.399994,103.400002 L216.000000,103.599998 L215.800003,103.599998 L207.800003,105.000000 L207.199997,105.000000 L206.000000,104.199997 L204.600006,103.000000 L202.800003,102.199997 L201.000000,101.599998 L199.399994,101.000000 L199.199997,101.199997 L197.399994,100.800003 L197.199997,101.199997 L195.199997,100.800003 L193.000000,101.199997 L191.000000,101.599998 L190.800003,101.599998 L188.399994,102.400002 L181.800003,97.599998 L181.399994,97.000000 L184.600006,95.599998 L188.000000,94.800003 L191.600006,94.199997 M123.599998,138.399994 L123.800003,140.600006 L120.000000,141.600006 L123.599998,138.399994 "/>
		<path style="fill:rgb(102,102,102);opacity:1;stroke-width:0"
		 d="M125.000000,70.000000 L124.000000,70.199997 L122.000000,70.400002 L125.000000,70.000000 M73.000000,125.400002 L75.400002,124.199997 L75.599998,125.599998 L74.199997,126.199997 L73.000000,125.400002 M116.400002,141.399994 L119.599998,139.600006 L116.800003,143.399994 L116.599998,143.399994 L116.400002,141.399994 "/>
		<path style="fill:rgb(103,103,103);opacity:1;stroke-width:0"
		 d="M129.800003,70.000000 L132.600006,70.599998 L131.600006,70.599998 L131.199997,70.599998 L130.399994,70.400002 L129.800003,70.000000 "/>
		<path style="fill:rgb(123,123,123);opacity:1;stroke-width:0"
		 d="M128.399994,70.199997 L130.399994,70.400002 L131.199997,70.599998 L129.800003,71.199997 L128.399994,70.199997 M174.199997,116.000000 L174.800003,116.199997 L175.199997,116.400002 L175.399994,116.599998 L180.199997,119.000000 L180.800003,119.400002 L182.800003,120.599998 L181.000000,121.400002 L180.800003,121.400002 L173.399994,117.199997 L173.000000,117.000000 L173.600006,116.400002 L174.199997,116.000000 M170.199997,118.599998 L175.399994,121.599998 L178.800003,123.800003 L170.800003,128.800003 L170.199997,129.000000 L162.199997,124.400002 L161.600006,123.800003 L170.199997,118.599998 M132.399994,138.399994 L132.199997,140.600006 L128.399994,138.000000 L132.399994,138.399994 "/>
		<path style="fill:rgb(110,110,110);opacity:1;stroke-width:0"
		 d="M124.000000,70.199997 L123.000000,70.599998 L122.000000,70.599998 L121.000000,70.599998 L122.000000,70.400002 L124.000000,70.199997 M106.199997,85.199997 L106.400002,85.199997 L106.400002,86.000000 L106.000000,89.000000 L105.599998,89.800003 L105.599998,89.199997 L106.199997,85.199997 M180.800003,121.400002 L181.000000,121.400002 L181.800003,122.199997 L180.800003,122.599998 L180.800003,121.400002 "/>
		<path style="fill:rgb(131,131,131);opacity:1;stroke-width:0"
		 d="M122.000000,70.599998 L123.000000,70.599998 L125.599998,70.800003 L123.599998,71.199997 L122.000000,70.599998 M131.600006,70.599998 L133.399994,71.400002 L133.600006,71.800003 L131.800003,72.000000 L131.399994,72.000000 L131.199997,70.599998 L131.600006,70.599998 M140.000000,74.599998 L140.399994,75.000000 L139.600006,76.000000 L139.199997,76.000000 L138.399994,74.000000 L140.000000,74.599998 M105.599998,90.599998 L105.800003,91.000000 L107.000000,95.400002 L105.599998,93.199997 L105.599998,90.599998 M147.800003,90.800003 L148.000000,91.000000 L148.000000,93.199997 L145.800003,94.000000 L147.800003,90.800003 M184.199997,119.800003 L185.399994,119.400002 L185.399994,120.400002 L184.800003,120.800003 L184.199997,120.000000 L184.199997,119.800003 "/>
		<path style="fill:rgb(115,115,115);opacity:1;stroke-width:0"
		 d="M132.600006,70.599998 L132.800003,70.599998 L133.399994,71.400002 L131.600006,70.599998 L132.600006,70.599998 M112.599998,75.800003 L110.400002,78.599998 L109.800003,79.000000 L109.400002,79.800003 L108.199997,81.000000 L108.400002,80.199997 L110.400002,77.800003 L110.400002,77.400002 L112.800003,75.000000 L112.599998,75.800003 M213.600006,118.000000 L213.000000,118.400002 L213.000000,117.199997 L213.600006,118.000000 "/>
		<path style="fill:rgb(128,128,128);opacity:1;stroke-width:0"
		 d="M125.599998,70.800003 L125.199997,70.000000 L127.400002,70.800003 L126.000000,70.800003 L125.599998,70.800003 M147.000000,84.000000 L147.000000,84.599998 L147.000000,87.400002 L145.800003,85.199997 L145.800003,85.000000 L147.000000,84.000000 M213.000000,117.199997 L213.000000,118.400002 L212.199997,118.800003 L211.399994,118.000000 L211.199997,117.800003 L213.000000,117.199997 M66.400002,126.000000 L66.800003,126.000000 L70.000000,126.000000 L70.000000,127.400002 L68.199997,127.400002 L66.400002,127.400002 L66.400002,126.000000 "/>
		<path style="fill:rgb(129,129,129);opacity:1;stroke-width:0"
		 d="M122.000000,70.599998 L123.599998,71.199997 L123.199997,71.400002 L120.400002,71.599998 L121.199997,71.000000 L121.400002,71.000000 L121.800003,70.800003 L122.000000,70.599998 M128.000000,71.000000 L128.399994,70.199997 L129.800003,71.199997 L128.000000,71.000000 M112.199997,77.000000 L112.000000,77.400002 L111.599998,78.199997 L110.400002,78.599998 L112.599998,75.800003 L112.199997,77.000000 "/>
		<path style="fill:rgb(149,149,149);opacity:1;stroke-width:0"
		 d="M125.599998,70.800003 L126.000000,70.800003 L127.400002,72.199997 L128.000000,71.199997 L128.600006,72.400002 L128.399994,72.400002 L127.400002,72.199997 L126.400002,72.199997 L126.000000,72.199997 L125.599998,70.800003 M131.399994,72.000000 L131.199997,72.199997 L129.600006,72.800003 L129.199997,72.800003 L129.800003,71.400002 L131.399994,72.000000 "/>
		<path style="fill:rgb(142,142,142);opacity:1;stroke-width:0"
		 d="M127.400002,70.800003 L128.000000,71.000000 L128.000000,71.199997 L127.400002,72.199997 L126.000000,70.800003 L127.400002,70.800003 M114.400002,76.000000 L114.199997,76.400002 L112.000000,77.400002 L112.199997,77.000000 L115.000000,74.199997 L114.400002,76.000000 M189.600006,103.199997 L188.199997,103.599998 L188.399994,102.400002 L189.600006,103.199997 M211.199997,117.800003 L211.399994,118.000000 L211.399994,119.000000 L210.399994,119.400002 L209.600006,118.599998 L209.600006,118.400002 L211.199997,117.800003 "/>
		<path style="fill:rgb(144,144,144);opacity:1;stroke-width:0"
		 d="M128.000000,71.000000 L129.800003,71.199997 L129.800003,71.400002 L128.600006,72.400002 L128.000000,71.199997 L128.000000,71.000000 M125.599998,70.800003 L126.000000,72.199997 L124.000000,71.400002 L123.599998,71.199997 L125.599998,70.800003 M131.800003,72.000000 L133.600006,71.800003 L133.000000,73.000000 L132.600006,73.000000 L131.800003,72.000000 M135.800003,73.199997 L138.000000,73.800003 L136.600006,75.000000 L135.800003,73.199997 M106.599998,88.000000 L106.800003,88.400002 L107.599998,93.599998 L105.800003,91.000000 L105.599998,90.599998 L105.599998,90.199997 L105.599998,89.800003 L106.000000,89.000000 L106.599998,88.000000 M147.600006,89.199997 L147.800003,89.800003 L147.800003,90.800003 L145.199997,91.199997 L147.000000,88.000000 L147.600006,89.199997 M188.399994,102.400002 L190.800003,101.599998 L190.800003,102.800003 L189.600006,103.199997 L188.399994,102.400002 "/>
		<path style="fill:rgb(112,112,112);opacity:1;stroke-width:0"
		 d="M134.399994,71.199997 L135.399994,71.800003 L134.000000,71.800003 L133.600006,71.800003 L133.399994,71.400002 L132.800003,70.599998 L134.399994,71.199997 M138.000000,73.800003 L137.800003,72.800003 L140.000000,74.599998 L138.399994,74.000000 L138.000000,73.800003 M182.800003,120.800003 L182.800003,121.599998 L181.800003,122.199997 L181.000000,121.400002 L182.800003,120.599998 L182.800003,120.800003 "/>
		<path style="fill:rgb(135,135,135);opacity:1;stroke-width:0"
		 d="M129.800003,71.199997 L131.199997,70.599998 L131.399994,72.000000 L129.800003,71.400002 L129.800003,71.199997 M118.199997,73.199997 L118.000000,73.199997 L116.000000,73.599998 L119.400002,72.000000 L118.199997,73.199997 "/>
		<path style="fill:rgb(148,148,148);opacity:1;stroke-width:0"
		 d="M124.000000,71.400002 L125.000000,72.400002 L123.000000,72.199997 L122.800003,72.199997 L122.400002,72.000000 L123.199997,71.400002 L123.599998,71.199997 L124.000000,71.400002 M109.599998,82.800003 L109.599998,83.000000 L108.000000,84.800003 L108.000000,84.000000 L109.400002,80.400002 L109.599998,82.800003 M107.599998,93.599998 L107.800003,94.000000 L108.000000,94.599998 L107.599998,96.599998 L107.000000,95.400002 L105.800003,91.000000 L107.599998,93.599998 M201.000000,101.800003 L201.000000,101.599998 L202.800003,102.199997 L202.800003,102.400002 L202.800003,103.199997 L201.800003,102.800003 L201.000000,101.800003 "/>
		<path style="fill:rgb(139,139,139);opacity:1;stroke-width:0"
		 d="M123.199997,71.400002 L122.400002,72.000000 L121.800003,72.199997 L119.400002,71.800003 L120.400002,71.599998 L123.199997,71.400002 M145.800003,94.000000 L148.000000,93.199997 L146.000000,97.000000 L145.800003,94.199997 L145.800003,94.000000 "/>
		<path style="fill:rgb(124,124,124);opacity:1;stroke-width:0"
		 d="M117.800003,71.800003 L118.000000,71.800003 L118.599998,71.800003 L119.400002,71.800003 L119.400002,72.000000 L116.000000,73.599998 L116.599998,72.800003 L117.199997,72.199997 L117.400002,72.000000 L117.800003,71.800003 M106.400002,86.000000 L106.599998,86.599998 L106.599998,87.199997 L106.599998,88.000000 L106.000000,89.000000 L106.400002,86.000000 M173.000000,117.000000 L173.399994,117.199997 L180.800003,121.400002 L180.800003,122.599998 L177.199997,120.599998 L176.199997,119.800003 L175.800003,119.599998 L175.600006,119.400002 L173.199997,118.199997 L173.000000,117.000000 M127.800003,138.000000 L128.399994,138.000000 L132.199997,140.600006 L128.000000,140.199997 L127.800003,138.000000 M127.599998,138.000000 L123.800003,140.600006 L123.599998,138.399994 L127.599998,138.000000 "/>
		<path style="fill:rgb(143,143,143);opacity:1;stroke-width:0"
		 d="M133.600006,71.800003 L134.000000,71.800003 L135.600006,73.199997 L135.399994,73.199997 L133.000000,73.000000 L133.600006,71.800003 M118.000000,73.199997 L117.800003,73.599998 L114.800003,75.800003 L114.400002,76.000000 L115.000000,74.199997 L115.599998,73.800003 L116.000000,73.599998 L118.000000,73.199997 "/>
		<path style="fill:rgb(127,127,127);opacity:1;stroke-width:0"
		 d="M135.399994,71.800003 L135.800003,72.000000 L138.000000,73.800003 L135.800003,73.199997 L135.600006,73.199997 L134.000000,71.800003 L135.399994,71.800003 M184.800003,120.800003 L184.199997,121.000000 L184.199997,120.000000 L184.800003,120.800003 "/>
		<path style="fill:rgb(141,141,141);opacity:1;stroke-width:0"
		 d="M119.400002,72.000000 L119.400002,71.800003 L121.800003,72.199997 L118.199997,73.199997 L119.400002,72.000000 M186.000000,120.199997 L185.399994,120.400002 L185.399994,119.400002 L186.000000,120.199997 "/>
		<path style="fill:rgb(106,106,106);opacity:1;stroke-width:0"
		 d="M135.800003,72.000000 L135.399994,71.800003 L136.199997,72.000000 L135.800003,72.000000 "/>
		<path style="fill:rgb(156,156,156);opacity:1;stroke-width:0"
		 d="M121.800003,72.199997 L122.400002,72.000000 L122.800003,72.199997 L123.000000,72.199997 L125.000000,72.400002 L124.199997,72.800003 L121.800003,73.000000 L120.800003,73.000000 L120.800003,73.199997 L117.400002,74.800003 L117.800003,73.599998 L118.000000,73.199997 L118.199997,73.199997 L120.800003,73.000000 L121.800003,72.199997 M112.000000,77.400002 L114.199997,76.400002 L112.199997,80.000000 L111.800003,80.599998 L111.599998,78.199997 L112.000000,77.400002 M107.800003,85.400002 L108.599998,91.000000 L106.800003,88.400002 L106.599998,88.000000 L106.599998,87.199997 L107.800003,85.400002 M187.000000,120.000000 L186.600006,120.199997 L186.600006,119.400002 L187.000000,120.000000 "/>
		<path style="fill:rgb(157,157,157);opacity:1;stroke-width:0"
		 d="M131.399994,72.000000 L131.800003,72.000000 L132.600006,73.000000 L130.000000,73.199997 L131.199997,72.199997 L131.399994,72.000000 M135.399994,73.199997 L133.600006,74.199997 L133.000000,73.000000 L135.399994,73.199997 M208.399994,119.800003 L207.600006,120.000000 L207.600006,118.800003 L208.399994,119.800003 "/>
		<path style="fill:rgb(111,111,111);opacity:1;stroke-width:0"
		 d="M135.800003,72.000000 L136.199997,72.000000 L137.800003,72.800003 L138.000000,73.800003 L135.800003,72.000000 M144.000000,78.599998 L143.800003,79.000000 L143.000000,77.199997 L144.000000,78.599998 M181.399994,97.000000 L181.800003,97.599998 L188.399994,102.400002 L188.199997,103.599998 L183.600006,99.800003 L181.199997,98.400002 L181.399994,97.000000 "/>
		<path style="fill:rgb(151,151,151);opacity:1;stroke-width:0"
		 d="M126.000000,72.199997 L125.400002,72.400002 L125.000000,72.400002 L124.000000,71.400002 L126.000000,72.199997 M120.800003,73.000000 L118.199997,73.199997 L121.800003,72.199997 L120.800003,73.000000 M144.000000,79.400002 L144.000000,82.599998 L142.000000,80.599998 L141.800003,80.400002 L144.000000,79.400002 "/>
		<path style="fill:rgb(165,165,165);opacity:1;stroke-width:0"
		 d="M126.000000,72.199997 L126.400002,72.199997 L126.599998,73.800003 L125.400002,72.400002 L126.000000,72.199997 M128.399994,72.400002 L127.400002,73.800003 L127.000000,74.000000 L127.400002,72.199997 L128.399994,72.400002 M145.800003,85.000000 L145.800003,85.199997 L142.600006,85.800003 L142.399994,85.800003 L144.199997,82.800003 L145.800003,85.000000 M187.800003,120.000000 L187.800003,119.000000 L188.600006,120.000000 L187.800003,120.000000 M128.000000,140.199997 L132.199997,140.600006 L136.000000,141.600006 L139.399994,143.399994 L142.199997,145.600006 L142.399994,145.800003 L144.199997,147.800003 L144.399994,148.199997 L144.600006,148.600006 L145.800003,150.800003 L146.399994,151.800003 L146.800003,153.199997 L147.000000,153.800003 L147.199997,154.399994 L147.000000,155.000000 L136.800003,155.000000 L135.800003,155.199997 L135.600006,154.800003 L135.399994,154.000000 L134.199997,152.800003 L134.199997,152.600006 L133.000000,151.800003 L133.000000,151.600006 L132.800003,151.600006 L132.399994,151.399994 L131.600006,150.800003 L131.000000,150.800003 L130.399994,150.800003 L130.000000,150.399994 L129.600006,150.399994 L129.000000,150.399994 L128.399994,150.399994 L127.800003,150.399994 L127.199997,150.399994 L126.800003,150.399994 L126.199997,150.399994 L125.800003,150.399994 L125.599998,150.600006 L125.000000,150.800003 L124.400002,150.800003 L124.000000,151.000000 L122.800003,151.800003 L121.599998,152.800003 L121.400002,153.399994 L120.800003,153.800003 L120.599998,154.199997 L120.400002,154.800003 L120.000000,155.399994 L119.400002,155.000000 L119.199997,155.000000 L108.599998,155.000000 L108.599998,154.399994 L109.000000,153.399994 L109.800003,151.800003 L111.400002,148.600006 L111.400002,148.399994 L113.800003,145.800003 L114.000000,145.800003 L116.599998,143.399994 L116.800003,143.399994 L120.000000,141.600006 L123.800003,140.600006 L128.000000,140.199997 "/>
		<path style="fill:rgb(164,164,164);opacity:1;stroke-width:0"
		 d="M127.400002,72.199997 L127.000000,74.000000 L126.199997,74.000000 L126.599998,73.800003 L126.400002,72.199997 L127.400002,72.199997 M120.199997,74.199997 L117.400002,74.800003 L120.800003,73.199997 L120.199997,74.199997 M114.400002,76.000000 L114.800003,75.800003 L117.000000,75.199997 L114.400002,78.199997 L114.199997,76.400002 L114.400002,76.000000 M139.199997,76.000000 L136.800003,76.800003 L136.600006,76.800003 L136.600006,75.000000 L139.199997,76.000000 M147.000000,88.000000 L145.199997,91.199997 L143.800003,88.599998 L144.000000,88.400002 L147.000000,88.000000 M195.199997,100.800003 L195.199997,101.000000 L195.199997,102.000000 L194.000000,102.199997 L193.000000,101.199997 L195.199997,100.800003 M206.199997,120.000000 L205.000000,120.199997 L205.000000,118.800003 L206.199997,120.000000 M108.599998,155.000000 L119.199997,155.000000 L119.400002,155.000000 L120.000000,155.399994 L119.800003,156.800003 L119.599998,158.199997 L119.400002,158.600006 L119.599998,159.399994 L119.800003,160.600006 L120.199997,161.600006 L120.800003,162.600006 L120.800003,162.800003 L121.400002,163.600006 L121.599998,163.800003 L122.400002,164.600006 L121.800003,165.000000 L120.599998,163.800003 L120.000000,163.000000 L119.599998,162.000000 L119.400002,162.000000 L119.000000,162.000000 L110.400002,164.199997 L109.400002,164.399994 L108.800003,162.600006 L108.400002,160.600006 L108.400002,158.600006 L108.400002,155.199997 L108.599998,155.000000 M136.800003,155.000000 L147.000000,155.000000 L147.199997,158.600006 L147.399994,160.600006 L146.800003,162.399994 L146.600006,164.000000 L146.399994,164.399994 L145.600006,164.199997 L137.199997,162.000000 L136.399994,162.000000 L136.000000,163.000000 L135.399994,163.800003 L135.199997,163.800003 L134.199997,165.199997 L133.199997,164.600006 L134.399994,163.399994 L135.000000,162.600006 L135.600006,161.600006 L136.000000,160.600006 L136.199997,159.399994 L136.399994,158.199997 L136.199997,156.600006 L135.800003,155.199997 L136.800003,155.000000 "/>
		<path style="fill:rgb(153,153,153);opacity:1;stroke-width:0"
		 d="M128.600006,72.400002 L129.800003,71.400002 L129.199997,72.800003 L128.600006,72.400002 M201.000000,102.599998 L201.000000,101.800003 L201.800003,102.800003 L201.000000,102.599998 "/>
		<path style="fill:rgb(167,167,167);opacity:1;stroke-width:0"
		 d="M125.400002,72.400002 L126.599998,73.800003 L126.199997,73.800003 L124.199997,72.800003 L125.000000,72.400002 L125.400002,72.400002 M128.399994,72.400002 L128.600006,72.400002 L129.199997,72.800003 L127.400002,73.800003 L128.399994,72.400002 M132.600006,73.000000 L133.000000,73.000000 L133.600006,74.199997 L132.600006,74.199997 L130.600006,73.800003 L130.199997,73.800003 L130.000000,73.400002 L130.000000,73.199997 L132.600006,73.000000 M114.400002,78.199997 L114.400002,78.599998 L112.199997,80.000000 L114.199997,76.400002 L114.400002,78.199997 M146.000000,97.000000 L142.000000,97.400002 L145.800003,94.199997 L146.000000,97.000000 M201.800003,119.000000 L202.199997,119.000000 L203.399994,120.199997 L201.800003,120.199997 L201.800003,119.000000 M189.399994,119.800003 L189.399994,118.800003 L190.199997,119.800003 L189.399994,119.800003 "/>
		<path style="fill:rgb(159,159,159);opacity:1;stroke-width:0"
		 d="M129.600006,72.800003 L131.199997,72.199997 L130.000000,73.199997 L129.600006,72.800003 "/>
		<path style="fill:rgb(171,171,171);opacity:1;stroke-width:0"
		 d="M129.199997,72.800003 L129.600006,72.800003 L130.000000,73.199997 L130.000000,73.400002 L127.400002,73.800003 L129.199997,72.800003 M123.800003,73.199997 L124.199997,72.800003 L126.199997,73.800003 L123.800003,73.199997 M136.600006,75.000000 L133.800003,75.400002 L133.199997,75.400002 L133.600006,74.199997 L136.600006,75.000000 M109.800003,88.400002 L109.800003,88.800003 L108.599998,91.000000 L107.800003,85.400002 L109.800003,88.400002 "/>
		<path style="fill:rgb(166,166,166);opacity:1;stroke-width:0"
		 d="M120.800003,73.000000 L121.800003,73.000000 L123.800003,73.199997 L123.800003,73.400002 L120.599998,74.199997 L120.199997,74.199997 L120.800003,73.199997 L120.800003,73.000000 M108.000000,84.800003 L109.599998,83.000000 L109.800003,88.400002 L107.800003,85.400002 L108.000000,84.800003 M107.599998,96.599998 L108.000000,94.599998 L111.199997,99.599998 L107.599998,96.599998 M189.399994,118.800003 L189.399994,119.800003 L188.600006,120.000000 L187.800003,119.000000 L189.399994,118.800003 M205.000000,118.800003 L205.000000,120.199997 L203.399994,120.199997 L202.199997,119.000000 L205.000000,118.800003 "/>
		<path style="fill:rgb(163,163,163);opacity:1;stroke-width:0"
		 d="M124.199997,72.800003 L123.800003,73.199997 L121.800003,73.000000 L124.199997,72.800003 M199.000000,102.199997 L199.199997,101.199997 L200.000000,102.400002 L199.000000,102.199997 M136.399994,162.000000 L137.199997,162.000000 L145.600006,164.199997 L146.399994,164.399994 L145.600006,166.199997 L144.199997,168.199997 L142.399994,170.399994 L141.399994,171.800003 L140.000000,173.199997 L139.600006,172.800003 L131.000000,169.000000 L130.399994,168.600006 L129.800003,169.199997 L128.000000,170.800003 L127.800003,170.800003 L127.599998,170.800003 L127.400002,170.800003 L127.199997,170.399994 L125.599998,168.600006 L125.199997,168.399994 L125.000000,169.000000 L115.800003,173.199997 L114.800003,172.399994 L113.400002,170.600006 L111.400002,168.199997 L110.199997,166.199997 L109.400002,164.399994 L110.400002,164.199997 L119.000000,162.000000 L119.400002,162.000000 L119.599998,162.000000 L120.000000,163.000000 L120.599998,163.800003 L121.800003,165.000000 L122.400002,164.600006 L124.000000,166.199997 L124.199997,166.199997 L124.400002,166.600006 L126.000000,168.199997 L126.599998,168.800003 L128.000000,170.000000 L129.600006,168.199997 L131.600006,166.199997 L133.199997,164.600006 L134.199997,165.199997 L135.199997,163.800003 L135.399994,163.800003 L136.000000,163.000000 L136.399994,162.000000 "/>
		<path style="fill:rgb(158,158,158);opacity:1;stroke-width:0"
		 d="M135.399994,73.199997 L135.600006,73.199997 L135.800003,73.199997 L136.600006,75.000000 L133.600006,74.199997 L135.399994,73.199997 M111.800003,80.599998 L110.000000,82.199997 L111.599998,78.199997 L111.800003,80.599998 "/>
		<path style="fill:rgb(119,119,119);opacity:1;stroke-width:0"
		 d="M116.000000,73.599998 L115.599998,73.800003 L115.000000,74.199997 L113.599998,74.599998 L113.800003,74.199997 L114.000000,74.199997 L116.599998,72.800003 L116.000000,73.599998 M184.199997,120.000000 L184.199997,121.000000 L183.399994,121.400002 L182.800003,120.800003 L182.800003,120.599998 L184.199997,119.800003 L184.199997,120.000000 "/>
		<path style="fill:rgb(176,176,176);opacity:1;stroke-width:0"
		 d="M123.800003,73.199997 L126.199997,73.800003 L126.599998,73.800003 L126.199997,74.000000 L123.599998,73.800003 L123.800003,73.400002 L123.800003,73.199997 M130.199997,73.800003 L130.600006,73.800003 L132.600006,74.199997 L130.399994,74.599998 L130.199997,73.800003 "/>
		<path style="fill:rgb(172,172,172);opacity:1;stroke-width:0"
		 d="M123.800003,73.400002 L123.599998,73.800003 L123.000000,74.000000 L120.599998,74.199997 L123.800003,73.400002 M120.199997,74.400002 L117.800003,76.400002 L117.199997,77.000000 L117.000000,75.199997 L117.400002,74.800003 L120.199997,74.199997 L120.199997,74.400002 "/>
		<path style="fill:rgb(175,175,175);opacity:1;stroke-width:0"
		 d="M130.199997,73.800003 L127.800003,74.199997 L127.199997,74.000000 L127.000000,74.000000 L127.400002,73.800003 L130.000000,73.400002 L130.199997,73.800003 M110.000000,82.199997 L111.800003,80.599998 L111.400002,85.599998 L109.599998,82.800003 L110.000000,82.199997 "/>
		<path style="fill:rgb(181,181,181);opacity:1;stroke-width:0"
		 d="M126.199997,74.000000 L126.000000,74.199997 L123.599998,74.599998 L123.599998,73.800003 L126.199997,74.000000 M144.000000,82.599998 L144.199997,82.800003 L142.399994,85.800003 L140.399994,83.199997 L140.399994,83.000000 L140.800003,83.000000 L144.000000,82.599998 M111.800003,97.199997 L112.000000,97.599998 L111.800003,100.199997 L111.199997,99.599998 L108.000000,94.599998 L111.800003,97.199997 "/>
		<path style="fill:rgb(147,147,147);opacity:1;stroke-width:0"
		 d="M138.399994,74.000000 L139.199997,76.000000 L136.600006,75.000000 L138.000000,73.800003 L138.399994,74.000000 M186.399994,118.800003 L186.600006,119.400002 L186.600006,120.199997 L186.000000,120.199997 L185.399994,119.400002 L186.399994,118.800003 "/>
		<path style="fill:rgb(198,198,198);opacity:1;stroke-width:0"
		 d="M126.199997,74.000000 L127.000000,74.000000 L127.199997,74.199997 L127.199997,74.400002 L127.599998,76.199997 L126.400002,76.199997 L126.400002,74.199997 L126.199997,74.000000 "/>
		<path style="fill:rgb(190,190,190);opacity:1;stroke-width:0"
		 d="M127.199997,74.000000 L127.199997,74.199997 L127.000000,74.000000 L127.199997,74.000000 M127.800003,74.199997 L128.000000,74.199997 L130.000000,75.199997 L129.199997,75.599998 L127.199997,74.199997 L127.800003,74.199997 M130.399994,75.199997 L133.199997,75.400002 L132.800003,76.599998 L132.399994,76.400002 L130.399994,75.199997 M135.399994,78.400002 L139.199997,78.400002 L138.199997,80.599998 L135.800003,78.599998 L135.399994,78.400002 M97.599998,146.000000 L108.800003,152.399994 L108.400002,154.399994 L108.400002,155.199997 L108.400002,158.600006 L108.400002,160.600006 L108.800003,162.600006 L109.400002,164.399994 L110.199997,166.199997 L111.400002,168.199997 L113.400002,170.600006 L114.800003,172.399994 L98.400002,182.399994 L78.800003,171.000000 L67.599998,177.800003 L36.799999,159.600006 L49.799999,151.800003 L54.799999,162.199997 L55.000000,163.199997 L56.000000,162.800003 L67.199997,155.800003 L69.800003,154.199997 L70.000000,154.000000 L70.400002,153.800003 L79.199997,148.600006 L86.000000,152.800003 L97.199997,146.000000 L97.599998,146.000000 M147.199997,152.600006 L158.199997,145.800003 L188.800003,164.000000 L146.600006,164.000000 L146.800003,162.399994 L147.399994,160.600006 L147.199997,158.600006 L147.000000,155.000000 L147.199997,154.399994 L147.199997,153.600006 L147.000000,153.600006 L147.000000,153.199997 L147.199997,152.600006 "/>
		<path style="fill:rgb(186,186,186);opacity:1;stroke-width:0"
		 d="M127.199997,74.000000 L127.800003,74.199997 L127.199997,74.199997 L127.199997,74.000000 M126.199997,74.000000 L126.400002,74.199997 L126.000000,74.199997 L123.800003,75.199997 L123.599998,74.599998 L126.000000,74.199997 L126.199997,74.000000 M128.000000,74.199997 L130.399994,74.599998 L133.199997,75.400002 L130.399994,75.199997 L130.000000,75.199997 L128.000000,74.199997 M133.199997,75.400002 L133.800003,75.400002 L136.600006,76.800003 L132.800003,76.599998 L133.199997,75.400002 M114.400002,78.199997 L117.199997,77.000000 L115.599998,80.599998 L114.400002,78.599998 L114.400002,78.199997 M141.399994,94.400002 L141.800003,94.400002 L145.800003,94.199997 L142.000000,97.400002 L141.399994,94.400002 M146.000000,102.599998 L157.800003,95.800003 L185.399994,112.199997 L184.800003,112.199997 L182.600006,112.400002 L180.800003,113.000000 L179.000000,113.599998 L177.000000,114.400002 L175.000000,115.599998 L174.199997,116.000000 L173.600006,116.400002 L173.000000,117.000000 L173.199997,118.199997 L175.600006,119.400002 L175.800003,119.599998 L176.199997,119.800003 L177.199997,120.599998 L175.399994,121.599998 L170.199997,118.599998 L161.600006,123.800003 L161.600006,125.199997 L164.399994,126.599998 L164.600006,126.800003 L165.000000,127.000000 L165.600006,127.599998 L158.399994,132.199997 L139.000000,120.800003 L127.800003,127.599998 L127.199997,127.599998 L97.000000,109.400002 L134.800003,109.400002 L146.000000,102.599998 M66.199997,113.599998 L63.400002,114.199997 L60.799999,115.400002 L58.799999,117.000000 L57.799999,118.800003 L57.799999,120.800003 L57.799999,121.400002 L58.599998,123.400002 L59.599998,124.599998 L60.799999,125.599998 L61.799999,126.000000 L63.400002,126.800003 L64.800003,127.000000 L66.400002,127.400002 L68.199997,127.400002 L70.000000,127.400002 L71.400002,127.199997 L73.000000,126.800003 L74.199997,126.199997 L75.599998,125.599998 L76.400002,124.800003 L77.400002,123.800003 L77.800003,123.199997 L78.400002,122.400002 L78.199997,121.199997 L78.400002,120.800003 L78.400002,118.800003 L77.199997,117.000000 L75.199997,115.400002 L72.800003,114.400002 L69.599998,113.599998 L66.199997,113.599998 M248.800003,113.800003 L218.800003,132.000000 L199.199997,120.199997 L199.800003,120.199997 L201.800003,120.199997 L203.399994,120.199997 L205.000000,120.199997 L206.199997,120.000000 L207.600006,120.000000 L208.399994,119.800003 L209.600006,119.599998 L210.399994,119.400002 L211.399994,119.000000 L212.199997,118.800003 L213.000000,118.400002 L213.600006,118.000000 L214.600006,117.400002 L215.399994,116.800003 L216.800003,115.599998 L217.399994,115.000000 L218.199997,113.800003 L248.800003,113.800003 M36.000000,123.199997 L66.199997,105.000000 L96.800003,123.199997 L78.800003,134.199997 L66.599998,132.199997 L66.199997,132.600006 L66.599998,134.000000 L66.800003,134.000000 L67.599998,135.800003 L68.199997,136.600006 L68.800003,138.199997 L66.800003,137.800003 L58.599998,136.600006 L36.000000,123.199997 "/>
		<path style="fill:rgb(180,180,180);opacity:1;stroke-width:0"
		 d="M130.199997,73.800003 L130.399994,74.599998 L128.000000,74.199997 L127.800003,74.199997 L130.199997,73.800003 M139.199997,78.400002 L139.600006,78.400002 L141.800003,80.400002 L138.199997,80.599998 L139.199997,78.400002 M109.599998,82.800003 L111.400002,85.599998 L111.400002,86.000000 L109.800003,88.400002 L109.599998,83.000000 L109.599998,82.800003 "/>
		<path style="fill:rgb(177,177,177);opacity:1;stroke-width:0"
		 d="M120.199997,74.199997 L120.599998,74.199997 L123.000000,74.000000 L121.000000,75.199997 L120.199997,75.599998 L120.199997,74.400002 L120.199997,74.199997 "/>
		<path style="fill:rgb(191,191,191);opacity:1;stroke-width:0"
		 d="M126.000000,74.199997 L126.400002,74.199997 L126.400002,74.400002 L124.400002,75.599998 L123.800003,75.199997 L123.599998,75.400002 L121.599998,76.199997 L123.400002,74.599998 L123.599998,74.599998 L123.800003,75.199997 L126.000000,74.199997 M132.800003,76.599998 L136.600006,76.800003 L135.399994,78.400002 L132.800003,76.599998 M115.599998,80.599998 L115.800003,81.000000 L113.400002,83.000000 L114.400002,78.599998 L115.599998,80.599998 M146.600006,164.000000 L188.800003,164.000000 L159.000000,182.199997 L141.399994,171.800003 L142.399994,170.399994 L144.199997,168.199997 L145.600006,166.199997 L146.399994,164.399994 L146.600006,164.000000 "/>
		<path style="fill:rgb(179,179,179);opacity:1;stroke-width:0"
		 d="M132.600006,74.199997 L133.600006,74.199997 L133.199997,75.400002 L130.399994,74.599998 L132.600006,74.199997 M120.199997,75.599998 L117.800003,76.400002 L120.199997,74.400002 L120.199997,75.599998 M108.599998,91.599998 L109.000000,91.800003 L111.800003,97.199997 L108.000000,94.599998 L107.800003,94.000000 L108.599998,91.599998 M145.800003,94.000000 L145.800003,94.199997 L141.800003,94.400002 L145.000000,91.400002 L145.800003,94.000000 "/>
		<path style="fill:rgb(197,197,197);opacity:1;stroke-width:0"
		 d="M126.400002,74.400002 L126.400002,74.199997 L126.400002,76.199997 L125.199997,76.000000 L126.400002,74.400002 M128.800003,76.199997 L127.599998,76.199997 L127.199997,74.400002 L128.800003,76.199997 M109.800003,88.400002 L111.400002,86.000000 L113.199997,91.199997 L109.800003,88.800003 L109.800003,88.400002 "/>
		<path style="fill:rgb(194,194,194);opacity:1;stroke-width:0"
		 d="M127.199997,74.400002 L127.199997,74.199997 L129.199997,75.599998 L128.800003,76.199997 L127.199997,74.400002 M124.400002,75.599998 L126.400002,74.400002 L125.199997,76.000000 L124.400002,75.599998 M118.199997,78.400002 L118.199997,78.599998 L115.599998,80.599998 L117.199997,77.000000 L118.199997,78.400002 "/>
		<path style="fill:rgb(130,130,130);opacity:1;stroke-width:0"
		 d="M113.199997,74.800003 L113.599998,74.599998 L115.000000,74.199997 L112.199997,77.000000 L112.599998,75.800003 L112.800003,75.000000 L113.199997,74.800003 "/>
		<path style="fill:rgb(154,154,154);opacity:1;stroke-width:0"
		 d="M117.400002,74.800003 L117.000000,75.199997 L114.800003,75.800003 L117.800003,73.599998 L117.400002,74.800003 M191.000000,101.599998 L193.000000,101.199997 L193.000000,102.400002 L191.800003,102.599998 L191.000000,101.599998 M209.600006,118.400002 L209.600006,118.599998 L209.600006,119.599998 L208.399994,119.800003 L207.600006,118.800003 L207.399994,118.599998 L209.600006,118.400002 "/>
		<path style="fill:rgb(188,188,188);opacity:1;stroke-width:0"
		 d="M121.000000,75.199997 L123.400002,74.599998 L121.599998,76.199997 L120.800003,76.599998 L120.199997,75.599998 L118.199997,78.400002 L117.199997,77.000000 L117.800003,76.400002 L120.199997,75.599998 L121.000000,75.199997 M145.199997,91.199997 L145.000000,91.400002 L140.600006,91.400002 L143.800003,88.599998 L145.199997,91.199997 M158.600006,132.199997 L218.800003,132.000000 L189.199997,150.399994 L158.600006,132.199997 M78.800003,134.199997 L96.800003,123.199997 L116.000000,134.399994 L97.599998,146.000000 L97.199997,146.000000 L86.000000,152.800003 L79.199997,148.600006 L87.800003,143.399994 L88.400002,142.399994 L96.199997,137.800003 L96.000000,137.000000 L78.800003,134.199997 M58.599998,136.600006 L43.200001,134.000000 L42.200001,134.399994 L42.200001,135.600006 L44.400002,139.800003 L44.599998,140.199997 L45.000000,141.199997 L49.799999,151.800003 L36.799999,159.600006 L6.200000,141.600006 L6.400000,141.000000 L36.000000,123.199997 L58.599998,136.600006 "/>
		<path style="fill:rgb(195,195,195);opacity:1;stroke-width:0"
		 d="M130.399994,75.199997 L132.399994,76.400002 L129.800003,75.800003 L129.199997,75.599998 L130.000000,75.199997 L130.399994,75.199997 M112.000000,97.599998 L112.400002,97.800003 L116.599998,102.199997 L111.800003,100.199997 L112.000000,97.599998 "/>
		<path style="fill:rgb(199,199,199);opacity:1;stroke-width:0"
		 d="M123.800003,75.199997 L124.400002,75.599998 L124.400002,75.800003 L122.800003,77.000000 L122.199997,77.599998 L121.000000,76.800003 L120.800003,76.599998 L121.599998,76.199997 L123.599998,75.400002 L123.800003,75.199997 "/>
		<path style="fill:rgb(174,174,174);opacity:1;stroke-width:0"
		 d="M133.800003,75.400002 L136.600006,75.000000 L136.600006,76.800003 L133.800003,75.400002 M117.199997,77.000000 L114.400002,78.199997 L117.000000,75.199997 L117.199997,77.000000 M144.000000,82.599998 L140.800003,83.000000 L142.000000,80.599998 L144.000000,82.599998 "/>
		<path style="fill:rgb(205,205,205);opacity:1;stroke-width:0"
		 d="M124.400002,75.599998 L125.199997,76.000000 L125.199997,76.199997 L124.000000,78.400002 L124.400002,75.800003 L124.400002,75.599998 "/>
		<path style="fill:rgb(202,202,202);opacity:1;stroke-width:0"
		 d="M129.199997,75.599998 L129.800003,75.800003 L131.199997,77.199997 L128.800003,76.199997 L129.199997,75.599998 M113.199997,91.199997 L113.400002,91.599998 L112.400002,94.400002 L109.800003,88.800003 L113.199997,91.199997 "/>
		<path style="fill:rgb(134,134,134);opacity:1;stroke-width:0"
		 d="M139.600006,76.000000 L140.399994,75.000000 L141.800003,77.400002 L139.600006,76.000000 "/>
		<path style="fill:rgb(155,155,155);opacity:1;stroke-width:0"
		 d="M139.199997,76.000000 L139.600006,76.000000 L141.800003,77.400002 L141.800003,77.599998 L139.600006,78.400002 L139.199997,78.400002 L139.199997,76.000000 M147.000000,87.400002 L147.000000,88.000000 L144.000000,88.400002 L145.800003,85.199997 L147.000000,87.400002 "/>
		<path style="fill:rgb(209,209,209);opacity:1;stroke-width:0"
		 d="M125.199997,76.199997 L125.199997,76.000000 L126.400002,76.199997 L125.800003,78.000000 L125.199997,76.199997 M138.199997,80.599998 L136.000000,82.599998 L135.800003,82.599998 L134.000000,80.000000 L138.199997,80.599998 "/>
		<path style="fill:rgb(210,210,210);opacity:1;stroke-width:0"
		 d="M126.400002,76.199997 L127.599998,76.199997 L127.800003,78.199997 L126.400002,76.199997 M136.000000,82.599998 L140.399994,83.000000 L140.399994,83.199997 L137.800003,85.400002 L136.000000,82.599998 "/>
		<path style="fill:rgb(208,208,208);opacity:1;stroke-width:0"
		 d="M128.800003,76.199997 L131.199997,77.199997 L131.600006,77.599998 L130.000000,78.400002 L129.600006,77.800003 L127.599998,76.199997 L128.800003,76.199997 M137.800003,85.400002 L142.399994,85.800003 L139.600006,88.400002 L139.199997,88.400002 L137.800003,85.599998 L137.800003,85.400002 M114.599998,88.400002 L114.599998,88.599998 L113.199997,91.199997 L111.400002,86.000000 L114.599998,88.400002 "/>
		<path style="fill:rgb(200,200,200);opacity:1;stroke-width:0"
		 d="M132.399994,76.400002 L132.800003,76.599998 L135.399994,78.400002 L132.000000,77.800003 L131.600006,77.599998 L131.199997,77.199997 L129.800003,75.800003 L132.399994,76.400002 M136.399994,99.800003 L137.000000,99.800003 L142.000000,100.199997 L136.399994,102.599998 L136.399994,99.800003 "/>
		<path style="fill:rgb(116,116,116);opacity:1;stroke-width:0"
		 d="M142.399994,76.400002 L141.800003,77.400002 L140.399994,75.000000 L142.399994,76.400002 M143.800003,79.000000 L144.000000,78.599998 L145.000000,80.000000 L145.199997,80.599998 L144.000000,79.400002 L143.800003,79.000000 M204.600006,103.000000 L206.000000,104.199997 L206.000000,105.000000 L205.000000,104.400002 L204.600006,103.599998 L204.600006,103.000000 M182.800003,120.800003 L183.399994,121.400002 L182.800003,121.599998 L182.800003,120.800003 "/>
		<path style="fill:rgb(193,193,193);opacity:1;stroke-width:0"
		 d="M120.800003,76.599998 L118.199997,78.400002 L120.199997,75.599998 L120.800003,76.599998 "/>
		<path style="fill:rgb(204,204,204);opacity:1;stroke-width:0"
		 d="M120.800003,76.599998 L121.000000,76.800003 L120.000000,79.800003 L118.199997,78.599998 L118.199997,78.400002 L120.800003,76.599998 "/>
		<path style="fill:rgb(168,168,168);opacity:1;stroke-width:0"
		 d="M136.800003,76.800003 L139.199997,76.000000 L139.199997,78.400002 L136.800003,76.800003 M197.399994,100.800003 L199.199997,101.199997 L199.000000,102.199997 L198.000000,102.199997 L197.199997,101.199997 L197.399994,100.800003 M195.199997,102.000000 L195.199997,101.000000 L196.000000,102.000000 L195.199997,102.000000 M191.199997,118.599998 L193.399994,118.800003 L193.800003,118.800003 L198.000000,118.800003 L201.800003,119.000000 L201.800003,120.199997 L199.800003,120.199997 L199.199997,120.199997 L198.000000,120.199997 L195.399994,120.000000 L193.399994,120.000000 L192.199997,120.000000 L191.399994,119.800003 L190.199997,119.800003 L189.399994,118.800003 L191.199997,118.599998 "/>
		<path style="fill:rgb(184,184,184);opacity:1;stroke-width:0"
		 d="M136.800003,76.800003 L139.199997,78.400002 L135.399994,78.400002 L136.600006,76.800003 L136.800003,76.800003 M108.400002,80.199997 L108.199997,81.000000 L107.599998,82.000000 L106.400002,85.199997 L106.199997,85.199997 L105.599998,89.199997 L105.599998,89.800003 L105.599998,90.199997 L105.599998,90.599998 L105.599998,93.199997 L107.000000,95.400002 L107.599998,96.599998 L111.199997,99.599998 L111.800003,100.199997 L97.000000,109.400002 L66.199997,91.400002 L66.400002,90.800003 L96.199997,73.000000 L108.400002,80.199997 M176.000000,84.199997 L187.600006,77.400002 L218.199997,95.599998 L212.000000,99.400002 L210.800003,98.800003 L207.199997,97.000000 L203.399994,95.599998 L199.399994,94.599998 L195.399994,94.199997 L191.600006,94.199997 L188.000000,94.800003 L184.600006,95.599998 L181.399994,97.000000 L181.199997,98.400002 L183.600006,99.800003 L188.199997,103.599998 L189.600006,103.199997 L190.800003,102.800003 L191.800003,102.599998 L193.000000,102.400002 L194.000000,102.199997 L195.199997,102.000000 L196.000000,102.000000 L197.199997,102.000000 L198.000000,102.199997 L199.000000,102.199997 L200.000000,102.400002 L201.000000,102.599998 L201.800003,102.800003 L202.800003,103.199997 L203.600006,103.599998 L204.399994,104.199997 L191.600006,112.000000 L190.000000,112.000000 L188.399994,112.000000 L187.199997,112.000000 L185.399994,112.199997 L157.800003,95.800003 L146.000000,102.599998 L142.399994,100.199997 L146.000000,97.000000 L148.000000,93.199997 L148.000000,91.000000 L165.000000,91.000000 L176.000000,84.199997 "/>
		<path style="fill:rgb(207,207,207);opacity:1;stroke-width:0"
		 d="M122.800003,77.000000 L124.400002,75.800003 L124.000000,78.400002 L123.800003,78.599998 L122.199997,77.599998 L122.800003,77.000000 M136.600006,96.800003 L141.399994,94.400002 L142.000000,97.400002 L136.600006,96.800003 M111.800003,97.199997 L112.400002,94.599998 L117.000000,99.599998 L117.400002,100.000000 L117.199997,102.599998 L116.599998,102.199997 L112.400002,97.800003 L112.000000,97.599998 L111.800003,97.199997 "/>
		<path style="fill:rgb(121,121,121);opacity:1;stroke-width:0"
		 d="M143.000000,77.199997 L143.800003,79.000000 L141.800003,77.599998 L141.800003,77.400002 L142.399994,76.400002 L143.000000,77.199997 M216.600006,103.400002 L218.199997,105.800003 L219.000000,108.199997 L219.000000,110.599998 L218.399994,110.599998 L217.800003,110.400002 L217.399994,110.400002 L207.800003,109.400002 L208.199997,108.400002 L208.000000,107.400002 L208.000000,106.199997 L207.199997,106.000000 L207.199997,105.000000 L207.800003,105.000000 L215.800003,103.599998 L216.000000,103.599998 L216.399994,103.400002 L216.600006,103.400002 M73.000000,125.400002 L73.000000,126.800003 L71.400002,127.199997 L70.000000,126.000000 L73.000000,125.400002 "/>
		<path style="fill:rgb(206,206,206);opacity:1;stroke-width:0"
		 d="M122.199997,77.599998 L122.199997,77.800003 L120.000000,79.800003 L121.000000,76.800003 L122.199997,77.599998 M135.399994,78.400002 L135.800003,78.599998 L133.800003,80.000000 L132.000000,77.800003 L135.399994,78.400002 M115.599998,80.599998 L118.199997,78.599998 L118.000000,82.599998 L115.800003,81.000000 L116.199997,85.400002 L113.199997,83.400002 L113.400002,83.000000 L115.800003,81.000000 L115.599998,80.599998 "/>
		<path style="fill:rgb(108,108,108);opacity:1;stroke-width:0"
		 d="M110.400002,77.400002 L110.400002,77.800003 L108.400002,80.199997 L110.400002,77.400002 M178.800003,125.199997 L174.199997,127.800003 L170.199997,130.199997 L170.199997,129.000000 L170.800003,128.800003 L178.800003,123.800003 L178.800003,125.199997 M120.000000,139.399994 L120.000000,141.600006 L116.800003,143.399994 L119.599998,139.600006 L120.000000,139.399994 "/>
		<path style="fill:rgb(216,216,216);opacity:1;stroke-width:0"
		 d="M122.199997,77.599998 L123.800003,78.599998 L122.599998,81.000000 L120.000000,80.199997 L120.000000,79.800003 L122.199997,77.800003 L122.199997,77.599998 M136.000000,93.599998 L140.600006,91.599998 L141.399994,94.400002 L136.000000,93.599998 M112.400002,94.400002 L113.400002,91.599998 L117.400002,96.599998 L112.400002,94.599998 L112.400002,94.400002 "/>
		<path style="fill:rgb(211,211,211);opacity:1;stroke-width:0"
		 d="M131.600006,77.599998 L132.000000,77.800003 L133.800003,80.000000 L130.000000,78.400002 L131.600006,77.599998 M120.000000,79.800003 L120.000000,80.199997 L118.000000,82.599998 L118.199997,78.599998 L120.000000,79.800003 "/>
		<path style="fill:rgb(213,213,213);opacity:1;stroke-width:0"
		 d="M129.600006,77.800003 L130.000000,78.400002 L128.199997,78.800003 L127.800003,78.199997 L127.599998,76.199997 L129.600006,77.800003 M118.000000,82.599998 L118.000000,82.800003 L116.199997,85.400002 L115.800003,81.000000 L118.000000,82.599998 "/>
		<path style="fill:rgb(212,212,212);opacity:1;stroke-width:0"
		 d="M125.800003,78.000000 L125.800003,78.800003 L124.000000,78.400002 L125.199997,76.199997 L125.800003,78.000000 M116.199997,85.400002 L116.199997,85.599998 L114.599998,88.400002 L113.199997,83.400002 L116.199997,85.400002 M136.199997,96.800003 L136.600006,96.800003 L142.000000,97.400002 L142.000000,97.599998 L137.000000,99.800003 L136.399994,99.800003 L136.199997,96.800003 "/>
		<path style="fill:rgb(214,214,214);opacity:1;stroke-width:0"
		 d="M125.800003,78.000000 L126.400002,76.199997 L127.800003,78.199997 L128.199997,78.800003 L125.800003,78.800003 L125.800003,78.000000 M117.199997,102.599998 L117.400002,100.000000 L123.400002,103.800003 L117.199997,102.599998 "/>
		<path style="fill:rgb(221,221,221);opacity:1;stroke-width:0"
		 d="M124.000000,78.400002 L125.800003,78.800003 L125.400002,81.599998 L123.800003,78.599998 L124.000000,78.400002 M135.199997,90.400002 L139.199997,88.400002 L140.600006,91.400002 L135.199997,90.400002 M135.600006,93.599998 L136.000000,93.599998 L141.399994,94.400002 L136.600006,96.800003 L136.199997,96.800003 L135.600006,93.599998 M123.400002,101.000000 L124.000000,101.000000 L130.199997,103.800003 L123.400002,103.800003 L123.400002,101.000000 "/>
		<path style="fill:rgb(161,161,161);opacity:1;stroke-width:0"
		 d="M139.600006,78.400002 L141.800003,77.599998 L141.800003,80.400002 L139.600006,78.400002 M194.000000,102.199997 L193.000000,102.400002 L193.000000,101.199997 L194.000000,102.199997 M122.599998,182.800003 L123.599998,182.800003 L131.800003,184.000000 L132.399994,184.000000 L132.600006,183.199997 L133.000000,185.800003 L133.000000,186.399994 L132.199997,187.000000 L128.800003,187.000000 L125.400002,187.000000 L122.800003,187.000000 L122.599998,186.399994 L122.599998,185.800003 L122.599998,182.800003 M123.199997,184.000000 L123.800003,184.000000 L125.800003,183.600006 L123.199997,183.399994 L123.199997,184.000000 "/>
		<path style="fill:rgb(145,145,145);opacity:1;stroke-width:0"
		 d="M110.400002,78.599998 L111.599998,78.199997 L110.000000,82.199997 L109.599998,82.800003 L109.400002,80.400002 L109.400002,79.800003 L109.800003,79.000000 L110.400002,78.599998 M143.800003,79.000000 L144.000000,79.400002 L141.800003,80.400002 L141.800003,77.599998 L143.800003,79.000000 "/>
		<path style="fill:rgb(219,219,219);opacity:1;stroke-width:0"
		 d="M128.199997,78.800003 L130.000000,78.400002 L131.399994,81.000000 L128.199997,78.800003 "/>
		<path style="fill:rgb(223,223,223);opacity:1;stroke-width:0"
		 d="M125.800003,78.800003 L128.199997,78.800003 L128.600006,81.599998 L125.800003,78.800003 M137.800003,85.599998 L139.199997,88.400002 L134.199997,87.199997 L134.000000,87.199997 L137.800003,85.599998 "/>
		<path style="fill:rgb(217,217,217);opacity:1;stroke-width:0"
		 d="M133.800003,80.000000 L131.600006,81.199997 L131.399994,81.000000 L130.000000,78.400002 L133.800003,80.000000 M117.400002,96.599998 L117.400002,100.000000 L117.000000,99.599998 L112.400002,94.599998 L117.400002,96.599998 M130.199997,101.000000 L130.800003,101.000000 L136.399994,99.800003 L136.399994,102.599998 L130.199997,103.800003 L130.199997,101.000000 "/>
		<path style="fill:rgb(203,203,203);opacity:1;stroke-width:0"
		 d="M133.800003,80.000000 L135.800003,78.599998 L138.199997,80.599998 L134.000000,80.000000 L133.800003,80.000000 M136.000000,82.599998 L138.199997,80.599998 L140.399994,83.000000 L136.000000,82.599998 M111.400002,85.599998 L113.199997,83.400002 L114.599998,88.400002 L111.400002,86.000000 L111.400002,85.599998 M139.199997,88.400002 L139.600006,88.400002 L143.800003,88.599998 L140.600006,91.400002 L139.199997,88.400002 "/>
		<path style="fill:rgb(218,218,218);opacity:1;stroke-width:0"
		 d="M133.800003,80.000000 L134.000000,80.000000 L135.800003,82.599998 L131.600006,81.199997 L133.800003,80.000000 "/>
		<path style="fill:rgb(183,183,183);opacity:1;stroke-width:0"
		 d="M145.000000,80.000000 L156.800003,72.800003 L176.000000,84.199997 L165.000000,91.000000 L148.000000,91.000000 L147.800003,90.800003 L147.800003,89.800003 L147.600006,89.199997 L147.600006,86.800003 L147.000000,84.599998 L147.000000,84.000000 L145.800003,81.800003 L145.199997,80.599998 L145.000000,80.000000 "/>
		<path style="fill:rgb(133,133,133);opacity:1;stroke-width:0"
		 d="M109.400002,79.800003 L109.400002,80.400002 L108.000000,84.000000 L107.599998,83.199997 L107.599998,82.000000 L108.199997,81.000000 L109.400002,79.800003 M145.199997,80.599998 L145.800003,81.800003 L144.000000,82.599998 L144.000000,79.400002 L145.199997,80.599998 M202.800003,102.199997 L204.600006,103.000000 L204.600006,103.599998 L204.399994,104.199997 L203.600006,103.599998 L202.800003,102.400002 L202.800003,102.199997 M212.199997,118.800003 L211.399994,119.000000 L211.399994,118.000000 L212.199997,118.800003 "/>
		<path style="fill:rgb(187,187,187);opacity:1;stroke-width:0"
		 d="M142.000000,80.599998 L140.800003,83.000000 L140.399994,83.000000 L138.199997,80.599998 L141.800003,80.400002 L142.000000,80.599998 M113.400002,83.000000 L113.199997,83.400002 L111.400002,85.599998 L111.800003,80.599998 L113.400002,83.000000 M189.399994,119.800003 L190.199997,119.800003 L191.399994,119.800003 L192.199997,120.000000 L193.399994,120.000000 L195.399994,120.000000 L198.000000,120.199997 L199.199997,120.199997 L218.800003,132.000000 L158.600006,132.199997 L158.399994,132.199997 L165.600006,127.599998 L170.199997,130.199997 L174.199997,127.800003 L178.800003,125.199997 L178.800003,123.800003 L175.399994,121.599998 L177.199997,120.599998 L180.800003,122.599998 L181.800003,122.199997 L182.800003,121.599998 L183.399994,121.400002 L184.199997,121.000000 L184.800003,120.800003 L185.399994,120.400002 L186.000000,120.199997 L186.600006,120.199997 L187.000000,120.000000 L187.800003,120.000000 L188.600006,120.000000 L189.399994,119.800003 "/>
		<path style="fill:rgb(224,224,224);opacity:1;stroke-width:0"
		 d="M122.599998,81.000000 L123.800003,78.599998 L125.400002,81.599998 L122.599998,81.199997 L121.199997,84.000000 L120.000000,80.199997 L122.599998,81.000000 M135.800003,82.599998 L133.000000,84.000000 L132.600006,84.000000 L131.600006,81.199997 L135.800003,82.599998 "/>
		<path style="fill:rgb(225,225,225);opacity:1;stroke-width:0"
		 d="M131.399994,81.000000 L128.600006,81.599998 L128.199997,78.800003 L131.399994,81.000000 M116.199997,85.400002 L118.000000,82.800003 L120.000000,87.199997 L116.199997,85.599998 L119.000000,90.400002 L114.599998,88.599998 L114.599998,88.400002 L116.199997,85.599998 L116.199997,85.400002 M113.400002,91.599998 L118.199997,93.599998 L117.800003,96.800003 L123.400002,101.000000 L117.400002,100.000000 L117.400002,96.599998 L113.400002,91.599998 M130.199997,101.000000 L130.199997,103.800003 L124.000000,101.000000 L130.199997,101.000000 "/>
		<path style="fill:rgb(229,229,229);opacity:1;stroke-width:0"
		 d="M131.399994,81.000000 L131.600006,81.199997 L132.600006,84.000000 L128.800003,81.800003 L128.600006,81.599998 L131.399994,81.000000 M118.000000,82.800003 L121.199997,84.000000 L121.199997,84.199997 L120.000000,87.199997 L118.000000,82.800003 M134.199997,87.199997 L139.199997,88.400002 L135.199997,90.400002 L135.000000,90.400002 L134.199997,87.199997 "/>
		<path style="fill:rgb(227,227,227);opacity:1;stroke-width:0"
		 d="M125.400002,81.599998 L125.800003,78.800003 L128.600006,81.599998 L125.599998,81.599998 L125.400002,81.599998 M130.600006,98.000000 L136.199997,96.800003 L136.399994,99.800003 L130.600006,98.000000 "/>
		<path style="fill:rgb(232,232,232);opacity:1;stroke-width:0"
		 d="M122.599998,81.199997 L125.400002,81.599998 L125.000000,84.800003 L122.599998,81.199997 M117.800003,96.800003 L123.400002,97.800003 L123.800003,98.000000 L123.400002,101.000000 L117.800003,96.800003 "/>
		<path style="fill:rgb(237,237,237);opacity:1;stroke-width:0"
		 d="M125.400002,81.599998 L125.599998,81.599998 L129.000000,84.800003 L125.400002,84.800003 L125.000000,84.800003 L125.400002,81.599998 "/>
		<path style="fill:rgb(234,234,234);opacity:1;stroke-width:0"
		 d="M128.600006,81.599998 L128.800003,81.800003 L132.600006,84.000000 L129.399994,84.800003 L129.000000,84.800003 L125.599998,81.599998 L128.600006,81.599998 M118.400002,93.599998 L123.400002,97.800003 L117.800003,96.800003 L118.199997,93.599998 L118.400002,93.599998 M135.600006,93.599998 L136.199997,96.800003 L130.199997,94.800003 L129.800003,94.599998 L135.600006,93.599998 "/>
		<path style="fill:rgb(222,222,222);opacity:1;stroke-width:0"
		 d="M118.000000,82.599998 L120.000000,80.199997 L121.199997,84.000000 L118.000000,82.800003 L118.000000,82.599998 M135.800003,82.599998 L136.000000,82.599998 L137.800003,85.400002 L133.000000,84.000000 L135.800003,82.599998 M113.199997,91.199997 L114.599998,88.599998 L118.199997,93.599998 L113.400002,91.599998 L113.199997,91.199997 M123.400002,101.000000 L123.400002,103.800003 L117.400002,100.000000 L123.400002,101.000000 "/>
		<path style="fill:rgb(140,140,140);opacity:1;stroke-width:0"
		 d="M144.000000,82.599998 L145.800003,81.800003 L145.800003,85.000000 L144.199997,82.800003 L144.000000,82.599998 "/>
		<path style="fill:rgb(233,233,233);opacity:1;stroke-width:0"
		 d="M121.199997,84.000000 L122.599998,81.199997 L125.000000,84.800003 L121.199997,84.000000 M123.800003,98.000000 L124.400002,98.000000 L130.199997,101.000000 L124.000000,101.000000 L123.400002,101.000000 L123.800003,98.000000 "/>
		<path style="fill:rgb(136,136,136);opacity:1;stroke-width:0"
		 d="M107.599998,83.199997 L108.000000,84.000000 L108.000000,84.800003 L107.800003,85.400002 L106.599998,87.199997 L106.599998,86.599998 L107.599998,83.199997 "/>
		<path style="fill:rgb(236,236,236);opacity:1;stroke-width:0"
		 d="M132.600006,84.000000 L133.000000,84.000000 L134.000000,87.199997 L129.399994,84.800003 L132.600006,84.000000 M136.199997,96.800003 L130.600006,98.000000 L130.399994,98.000000 L130.199997,101.000000 L124.400002,98.000000 L130.399994,98.000000 L130.199997,94.800003 L136.199997,96.800003 "/>
		<path style="fill:rgb(239,239,239);opacity:1;stroke-width:0"
		 d="M121.199997,84.199997 L121.199997,84.000000 L125.000000,84.800003 L124.599998,88.000000 L121.199997,84.199997 M134.199997,87.199997 L135.000000,90.400002 L129.800003,88.000000 L134.000000,87.199997 L134.199997,87.199997 M119.000000,90.400002 L119.199997,90.400002 L123.800003,94.599998 L123.400002,97.800003 L118.400002,93.599998 L119.000000,90.400002 "/>
		<path style="fill:rgb(243,243,243);opacity:1;stroke-width:0"
		 d="M125.000000,84.800003 L125.400002,84.800003 L129.399994,88.000000 L125.000000,88.000000 L124.599998,88.000000 L124.199997,91.400002 L120.199997,87.199997 L124.599998,88.000000 L125.000000,84.800003 M124.199997,91.400002 L123.800003,94.599998 L119.199997,90.400002 L124.199997,91.400002 M124.199997,94.599998 L129.800003,94.599998 L130.199997,94.800003 L130.399994,98.000000 L124.199997,94.599998 "/>
		<path style="fill:rgb(241,241,241);opacity:1;stroke-width:0"
		 d="M129.000000,84.800003 L129.399994,88.000000 L125.400002,84.800003 L129.000000,84.800003 M135.600006,93.599998 L129.800003,94.599998 L130.000000,91.400002 L135.600006,93.599998 M124.199997,94.599998 L130.399994,98.000000 L124.400002,98.000000 L123.800003,98.000000 L123.400002,97.800003 L123.800003,94.599998 L124.199997,94.599998 "/>
		<path style="fill:rgb(240,240,240);opacity:1;stroke-width:0"
		 d="M129.000000,84.800003 L129.399994,84.800003 L134.000000,87.199997 L129.800003,88.000000 L129.399994,88.000000 L129.000000,84.800003 M120.199997,87.199997 L124.199997,91.400002 L119.199997,90.400002 L119.000000,90.400002 L120.000000,87.199997 L120.199997,87.199997 "/>
		<path style="fill:rgb(228,228,228);opacity:1;stroke-width:0"
		 d="M137.800003,85.400002 L137.800003,85.599998 L134.000000,87.199997 L133.000000,84.000000 L137.800003,85.400002 M130.600006,98.000000 L136.399994,99.800003 L130.800003,101.000000 L130.199997,101.000000 L130.399994,98.000000 L130.600006,98.000000 "/>
		<path style="fill:rgb(201,201,201);opacity:1;stroke-width:0"
		 d="M137.800003,85.400002 L140.399994,83.199997 L142.399994,85.800003 L137.800003,85.400002 "/>
		<path style="fill:rgb(196,196,196);opacity:1;stroke-width:0"
		 d="M142.399994,85.800003 L142.600006,85.800003 L144.000000,88.400002 L143.800003,88.599998 L139.600006,88.400002 L142.399994,85.800003 M140.600006,91.400002 L145.000000,91.400002 L141.800003,94.400002 L141.399994,94.400002 L140.600006,91.599998 L140.600006,91.400002 M137.000000,99.800003 L142.000000,97.599998 L142.000000,100.199997 L137.000000,99.800003 "/>
		<path style="fill:rgb(173,173,173);opacity:1;stroke-width:0"
		 d="M142.600006,85.800003 L145.800003,85.199997 L144.000000,88.400002 L142.600006,85.800003 M146.000000,97.000000 L142.399994,100.199997 L142.000000,100.199997 L142.000000,97.599998 L142.000000,97.400002 L146.000000,97.000000 "/>
		<path style="fill:rgb(113,113,113);opacity:1;stroke-width:0"
		 d="M147.600006,86.800003 L147.000000,87.400002 L147.000000,84.599998 L147.600006,86.800003 "/>
		<path style="fill:rgb(231,231,231);opacity:1;stroke-width:0"
		 d="M116.199997,85.599998 L120.000000,87.199997 L119.000000,90.400002 L116.199997,85.599998 "/>
		<path style="fill:rgb(238,238,238);opacity:1;stroke-width:0"
		 d="M120.000000,87.199997 L121.199997,84.199997 L124.599998,88.000000 L120.199997,87.199997 L120.000000,87.199997 M130.000000,91.400002 L135.000000,90.400002 L135.600006,93.599998 L130.000000,91.400002 "/>
		<path style="fill:rgb(246,246,246);opacity:1;stroke-width:0"
		 d="M124.599998,88.000000 L125.000000,88.000000 L129.800003,91.400002 L130.000000,91.400002 L129.800003,94.599998 L124.800003,91.400002 L124.199997,91.400002 L124.599998,88.000000 "/>
		<path style="fill:rgb(245,245,245);opacity:1;stroke-width:0"
		 d="M129.399994,88.000000 L129.800003,91.400002 L125.000000,88.000000 L129.399994,88.000000 M124.199997,91.400002 L124.800003,91.400002 L129.800003,94.599998 L124.199997,94.599998 L123.800003,94.599998 L124.199997,91.400002 "/>
		<path style="fill:rgb(242,242,242);opacity:1;stroke-width:0"
		 d="M129.399994,88.000000 L129.800003,88.000000 L135.000000,90.400002 L130.000000,91.400002 L129.800003,91.400002 L129.399994,88.000000 "/>
		<path style="fill:rgb(230,230,230);opacity:1;stroke-width:0"
		 d="M119.000000,90.400002 L118.400002,93.599998 L118.199997,93.599998 L114.599998,88.599998 L119.000000,90.400002 "/>
		<path style="fill:rgb(226,226,226);opacity:1;stroke-width:0"
		 d="M135.000000,90.400002 L135.199997,90.400002 L140.600006,91.400002 L140.600006,91.599998 L136.000000,93.599998 L135.600006,93.599998 L135.000000,90.400002 "/>
		<path style="fill:rgb(160,160,160);opacity:1;stroke-width:0"
		 d="M108.599998,91.000000 L108.599998,91.599998 L107.800003,94.000000 L107.599998,93.599998 L106.800003,88.400002 L108.599998,91.000000 M199.399994,101.000000 L201.000000,101.599998 L201.000000,101.800003 L201.000000,102.599998 L200.000000,102.400002 L199.199997,101.199997 L199.399994,101.000000 M187.600006,118.599998 L187.800003,119.000000 L187.800003,120.000000 L187.000000,120.000000 L186.600006,119.400002 L186.399994,118.800003 L187.600006,118.599998 "/>
		<path style="fill:rgb(189,189,189);opacity:1;stroke-width:0"
		 d="M109.800003,88.800003 L112.400002,94.400002 L109.000000,91.800003 L108.599998,91.599998 L108.599998,91.000000 L109.800003,88.800003 M127.199997,127.599998 L127.800003,127.599998 L158.199997,145.800003 L147.199997,152.600006 L146.399994,150.800003 L146.399994,150.399994 L146.199997,150.000000 L145.000000,147.199997 L144.600006,146.800003 L144.399994,145.800003 L142.399994,144.000000 L139.600006,141.399994 L136.600006,139.600006 L136.199997,139.399994 L132.399994,138.399994 L128.399994,138.000000 L127.800003,138.000000 L127.599998,138.000000 L123.599998,138.399994 L120.000000,139.399994 L119.599998,139.600006 L116.400002,141.399994 L113.599998,143.600006 L113.400002,144.000000 L111.199997,146.800003 L110.800003,147.399994 L109.599998,150.000000 L109.199997,151.000000 L108.800003,152.399994 L97.599998,146.000000 L116.000000,134.399994 L127.199997,127.599998 "/>
		<path style="fill:rgb(152,152,152);opacity:1;stroke-width:0"
		 d="M145.199997,91.199997 L147.800003,90.800003 L145.800003,94.000000 L145.000000,91.400002 L145.199997,91.199997 "/>
		<path style="fill:rgb(192,192,192);opacity:1;stroke-width:0"
		 d="M112.400002,94.400002 L112.400002,94.599998 L111.800003,97.199997 L109.000000,91.800003 L112.400002,94.400002 M114.800003,172.399994 L115.800003,173.199997 L118.599998,176.199997 L120.000000,177.600006 L121.199997,179.000000 L122.000000,180.199997 L122.599998,181.199997 L122.599998,182.199997 L122.599998,182.800003 L122.599998,185.800003 L122.599998,186.399994 L122.800003,187.000000 L125.400002,187.000000 L128.800003,187.000000 L132.199997,187.000000 L133.000000,186.399994 L133.000000,185.800003 L132.600006,183.199997 L132.600006,182.399994 L133.000000,181.199997 L133.600006,180.199997 L134.399994,179.000000 L135.600006,177.600006 L137.199997,176.000000 L140.000000,173.199997 L141.399994,171.800003 L159.000000,182.199997 L129.000000,200.600006 L98.400002,182.399994 L114.800003,172.399994 "/>
		<path style="fill:rgb(185,185,185);opacity:1;stroke-width:0"
		 d="M212.000000,99.400002 L218.199997,95.599998 L248.800003,113.800003 L218.199997,113.800003 L218.600006,113.000000 L218.800003,111.199997 L219.000000,110.599998 L219.000000,108.199997 L218.199997,105.800003 L216.600006,103.400002 L213.600006,101.199997 L212.000000,99.400002 M142.000000,100.199997 L142.399994,100.199997 L146.000000,102.599998 L134.800003,109.400002 L97.000000,109.400002 L111.800003,100.199997 L116.599998,102.199997 L117.199997,102.599998 L123.400002,103.800003 L130.199997,103.800003 L136.399994,102.599998 L142.000000,100.199997 M204.399994,104.199997 L205.000000,104.400002 L206.000000,105.000000 L206.399994,105.400002 L207.199997,106.000000 L208.000000,107.400002 L208.199997,108.400002 L207.800003,109.400002 L207.199997,110.400002 L206.000000,111.199997 L205.399994,111.599998 L204.199997,112.400002 L203.000000,112.199997 L201.800003,112.400002 L200.600006,112.800003 L198.800003,112.599998 L196.199997,112.400002 L193.199997,112.199997 L191.600006,112.000000 L204.399994,104.199997 "/>
		<path style="fill:rgb(169,169,169);opacity:1;stroke-width:0"
		 d="M195.199997,100.800003 L197.199997,101.199997 L198.000000,102.199997 L197.199997,102.000000 L196.000000,102.000000 L195.199997,101.000000 L195.199997,100.800003 "/>
		<path style="fill:rgb(150,150,150);opacity:1;stroke-width:0"
		 d="M191.000000,101.599998 L191.800003,102.599998 L190.800003,102.800003 L190.800003,101.599998 L191.000000,101.599998 "/>
		<path style="fill:rgb(138,138,138);opacity:1;stroke-width:0"
		 d="M202.800003,103.199997 L202.800003,102.400002 L203.600006,103.599998 L202.800003,103.199997 "/>
		<path style="fill:rgb(95,95,95);opacity:1;stroke-width:0"
		 d="M206.000000,104.199997 L207.199997,105.000000 L207.199997,106.000000 L206.399994,105.400002 L206.000000,105.000000 L206.000000,104.199997 "/>
		<path style="fill:rgb(67,67,67);opacity:1;stroke-width:0"
		 d="M207.199997,106.000000 L208.000000,106.199997 L208.000000,107.400002 L207.199997,106.000000 "/>
		<path style="fill:rgb(14,14,14);opacity:1;stroke-width:0"
		 d="M218.199997,113.000000 L218.800003,111.199997 L218.600006,113.000000 L218.199997,113.000000 "/>
		<path style="fill:rgb(26,26,26);opacity:1;stroke-width:0"
		 d="M218.199997,113.000000 L218.600006,113.000000 L218.199997,113.800003 L218.199997,113.000000 M147.000000,153.199997 L146.800003,153.199997 L146.399994,151.800003 L147.000000,153.199997 "/>
		<path style="fill:rgb(50,50,50);opacity:1;stroke-width:0"
		 d="M218.199997,113.000000 L218.199997,113.800003 L217.399994,115.000000 L216.800003,114.800003 L216.600006,114.599998 L218.199997,113.000000 "/>
		<path style="fill:rgb(96,96,96);opacity:1;stroke-width:0"
		 d="M66.199997,113.599998 L69.599998,113.599998 L72.800003,114.400002 L75.199997,115.400002 L77.199997,117.000000 L68.400002,119.599998 L68.199997,119.800003 L68.000000,120.000000 L67.599998,119.599998 L58.799999,117.000000 L60.799999,115.400002 L63.400002,114.199997 L66.199997,113.599998 M60.799999,124.599998 L61.799999,126.000000 L60.799999,125.599998 L60.799999,124.599998 "/>
		<path style="fill:rgb(82,82,82);opacity:1;stroke-width:0"
		 d="M216.600006,114.599998 L216.800003,114.800003 L216.800003,115.599998 L215.399994,116.800003 L214.399994,116.400002 L216.600006,114.599998 "/>
		<path style="fill:rgb(61,61,61);opacity:1;stroke-width:0"
		 d="M216.800003,114.800003 L217.399994,115.000000 L216.800003,115.599998 L216.800003,114.800003 "/>
		<path style="fill:rgb(90,90,90);opacity:1;stroke-width:0"
		 d="M214.399994,116.400002 L215.399994,116.800003 L214.600006,117.400002 L214.399994,116.400002 M116.400002,141.399994 L116.599998,143.399994 L114.000000,145.800003 L113.800003,145.800003 L116.400002,141.399994 "/>
		<path style="fill:rgb(97,97,97);opacity:1;stroke-width:0"
		 d="M57.799999,118.800003 L58.799999,117.000000 L67.599998,119.599998 L68.000000,120.000000 L68.199997,119.800003 L68.400002,119.599998 L77.199997,117.000000 L78.400002,118.800003 L78.400002,120.800003 L78.199997,121.199997 L77.400002,122.800003 L75.400002,124.199997 L73.000000,125.400002 L70.000000,126.000000 L66.800003,126.000000 L66.400002,126.000000 L63.400002,125.400002 L60.799999,124.400002 L58.799999,122.800003 L57.799999,121.400002 L57.799999,120.800003 L57.799999,118.800003 "/>
		<path style="fill:rgb(162,162,162);opacity:1;stroke-width:0"
		 d="M207.600006,118.800003 L207.600006,120.000000 L206.199997,120.000000 L205.000000,118.800003 L207.399994,118.599998 L207.600006,118.800003 M125.199997,168.399994 L125.599998,168.600006 L127.199997,170.399994 L127.400002,170.800003 L127.599998,170.800003 L128.000000,171.199997 L128.000000,170.800003 L129.800003,169.199997 L130.399994,168.600006 L131.000000,169.000000 L139.600006,172.800003 L140.000000,173.199997 L137.199997,176.000000 L135.600006,177.600006 L134.399994,179.000000 L133.600006,180.199997 L133.000000,181.199997 L132.600006,182.399994 L132.600006,183.199997 L132.399994,184.000000 L131.800003,184.000000 L123.599998,182.800003 L122.599998,182.800003 L122.599998,182.199997 L122.599998,181.199997 L122.000000,180.199997 L121.199997,179.000000 L120.000000,177.600006 L118.599998,176.199997 L115.800003,173.199997 L125.000000,169.000000 L125.199997,168.399994 M123.199997,184.000000 L123.199997,183.399994 L125.800003,183.600006 L123.800003,184.000000 L123.199997,184.000000 "/>
		<path style="fill:rgb(146,146,146);opacity:1;stroke-width:0"
		 d="M210.399994,119.400002 L209.600006,119.599998 L209.600006,118.599998 L210.399994,119.400002 "/>
		<path style="fill:rgb(40,40,40);opacity:1;stroke-width:0"
		 d="M58.799999,122.800003 L58.799999,123.000000 L58.599998,123.400002 L57.799999,121.400002 L58.799999,122.800003 M146.199997,150.000000 L146.399994,150.399994 L146.399994,150.800003 L146.399994,151.800003 L145.800003,150.800003 L145.000000,147.199997 L146.199997,150.000000 "/>
		<path style="fill:rgb(36,36,36);opacity:1;stroke-width:0"
		 d="M77.400002,122.800003 L78.199997,121.199997 L78.400002,122.400002 L77.800003,123.199997 L77.400002,122.800003 "/>
		<path style="fill:rgb(76,76,76);opacity:1;stroke-width:0"
		 d="M58.799999,122.800003 L60.799999,124.400002 L60.799999,124.599998 L60.799999,125.599998 L59.599998,124.599998 L58.799999,123.000000 L58.799999,122.800003 "/>
		<path style="fill:rgb(49,49,49);opacity:1;stroke-width:0"
		 d="M77.400002,122.800003 L77.800003,123.199997 L77.400002,123.800003 L77.400002,122.800003 "/>
		<path style="fill:rgb(65,65,65);opacity:1;stroke-width:0"
		 d="M58.799999,123.000000 L59.599998,124.599998 L58.599998,123.400002 L58.799999,123.000000 M113.400002,144.000000 L111.400002,148.399994 L111.199997,146.800003 L113.400002,144.000000 "/>
		<path style="fill:rgb(73,73,73);opacity:1;stroke-width:0"
		 d="M77.400002,122.800003 L77.400002,123.800003 L76.400002,124.800003 L75.400002,124.199997 L77.400002,122.800003 "/>
		<path style="fill:rgb(104,104,104);opacity:1;stroke-width:0"
		 d="M60.799999,124.599998 L60.799999,124.400002 L63.400002,125.400002 L63.400002,126.800003 L61.799999,126.000000 L60.799999,124.599998 "/>
		<path style="fill:rgb(83,83,83);opacity:1;stroke-width:0"
		 d="M76.400002,124.800003 L75.599998,125.599998 L75.400002,124.199997 L76.400002,124.800003 "/>
		<path style="fill:rgb(117,117,117);opacity:1;stroke-width:0"
		 d="M63.400002,125.400002 L64.800003,127.000000 L63.400002,126.800003 L63.400002,125.400002 M123.599998,138.399994 L120.000000,141.600006 L120.000000,139.399994 L123.599998,138.399994 "/>
		<path style="fill:rgb(125,125,125);opacity:1;stroke-width:0"
		 d="M71.400002,127.199997 L70.000000,127.400002 L70.000000,126.000000 L71.400002,127.199997 M127.599998,138.000000 L127.800003,138.000000 L128.000000,140.199997 L123.800003,140.600006 L127.599998,138.000000 "/>
		<path style="fill:rgb(99,99,99);opacity:1;stroke-width:0"
		 d="M66.599998,134.000000 L66.199997,132.600006 L66.599998,132.199997 L78.800003,134.199997 L96.000000,137.000000 L88.400002,141.800003 L56.799999,160.600006 L55.000000,161.399994 L44.200001,138.600006 L42.200001,134.399994 L43.200001,134.000000 L58.599998,136.600006 L66.800003,137.800003 L68.800003,138.199997 L68.199997,136.600006 L67.599998,135.800003 L66.800003,134.000000 L66.599998,134.000000 M139.600006,141.399994 L139.399994,143.399994 L136.600006,139.600006 L139.600006,141.399994 "/>
		<path style="fill:rgb(25,25,25);opacity:1;stroke-width:0"
		 d="M44.200001,138.600006 L55.000000,161.399994 L54.799999,162.199997 L49.799999,151.800003 L45.000000,141.199997 L44.599998,140.199997 L44.400002,139.800003 L42.200001,135.600006 L42.200001,134.399994 L44.200001,138.600006 M108.800003,152.399994 L109.199997,151.000000 L109.000000,153.399994 L108.599998,154.399994 L108.400002,154.399994 L108.800003,152.399994 "/>
		<path style="fill:rgb(114,114,114);opacity:1;stroke-width:0"
		 d="M132.399994,138.399994 L136.199997,139.399994 L136.000000,141.600006 L132.399994,138.399994 "/>
		<path style="fill:rgb(105,105,105);opacity:1;stroke-width:0"
		 d="M136.199997,139.399994 L136.600006,139.600006 L139.399994,143.399994 L136.000000,141.600006 L136.199997,139.399994 "/>
		<path style="fill:rgb(118,118,118);opacity:1;stroke-width:0"
		 d="M132.399994,138.399994 L136.000000,141.600006 L132.199997,140.600006 L132.399994,138.399994 "/>
		<path style="fill:rgb(92,92,92);opacity:1;stroke-width:0"
		 d="M88.400002,141.800003 L96.000000,137.000000 L96.199997,137.800003 L88.400002,142.399994 L88.400002,141.800003 "/>
		<path style="fill:rgb(93,93,93);opacity:1;stroke-width:0"
		 d="M88.400002,141.800003 L88.400002,142.399994 L87.800003,143.399994 L79.199997,148.600006 L70.400002,153.800003 L70.000000,154.000000 L69.800003,154.199997 L67.199997,155.800003 L56.000000,162.800003 L55.000000,163.199997 L54.799999,162.199997 L55.000000,161.399994 L56.799999,160.600006 L88.400002,141.800003 "/>
		<path style="fill:rgb(86,86,86);opacity:1;stroke-width:0"
		 d="M139.600006,141.399994 L142.199997,145.600006 L139.399994,143.399994 L139.600006,141.399994 "/>
		<path style="fill:rgb(84,84,84);opacity:1;stroke-width:0"
		 d="M116.400002,141.399994 L113.800003,145.800003 L113.599998,143.600006 L116.400002,141.399994 "/>
		<path style="fill:rgb(79,79,79);opacity:1;stroke-width:0"
		 d="M139.600006,141.399994 L142.399994,144.000000 L142.199997,145.600006 L139.600006,141.399994 "/>
		<path style="fill:rgb(71,71,71);opacity:1;stroke-width:0"
		 d="M113.400002,144.000000 L113.599998,143.600006 L113.800003,145.800003 L111.400002,148.399994 L113.400002,144.000000 "/>
		<path style="fill:rgb(66,66,66);opacity:1;stroke-width:0"
		 d="M142.199997,145.600006 L142.399994,144.000000 L144.199997,147.800003 L142.399994,145.800003 L142.199997,145.600006 M127.599998,170.800003 L127.800003,170.800003 L128.000000,170.800003 L128.000000,171.199997 L127.599998,170.800003 "/>
		<path style="fill:rgb(60,60,60);opacity:1;stroke-width:0"
		 d="M144.399994,145.800003 L144.600006,146.800003 L144.399994,148.199997 L144.199997,147.800003 L142.399994,144.000000 L144.399994,145.800003 "/>
		<path style="fill:rgb(47,47,47);opacity:1;stroke-width:0"
		 d="M144.600006,146.800003 L145.000000,147.199997 L145.800003,150.800003 L144.600006,148.600006 L144.399994,148.199997 L144.600006,146.800003 "/>
		<path style="fill:rgb(52,52,52);opacity:1;stroke-width:0"
		 d="M110.800003,147.399994 L111.199997,146.800003 L111.400002,148.399994 L111.400002,148.600006 L109.800003,151.800003 L109.800003,150.800003 L110.800003,147.399994 "/>
		<path style="fill:rgb(45,45,45);opacity:1;stroke-width:0"
		 d="M109.599998,150.000000 L110.800003,147.399994 L109.800003,150.800003 L109.599998,150.000000 "/>
		<path style="fill:rgb(189,181,94);opacity:1;stroke-width:0"
		 d="M125.800003,150.399994 L126.199997,150.399994 L126.800003,150.399994 L126.400002,151.199997 L120.199997,161.600006 L119.800003,160.600006 L119.599998,159.399994 L119.400002,158.600006 L119.599998,158.199997 L119.800003,156.800003 L120.000000,155.399994 L120.400002,154.800003 L120.599998,154.199997 L120.800003,153.800003 L121.400002,153.399994 L121.599998,152.800003 L122.800003,151.800003 L124.000000,151.000000 L124.400002,150.800003 L125.000000,150.800003 L125.599998,150.600006 L125.800003,150.399994 M129.000000,150.399994 L129.600006,150.399994 L130.000000,150.399994 L130.399994,150.800003 L131.000000,150.800003 L131.600006,150.800003 L132.399994,151.399994 L132.800003,151.600006 L133.000000,151.600006 L133.000000,151.800003 L134.199997,152.600006 L134.199997,152.800003 L135.399994,154.000000 L135.600006,154.800003 L135.800003,155.199997 L136.199997,156.600006 L136.399994,158.199997 L136.199997,159.399994 L136.000000,160.600006 L135.600006,161.600006 L135.000000,162.600006 L129.800003,151.600006 L129.399994,150.600006 L129.000000,150.399994 "/>
		<path style="fill:rgb(190,182,94);opacity:1;stroke-width:0"
		 d="M127.199997,150.399994 L127.800003,150.399994 L128.399994,150.399994 L129.000000,150.399994 L129.399994,150.600006 L129.800003,151.600006 L135.000000,162.600006 L134.399994,163.399994 L133.199997,164.600006 L131.600006,166.199997 L129.600006,168.199997 L128.000000,170.000000 L126.599998,168.800003 L126.000000,168.199997 L124.400002,166.600006 L124.199997,166.199997 L124.000000,166.199997 L122.400002,164.600006 L121.599998,163.800003 L121.400002,163.600006 L120.800003,162.800003 L120.800003,162.600006 L126.599998,151.800003 L127.000000,150.600006 L126.800003,150.399994 L127.199997,150.399994 "/>
		<path style="fill:rgb(189,182,94);opacity:1;stroke-width:0"
		 d="M127.000000,150.600006 L126.599998,151.800003 L120.800003,162.600006 L120.199997,161.600006 L126.400002,151.199997 L126.800003,150.399994 L127.000000,150.600006 "/>
		<path style="fill:rgb(32,32,32);opacity:1;stroke-width:0"
		 d="M109.800003,150.800003 L109.800003,151.800003 L109.000000,153.399994 L109.199997,151.000000 L109.599998,150.000000 L109.800003,150.800003 "/>
		<path style="fill:rgb(19,19,19);opacity:1;stroke-width:0"
		 d="M146.399994,151.800003 L146.399994,150.800003 L147.199997,152.600006 L147.000000,153.199997 L147.000000,153.600006 L147.000000,153.800003 L146.800003,153.199997 L147.000000,153.199997 L146.399994,151.800003 "/>
		<path style="fill:rgb(8,8,8);opacity:1;stroke-width:0"
		 d="M147.199997,153.600006 L147.199997,154.399994 L147.000000,153.800003 L147.000000,153.600006 L147.199997,153.600006 "/>
		<path style="fill:rgb(13,13,13);opacity:1;stroke-width:0"
		 d="M108.599998,154.399994 L108.599998,155.000000 L108.400002,155.199997 L108.400002,154.399994 L108.599998,154.399994 "/>
		<path style="stroke:rgb(0,0,0);stroke-width:4.300000;stroke-linecap:round;stroke-linejoin:round;fill:none"
		 d="M125.000000,70.000000 L122.000000,70.400002 L121.000000,70.599998 L119.599998,71.000000 L119.199997,71.199997 L118.800003,71.400002 L118.400002,71.599998 L117.800003,71.800003 L117.400002,72.000000 L117.199997,72.199997 L113.800003,74.199997 L113.199997,74.800003 L112.800003,75.000000 L110.400002,77.400002 L108.400002,80.199997 L108.199997,81.000000 L107.599998,82.000000 L106.400002,85.199997 L106.199997,85.199997 L105.599998,89.199997 L105.599998,89.800003 L105.599998,90.199997 L105.599998,90.599998 L105.599998,93.199997 L107.000000,95.400002 L107.599998,96.599998 L111.199997,99.599998 L111.800003,100.199997 L116.599998,102.199997 L117.199997,102.599998 L123.400002,103.800003 L130.199997,103.800003 L136.399994,102.599998 L142.000000,100.199997 L142.399994,100.199997 L146.000000,97.000000 L148.000000,93.199997 L148.000000,91.000000 L147.800003,90.800003 L147.800003,89.800003 L147.600006,89.199997 L147.600006,86.800003 L147.000000,84.599998 L147.000000,84.000000 L145.800003,81.800003 L145.199997,80.599998 L145.000000,80.000000 L144.000000,78.599998 L143.000000,77.199997 L142.399994,76.400002 L140.399994,75.000000 L140.000000,74.599998 L137.800003,72.800003 L136.199997,72.000000 L135.399994,71.800003 L134.399994,71.199997 L132.800003,70.599998 L132.600006,70.599998 L129.800003,70.000000 L129.600006,70.000000 L129.199997,69.800003 L128.399994,70.000000 L126.400002,69.800003 L125.000000,70.000000 		"/>
		<path style="stroke:rgb(0,0,0);stroke-width:4.300000;stroke-linecap:round;stroke-linejoin:round;fill:none"
		 d="M176.000000,84.199997 L165.000000,91.000000 L157.800003,95.800003 L146.000000,102.599998 L134.800003,109.400002 L127.599998,114.000000 L139.000000,120.800003 L158.399994,132.199997 L158.600006,132.199997 L189.199997,150.399994 L218.800003,132.000000 L248.800003,113.800003 L218.199997,95.599998 L187.600006,77.400002 L176.000000,84.199997 L156.800003,72.800003 L126.199997,54.799999 L96.199997,73.000000 L66.400002,90.800003 L66.199997,91.400002 L97.000000,109.400002 L127.199997,127.599998 L127.800003,127.599998 L139.000000,120.800003 		"/>
		<path style="stroke:rgb(0,0,0);stroke-width:4.300000;stroke-linecap:round;stroke-linejoin:round;fill:none"
		 d="M181.399994,97.000000 L181.199997,98.400002 L183.600006,99.800003 L188.199997,103.599998 L189.600006,103.199997 L190.800003,102.800003 L191.800003,102.599998 L193.000000,102.400002 L194.000000,102.199997 L195.199997,102.000000 L196.000000,102.000000 L197.199997,102.000000 L198.000000,102.199997 L199.000000,102.199997 L200.000000,102.400002 L201.000000,102.599998 L201.800003,102.800003 L202.800003,103.199997 L203.600006,103.599998 L204.399994,104.199997 L205.000000,104.400002 L206.000000,105.000000 L206.399994,105.400002 L207.199997,106.000000 L207.199997,105.000000 L206.000000,104.199997 L204.600006,103.000000 L202.800003,102.199997 L201.000000,101.599998 L199.399994,101.000000 L199.199997,101.199997 L197.399994,100.800003 L197.199997,101.199997 L195.199997,100.800003 L193.000000,101.199997 L191.000000,101.599998 L190.800003,101.599998 L188.399994,102.400002 L181.800003,97.599998 L181.399994,97.000000 L184.600006,95.599998 L188.000000,94.800003 L191.600006,94.199997 L195.399994,94.199997 L199.399994,94.599998 L203.399994,95.599998 L207.199997,97.000000 L210.800003,98.800003 L212.000000,99.400002 L213.600006,101.199997 L216.600006,103.400002 L218.199997,105.800003 L219.000000,108.199997 L219.000000,110.599998 L218.800003,111.199997 L218.199997,113.000000 L216.600006,114.599998 L214.399994,116.400002 L213.000000,117.199997 L211.199997,117.800003 L209.600006,118.400002 L207.399994,118.599998 L205.000000,118.800003 L202.199997,119.000000 L201.800003,119.000000 L198.000000,118.800003 L193.800003,118.800003 L193.399994,118.800003 L191.199997,118.599998 L189.399994,118.800003 L187.800003,119.000000 L187.600006,118.599998 L186.399994,118.800003 L185.399994,119.400002 L184.199997,119.800003 L182.800003,120.599998 L181.000000,121.400002 L180.800003,121.400002 L173.399994,117.199997 L173.000000,117.000000 L173.600006,116.400002 L174.199997,116.000000 L175.000000,115.599998 L177.000000,114.400002 L179.000000,113.599998 L180.800003,113.000000 L182.600006,112.400002 L184.800003,112.199997 L185.399994,112.199997 L187.199997,112.000000 L188.399994,112.000000 L190.000000,112.000000 L191.600006,112.000000 L193.199997,112.199997 L196.199997,112.400002 L198.800003,112.599998 L200.600006,112.800003 L201.800003,112.400002 L203.000000,112.199997 L204.199997,112.400002 L205.399994,111.599998 L206.000000,111.199997 L207.199997,110.400002 L207.800003,109.400002 L208.199997,108.400002 L208.000000,107.400002 L208.000000,106.199997 L207.199997,106.000000 L208.000000,107.400002 		"/>
		<path style="stroke:rgb(0,0,0);stroke-width:4.300000;stroke-linecap:round;stroke-linejoin:round;fill:none"
		 d="M188.199997,103.599998 L188.399994,102.400002 		"/>
		<path style="stroke:rgb(0,0,0);stroke-width:4.300000;stroke-linecap:round;stroke-linejoin:round;fill:none"
		 d="M180.800003,121.400002 L180.800003,122.599998 L181.800003,122.199997 L182.800003,121.599998 L183.399994,121.400002 L184.199997,121.000000 L184.800003,120.800003 L185.399994,120.400002 L186.000000,120.199997 L186.600006,120.199997 L187.000000,120.000000 L187.800003,120.000000 L188.600006,120.000000 L189.399994,119.800003 L190.199997,119.800003 L191.399994,119.800003 L192.199997,120.000000 L193.399994,120.000000 L195.399994,120.000000 L198.000000,120.199997 L199.199997,120.199997 L199.800003,120.199997 L201.800003,120.199997 L203.399994,120.199997 L205.000000,120.199997 L206.199997,120.000000 L207.600006,120.000000 L208.399994,119.800003 L209.600006,119.599998 L210.399994,119.400002 L211.399994,119.000000 L212.199997,118.800003 L213.000000,118.400002 L213.600006,118.000000 L214.600006,117.400002 L215.399994,116.800003 L216.800003,115.599998 L217.399994,115.000000 L218.199997,113.800003 L218.600006,113.000000 L218.800003,111.199997 		"/>
		<path style="stroke:rgb(0,0,0);stroke-width:4.300000;stroke-linecap:round;stroke-linejoin:round;fill:none"
		 d="M69.599998,113.599998 L72.800003,114.400002 L75.199997,115.400002 L77.199997,117.000000 L78.400002,118.800003 L78.400002,120.800003 L78.199997,121.199997 L77.400002,122.800003 L75.400002,124.199997 L73.000000,125.400002 L70.000000,126.000000 L66.800003,126.000000 L66.400002,126.000000 L63.400002,125.400002 L60.799999,124.400002 L58.799999,122.800003 L57.799999,121.400002 L57.799999,120.800003 L57.799999,118.800003 L58.799999,117.000000 L60.799999,115.400002 L63.400002,114.199997 L66.199997,113.599998 L69.599998,113.599998 		"/>
		<path style="stroke:rgb(0,0,0);stroke-width:4.300000;stroke-linecap:round;stroke-linejoin:round;fill:none"
		 d="M180.800003,122.599998 L177.199997,120.599998 L176.199997,119.800003 L175.800003,119.599998 L175.600006,119.400002 L173.199997,118.199997 L173.000000,117.000000 		"/>
		<path style="stroke:rgb(0,0,0);stroke-width:4.300000;stroke-linecap:round;stroke-linejoin:round;fill:none"
		 d="M175.399994,121.599998 L178.800003,123.800003 L170.800003,128.800003 L170.199997,129.000000 L162.199997,124.400002 L161.600006,123.800003 L170.199997,118.599998 L175.399994,121.599998 		"/>
		<path style="stroke:rgb(0,0,0);stroke-width:4.300000;stroke-linecap:round;stroke-linejoin:round;fill:none"
		 d="M66.199997,105.000000 L96.800003,123.199997 L116.000000,134.399994 L97.599998,146.000000 L97.199997,146.000000 L86.000000,152.800003 L67.599998,164.199997 L78.800003,171.000000 L67.599998,177.800003 L36.799999,159.600006 L6.200000,141.600006 L6.400000,141.000000 L36.000000,123.199997 L66.199997,105.000000 		"/>
		<path style="stroke:rgb(0,0,0);stroke-width:4.300000;stroke-linecap:round;stroke-linejoin:round;fill:none"
		 d="M57.799999,121.400002 L58.599998,123.400002 L59.599998,124.599998 L60.799999,125.599998 L61.799999,126.000000 L63.400002,126.800003 L64.800003,127.000000 L66.400002,127.400002 L68.199997,127.400002 L70.000000,127.400002 L71.400002,127.199997 L73.000000,126.800003 L74.199997,126.199997 L75.599998,125.599998 L76.400002,124.800003 L77.400002,123.800003 L77.800003,123.199997 L78.400002,122.400002 L78.199997,121.199997 		"/>
		<path style="stroke:rgb(0,0,0);stroke-width:4.300000;stroke-linecap:round;stroke-linejoin:round;fill:none"
		 d="M170.199997,129.000000 L170.199997,130.199997 L165.600006,127.599998 L165.000000,127.000000 L164.600006,126.800003 L164.399994,126.599998 L161.600006,125.199997 L161.600006,123.800003 		"/>
		<path style="stroke:rgb(0,0,0);stroke-width:4.300000;stroke-linecap:round;stroke-linejoin:round;fill:none"
		 d="M170.199997,130.199997 L174.199997,127.800003 L178.800003,125.199997 L178.800003,123.800003 		"/>
		<path style="stroke:rgb(0,0,0);stroke-width:4.300000;stroke-linecap:round;stroke-linejoin:round;fill:none"
		 d="M68.800003,138.199997 L88.400002,141.800003 L56.799999,160.600006 L55.000000,161.399994 L44.200001,138.600006 L42.200001,134.399994 L43.200001,134.000000 L58.599998,136.600006 L66.800003,137.800003 L68.800003,138.199997 L68.199997,136.600006 L67.599998,135.800003 L66.800003,134.000000 L66.599998,134.000000 L66.199997,132.600006 L66.599998,132.199997 L78.800003,134.199997 L96.000000,137.000000 L88.400002,141.800003 L88.400002,142.399994 L96.199997,137.800003 L96.000000,137.000000 		"/>
		<path style="stroke:rgb(0,0,0);stroke-width:4.300000;stroke-linecap:round;stroke-linejoin:round;fill:none"
		 d="M116.000000,134.399994 L127.199997,127.599998 		"/>
		<path style="stroke:rgb(0,0,0);stroke-width:4.300000;stroke-linecap:round;stroke-linejoin:round;fill:none"
		 d="M128.399994,138.000000 L132.399994,138.399994 L136.199997,139.399994 L136.600006,139.600006 L139.600006,141.399994 L142.399994,144.000000 L144.399994,145.800003 L144.600006,146.800003 L145.000000,147.199997 L146.199997,150.000000 L146.399994,150.399994 L146.399994,150.800003 L147.199997,152.600006 L147.000000,153.199997 L147.000000,153.600006 L147.199997,153.600006 L147.199997,154.399994 L147.000000,153.800003 L146.800003,153.199997 L146.399994,151.800003 L145.800003,150.800003 L144.600006,148.600006 L144.399994,148.199997 L144.199997,147.800003 L142.399994,145.800003 L142.199997,145.600006 L139.399994,143.399994 L136.000000,141.600006 L132.199997,140.600006 L128.000000,140.199997 L123.800003,140.600006 L120.000000,141.600006 L116.800003,143.399994 L116.599998,143.399994 L114.000000,145.800003 L113.800003,145.800003 L111.400002,148.399994 L111.400002,148.600006 L109.800003,151.800003 L109.000000,153.399994 L108.599998,154.399994 L108.599998,155.000000 L108.400002,155.199997 L108.400002,154.399994 L108.800003,152.399994 L109.199997,151.000000 L109.599998,150.000000 L110.800003,147.399994 L111.199997,146.800003 L113.400002,144.000000 L113.599998,143.600006 L116.400002,141.399994 L119.599998,139.600006 L120.000000,139.399994 L123.599998,138.399994 L127.599998,138.000000 L127.800003,138.000000 L128.399994,138.000000 		"/>
		<path style="stroke:rgb(0,0,0);stroke-width:4.300000;stroke-linecap:round;stroke-linejoin:round;fill:none"
		 d="M55.000000,161.399994 L54.799999,162.199997 L49.799999,151.800003 L45.000000,141.199997 L44.599998,140.199997 L44.400002,139.800003 L42.200001,135.600006 L42.200001,134.399994 		"/>
		<path style="stroke:rgb(0,0,0);stroke-width:4.300000;stroke-linecap:round;stroke-linejoin:round;fill:none"
		 d="M78.800003,171.000000 L98.400002,182.399994 L129.000000,200.600006 L159.000000,182.199997 L188.800003,164.000000 L158.199997,145.800003 L127.800003,127.599998 		"/>
		<path style="stroke:rgb(0,0,0);stroke-width:4.300000;stroke-linecap:round;stroke-linejoin:round;fill:none"
		 d="M54.799999,162.199997 L55.000000,163.199997 L56.000000,162.800003 L67.199997,155.800003 L69.800003,154.199997 L70.000000,154.000000 L70.400002,153.800003 L79.199997,148.600006 L87.800003,143.399994 L88.400002,142.399994 		"/>
		<path style="stroke:rgb(0,0,0);stroke-width:4.300000;stroke-linecap:round;stroke-linejoin:round;fill:none"
		 d="M126.199997,150.399994 L126.800003,150.399994 L127.199997,150.399994 L127.800003,150.399994 L128.399994,150.399994 L129.000000,150.399994 L129.600006,150.399994 L130.000000,150.399994 L130.399994,150.800003 L131.000000,150.800003 L131.600006,150.800003 L132.399994,151.399994 L132.800003,151.600006 L133.000000,151.600006 L133.000000,151.800003 L134.199997,152.600006 L134.199997,152.800003 L135.399994,154.000000 L135.600006,154.800003 L135.800003,155.199997 L136.199997,156.600006 L136.399994,158.199997 L136.199997,159.399994 L136.000000,160.600006 L135.600006,161.600006 L135.000000,162.600006 L134.399994,163.399994 L133.199997,164.600006 L131.600006,166.199997 L129.600006,168.199997 L128.000000,170.000000 L126.599998,168.800003 L126.000000,168.199997 L124.400002,166.600006 L124.199997,166.199997 L124.000000,166.199997 L122.400002,164.600006 L121.599998,163.800003 L121.400002,163.600006 L120.800003,162.800003 L120.800003,162.600006 L120.199997,161.600006 L119.800003,160.600006 L119.599998,159.399994 L119.400002,158.600006 L119.599998,158.199997 L119.800003,156.800003 L120.000000,155.399994 L120.400002,154.800003 L120.599998,154.199997 L120.800003,153.800003 L121.400002,153.399994 L121.599998,152.800003 L122.800003,151.800003 L124.000000,151.000000 L124.400002,150.800003 L125.000000,150.800003 L125.599998,150.600006 L125.800003,150.399994 L126.199997,150.399994 		"/>
		<path style="stroke:rgb(0,0,0);stroke-width:4.300000;stroke-linecap:round;stroke-linejoin:round;fill:none"
		 d="M108.400002,155.199997 L108.400002,158.600006 L108.400002,160.600006 L108.800003,162.600006 L109.400002,164.399994 L110.199997,166.199997 L111.400002,168.199997 L113.400002,170.600006 L114.800003,172.399994 L115.800003,173.199997 L118.599998,176.199997 L120.000000,177.600006 L121.199997,179.000000 L122.000000,180.199997 L122.599998,181.199997 L122.599998,182.199997 L122.599998,182.800003 L122.599998,185.800003 L122.599998,186.399994 L122.800003,187.000000 L125.400002,187.000000 L128.800003,187.000000 L132.199997,187.000000 L132.199997,186.399994 L132.199997,186.000000 L132.399994,185.399994 L132.399994,184.000000 L132.600006,183.199997 L132.600006,182.399994 L133.000000,181.199997 L133.600006,180.199997 L134.399994,179.000000 L135.600006,177.600006 L137.199997,176.000000 L140.000000,173.199997 L141.399994,171.800003 L142.399994,170.399994 L144.199997,168.199997 L145.600006,166.199997 L146.399994,164.399994 L146.600006,164.000000 L146.800003,162.399994 L147.399994,160.600006 L147.199997,158.600006 L147.000000,155.000000 L147.199997,154.399994 		"/>
		<path style="stroke:rgb(0,0,0);stroke-width:4.300000;stroke-linecap:round;stroke-linejoin:round;fill:none"
		 d="M128.000000,170.000000 L128.199997,170.199997 L127.599998,170.800003 L127.800003,170.800003 L128.000000,170.800003 L128.000000,171.199997 L127.599998,170.800003 		"/>
		<path style="stroke:rgb(0,0,0);stroke-width:4.300000;stroke-linecap:round;stroke-linejoin:round;fill:none"
		 d="M128.000000,171.199997 L126.800003,172.800003 L125.800003,174.000000 L125.400002,174.800003 L129.399994,174.800003 L129.800003,175.000000 L129.000000,175.199997 L128.800003,175.600006 L127.800003,175.800003 L125.000000,176.800003 L124.000000,177.199997 L123.800003,178.399994 L123.599998,178.399994 L124.199997,178.399994 L127.400002,177.800003 L128.000000,177.800003 L128.399994,177.600006 L128.600006,177.600006 L129.199997,177.800003 L131.399994,177.600006 L132.000000,177.800003 L132.199997,178.399994 L132.600006,180.000000 L129.800003,180.199997 L126.599998,180.199997 L123.800003,180.600006 L122.599998,181.199997 		"/>
		<path style="stroke:rgb(0,0,0);stroke-width:4.300000;stroke-linecap:round;stroke-linejoin:round;fill:none"
		 d="M122.599998,185.800003 L123.400002,185.800003 L123.199997,184.000000 L123.199997,183.399994 L125.800003,183.600006 L128.800003,184.800003 L126.400002,185.800003 L126.199997,185.800003 L124.400002,186.000000 L123.400002,185.800003 		"/>
		<path style="stroke:rgb(0,0,0);stroke-width:4.300000;stroke-linecap:round;stroke-linejoin:round;fill:none"
		 d="M132.600006,183.199997 L133.000000,185.800003 L133.000000,186.399994 L132.199997,187.000000 		"/>
	</g>
</svg>