<?xml version="1.0" encoding="iso-8859-1"?>
<!DOCTYPE svg PUBLIC "-//W3C//DTD SVG 20000303 Stylable//EN"
"http://www.w3.org/TR/2000/03/WD-SVG-20000303/DTD/svg-20000303-stylable.dtd">
<!-- Generator: --> 
<svg width="128pt" height="128pt" viewBox="0 0 128 128">
	<g  id="FRAME_0" style="visibility:visible" fill-rule="evenodd">
		<path style="fill:rgb(110,110,110);opacity:1;stroke-width:0"
		 d="M88.349998,32.000000 L62.750000,37.599998 L58.099998,36.349998 L90.599998,29.500000 L90.849998,29.750000 L89.750000,30.850000 L88.349998,32.000000 M94.599998,38.599998 L94.750000,38.000000 L95.849998,37.000000 L96.849998,36.000000 L97.000000,37.099998 L96.599998,37.599998 L96.500000,39.500000 L90.750000,67.250000 L90.250000,68.349998 L89.099998,64.000000 L94.599998,38.599998 M31.500000,77.250000 L32.250000,79.250000 L29.100000,93.750000 L28.350000,94.849998 L27.600000,95.349998 L27.600000,94.599998 L28.250000,93.099998 L31.500000,77.250000 M32.750000,97.750000 L46.349998,94.750000 L47.500000,94.599998 L50.000000,95.349998 L31.750000,99.099998 L31.250000,99.000000 L31.850000,98.500000 L32.750000,97.750000 "/>
		<path style="fill:rgb(65,65,65);opacity:1;stroke-width:0"
		 d="M88.349998,32.000000 L89.750000,30.850000 L89.599998,32.099998 L72.500000,50.099998 L71.599998,50.099998 L88.349998,32.000000 M94.599998,38.599998 L92.849998,39.849998 L76.250000,55.349998 L76.250000,54.599998 L94.349998,37.349998 L94.750000,37.000000 L95.849998,37.000000 L94.750000,38.000000 L94.599998,38.599998 M64.349998,57.849998 L65.250000,57.849998 L31.100000,92.849998 L29.000000,94.849998 L28.350000,94.849998 L29.100000,93.750000 L64.349998,57.849998 M68.349998,62.099998 L68.250000,63.000000 L32.750000,97.750000 L31.850000,98.500000 L31.850000,97.750000 L57.250000,72.599998 L68.349998,62.099998 "/>
		<path style="fill:rgb(164,164,164);opacity:1;stroke-width:0"
		 d="M58.099998,36.349998 L50.599998,32.500000 L93.849998,24.000000 L96.500000,23.500000 L103.750000,23.500000 L103.750000,29.850000 L95.000000,74.849998 L94.349998,76.250000 L90.250000,68.349998 L90.750000,67.250000 L96.500000,39.500000 L96.599998,37.599998 L97.000000,37.099998 L96.849998,36.000000 L95.849998,37.000000 L94.750000,37.000000 L94.349998,37.349998 L76.250000,54.599998 L76.099998,50.099998 L72.500000,50.099998 L89.599998,32.099998 L89.750000,30.850000 L90.849998,29.750000 L90.599998,29.500000 L58.099998,36.349998 M65.250000,57.849998 L68.349998,57.849998 L68.349998,62.099998 L57.250000,72.599998 L31.850000,97.750000 L31.850000,98.500000 L31.250000,99.000000 L31.750000,99.099998 L50.000000,95.349998 L53.349998,98.599998 L29.750000,103.250000 L27.750000,103.599998 L23.350000,103.599998 L23.350000,99.500000 L28.250000,74.599998 L28.600000,73.750000 Q31.750000,76.349998 31.500000,77.250000 L28.250000,93.099998 L27.600000,94.599998 L27.600000,95.349998 L28.350000,94.849998 L29.000000,94.849998 L31.100000,92.849998 L65.250000,57.849998 "/>
		<path style="fill:rgb(168,168,168);opacity:1;stroke-width:0"
		 d="M14.350000,50.099998 L14.350000,4.000000 L123.849998,4.000000 L123.849998,113.500000 L76.250000,113.500000 L76.250000,102.750000 L113.000000,102.750000 L113.000000,14.750000 L25.250000,14.750000 L25.250000,50.099998 L14.350000,50.099998 "/>
		<path style="fill:rgb(249,242,230);opacity:1;stroke-width:0"
		 d="M14.350000,50.099998 L25.250000,50.099998 L71.599998,50.099998 L72.500000,50.099998 L76.099998,50.099998 L76.250000,54.599998 L76.250000,55.349998 L76.250000,102.750000 L76.250000,113.500000 L76.250000,123.099998 L3.100000,123.099998 L3.100000,50.349998 L14.350000,50.099998 M64.349998,57.849998 L10.850000,58.000000 L11.000000,115.349998 L68.349998,115.349998 L68.250000,63.000000 L68.349998,62.099998 L68.349998,57.849998 L65.250000,57.849998 L64.349998,57.849998 "/>
	</g>
</svg>