<?xml version="1.0" encoding="iso-8859-1"?>
<!DOCTYPE svg PUBLIC "-//W3C//DTD SVG 20000303 Stylable//EN"
"http://www.w3.org/TR/2000/03/WD-SVG-20000303/DTD/svg-20000303-stylable.dtd">
<!-- Generator: --> 
<svg width="256pt" height="256pt" viewBox="0 0 256 256">
	<g  id="FRAME_0" style="visibility:visible" fill-rule="evenodd">
		<defs>
			<radialGradient id="GRAD_0" gradientUnits="userSpaceOnUse" cx="72.020000" cy="173.890000" r="124.824405">
			<stop offset="0" style="stop-color:rgb(255,217,228)" opacity="1"/>
			<stop offset="1" style="stop-color:rgb(100,118,124)" opacity="1"/>
			</radialGradient>
		</defs>
		<path style="fill:url(#GRAD_0);stroke-width:0"
		 d="M59.750000,62.500000 Q41.500000,76.250000 49.000000,107.000000 Q55.500000,135.250000 83.000000,166.250000 Q110.500000,195.500000 139.750000,206.250000 Q173.500000,216.750000 187.250000,200.000000 L194.250000,198.750000 Q185.500000,220.250000 173.500000,221.750000 Q138.250000,236.250000 72.000000,174.500000 L60.000000,159.500000 L50.250000,144.500000 L41.000000,126.250000 Q28.000000,91.750000 37.750000,73.000000 L37.750000,72.750000 L45.750000,62.500000 Q57.750000,55.000000 60.750000,56.500000 L59.750000,62.500000 "/>
		<defs>
			<radialGradient id="GRAD_1" gradientUnits="userSpaceOnUse" cx="127.490000" cy="123.060000" r="107.636344">
			<stop offset="0" style="stop-color:rgb(255,217,229)" opacity="1"/>
			<stop offset="1" style="stop-color:rgb(91,108,114)" opacity="1"/>
			</radialGradient>
		</defs>
		<path style="fill:url(#GRAD_1);stroke-width:0"
		 d="M59.750000,62.500000 L60.750000,56.500000 L64.250000,47.000000 L71.750000,38.500000 Q93.000000,24.500000 122.000000,22.500000 Q167.000000,19.500000 204.000000,55.250000 Q233.250000,85.000000 232.500000,132.500000 L230.500000,150.000000 L228.000000,158.750000 L221.000000,176.250000 Q210.750000,198.000000 194.250000,198.750000 L187.250000,200.000000 Q134.000000,198.000000 96.750000,155.500000 Q55.250000,110.750000 59.750000,62.500000 "/>
		<defs>
			<radialGradient id="GRAD_2" gradientUnits="userSpaceOnUse" cx="70.510000" cy="150.710000" r="128.214925">
			<stop offset="0" style="stop-color:rgb(113,134,141)" opacity="1"/>
			<stop offset="1" style="stop-color:rgb(108,129,135)" opacity="1"/>
			</radialGradient>
		</defs>
		<path style="fill:url(#GRAD_2);stroke-width:0"
		 d="M187.250000,200.000000 Q173.500000,216.750000 139.750000,206.250000 Q110.500000,195.500000 83.000000,166.250000 Q55.500000,135.250000 49.000000,107.000000 Q41.500000,76.250000 59.750000,62.500000 Q55.250000,110.750000 96.750000,155.500000 Q134.000000,198.000000 187.250000,200.000000 "/>
		<defs>
			<radialGradient id="GRAD_3" gradientUnits="userSpaceOnUse" cx="72.020000" cy="173.890000" r="112.424713">
			<stop offset="0" style="stop-color:rgb(126,150,158)" opacity="1"/>
			<stop offset="1" style="stop-color:rgb(40,48,50)" opacity="1"/>
			</radialGradient>
		</defs>
		<path style="fill:url(#GRAD_3);stroke-width:0"
		 d="M173.500000,221.750000 Q101.000000,251.500000 49.250000,198.000000 Q2.000000,140.250000 37.750000,73.000000 Q28.000000,91.750000 41.000000,126.250000 L50.250000,144.500000 L60.000000,159.500000 L72.000000,174.500000 Q138.250000,236.250000 173.500000,221.750000 "/>
		<path style="stroke:rgb(0,0,0);stroke-width:4.300000;stroke-linecap:round;stroke-linejoin:round;fill:none"
		 d="M191.000000,44.250000 L191.500000,44.500000 		"/>
		<path style="stroke:rgb(0,0,0);stroke-width:4.300000;stroke-linecap:round;stroke-linejoin:round;fill:none"
		 d="M199.750000,51.500000 L199.000000,50.750000 		"/>
		<path style="stroke:rgb(0,0,0);stroke-width:4.300000;stroke-linecap:round;stroke-linejoin:round;fill:none"
		 d="M194.250000,198.750000 Q185.500000,220.250000 173.500000,221.750000 Q138.250000,236.250000 72.000000,174.500000 L60.000000,159.500000 L50.250000,144.500000 L41.000000,126.250000 Q28.000000,91.750000 37.750000,73.000000 L37.750000,72.750000 L45.750000,62.500000 Q57.750000,55.000000 60.750000,56.500000 L64.250000,47.000000 L71.750000,38.500000 Q93.000000,24.500000 122.000000,22.500000 Q167.000000,19.500000 204.000000,55.250000 Q233.250000,85.000000 232.500000,132.500000 L230.500000,150.000000 L228.000000,158.750000 L221.000000,176.250000 Q210.750000,198.000000 194.250000,198.750000 L187.250000,200.000000 Q134.000000,198.000000 96.750000,155.500000 Q55.250000,110.750000 59.750000,62.500000 L60.750000,56.500000 		"/>
		<path style="stroke:rgb(0,0,0);stroke-width:4.300000;stroke-linecap:round;stroke-linejoin:round;fill:none"
		 d="M187.250000,200.000000 Q173.500000,216.750000 139.750000,206.250000 Q110.500000,195.500000 83.000000,166.250000 Q55.500000,135.250000 49.000000,107.000000 Q41.500000,76.250000 59.750000,62.500000 		"/>
		<path style="stroke:rgb(0,0,0);stroke-width:4.300000;stroke-linecap:round;stroke-linejoin:round;fill:none"
		 d="M173.500000,221.750000 Q101.000000,251.500000 49.250000,198.000000 Q2.000000,140.250000 37.750000,73.000000 		"/>
	</g>
</svg>