<?xml version="1.0" encoding="iso-8859-1"?>
<!DOCTYPE svg PUBLIC "-//W3C//DTD SVG 20000303 Stylable//EN"
"http://www.w3.org/TR/2000/03/WD-SVG-20000303/DTD/svg-20000303-stylable.dtd">
<!-- Generator: --> 
<svg width="1024pt" height="1024pt" viewBox="0 0 1024 1024">
	<g  id="FRAME_0" style="visibility:visible" fill-rule="evenodd">
		<path style="fill:rgb(187,179,159);opacity:1;stroke-width:0"
		 d="M498.250000,280.000000 L500.250000,278.000000 L503.250000,275.250000 L719.750000,492.750000 L500.750000,709.750000 L284.250000,493.000000 L284.000000,492.250000 L447.750000,330.000000 L448.250000,329.500000 L473.000000,305.000000 L478.000000,300.000000 L498.250000,280.000000 M482.500000,349.500000 L481.750000,349.750000 L482.000000,376.250000 L385.250000,472.000000 L358.500000,472.250000 L358.250000,513.000000 L371.000000,513.000000 L385.250000,513.000000 L411.000000,538.500000 L480.750000,609.000000 L480.500000,635.750000 L493.500000,635.750000 L521.750000,635.750000 L521.750000,609.000000 L535.500000,595.250000 L575.500000,555.500000 L592.000000,539.250000 L618.250000,513.250000 L645.250000,513.250000 L645.500000,497.250000 L645.500000,472.250000 L618.750000,472.250000 L523.250000,377.000000 L523.000000,374.500000 L523.000000,349.500000 L482.500000,349.500000 "/>
		<path style="fill:rgb(4,4,4);opacity:1;stroke-width:0"
		 d="M494.750000,374.500000 L494.500000,401.000000 L482.000000,376.250000 L481.750000,349.750000 L482.500000,349.500000 L494.750000,374.500000 M358.500000,472.250000 L371.250000,497.000000 L371.000000,513.000000 L358.250000,513.000000 L358.500000,472.250000 M480.750000,609.000000 L493.000000,632.750000 L493.500000,635.750000 L480.500000,635.750000 L480.750000,609.000000 "/>
		<path style="fill:rgb(8,8,8);opacity:1;stroke-width:0"
		 d="M494.750000,374.500000 L482.500000,349.500000 L523.000000,349.500000 L523.000000,374.500000 L494.750000,374.500000 M385.250000,472.000000 L397.750000,497.000000 L371.250000,497.000000 L358.500000,472.250000 L385.250000,472.000000 "/>
		<path style="fill:rgb(40,38,33);opacity:1;stroke-width:0"
		 d="M494.750000,374.500000 L523.000000,374.500000 L523.250000,377.000000 L535.500000,401.500000 L630.750000,497.250000 L645.500000,497.250000 L645.250000,513.250000 L618.250000,513.250000 L592.000000,539.250000 L575.500000,555.500000 L535.500000,595.250000 L521.750000,609.000000 L521.750000,635.750000 L493.500000,635.750000 L493.000000,632.750000 L480.750000,609.000000 L411.000000,538.500000 L385.250000,513.000000 L371.000000,513.000000 L371.250000,497.000000 L397.750000,497.000000 L494.250000,401.750000 L494.500000,401.000000 L494.750000,374.500000 "/>
		<path style="fill:rgb(9,9,9);opacity:1;stroke-width:0"
		 d="M482.000000,376.250000 L494.500000,401.000000 L494.250000,401.750000 L397.750000,497.000000 L385.250000,472.000000 L482.000000,376.250000 "/>
		<path style="fill:rgb(1,1,1);opacity:1;stroke-width:0"
		 d="M523.250000,377.000000 L618.750000,472.250000 L630.750000,497.250000 L535.500000,401.500000 L523.250000,377.000000 "/>
		<path style="fill:rgb(3,3,2);opacity:1;stroke-width:0"
		 d="M618.750000,472.250000 L645.500000,472.250000 L645.500000,497.250000 L630.750000,497.250000 L618.750000,472.250000 "/>
		<path style="fill:rgb(3,3,3);opacity:1;stroke-width:0"
		 d="M500.750000,709.750000 L719.750000,492.750000 L739.000000,531.000000 L529.250000,739.000000 Q521.500000,748.000000 519.250000,747.250000 L304.250000,531.750000 L303.000000,530.500000 L284.250000,493.000000 L500.750000,709.750000 "/>
		<path style="stroke:rgb(24,23,17);stroke-width:8.650000;stroke-linecap:round;stroke-linejoin:round;fill:none"
		 d="M500.250000,278.000000 L503.250000,275.250000 L719.750000,492.750000 L500.750000,709.750000 L284.250000,493.000000 L284.000000,492.250000 L447.750000,330.000000 L448.250000,329.500000 L473.000000,305.000000 L478.000000,300.000000 L498.250000,280.000000 L500.250000,278.000000 		"/>
		<path style="stroke:rgb(24,23,17);stroke-width:8.650000;stroke-linecap:round;stroke-linejoin:round;fill:none"
		 d="M494.750000,374.500000 L494.500000,401.000000 L482.000000,376.250000 L481.750000,349.750000 L482.500000,349.500000 L523.000000,349.500000 L523.000000,374.500000 L494.750000,374.500000 L482.500000,349.500000 		"/>
		<path style="stroke:rgb(24,23,17);stroke-width:8.650000;stroke-linecap:round;stroke-linejoin:round;fill:none"
		 d="M523.000000,374.500000 L523.250000,377.000000 L535.500000,401.500000 L630.750000,497.250000 L618.750000,472.250000 L523.250000,377.000000 		"/>
		<path style="stroke:rgb(24,23,17);stroke-width:8.650000;stroke-linecap:round;stroke-linejoin:round;fill:none"
		 d="M494.500000,401.000000 L494.250000,401.750000 L397.750000,497.000000 L385.250000,472.000000 L482.000000,376.250000 		"/>
		<path style="stroke:rgb(24,23,17);stroke-width:8.650000;stroke-linecap:round;stroke-linejoin:round;fill:none"
		 d="M385.250000,472.000000 L358.500000,472.250000 L371.250000,497.000000 L397.750000,497.000000 L445.000000,495.750000 L493.000000,448.250000 L494.250000,401.750000 		"/>
		<path style="stroke:rgb(24,23,17);stroke-width:8.650000;stroke-linecap:round;stroke-linejoin:round;fill:none"
		 d="M618.750000,472.250000 L645.500000,472.250000 L645.500000,497.250000 L630.750000,497.250000 L584.000000,496.000000 L536.500000,448.250000 L535.500000,401.500000 		"/>
		<path style="stroke:rgb(24,23,17);stroke-width:8.650000;stroke-linecap:round;stroke-linejoin:round;fill:none"
		 d="M358.500000,472.250000 L358.250000,513.000000 L371.000000,513.000000 L371.250000,497.000000 		"/>
		<path style="stroke:rgb(24,23,17);stroke-width:8.650000;stroke-linecap:round;stroke-linejoin:round;fill:none"
		 d="M371.000000,513.000000 L385.250000,513.000000 L411.000000,538.500000 L480.750000,609.000000 L493.000000,632.750000 L492.250000,587.000000 L491.250000,586.000000 L444.750000,539.250000 L411.000000,538.500000 		"/>
		<path style="stroke:rgb(24,23,17);stroke-width:8.650000;stroke-linecap:round;stroke-linejoin:round;fill:none"
		 d="M592.000000,539.250000 L583.250000,539.750000 L535.750000,587.250000 L535.500000,595.250000 L575.500000,555.500000 L592.000000,539.250000 L618.250000,513.250000 L645.250000,513.250000 L645.500000,497.250000 		"/>
		<path style="stroke:rgb(24,23,17);stroke-width:8.650000;stroke-linecap:round;stroke-linejoin:round;fill:none"
		 d="M480.750000,609.000000 L480.500000,635.750000 L493.500000,635.750000 L493.000000,632.750000 		"/>
		<path style="stroke:rgb(24,23,17);stroke-width:8.650000;stroke-linecap:round;stroke-linejoin:round;fill:none"
		 d="M493.500000,635.750000 L521.750000,635.750000 L521.750000,609.000000 L535.500000,595.250000 		"/>
		<path style="stroke:rgb(24,23,17);stroke-width:8.650000;stroke-linecap:round;stroke-linejoin:round;fill:none"
		 d="M500.750000,709.750000 L519.250000,747.250000 L304.250000,531.750000 L303.000000,530.500000 L284.250000,493.000000 		"/>
		<path style="stroke:rgb(24,23,17);stroke-width:8.650000;stroke-linecap:round;stroke-linejoin:round;fill:none"
		 d="M519.250000,747.250000 Q521.500000,748.000000 529.250000,739.000000 L739.000000,531.000000 L719.750000,492.750000 		"/>
	</g>
</svg>