<?xml version="1.0" encoding="iso-8859-1"?>
<!DOCTYPE svg PUBLIC "-//W3C//DTD SVG 20000303 Stylable//EN"
"http://www.w3.org/TR/2000/03/WD-SVG-20000303/DTD/svg-20000303-stylable.dtd">
<!-- Generator: --> 
<svg width="1024pt" height="1024pt" viewBox="0 0 1024 1024">
	<g  id="FRAME_0" style="visibility:visible" fill-rule="evenodd">
		<path style="fill:rgb(187,179,159);opacity:1;stroke-width:0"
		 d="M205.600006,432.600006 L205.000000,514.000000 L230.500000,514.099976 L779.250000,514.599976 L779.500000,483.000000 L779.849976,433.500000 L779.500000,432.850006 L492.600006,432.600006 L205.500000,432.350006 L205.600006,432.600006 M54.599998,907.599976 L58.599998,38.599998 L930.099976,39.349998 L926.000000,908.349976 L54.599998,907.599976 "/>
		<path style="fill:rgb(8,8,8);opacity:1;stroke-width:0"
		 d="M205.600006,432.600006 L205.500000,432.350006 L492.600006,432.600006 L779.500000,432.850006 L779.849976,433.500000 L779.500000,483.000000 L517.599976,482.750000 L230.600006,482.500000 L205.600006,432.600006 "/>
		<path style="fill:rgb(4,4,4);opacity:1;stroke-width:0"
		 d="M205.600006,432.600006 L230.600006,482.500000 L230.500000,514.099976 L205.000000,514.000000 L205.600006,432.600006 M930.099976,39.349998 L930.500000,39.500000 L968.349976,115.250000 L964.099976,984.500000 L926.000000,908.349976 L930.099976,39.349998 "/>
		<path style="fill:rgb(40,38,33);opacity:1;stroke-width:0"
		 d="M230.600006,482.500000 L517.599976,482.750000 L779.500000,483.000000 L779.250000,514.599976 L230.500000,514.099976 L230.600006,482.500000 "/>
		<path style="fill:rgb(3,3,2);opacity:1;stroke-width:0"
		 d="M54.599998,907.599976 L926.000000,908.349976 L964.099976,984.500000 L93.099998,983.750000 L92.599998,983.750000 L54.599998,907.599976 "/>
		<path style="stroke:rgb(24,23,17);stroke-width:8.650000;stroke-linecap:round;stroke-linejoin:round;fill:none"
		 d="M205.500000,432.350006 L492.600006,432.600006 L517.599976,482.750000 L230.600006,482.500000 L205.600006,432.600006 L205.500000,432.350006 		"/>
		<path style="stroke:rgb(24,23,17);stroke-width:8.650000;stroke-linecap:round;stroke-linejoin:round;fill:none"
		 d="M492.600006,432.600006 L779.500000,432.850006 L779.849976,433.500000 L779.500000,483.000000 L517.599976,482.750000 L517.500000,514.349976 		"/>
		<path style="stroke:rgb(24,23,17);stroke-width:8.650000;stroke-linecap:round;stroke-linejoin:round;fill:none"
		 d="M230.600006,482.500000 L230.500000,514.099976 L205.000000,514.000000 L205.600006,432.600006 		"/>
		<path style="stroke:rgb(24,23,17);stroke-width:8.650000;stroke-linecap:round;stroke-linejoin:round;fill:none"
		 d="M230.500000,514.099976 L779.250000,514.599976 L779.500000,483.000000 		"/>
		<path style="stroke:rgb(24,23,17);stroke-width:8.650000;stroke-linecap:round;stroke-linejoin:round;fill:none"
		 d="M58.599998,38.599998 L930.099976,39.349998 L926.000000,908.349976 L54.599998,907.599976 L58.599998,38.599998 		"/>
		<path style="stroke:rgb(24,23,17);stroke-width:8.650000;stroke-linecap:round;stroke-linejoin:round;fill:none"
		 d="M54.599998,907.599976 L92.599998,983.750000 L93.099998,983.750000 L964.099976,984.500000 L926.000000,908.349976 		"/>
		<path style="stroke:rgb(24,23,17);stroke-width:8.650000;stroke-linecap:round;stroke-linejoin:round;fill:none"
		 d="M964.099976,984.500000 L968.349976,115.250000 L930.500000,39.500000 L930.099976,39.349998 		"/>
	</g>
</svg>