<?xml version="1.0" encoding="iso-8859-1"?>
<!DOCTYPE svg PUBLIC "-//W3C//DTD SVG 20000303 Stylable//EN"
"http://www.w3.org/TR/2000/03/WD-SVG-20000303/DTD/svg-20000303-stylable.dtd">
<!-- Generator: --> 
<svg width="1024pt" height="1024pt" viewBox="0 0 1024 1024">
	<g  id="FRAME_0" style="visibility:visible" fill-rule="evenodd">
		<path style="fill:rgb(4,4,4);opacity:1;stroke-width:0"
		 d="M478.000000,237.250000 L477.500000,290.750000 L452.500000,241.000000 L453.000000,187.250000 L478.000000,237.250000 M205.750000,432.500000 L230.750000,482.500000 L230.500000,514.250000 L205.000000,514.250000 L205.750000,432.500000 M450.250000,706.250000 L475.000000,755.000000 L475.500000,759.750000 L450.000000,759.750000 L450.250000,706.250000 "/>
		<path style="fill:rgb(8,8,8);opacity:1;stroke-width:0"
		 d="M478.000000,237.250000 L453.000000,187.250000 L534.750000,187.250000 L534.500000,237.500000 L478.000000,237.250000 M259.500000,432.500000 L284.250000,482.500000 L230.750000,482.500000 L205.750000,432.500000 L259.500000,432.500000 "/>
		<path style="fill:rgb(187,179,159);opacity:1;stroke-width:0"
		 d="M453.000000,187.250000 L452.500000,241.000000 L259.500000,432.500000 L205.750000,432.500000 L205.000000,514.250000 L230.500000,514.250000 L259.250000,514.250000 L310.250000,565.250000 L450.250000,706.250000 L450.000000,759.750000 L475.500000,759.750000 L532.000000,760.000000 L532.250000,706.000000 L559.750000,678.750000 L639.500000,599.750000 L672.750000,566.750000 L725.000000,515.000000 L779.250000,514.750000 L779.500000,483.000000 L779.750000,433.000000 L725.750000,432.750000 L534.750000,241.750000 L534.500000,237.500000 L534.750000,187.250000 L453.000000,187.250000 M54.500000,907.750000 L58.500000,38.750000 L930.000000,39.500000 L925.750000,908.500000 L54.500000,907.750000 "/>
		<path style="fill:rgb(40,38,33);opacity:1;stroke-width:0"
		 d="M478.000000,237.250000 L534.500000,237.500000 L534.750000,241.750000 L559.500000,291.250000 L750.500000,483.000000 L779.500000,483.000000 L779.250000,514.750000 L725.000000,515.000000 L672.750000,566.750000 L639.500000,599.750000 L559.750000,678.750000 L532.250000,706.000000 L532.000000,760.000000 L475.500000,759.750000 L475.000000,755.000000 L450.250000,706.250000 L310.250000,565.250000 L259.250000,514.250000 L230.500000,514.250000 L230.750000,482.500000 L284.250000,482.500000 L477.250000,291.500000 L477.500000,290.750000 L478.000000,237.250000 "/>
		<path style="fill:rgb(9,9,9);opacity:1;stroke-width:0"
		 d="M452.500000,241.000000 L477.500000,290.750000 L477.250000,291.500000 L284.250000,482.500000 L259.500000,432.500000 L452.500000,241.000000 "/>
		<path style="fill:rgb(1,1,1);opacity:1;stroke-width:0"
		 d="M534.750000,241.750000 L725.750000,432.750000 L750.500000,483.000000 L559.500000,291.250000 L534.750000,241.750000 M930.000000,39.500000 L930.750000,39.750000 L968.500000,115.250000 L964.000000,984.500000 L925.750000,908.500000 L930.000000,39.500000 "/>
		<path style="fill:rgb(3,3,2);opacity:1;stroke-width:0"
		 d="M725.750000,432.750000 L779.750000,433.000000 L779.500000,483.000000 L750.500000,483.000000 L725.750000,432.750000 M54.500000,907.750000 L925.750000,908.500000 L964.000000,984.500000 L92.500000,983.750000 L54.500000,907.750000 "/>
		<path style="stroke:rgb(24,23,17);stroke-width:8.650000;stroke-linecap:round;stroke-linejoin:round;fill:none"
		 d="M478.000000,237.250000 L477.500000,290.750000 L452.500000,241.000000 L453.000000,187.250000 L534.750000,187.250000 L534.500000,237.500000 L478.000000,237.250000 L453.000000,187.250000 		"/>
		<path style="stroke:rgb(24,23,17);stroke-width:8.650000;stroke-linecap:round;stroke-linejoin:round;fill:none"
		 d="M534.500000,237.500000 L534.750000,241.750000 L559.500000,291.250000 L750.500000,483.000000 L725.750000,432.750000 L534.750000,241.750000 		"/>
		<path style="stroke:rgb(24,23,17);stroke-width:8.650000;stroke-linecap:round;stroke-linejoin:round;fill:none"
		 d="M477.500000,290.750000 L477.250000,291.500000 L284.250000,482.500000 L259.500000,432.500000 L452.500000,241.000000 		"/>
		<path style="stroke:rgb(24,23,17);stroke-width:8.650000;stroke-linecap:round;stroke-linejoin:round;fill:none"
		 d="M259.500000,432.500000 L205.750000,432.500000 L230.750000,482.500000 L284.250000,482.500000 L378.250000,480.250000 L451.750000,407.500000 L474.500000,384.250000 L477.250000,291.500000 		"/>
		<path style="stroke:rgb(24,23,17);stroke-width:8.650000;stroke-linecap:round;stroke-linejoin:round;fill:none"
		 d="M559.500000,291.250000 L561.750000,385.000000 L611.750000,435.250000 L657.250000,480.500000 L750.500000,483.000000 L779.500000,483.000000 L779.750000,433.000000 L725.750000,432.750000 		"/>
		<path style="stroke:rgb(24,23,17);stroke-width:8.650000;stroke-linecap:round;stroke-linejoin:round;fill:none"
		 d="M205.750000,432.500000 L205.000000,514.250000 L230.500000,514.250000 L230.750000,482.500000 		"/>
		<path style="stroke:rgb(24,23,17);stroke-width:8.650000;stroke-linecap:round;stroke-linejoin:round;fill:none"
		 d="M230.500000,514.250000 L259.250000,514.250000 L310.250000,565.250000 L450.250000,706.250000 L475.000000,755.000000 L473.250000,662.500000 L472.500000,661.750000 L378.000000,567.000000 L310.250000,565.250000 		"/>
		<path style="stroke:rgb(24,23,17);stroke-width:8.650000;stroke-linecap:round;stroke-linejoin:round;fill:none"
		 d="M779.500000,483.000000 L779.250000,514.750000 L725.000000,515.000000 L672.750000,566.750000 L639.500000,599.750000 L559.750000,678.750000 L560.250000,663.000000 L580.250000,642.750000 L656.250000,567.250000 L672.750000,566.750000 		"/>
		<path style="stroke:rgb(24,23,17);stroke-width:8.650000;stroke-linecap:round;stroke-linejoin:round;fill:none"
		 d="M475.000000,755.000000 L475.500000,759.750000 L450.000000,759.750000 L450.250000,706.250000 		"/>
		<path style="stroke:rgb(24,23,17);stroke-width:8.650000;stroke-linecap:round;stroke-linejoin:round;fill:none"
		 d="M475.500000,759.750000 L532.000000,760.000000 L532.250000,706.000000 L559.750000,678.750000 		"/>
		<path style="stroke:rgb(24,23,17);stroke-width:8.650000;stroke-linecap:round;stroke-linejoin:round;fill:none"
		 d="M58.500000,38.750000 L930.000000,39.500000 L925.750000,908.500000 L54.500000,907.750000 L58.500000,38.750000 		"/>
		<path style="stroke:rgb(24,23,17);stroke-width:8.650000;stroke-linecap:round;stroke-linejoin:round;fill:none"
		 d="M54.500000,907.750000 L92.500000,983.750000 L964.000000,984.500000 L925.750000,908.500000 		"/>
		<path style="stroke:rgb(24,23,17);stroke-width:8.650000;stroke-linecap:round;stroke-linejoin:round;fill:none"
		 d="M964.000000,984.500000 L968.500000,115.250000 L930.750000,39.750000 L930.000000,39.500000 		"/>
	</g>
</svg>