<?xml version="1.0" encoding="iso-8859-1"?>
<!DOCTYPE svg PUBLIC "-//W3C//DTD SVG 20000303 Stylable//EN"
"http://www.w3.org/TR/2000/03/WD-SVG-20000303/DTD/svg-20000303-stylable.dtd">
<!-- Generator: --> 
<svg width="1024pt" height="1024pt" viewBox="0 0 1024 1024">
	<g  id="FRAME_0" style="visibility:visible" fill-rule="evenodd">
		<path style="fill:rgb(187,179,159);opacity:1;stroke-width:0"
		 d="M488.250000,508.000000 L496.250000,500.000000 L503.250000,493.500000 L720.000000,711.000000 L656.000000,773.750000 L655.500000,774.250000 L500.750000,927.750000 L284.500000,711.500000 L284.000000,710.250000 L463.000000,533.000000 L466.250000,529.750000 L488.250000,508.000000 M482.250000,567.500000 L482.000000,594.500000 L385.250000,690.250000 L358.500000,690.250000 L358.250000,731.000000 L371.000000,731.000000 L385.250000,731.000000 L411.000000,756.500000 L481.000000,827.000000 L480.750000,853.750000 L493.500000,853.750000 L521.750000,853.750000 L521.750000,827.000000 L535.500000,813.250000 L575.500000,773.750000 L592.000000,757.250000 L618.250000,731.250000 L645.250000,731.250000 L645.500000,715.500000 L645.500000,690.250000 L618.500000,690.250000 L523.500000,595.500000 L523.000000,592.500000 L523.000000,567.500000 L482.250000,567.500000 "/>
		<path style="fill:rgb(4,4,4);opacity:1;stroke-width:0"
		 d="M494.750000,592.500000 L494.500000,619.000000 L482.000000,594.500000 L482.250000,567.500000 L494.750000,592.500000 M371.250000,715.250000 L371.000000,731.000000 L358.250000,731.000000 L358.500000,690.250000 L371.250000,715.250000 M481.000000,827.000000 L493.000000,850.750000 L493.500000,853.750000 L480.750000,853.750000 L481.000000,827.000000 "/>
		<path style="fill:rgb(8,8,8);opacity:1;stroke-width:0"
		 d="M494.750000,592.500000 L482.250000,567.500000 L523.000000,567.500000 L523.000000,592.500000 L494.750000,592.500000 M385.250000,690.250000 L397.750000,715.250000 L371.250000,715.250000 L358.500000,690.250000 L385.250000,690.250000 "/>
		<path style="fill:rgb(40,38,33);opacity:1;stroke-width:0"
		 d="M494.750000,592.500000 L523.000000,592.500000 L523.500000,595.500000 L535.500000,619.750000 L630.500000,714.750000 L630.500000,715.000000 L631.000000,715.500000 L645.500000,715.500000 L645.250000,731.250000 L618.250000,731.250000 L592.000000,757.250000 L575.500000,773.750000 L535.500000,813.250000 L521.750000,827.000000 L521.750000,853.750000 L493.500000,853.750000 L493.000000,850.750000 L481.000000,827.000000 L411.000000,756.500000 L385.250000,731.000000 L371.000000,731.000000 L371.250000,715.250000 L397.750000,715.250000 L494.500000,619.750000 L494.500000,619.000000 L494.750000,592.500000 "/>
		<path style="fill:rgb(9,9,9);opacity:1;stroke-width:0"
		 d="M482.000000,594.500000 L494.500000,619.000000 L494.500000,619.750000 L397.750000,715.250000 L385.250000,690.250000 L482.000000,594.500000 "/>
		<path style="fill:rgb(1,1,1);opacity:1;stroke-width:0"
		 d="M523.500000,595.500000 L618.500000,690.250000 L630.500000,714.750000 L535.500000,619.750000 L523.500000,595.500000 "/>
		<path style="fill:rgb(3,3,2);opacity:1;stroke-width:0"
		 d="M630.500000,714.750000 L618.500000,690.250000 L645.500000,690.250000 L645.500000,715.500000 L631.000000,715.500000 L630.500000,715.000000 L630.500000,714.750000 "/>
		<path style="fill:rgb(3,3,3);opacity:1;stroke-width:0"
		 d="M656.000000,773.750000 L720.000000,711.000000 L736.500000,743.750000 Q739.500000,748.250000 738.500000,749.500000 L538.000000,948.500000 L520.250000,966.000000 L519.500000,965.500000 L304.750000,750.500000 L303.000000,748.750000 L284.500000,711.500000 L500.750000,927.750000 L655.500000,774.250000 L656.000000,773.750000 "/>
		<path style="stroke:rgb(24,23,17);stroke-width:8.650000;stroke-linecap:round;stroke-linejoin:round;fill:none"
		 d="M496.250000,500.000000 L503.250000,493.500000 L720.000000,711.000000 L656.000000,773.750000 L655.500000,774.250000 L500.750000,927.750000 L284.500000,711.500000 L284.000000,710.250000 L463.000000,533.000000 L466.250000,529.750000 L488.250000,508.000000 L496.250000,500.000000 		"/>
		<path style="stroke:rgb(24,23,17);stroke-width:8.650000;stroke-linecap:round;stroke-linejoin:round;fill:none"
		 d="M494.750000,592.500000 L494.500000,619.000000 L482.000000,594.500000 L482.250000,567.500000 L523.000000,567.500000 L523.000000,592.500000 L494.750000,592.500000 L482.250000,567.500000 		"/>
		<path style="stroke:rgb(24,23,17);stroke-width:8.650000;stroke-linecap:round;stroke-linejoin:round;fill:none"
		 d="M523.000000,592.500000 L523.500000,595.500000 L535.500000,619.750000 L630.500000,714.750000 L618.500000,690.250000 L523.500000,595.500000 		"/>
		<path style="stroke:rgb(24,23,17);stroke-width:8.650000;stroke-linecap:round;stroke-linejoin:round;fill:none"
		 d="M494.500000,619.000000 L494.500000,619.750000 L397.750000,715.250000 L385.250000,690.250000 L482.000000,594.500000 		"/>
		<path style="stroke:rgb(24,23,17);stroke-width:8.650000;stroke-linecap:round;stroke-linejoin:round;fill:none"
		 d="M385.250000,690.250000 L358.500000,690.250000 L371.250000,715.250000 L397.750000,715.250000 L444.500000,714.000000 L476.500000,682.750000 L493.000000,666.250000 L494.500000,619.750000 		"/>
		<path style="stroke:rgb(24,23,17);stroke-width:8.650000;stroke-linecap:round;stroke-linejoin:round;fill:none"
		 d="M630.500000,714.750000 L630.500000,715.000000 L631.000000,715.500000 L584.000000,714.000000 L536.750000,666.750000 L535.500000,619.750000 		"/>
		<path style="stroke:rgb(24,23,17);stroke-width:8.650000;stroke-linecap:round;stroke-linejoin:round;fill:none"
		 d="M631.000000,715.500000 L645.500000,715.500000 L645.500000,690.250000 L618.500000,690.250000 		"/>
		<path style="stroke:rgb(24,23,17);stroke-width:8.650000;stroke-linecap:round;stroke-linejoin:round;fill:none"
		 d="M358.500000,690.250000 L358.250000,731.000000 L371.000000,731.000000 L371.250000,715.250000 		"/>
		<path style="stroke:rgb(24,23,17);stroke-width:8.650000;stroke-linecap:round;stroke-linejoin:round;fill:none"
		 d="M371.000000,731.000000 L385.250000,731.000000 L411.000000,756.500000 L481.000000,827.000000 L493.000000,850.750000 L492.250000,805.000000 L491.250000,804.000000 L444.750000,757.500000 L411.000000,756.500000 		"/>
		<path style="stroke:rgb(24,23,17);stroke-width:8.650000;stroke-linecap:round;stroke-linejoin:round;fill:none"
		 d="M592.000000,757.250000 L583.750000,757.500000 L535.750000,805.250000 L535.500000,813.250000 L575.500000,773.750000 L592.000000,757.250000 L618.250000,731.250000 L645.250000,731.250000 L645.500000,715.500000 		"/>
		<path style="stroke:rgb(24,23,17);stroke-width:8.650000;stroke-linecap:round;stroke-linejoin:round;fill:none"
		 d="M481.000000,827.000000 L480.750000,853.750000 L493.500000,853.750000 L493.000000,850.750000 		"/>
		<path style="stroke:rgb(24,23,17);stroke-width:8.650000;stroke-linecap:round;stroke-linejoin:round;fill:none"
		 d="M493.500000,853.750000 L521.750000,853.750000 L521.750000,827.000000 L535.500000,813.250000 		"/>
		<path style="stroke:rgb(24,23,17);stroke-width:8.650000;stroke-linecap:round;stroke-linejoin:round;fill:none"
		 d="M500.750000,927.750000 L519.500000,965.500000 L304.750000,750.500000 L303.000000,748.750000 L284.500000,711.500000 		"/>
		<path style="stroke:rgb(24,23,17);stroke-width:8.650000;stroke-linecap:round;stroke-linejoin:round;fill:none"
		 d="M519.500000,965.500000 L520.250000,966.000000 L538.000000,948.500000 L738.500000,749.500000 Q739.500000,748.250000 736.500000,743.750000 L720.000000,711.000000 		"/>
	</g>
</svg>