<?xml version="1.0" encoding="iso-8859-1"?>
<!DOCTYPE svg PUBLIC "-//W3C//DTD SVG 20000303 Stylable//EN"
"http://www.w3.org/TR/2000/03/WD-SVG-20000303/DTD/svg-20000303-stylable.dtd">
<!-- Generator: --> 
<svg width="1024pt" height="1024pt" viewBox="0 0 1024 1024">
	<g  id="FRAME_0" style="visibility:visible" fill-rule="evenodd">
		<path style="fill:rgb(101,101,101);opacity:1;stroke-width:0"
		 d="M359.000000,173.500000 L491.250000,42.250000 L489.250000,45.000000 L460.500000,73.500000 L359.000000,173.500000 "/>
		<path style="fill:rgb(187,179,159);opacity:1;stroke-width:0"
		 d="M359.000000,173.500000 L460.500000,73.500000 L489.250000,45.000000 L491.250000,42.250000 L494.750000,39.000000 L928.250000,474.000000 L807.500000,593.500000 L801.500000,599.000000 L800.500000,600.000000 L776.250000,624.500000 L771.750000,628.750000 L742.500000,658.000000 L742.000000,658.250000 L490.250000,908.000000 L57.000000,474.000000 L56.750000,473.000000 L232.750000,298.500000 L235.500000,295.750000 L258.000000,273.500000 L265.500000,266.000000 L283.250000,248.500000 L295.250000,236.500000 L308.500000,223.500000 L325.250000,206.750000 L333.750000,198.500000 L355.250000,177.000000 L359.000000,173.500000 M453.000000,187.250000 L452.500000,241.000000 L259.500000,432.500000 L205.750000,432.500000 L205.000000,514.250000 L230.500000,514.250000 L259.000000,514.250000 L310.250000,565.250000 L450.250000,706.250000 L449.750000,759.750000 L475.500000,759.750000 L532.000000,760.000000 L532.250000,706.000000 L559.750000,678.750000 L639.500000,599.750000 L672.750000,566.750000 L725.000000,515.000000 L779.250000,514.750000 L779.500000,483.000000 L779.750000,433.000000 L725.750000,432.750000 L534.750000,241.750000 L534.500000,237.500000 L534.750000,187.250000 L453.000000,187.250000 "/>
		<path style="fill:rgb(4,4,4);opacity:1;stroke-width:0"
		 d="M478.000000,237.250000 L477.500000,290.750000 L452.500000,241.000000 L453.000000,187.250000 L478.000000,237.250000 M205.750000,432.500000 L230.750000,482.500000 L230.500000,514.250000 L205.000000,514.250000 L205.750000,432.500000 M450.250000,706.250000 L475.000000,755.000000 L475.500000,759.750000 L449.750000,759.750000 L450.250000,706.250000 "/>
		<path style="fill:rgb(8,8,8);opacity:1;stroke-width:0"
		 d="M478.000000,237.250000 L453.000000,187.250000 L534.750000,187.250000 L534.500000,237.500000 L478.000000,237.250000 M259.500000,432.500000 L284.250000,482.500000 L230.750000,482.500000 L205.750000,432.500000 L259.500000,432.500000 "/>
		<path style="fill:rgb(40,38,33);opacity:1;stroke-width:0"
		 d="M478.000000,237.250000 L534.500000,237.500000 L534.750000,241.750000 L559.500000,291.250000 L750.500000,483.000000 L779.500000,483.000000 L779.250000,514.750000 L725.000000,515.000000 L672.750000,566.750000 L639.500000,599.750000 L559.750000,678.750000 L532.250000,706.000000 L532.000000,760.000000 L475.500000,759.750000 L475.000000,755.000000 L450.250000,706.250000 L310.250000,565.250000 L259.000000,514.250000 L230.500000,514.250000 L230.750000,482.500000 L284.250000,482.500000 L477.250000,291.500000 L477.500000,290.750000 L478.000000,237.250000 "/>
		<path style="fill:rgb(9,9,9);opacity:1;stroke-width:0"
		 d="M477.500000,290.750000 L477.250000,291.500000 L284.250000,482.500000 L259.500000,432.500000 L452.500000,241.000000 L477.500000,290.750000 "/>
		<path style="fill:rgb(1,1,1);opacity:1;stroke-width:0"
		 d="M559.500000,291.250000 L534.750000,241.750000 L725.750000,432.750000 L750.500000,483.000000 L559.500000,291.250000 "/>
		<path style="fill:rgb(3,3,2);opacity:1;stroke-width:0"
		 d="M750.500000,483.000000 L725.750000,432.750000 L779.750000,433.000000 L779.500000,483.000000 L750.500000,483.000000 "/>
		<path style="fill:rgb(3,3,3);opacity:1;stroke-width:0"
		 d="M807.500000,593.500000 L928.250000,474.000000 L966.250000,550.250000 L528.000000,983.750000 L96.250000,551.000000 L94.500000,549.250000 L57.000000,474.000000 L490.250000,908.000000 L742.000000,658.250000 L742.500000,658.000000 L771.750000,628.750000 L776.250000,624.500000 L800.500000,600.000000 L801.500000,599.000000 L807.500000,593.500000 "/>
		<path style="stroke:rgb(24,23,17);stroke-width:8.650000;stroke-linecap:round;stroke-linejoin:round;fill:none"
		 d="M359.000000,173.500000 L355.250000,177.000000 L333.750000,198.500000 L325.250000,206.750000 L308.500000,223.500000 L295.250000,236.500000 L283.250000,248.500000 L265.500000,266.000000 L258.000000,273.500000 L235.500000,295.750000 L232.750000,298.500000 L56.750000,473.000000 L57.000000,474.000000 L490.250000,908.000000 L742.000000,658.250000 L742.500000,658.000000 L771.750000,628.750000 L776.250000,624.500000 L800.500000,600.000000 L801.500000,599.000000 L807.500000,593.500000 L928.250000,474.000000 L494.750000,39.000000 L491.250000,42.250000 L489.250000,45.000000 L460.500000,73.500000 L359.000000,173.500000 L491.250000,42.250000 		"/>
		<path style="stroke:rgb(24,23,17);stroke-width:8.650000;stroke-linecap:round;stroke-linejoin:round;fill:none"
		 d="M478.000000,237.250000 L477.500000,290.750000 L452.500000,241.000000 L453.000000,187.250000 L534.750000,187.250000 L534.500000,237.500000 L478.000000,237.250000 L453.000000,187.250000 		"/>
		<path style="stroke:rgb(24,23,17);stroke-width:8.650000;stroke-linecap:round;stroke-linejoin:round;fill:none"
		 d="M534.500000,237.500000 L534.750000,241.750000 L559.500000,291.250000 L750.500000,483.000000 L725.750000,432.750000 L534.750000,241.750000 		"/>
		<path style="stroke:rgb(24,23,17);stroke-width:8.650000;stroke-linecap:round;stroke-linejoin:round;fill:none"
		 d="M477.500000,290.750000 L477.250000,291.500000 L284.250000,482.500000 L259.500000,432.500000 L452.500000,241.000000 		"/>
		<path style="stroke:rgb(24,23,17);stroke-width:8.650000;stroke-linecap:round;stroke-linejoin:round;fill:none"
		 d="M259.500000,432.500000 L205.750000,432.500000 L230.750000,482.500000 L284.250000,482.500000 L378.250000,480.250000 L451.750000,407.500000 L474.500000,384.250000 L477.250000,291.500000 		"/>
		<path style="stroke:rgb(24,23,17);stroke-width:8.650000;stroke-linecap:round;stroke-linejoin:round;fill:none"
		 d="M725.750000,432.750000 L779.750000,433.000000 L779.500000,483.000000 L750.500000,483.000000 L657.250000,480.500000 L611.750000,435.250000 L561.750000,385.000000 L559.500000,291.250000 		"/>
		<path style="stroke:rgb(24,23,17);stroke-width:8.650000;stroke-linecap:round;stroke-linejoin:round;fill:none"
		 d="M205.750000,432.500000 L205.000000,514.250000 L230.500000,514.250000 L230.750000,482.500000 		"/>
		<path style="stroke:rgb(24,23,17);stroke-width:8.650000;stroke-linecap:round;stroke-linejoin:round;fill:none"
		 d="M230.500000,514.250000 L259.000000,514.250000 L310.250000,565.250000 L450.250000,706.250000 L475.000000,755.000000 L473.250000,662.500000 L472.500000,661.750000 L378.000000,567.000000 L310.250000,565.250000 		"/>
		<path style="stroke:rgb(24,23,17);stroke-width:8.650000;stroke-linecap:round;stroke-linejoin:round;fill:none"
		 d="M779.500000,483.000000 L779.250000,514.750000 L725.000000,515.000000 L672.750000,566.750000 L639.500000,599.750000 L559.750000,678.750000 L560.250000,663.000000 L580.250000,642.750000 L656.250000,567.250000 L672.750000,566.750000 		"/>
		<path style="stroke:rgb(24,23,17);stroke-width:8.650000;stroke-linecap:round;stroke-linejoin:round;fill:none"
		 d="M450.250000,706.250000 L449.750000,759.750000 L475.500000,759.750000 L475.000000,755.000000 		"/>
		<path style="stroke:rgb(24,23,17);stroke-width:8.650000;stroke-linecap:round;stroke-linejoin:round;fill:none"
		 d="M475.500000,759.750000 L532.000000,760.000000 L532.250000,706.000000 L559.750000,678.750000 		"/>
		<path style="stroke:rgb(24,23,17);stroke-width:8.650000;stroke-linecap:round;stroke-linejoin:round;fill:none"
		 d="M490.250000,908.000000 L528.000000,983.750000 L96.250000,551.000000 L94.500000,549.250000 L57.000000,474.000000 		"/>
		<path style="stroke:rgb(24,23,17);stroke-width:8.650000;stroke-linecap:round;stroke-linejoin:round;fill:none"
		 d="M528.000000,983.750000 L966.250000,550.250000 L928.250000,474.000000 		"/>
	</g>
</svg>