<?xml version="1.0" encoding="iso-8859-1"?>
<!DOCTYPE svg PUBLIC "-//W3C//DTD SVG 20000303 Stylable//EN"
"http://www.w3.org/TR/2000/03/WD-SVG-20000303/DTD/svg-20000303-stylable.dtd">
<!-- Generator: --> 
<svg width="256pt" height="256pt" viewBox="0 0 256 256">
	<g  id="FRAME_0" style="visibility:visible" fill-rule="evenodd">
		<path style="fill:rgb(107,95,127);opacity:1;stroke-width:0"
		 d="M67.000000,91.750000 L125.500000,55.750000 L126.750000,55.750000 L186.750000,91.750000 L247.000000,127.250000 L246.750000,128.000000 L188.000000,163.500000 L157.750000,145.500000 L172.250000,136.500000 Q182.500000,142.750000 198.500000,138.500000 Q211.750000,132.500000 208.000000,122.250000 Q190.750000,93.250000 169.250000,116.750000 L157.250000,109.750000 L126.500000,91.750000 L97.250000,109.750000 L67.000000,91.750000 M85.750000,116.750000 Q93.000000,132.750000 83.000000,136.750000 Q51.250000,146.500000 46.500000,125.750000 Q46.750000,113.500000 61.750000,107.250000 Q73.250000,102.250000 85.750000,116.750000 "/>
		<path style="fill:rgb(127,95,95);opacity:1;stroke-width:0"
		 d="M67.000000,91.750000 L97.250000,109.750000 L85.750000,116.750000 Q73.250000,102.250000 61.750000,107.250000 Q46.750000,113.500000 46.500000,125.750000 Q51.250000,146.500000 83.000000,136.750000 L98.000000,145.750000 L128.500000,163.500000 L157.750000,145.500000 L188.000000,163.500000 L129.500000,199.500000 L128.250000,199.500000 L68.500000,163.750000 L8.000000,128.000000 L8.250000,127.250000 L67.000000,91.750000 M169.250000,116.750000 Q190.750000,93.250000 208.000000,122.250000 Q211.750000,132.500000 198.500000,138.500000 Q182.500000,142.750000 172.250000,136.500000 Q161.750000,132.250000 169.250000,116.750000 "/>
		<path style="fill:rgb(203,203,203);opacity:1;stroke-width:0"
		 d="M97.250000,109.750000 L126.500000,91.750000 L157.250000,109.750000 L169.250000,116.750000 Q161.750000,132.250000 172.250000,136.500000 L157.750000,145.500000 L128.500000,163.500000 L98.000000,145.750000 L83.000000,136.750000 Q93.000000,132.750000 85.750000,116.750000 L97.250000,109.750000 "/>
		<path style="stroke:rgb(0,0,0);stroke-width:4.300000;stroke-linecap:round;stroke-linejoin:round;fill:none"
		 d="M125.500000,55.750000 L126.750000,55.750000 L186.750000,91.750000 L157.250000,109.750000 L126.500000,91.750000 L97.250000,109.750000 L67.000000,91.750000 L125.500000,55.750000 		"/>
		<path style="stroke:rgb(0,0,0);stroke-width:4.300000;stroke-linecap:round;stroke-linejoin:round;fill:none"
		 d="M169.250000,116.750000 Q190.750000,93.250000 208.000000,122.250000 Q211.750000,132.500000 198.500000,138.500000 Q182.500000,142.750000 172.250000,136.500000 Q161.750000,132.250000 169.250000,116.750000 L157.250000,109.750000 L127.750000,127.750000 L97.250000,109.750000 L85.750000,116.750000 Q93.000000,132.750000 83.000000,136.750000 Q51.250000,146.500000 46.500000,125.750000 Q46.750000,113.500000 61.750000,107.250000 Q73.250000,102.250000 85.750000,116.750000 		"/>
		<path style="stroke:rgb(0,0,0);stroke-width:4.300000;stroke-linecap:round;stroke-linejoin:round;fill:none"
		 d="M172.250000,136.500000 L157.750000,145.500000 L127.750000,127.750000 L98.000000,145.750000 L83.000000,136.750000 		"/>
		<path style="stroke:rgb(0,0,0);stroke-width:4.300000;stroke-linecap:round;stroke-linejoin:round;fill:none"
		 d="M67.000000,91.750000 L8.250000,127.250000 L8.000000,128.000000 L68.500000,163.750000 L98.000000,145.750000 L128.500000,163.500000 L157.750000,145.500000 L188.000000,163.500000 L246.750000,128.000000 L247.000000,127.250000 L186.750000,91.750000 		"/>
		<path style="stroke:rgb(0,0,0);stroke-width:4.300000;stroke-linecap:round;stroke-linejoin:round;fill:none"
		 d="M68.500000,163.750000 L128.250000,199.500000 L129.500000,199.500000 L188.000000,163.500000 		"/>
	</g>
</svg>