<?xml version="1.0" encoding="iso-8859-1"?>
<!DOCTYPE svg PUBLIC "-//W3C//DTD SVG 20000303 Stylable//EN"
"http://www.w3.org/TR/2000/03/WD-SVG-20000303/DTD/svg-20000303-stylable.dtd">
<!-- Generator: --> 
<svg width="512pt" height="512pt" viewBox="0 0 512 512">
	<g  id="FRAME_0" style="visibility:visible" fill-rule="evenodd">
		<path style="fill:rgb(216,216,216);opacity:1;stroke-width:0"
		 d="M449.500000,109.849998 L197.500000,449.750000 L170.500000,449.750000 L68.349998,244.350006 L68.349998,198.250000 L138.250000,198.250000 L194.350006,322.750000 L389.100006,72.250000 L449.600006,72.000000 L449.500000,109.849998 "/>
		<path style="fill:rgb(50,50,50);opacity:1;stroke-width:0"
		 d="M449.500000,109.849998 L449.600006,72.000000 L389.100006,72.250000 L194.350006,322.750000 L138.250000,198.250000 L68.349998,198.250000 L68.349998,244.350006 L170.500000,449.750000 L197.500000,449.750000 L449.500000,109.849998 M498.250000,498.250000 L12.750000,498.250000 L12.750000,12.850000 L498.250000,12.850000 L498.250000,498.250000 "/>
		<path style="stroke:rgb(0,0,0);stroke-width:0.700000;stroke-linecap:round;stroke-linejoin:round;fill:none"
		 d="M170.500000,449.750000 L61.250000,449.600006 L61.349998,61.349998 L448.250000,61.349998 L449.600006,61.349998 L449.600006,72.000000 L389.100006,72.250000 L194.350006,322.750000 L138.250000,198.250000 L68.349998,198.250000 L68.349998,244.350006 L170.500000,449.750000 L197.500000,449.750000 L449.500000,109.849998 L449.600006,72.000000 		"/>
		<path style="stroke:rgb(0,0,0);stroke-width:0.700000;stroke-linecap:round;stroke-linejoin:round;fill:none"
		 d="M449.500000,109.849998 L449.600006,449.750000 L197.500000,449.750000 		"/>
		<path style="stroke:rgb(0,0,0);stroke-width:0.700000;stroke-linecap:round;stroke-linejoin:round;fill:none"
		 d="M12.750000,498.250000 L12.750000,12.850000 L498.250000,12.850000 L498.250000,498.250000 L12.750000,498.250000 		"/>
	</g>
</svg>