<?xml version="1.0" encoding="iso-8859-1"?>
<!DOCTYPE svg PUBLIC "-//W3C//DTD SVG 20000303 Stylable//EN"
"http://www.w3.org/TR/2000/03/WD-SVG-20000303/DTD/svg-20000303-stylable.dtd">
<!-- Generator: --> 
<svg width="512pt" height="512pt" viewBox="0 0 512 512">
	<g  id="FRAME_0" style="visibility:visible" fill-rule="evenodd">
		<path style="fill:rgb(255,255,255);opacity:1;stroke-width:0"
		 d="M401.000000,401.250000 L401.000000,110.000000 L110.000000,110.000000 L110.000000,401.250000 L401.000000,401.250000 M427.000000,449.750000 L84.250000,449.750000 Q77.500000,449.750000 68.750000,443.250000 L64.500000,438.000000 L62.250000,432.750000 L61.250000,427.000000 L61.250000,89.250000 Q59.250000,80.000000 68.250000,68.500000 L73.000000,64.750000 L78.250000,62.500000 L84.000000,61.500000 L426.750000,61.500000 Q433.500000,61.000000 442.250000,68.000000 Q446.500000,70.250000 449.750000,84.250000 L449.750000,425.500000 Q448.000000,446.750000 427.000000,449.750000 "/>
		<path style="stroke:rgb(0,0,0);stroke-width:2.150000;stroke-linecap:round;stroke-linejoin:round;fill:none"
		 d="M110.000000,401.250000 L110.000000,110.000000 L401.000000,110.000000 L401.000000,401.250000 L110.000000,401.250000 		"/>
		<path style="stroke:rgb(0,0,0);stroke-width:2.150000;stroke-linecap:round;stroke-linejoin:round;fill:none"
		 d="M84.250000,449.750000 Q77.500000,449.750000 68.750000,443.250000 L64.500000,438.000000 L62.250000,432.750000 L61.250000,427.000000 L61.250000,89.250000 Q59.250000,80.000000 68.250000,68.500000 L73.000000,64.750000 L78.250000,62.500000 L84.000000,61.500000 L426.750000,61.500000 Q433.500000,61.000000 442.250000,68.000000 Q446.500000,70.250000 449.750000,84.250000 L449.750000,425.500000 Q448.000000,446.750000 427.000000,449.750000 L84.250000,449.750000 		"/>
	</g>
</svg>