<?xml version="1.0" encoding="iso-8859-1"?>
<!DOCTYPE svg PUBLIC "-//W3C//DTD SVG 20000303 Stylable//EN"
"http://www.w3.org/TR/2000/03/WD-SVG-20000303/DTD/svg-20000303-stylable.dtd">
<!-- Generator: --> 
<svg width="512pt" height="512pt" viewBox="0 0 512 512">
	<g  id="FRAME_0" style="visibility:visible" fill-rule="evenodd">
		<path style="fill:rgb(255,255,255);opacity:1;stroke-width:0"
		 d="M438.000000,449.750000 L73.099998,449.750000 Q61.750000,447.000000 61.750000,441.100006 L61.250000,438.000000 L61.250000,413.000000 Q62.349998,402.600006 72.500000,401.250000 L438.500000,401.250000 Q443.850006,400.250000 449.100006,409.500000 L449.750000,412.850006 L449.750000,437.350006 Q448.600006,448.850006 438.000000,449.750000 "/>
		<path style="stroke:rgb(0,0,0);stroke-width:2.150000;stroke-linecap:round;stroke-linejoin:round;fill:none"
		 d="M73.099998,449.750000 Q61.750000,447.000000 61.750000,441.100006 L61.250000,438.000000 L61.250000,413.000000 Q62.349998,402.600006 72.500000,401.250000 L438.500000,401.250000 Q443.850006,400.250000 449.100006,409.500000 L449.750000,412.850006 L449.750000,437.350006 Q448.600006,448.850006 438.000000,449.750000 L73.099998,449.750000 		"/>
	</g>
</svg>