<?xml version="1.0" encoding="UTF-8" standalone="no"?>
<!-- Generator: -->

<svg
   width="512pt"
   height="512pt"
   viewBox="0 0 512 512"
   version="1.1"
   id="svg1243"
   sodipodi:docname="minimize.svg"
   inkscape:version="1.1 (c68e22c387, 2021-05-23)"
   xmlns:inkscape="http://www.inkscape.org/namespaces/inkscape"
   xmlns:sodipodi="http://sodipodi.sourceforge.net/DTD/sodipodi-0.dtd"
   xmlns="http://www.w3.org/2000/svg"
   xmlns:svg="http://www.w3.org/2000/svg">
  <defs
     id="defs1247" />
  <sodipodi:namedview
     id="namedview1245"
     pagecolor="#505050"
     bordercolor="#eeeeee"
     borderopacity="1"
     inkscape:pageshadow="0"
     inkscape:pageopacity="0"
     inkscape:pagecheckerboard="0"
     inkscape:document-units="pt"
     showgrid="false"
     inkscape:zoom="0.55151367"
     inkscape:cx="151.40151"
     inkscape:cy="180.41257"
     inkscape:window-width="1920"
     inkscape:window-height="1147"
     inkscape:window-x="-8"
     inkscape:window-y="-8"
     inkscape:window-maximized="1"
     inkscape:current-layer="svg1243" />
  <g
     id="FRAME_0"
     style="visibility:visible"
     fill-rule="evenodd"
     transform="matrix(1.264564,0,0,1.264564,-64.876313,-172.39488)">
    <path
       style="opacity:1;fill:#999999;stroke-width:0;fill-opacity:1"
       d="M 438,449.75 H 73.099998 Q 61.75,447 61.75,441.10001 L 61.25,438 v -25 q 1.099998,-10.39999 11.25,-11.75 h 366 q 5.35001,-1 10.60001,8.25 l 0.64999,3.35001 v 24.5 q -1.14999,11.5 -11.75,12.39999"
       id="path1238" />
    <path
       style="fill:none;stroke:#000000;stroke-width:2.15;stroke-linecap:round;stroke-linejoin:round"
       d="M 73.099998,449.75 Q 61.75,447 61.75,441.10001 L 61.25,438 v -25 q 1.099998,-10.39999 11.25,-11.75 h 366 q 5.35001,-1 10.60001,8.25 l 0.64999,3.35001 v 24.5 q -1.14999,11.5 -11.75,12.39999 H 73.099998"
       id="path1240" />
  </g>
</svg>
