<?xml version="1.0" encoding="iso-8859-1"?>
<!DOCTYPE svg PUBLIC "-//W3C//DTD SVG 20000303 Stylable//EN"
"http://www.w3.org/TR/2000/03/WD-SVG-20000303/DTD/svg-20000303-stylable.dtd">
<!-- Generator: --> 
<svg width="1024pt" height="1024pt" viewBox="0 0 1024 1024">
	<g  id="FRAME_0" style="visibility:visible" fill-rule="evenodd">
		<path style="fill:rgb(67,67,67);opacity:1;stroke-width:0"
		 d="M66.349998,396.600006 Q78.349998,363.100006 107.599998,337.750000 L116.500000,330.850006 L126.250000,324.500000 L137.350006,318.350006 L148.750000,313.250000 L158.850006,309.500000 L173.350006,305.100006 L183.500000,302.850006 L199.600006,300.100006 L214.350006,298.600006 L228.500000,298.000000 L244.250000,298.100006 L260.100006,299.000000 L275.600006,300.600006 L291.500000,303.000000 L306.600006,305.850006 L325.100006,310.100006 L341.000000,314.500000 L355.000000,318.850006 L372.000000,324.750000 L388.100006,331.000000 L216.000000,503.250000 L141.250000,577.849976 L127.849998,594.250000 L118.099998,612.750000 L112.099998,633.349976 L105.500000,622.500000 L97.500000,607.349976 L97.000000,607.000000 L89.099998,591.099976 L82.250000,575.750000 L76.750000,561.349976 L76.099998,560.500000 L71.349998,546.250000 L70.849998,545.599976 L65.599998,528.250000 L63.599998,519.000000 L62.349998,515.000000 Q49.099998,460.100006 62.750000,407.750000 L62.750000,407.500000 L62.849998,407.250000 L63.000000,406.600006 L63.000000,406.500000 L63.099998,406.250000 L63.250000,405.850006 L63.250000,405.600006 L63.500000,405.250000 L63.599998,404.850006 L63.599998,404.600006 L63.750000,404.500000 L63.849998,404.100006 L64.000000,403.750000 L64.099998,403.350006 L64.250000,403.000000 L64.349998,402.600006 L64.500000,402.250000 L64.599998,401.850006 L64.750000,401.500000 L64.849998,401.100006 L65.000000,400.750000 L65.099998,400.350006 L65.099998,400.250000 L65.250000,399.850006 L65.349998,399.500000 L65.500000,399.100006 L65.599998,398.750000 L65.750000,398.350006 L65.849998,398.000000 L66.000000,397.600006 L66.250000,397.000000 L66.349998,396.600006 "/>
		<path style="fill:rgb(101,101,101);opacity:1;stroke-width:0"
		 d="M216.000000,503.250000 L388.100006,331.000000 L664.599976,54.599998 L963.599976,353.600006 L716.250000,601.099976 L608.750000,708.599976 L608.099976,709.250000 L602.750000,714.599976 L515.099976,802.099976 L216.000000,503.250000 "/>
		<path style="fill:rgb(4,4,4);opacity:1;stroke-width:0"
		 d="M112.099998,633.349976 L111.750000,637.000000 L103.750000,623.750000 L95.349998,608.250000 L88.000000,593.250000 L80.500000,576.500000 L79.750000,573.849976 L79.349998,573.599976 L74.250000,560.599976 L73.750000,558.349976 L69.500000,546.849976 L65.250000,532.599976 L61.500000,517.750000 L58.500000,502.600006 L56.599998,489.500000 L55.349998,475.750000 L54.849998,459.500000 L55.500000,445.250000 L56.849998,432.850006 L59.000000,421.250000 L61.849998,409.850006 L62.750000,407.750000 Q49.099998,460.100006 62.349998,515.000000 L63.599998,519.000000 L65.599998,528.250000 L70.849998,545.599976 L71.349998,546.250000 L76.099998,560.500000 L76.750000,561.349976 L82.250000,575.750000 L89.099998,591.099976 L97.000000,607.000000 L97.500000,607.349976 L105.500000,622.500000 L112.099998,633.349976 M640.250000,831.349976 L739.599976,852.599976 L738.599976,855.099976 L731.599976,853.750000 L729.750000,853.250000 L727.000000,852.750000 L726.849976,852.750000 L707.000000,848.349976 L682.500000,843.099976 L678.349976,842.250000 L660.849976,838.500000 L655.000000,837.250000 L641.599976,834.349976 L641.250000,834.349976 L640.250000,831.349976 "/>
		<path style="fill:rgb(203,203,203);opacity:1;stroke-width:0"
		 d="M118.099998,612.750000 L127.849998,594.250000 L141.250000,577.849976 L216.000000,503.250000 L515.099976,802.099976 L497.100006,820.250000 L494.000000,823.349976 L486.850006,830.500000 L440.100006,877.250000 L424.750000,889.849976 L406.100006,899.849976 L390.250000,904.599976 L386.250000,905.849976 L366.250000,907.849976 L345.850006,906.000000 L345.500000,905.849976 L325.350006,900.000000 L307.000000,890.250000 L292.100006,878.099976 L141.500000,727.750000 L128.250000,711.599976 L118.500000,693.500000 L112.349998,673.500000 L110.349998,653.849976 L111.750000,637.000000 L112.099998,633.349976 L118.099998,612.750000 "/>
		<path style="fill:rgb(135,135,135);opacity:1;stroke-width:0"
		 d="M737.599976,667.750000 L737.750000,668.099976 L750.000000,706.099976 L750.000000,706.250000 L750.099976,706.750000 L750.250000,706.849976 L750.250000,707.250000 L761.099976,741.250000 L608.750000,708.599976 L716.250000,601.099976 L737.599976,667.750000 M515.099976,802.099976 L602.750000,714.599976 L640.250000,831.349976 L641.250000,834.349976 L646.849976,852.250000 L497.100006,820.250000 L515.099976,802.099976 M390.250000,904.599976 L406.100006,899.849976 L424.750000,889.849976 L440.100006,877.250000 L486.850006,830.500000 L517.599976,926.349976 L518.599976,929.250000 L524.849976,949.099976 L390.250000,904.599976 "/>
		<path style="fill:rgb(27,27,27);opacity:1;stroke-width:0"
		 d="M744.500000,686.599976 L750.000000,706.099976 L737.750000,668.099976 L739.250000,671.500000 L744.500000,686.599976 M608.099976,709.250000 L755.849976,740.750000 Q757.750000,741.099976 757.750000,749.349976 L758.599976,759.500000 L758.849976,776.000000 L758.349976,787.349976 L757.000000,799.750000 L754.599976,812.849976 L752.099976,822.500000 L747.099976,837.000000 L746.849976,837.599976 L746.750000,837.849976 L746.599976,838.099976 L746.500000,838.500000 L746.349976,838.750000 L746.250000,839.000000 L746.099976,839.349976 L746.000000,839.599976 L745.849976,839.849976 L745.750000,840.250000 L745.599976,840.500000 L745.500000,840.750000 L745.500000,840.849976 L745.349976,841.250000 L745.250000,841.500000 L745.099976,841.750000 L745.000000,842.099976 L744.849976,842.349976 L744.750000,842.599976 L744.599976,843.000000 L744.500000,843.250000 L744.349976,843.500000 L744.250000,843.750000 L744.099976,844.099976 L744.000000,844.349976 L743.849976,844.599976 L743.750000,845.000000 L743.599976,845.250000 L743.500000,845.500000 L743.349976,845.849976 L743.250000,846.099976 L743.099976,846.349976 L743.000000,846.599976 L742.849976,846.750000 L742.849976,847.000000 L739.599976,852.599976 L640.250000,831.349976 L602.750000,714.599976 L608.099976,709.250000 M494.000000,823.349976 L645.000000,855.750000 L645.500000,855.750000 L645.849976,855.000000 L665.849976,917.250000 L653.349976,921.849976 L640.849976,925.500000 L627.750000,928.349976 L614.099976,930.500000 L601.099976,931.750000 L588.099976,932.349976 L571.849976,932.349976 L555.500000,931.500000 L539.849976,929.849976 L517.599976,926.349976 L486.850006,830.500000 L494.000000,823.349976 "/>
		<path style="fill:rgb(20,20,20);opacity:1;stroke-width:0"
		 d="M608.750000,708.599976 L761.099976,741.250000 L757.750000,749.349976 Q757.750000,741.099976 755.849976,740.750000 L608.099976,709.250000 L608.750000,708.599976 M497.100006,820.250000 L646.849976,852.250000 L645.849976,855.000000 L645.500000,855.750000 L645.000000,855.750000 L494.000000,823.349976 L497.100006,820.250000 M366.250000,907.849976 L386.250000,905.849976 L390.250000,904.599976 L524.849976,949.099976 Q522.500000,956.500000 521.250000,956.849976 L387.100006,910.599976 L386.350006,910.349976 L386.250000,910.599976 L401.350006,918.099976 L401.750000,918.250000 L425.850006,929.349976 L442.100006,936.000000 L463.000000,943.849976 L477.750000,948.849976 L493.750000,953.750000 L520.250000,960.349976 L519.250000,963.099976 L518.849976,963.250000 L345.850006,906.000000 L366.250000,907.849976 "/>
		<path style="fill:rgb(111,111,111);opacity:1;stroke-width:0"
		 d="M641.250000,834.349976 L641.599976,834.349976 L655.000000,837.250000 L660.849976,838.500000 L678.349976,842.250000 L682.500000,843.099976 L707.000000,848.349976 L726.849976,852.750000 Q726.000000,887.000000 714.500000,907.599976 L712.099976,912.500000 L707.599976,919.599976 L700.849976,928.099976 L698.099976,931.000000 L697.250000,931.849976 Q675.750000,956.849976 624.250000,966.349976 L612.349976,967.849976 L600.349976,968.599976 L584.599976,968.750000 L571.599976,968.099976 L557.349976,966.750000 L541.099976,964.500000 L520.250000,960.349976 L493.750000,953.750000 L477.750000,948.849976 L463.000000,943.849976 L442.100006,936.000000 L425.850006,929.349976 L401.750000,918.250000 L401.350006,918.099976 L386.250000,910.599976 L387.100006,910.599976 L521.250000,956.849976 Q522.500000,956.500000 524.849976,949.099976 L518.599976,929.250000 L518.750000,929.250000 L538.099976,932.349976 L553.599976,934.000000 L568.599976,934.849976 L585.250000,935.000000 L602.000000,934.099976 L613.250000,933.000000 L626.000000,931.000000 L642.099976,927.349976 L652.500000,924.349976 L664.500000,920.000000 L665.849976,917.250000 L645.849976,855.000000 L646.849976,852.250000 L641.250000,834.349976 "/>
		<path style="fill:rgb(0,0,0);opacity:1;stroke-width:0"
		 d="M742.849976,847.000000 L738.599976,855.099976 L739.599976,852.599976 L742.849976,847.000000 "/>
		<path style="fill:rgb(80,80,80);opacity:1;stroke-width:0"
		 d="M726.849976,852.750000 L727.000000,852.750000 L729.750000,853.250000 L731.599976,853.750000 Q728.349976,893.099976 714.599976,911.000000 L714.500000,907.599976 Q726.000000,887.000000 726.849976,852.750000 "/>
		<path style="fill:rgb(77,77,77);opacity:1;stroke-width:0"
		 d="M386.250000,910.599976 L386.350006,910.349976 L387.100006,910.599976 L386.250000,910.599976 "/>
		<path style="fill:rgb(29,29,29);opacity:1;stroke-width:0"
		 d="M714.599976,911.000000 L714.500000,911.250000 L711.750000,915.599976 L707.250000,921.349976 L700.849976,928.099976 L707.599976,919.599976 L712.099976,912.500000 L714.500000,907.599976 L714.599976,911.000000 "/>
		<path style="fill:rgb(3,3,3);opacity:1;stroke-width:0"
		 d="M518.599976,929.250000 L517.599976,926.349976 L539.849976,929.849976 L555.500000,931.500000 L571.849976,932.349976 L588.099976,932.349976 L601.099976,931.750000 L614.099976,930.500000 L627.750000,928.349976 L640.849976,925.500000 L653.349976,921.849976 L665.849976,917.250000 L664.500000,920.000000 L652.500000,924.349976 L642.099976,927.349976 L626.000000,931.000000 L613.250000,933.000000 L602.000000,934.099976 L585.250000,935.000000 L568.599976,934.849976 L553.599976,934.000000 L538.099976,932.349976 L518.750000,929.250000 L518.599976,929.250000 "/>
		<path style="stroke:rgb(0,0,0);stroke-width:23.050000;stroke-linecap:round;stroke-linejoin:round;fill:none"
		 d="M107.599998,337.750000 L116.500000,330.850006 L126.250000,324.500000 L137.350006,318.350006 L148.750000,313.250000 L158.850006,309.500000 L173.350006,305.100006 L183.500000,302.850006 L199.600006,300.100006 L214.350006,298.600006 L228.500000,298.000000 L244.250000,298.100006 L260.100006,299.000000 L275.600006,300.600006 L291.500000,303.000000 L306.600006,305.850006 L325.100006,310.100006 L341.000000,314.500000 L355.000000,318.850006 L372.000000,324.750000 L388.100006,331.000000 L216.000000,503.250000 L141.250000,577.849976 L127.849998,594.250000 L118.099998,612.750000 L112.099998,633.349976 L105.500000,622.500000 L97.500000,607.349976 L97.000000,607.000000 L89.099998,591.099976 L82.250000,575.750000 L76.750000,561.349976 L76.099998,560.500000 L71.349998,546.250000 L70.849998,545.599976 L65.599998,528.250000 L63.599998,519.000000 L62.349998,515.000000 Q49.099998,460.100006 62.750000,407.750000 L62.750000,407.500000 L62.849998,407.250000 L63.000000,406.600006 L63.000000,406.500000 L63.099998,406.250000 L63.250000,405.850006 L63.250000,405.600006 L63.500000,405.250000 L63.599998,404.850006 L63.599998,404.600006 L63.750000,404.500000 L63.849998,404.100006 L64.000000,403.750000 L64.099998,403.350006 L64.250000,403.000000 L64.349998,402.600006 L64.500000,402.250000 L64.599998,401.850006 L64.750000,401.500000 L64.849998,401.100006 L65.000000,400.750000 L65.099998,400.350006 L65.099998,400.250000 L65.250000,399.850006 L65.349998,399.500000 L65.500000,399.100006 L65.599998,398.750000 L65.750000,398.350006 L65.849998,398.000000 L66.000000,397.600006 L66.250000,397.000000 L66.349998,396.600006 Q78.349998,363.100006 107.599998,337.750000 		"/>
		<path style="stroke:rgb(0,0,0);stroke-width:23.050000;stroke-linecap:round;stroke-linejoin:round;fill:none"
		 d="M737.750000,668.099976 L750.000000,706.099976 L744.500000,686.599976 L739.250000,671.500000 L737.750000,668.099976 L737.599976,667.750000 L716.250000,601.099976 L963.599976,353.600006 L664.599976,54.599998 L388.100006,331.000000 		"/>
		<path style="stroke:rgb(0,0,0);stroke-width:23.050000;stroke-linecap:round;stroke-linejoin:round;fill:none"
		 d="M62.750000,407.750000 L61.849998,409.850006 L59.000000,421.250000 L56.849998,432.850006 L55.500000,445.250000 L54.849998,459.500000 L55.349998,475.750000 L56.599998,489.500000 L58.500000,502.600006 L61.500000,517.750000 L65.250000,532.599976 L69.500000,546.849976 L73.750000,558.349976 L74.250000,560.599976 L79.349998,573.599976 L79.750000,573.849976 L80.500000,576.500000 L88.000000,593.250000 L95.349998,608.250000 L103.750000,623.750000 L111.750000,637.000000 L112.099998,633.349976 		"/>
		<path style="stroke:rgb(0,0,0);stroke-width:23.050000;stroke-linecap:round;stroke-linejoin:round;fill:none"
		 d="M750.000000,706.099976 L750.000000,706.250000 L750.099976,706.750000 L750.250000,706.849976 L750.250000,707.250000 L761.099976,741.250000 L608.750000,708.599976 L716.250000,601.099976 		"/>
		<path style="stroke:rgb(0,0,0);stroke-width:23.050000;stroke-linecap:round;stroke-linejoin:round;fill:none"
		 d="M608.750000,708.599976 L608.099976,709.250000 L602.750000,714.599976 L515.099976,802.099976 L216.000000,503.250000 		"/>
		<path style="stroke:rgb(0,0,0);stroke-width:23.050000;stroke-linecap:round;stroke-linejoin:round;fill:none"
		 d="M608.099976,709.250000 L755.849976,740.750000 Q757.750000,741.099976 757.750000,749.349976 L761.099976,741.250000 		"/>
		<path style="stroke:rgb(0,0,0);stroke-width:23.050000;stroke-linecap:round;stroke-linejoin:round;fill:none"
		 d="M515.099976,802.099976 L497.100006,820.250000 L494.000000,823.349976 L486.850006,830.500000 L440.100006,877.250000 L424.750000,889.849976 L406.100006,899.849976 L390.250000,904.599976 L386.250000,905.849976 L366.250000,907.849976 L345.850006,906.000000 L345.500000,905.849976 L325.350006,900.000000 L307.000000,890.250000 L292.100006,878.099976 L141.500000,727.750000 L128.250000,711.599976 L118.500000,693.500000 L112.349998,673.500000 L110.349998,653.849976 L111.750000,637.000000 		"/>
		<path style="stroke:rgb(0,0,0);stroke-width:23.050000;stroke-linecap:round;stroke-linejoin:round;fill:none"
		 d="M640.250000,831.349976 L739.599976,852.599976 L738.599976,855.099976 L731.599976,853.750000 L729.750000,853.250000 L727.000000,852.750000 L726.849976,852.750000 L707.000000,848.349976 L682.500000,843.099976 L678.349976,842.250000 L660.849976,838.500000 L655.000000,837.250000 L641.599976,834.349976 L641.250000,834.349976 L640.250000,831.349976 L602.750000,714.599976 		"/>
		<path style="stroke:rgb(0,0,0);stroke-width:23.050000;stroke-linecap:round;stroke-linejoin:round;fill:none"
		 d="M739.599976,852.599976 L742.849976,847.000000 L742.849976,846.750000 L743.000000,846.599976 L743.099976,846.349976 L743.250000,846.099976 L743.349976,845.849976 L743.500000,845.500000 L743.599976,845.250000 L743.750000,845.000000 L743.849976,844.599976 L744.000000,844.349976 L744.099976,844.099976 L744.250000,843.750000 L744.349976,843.500000 L744.500000,843.250000 L744.599976,843.000000 L744.750000,842.599976 L744.849976,842.349976 L745.000000,842.099976 L745.099976,841.750000 L745.250000,841.500000 L745.349976,841.250000 L745.500000,840.849976 L745.500000,840.750000 L745.599976,840.500000 L745.750000,840.250000 L745.849976,839.849976 L746.000000,839.599976 L746.099976,839.349976 L746.250000,839.000000 L746.349976,838.750000 L746.500000,838.500000 L746.599976,838.099976 L746.750000,837.849976 L746.849976,837.599976 L747.099976,837.000000 L752.099976,822.500000 L754.599976,812.849976 L757.000000,799.750000 L758.349976,787.349976 L758.849976,776.000000 L758.599976,759.500000 L757.750000,749.349976 		"/>
		<path style="stroke:rgb(0,0,0);stroke-width:23.050000;stroke-linecap:round;stroke-linejoin:round;fill:none"
		 d="M497.100006,820.250000 L646.849976,852.250000 L641.250000,834.349976 		"/>
		<path style="stroke:rgb(0,0,0);stroke-width:23.050000;stroke-linecap:round;stroke-linejoin:round;fill:none"
		 d="M646.849976,852.250000 L645.849976,855.000000 L645.500000,855.750000 L645.000000,855.750000 L494.000000,823.349976 		"/>
		<path style="stroke:rgb(0,0,0);stroke-width:23.050000;stroke-linecap:round;stroke-linejoin:round;fill:none"
		 d="M742.849976,847.000000 L738.599976,855.099976 		"/>
		<path style="stroke:rgb(0,0,0);stroke-width:23.050000;stroke-linecap:round;stroke-linejoin:round;fill:none"
		 d="M731.599976,853.750000 Q728.349976,893.099976 714.599976,911.000000 L714.500000,911.250000 L711.750000,915.599976 L707.250000,921.349976 L700.849976,928.099976 L707.599976,919.599976 L712.099976,912.500000 L714.500000,907.599976 Q726.000000,887.000000 726.849976,852.750000 		"/>
		<path style="stroke:rgb(0,0,0);stroke-width:23.050000;stroke-linecap:round;stroke-linejoin:round;fill:none"
		 d="M386.350006,910.349976 L387.100006,910.599976 L386.250000,910.599976 L386.350006,910.349976 		"/>
		<path style="stroke:rgb(0,0,0);stroke-width:23.050000;stroke-linecap:round;stroke-linejoin:round;fill:none"
		 d="M486.850006,830.500000 L517.599976,926.349976 L539.849976,929.849976 L555.500000,931.500000 L571.849976,932.349976 L588.099976,932.349976 L601.099976,931.750000 L614.099976,930.500000 L627.750000,928.349976 L640.849976,925.500000 L653.349976,921.849976 L665.849976,917.250000 L645.849976,855.000000 		"/>
		<path style="stroke:rgb(0,0,0);stroke-width:23.050000;stroke-linecap:round;stroke-linejoin:round;fill:none"
		 d="M386.250000,910.599976 L401.350006,918.099976 L401.750000,918.250000 L425.850006,929.349976 L442.100006,936.000000 L463.000000,943.849976 L477.750000,948.849976 L493.750000,953.750000 L520.250000,960.349976 L519.250000,963.099976 L518.849976,963.250000 L345.850006,906.000000 		"/>
		<path style="stroke:rgb(0,0,0);stroke-width:23.050000;stroke-linecap:round;stroke-linejoin:round;fill:none"
		 d="M665.849976,917.250000 L664.500000,920.000000 L652.500000,924.349976 L642.099976,927.349976 L626.000000,931.000000 L613.250000,933.000000 L602.000000,934.099976 L585.250000,935.000000 L568.599976,934.849976 L553.599976,934.000000 L538.099976,932.349976 L518.750000,929.250000 L518.599976,929.250000 L517.599976,926.349976 		"/>
		<path style="stroke:rgb(0,0,0);stroke-width:23.050000;stroke-linecap:round;stroke-linejoin:round;fill:none"
		 d="M520.250000,960.349976 L541.099976,964.500000 L557.349976,966.750000 L571.599976,968.099976 L584.599976,968.750000 L600.349976,968.599976 L612.349976,967.849976 L624.250000,966.349976 Q675.750000,956.849976 697.250000,931.849976 L698.099976,931.000000 L700.849976,928.099976 		"/>
		<path style="stroke:rgb(0,0,0);stroke-width:23.050000;stroke-linecap:round;stroke-linejoin:round;fill:none"
		 d="M390.250000,904.599976 L524.849976,949.099976 L518.599976,929.250000 		"/>
		<path style="stroke:rgb(0,0,0);stroke-width:23.050000;stroke-linecap:round;stroke-linejoin:round;fill:none"
		 d="M524.849976,949.099976 Q522.500000,956.500000 521.250000,956.849976 L387.100006,910.599976 		"/>
	</g>
</svg>