<?xml version="1.0" encoding="iso-8859-1"?>
<!-- Generator: Adobe Illustrator 19.2.1, SVG Export Plug-In . SVG Version: 6.00 Build 0)  -->
<svg version="1.1" id="Layer_1" xmlns="http://www.w3.org/2000/svg" xmlns:xlink="http://www.w3.org/1999/xlink" x="0px" y="0px"
	 viewBox="0 0 240 240" style="enable-background:new 0 0 240 240;" xml:space="preserve">
<g>
	<rect x="16" y="16" style="fill:#48AAB5;" width="208" height="208"/>
	<path style="fill:#1D1D1D;" d="M220,20v200H20V20H220 M228,12H12v216h216V12L228,12z"/>
</g>
<g>
	<path style="fill-rule:evenodd;clip-rule:evenodd;fill:#1D1D1D;" d="M209.644,56.04v127.918H30.356V56.04H209.644z"/>
	<path style="fill-rule:evenodd;clip-rule:evenodd;fill:#1D1D1D;" d="M56.015,30.452v12.727H30.372V30.452"/>
	<path style="fill-rule:evenodd;clip-rule:evenodd;fill:#1D1D1D;" d="M94.407,30.452v12.727h-25.64V30.452"/>
	<path style="fill-rule:evenodd;clip-rule:evenodd;fill:#1D1D1D;" d="M132.8,30.452v12.727h-25.64V30.452"/>
	<path style="fill-rule:evenodd;clip-rule:evenodd;fill:#1D1D1D;" d="M171.192,30.452v12.727h-25.641V30.452"/>
	<path style="fill-rule:evenodd;clip-rule:evenodd;fill:#1D1D1D;" d="M209.584,30.452v12.727h-25.641V30.452"/>
	<path style="fill-rule:evenodd;clip-rule:evenodd;fill:#1D1D1D;" d="M56.015,196.821v12.727H30.372v-12.727"/>
	<path style="fill-rule:evenodd;clip-rule:evenodd;fill:#1D1D1D;" d="M94.407,196.821v12.727h-25.64v-12.727"/>
	<path style="fill-rule:evenodd;clip-rule:evenodd;fill:#1D1D1D;" d="M132.8,196.821v12.727h-25.64v-12.727"/>
	<path style="fill-rule:evenodd;clip-rule:evenodd;fill:#1D1D1D;" d="M171.192,196.821v12.727h-25.641v-12.727"/>
	<path style="fill-rule:evenodd;clip-rule:evenodd;fill:#1D1D1D;" d="M209.584,196.821v12.727h-25.641v-12.727"/>
</g>
<rect style="fill-rule:evenodd;clip-rule:evenodd;fill:none;" width="240" height="240"/>
</svg>
