<?xml version="1.0" encoding="iso-8859-1"?>
<!DOCTYPE svg PUBLIC "-//W3C//DTD SVG 20000303 Stylable//EN"
"http://www.w3.org/TR/2000/03/WD-SVG-20000303/DTD/svg-20000303-stylable.dtd">
<!-- Generator: --> 
<svg width="128pt" height="128pt" viewBox="0 0 128 128">
	<g  id="FRAME_0" style="visibility:visible" fill-rule="evenodd">
		<path style="fill:rgb(127,127,127);opacity:1;stroke-width:0"
		 d="M8.250000,1.500000 L120.250000,1.500000 L121.849998,1.750000 L123.349998,2.350000 L124.750000,3.350000 L125.599998,4.600000 L126.349998,6.100000 L126.500000,7.750000 L126.500000,119.849998 L126.349998,121.349998 L125.750000,122.849998 L124.750000,124.099998 L123.250000,125.250000 L121.750000,125.849998 L120.099998,126.000000 L8.250000,126.000000 L6.500000,125.849998 L5.000000,125.099998 L3.750000,124.250000 L2.750000,122.849998 L2.100000,121.349998 L1.850000,119.750000 L1.850000,7.750000 L2.100000,6.250000 L2.750000,4.600000 L3.750000,3.350000 L5.000000,2.350000 L6.600000,1.750000 L8.250000,1.500000 M11.000000,4.600000 L9.350000,4.850000 L8.000000,5.350000 L6.750000,6.350000 L5.750000,7.500000 L5.250000,9.000000 L5.000000,10.350000 L5.250000,116.349998 L5.000000,117.250000 L5.250000,118.599998 L5.850000,120.000000 L6.850000,121.250000 L8.000000,122.099998 L9.500000,122.750000 L11.000000,122.849998 L117.349998,122.849998 L119.000000,122.750000 L120.250000,122.250000 L121.599998,121.250000 L122.500000,120.000000 L123.099998,118.599998 L123.250000,117.099998 L123.500000,109.500000 L123.250000,10.350000 L123.099998,9.000000 L122.599998,7.500000 L121.599998,6.350000 L120.349998,5.350000 L119.000000,4.850000 L117.599998,4.600000 L11.000000,4.600000 M27.850000,20.250000 L14.500000,20.250000 L14.500000,12.600000 L27.600000,12.500000 L27.850000,20.250000 M56.250000,20.250000 L42.849998,20.250000 L42.849998,12.750000 L56.000000,12.500000 L56.250000,20.250000 M84.599998,20.250000 L71.250000,20.250000 L71.250000,12.750000 L84.349998,12.500000 L84.599998,20.250000 M113.000000,20.250000 L99.599998,20.250000 L99.599998,12.750000 L112.750000,12.500000 L113.000000,20.250000 M27.850000,115.750000 L14.500000,115.750000 L14.500000,108.250000 L27.600000,108.000000 L27.850000,115.750000 M56.250000,115.750000 L42.849998,115.750000 L42.849998,108.099998 L56.000000,108.000000 L56.250000,115.750000 M84.599998,115.750000 L71.250000,115.750000 L71.250000,108.250000 L84.349998,108.000000 L84.599998,115.750000 M113.000000,115.750000 L99.599998,115.750000 L99.599998,108.000000 L113.000000,108.000000 L113.000000,115.750000 "/>
		<path style="fill:rgb(31,31,31);opacity:1;stroke-width:0"
		 d="M11.000000,4.600000 L117.599998,4.600000 L119.000000,4.850000 L120.349998,5.350000 L121.599998,6.350000 L122.599998,7.500000 L123.099998,9.000000 L123.250000,10.350000 L123.500000,109.500000 L123.250000,117.099998 L123.099998,118.599998 L122.500000,120.000000 L121.599998,121.250000 L120.250000,122.250000 L119.000000,122.750000 L117.349998,122.849998 L11.000000,122.849998 L9.500000,122.750000 L8.000000,122.099998 L6.850000,121.250000 L5.850000,120.000000 L5.250000,118.599998 L5.000000,117.250000 L5.250000,116.349998 L5.000000,10.350000 L5.250000,9.000000 L5.750000,7.500000 L6.750000,6.350000 L8.000000,5.350000 L9.350000,4.850000 L11.000000,4.600000 M27.850000,20.250000 L27.600000,12.500000 L14.500000,12.600000 L14.500000,20.250000 L27.850000,20.250000 M56.250000,20.250000 L56.000000,12.500000 L42.849998,12.750000 L42.849998,20.250000 L56.250000,20.250000 M84.599998,20.250000 L84.349998,12.500000 L71.250000,12.750000 L71.250000,20.250000 L84.599998,20.250000 M113.000000,20.250000 L112.750000,12.500000 L99.599998,12.750000 L99.599998,20.250000 L113.000000,20.250000 M118.849998,100.250000 L118.849998,27.350000 L9.600000,27.350000 L9.600000,100.250000 L118.849998,100.250000 M27.850000,115.750000 L27.600000,108.000000 L14.500000,108.250000 L14.500000,115.750000 L27.850000,115.750000 M56.250000,115.750000 L56.000000,108.000000 L42.849998,108.099998 L42.849998,115.750000 L56.250000,115.750000 M84.599998,115.750000 L84.349998,108.000000 L71.250000,108.250000 L71.250000,115.750000 L84.599998,115.750000 M113.000000,115.750000 L113.000000,108.000000 L99.599998,108.000000 L99.599998,115.750000 L113.000000,115.750000 "/>
	</g>
</svg>