<?xml version="1.0" encoding="iso-8859-1"?>
<!DOCTYPE svg PUBLIC "-//W3C//DTD SVG 20000303 Stylable//EN"
"http://www.w3.org/TR/2000/03/WD-SVG-20000303/DTD/svg-20000303-stylable.dtd">
<!-- Generator: --> 
<svg width="1024pt" height="1024pt" viewBox="0 0 1024 1024">
	<g  id="FRAME_0" style="visibility:visible" fill-rule="evenodd">
		<path style="fill:rgb(101,101,101);opacity:1;stroke-width:0"
		 d="M412.850006,337.600006 L494.350006,337.750000 L494.250000,648.250000 L612.849976,648.250000 L612.849976,337.600006 L720.849976,337.500000 L720.750000,235.350006 L443.250000,235.350006 L443.250000,255.000000 L436.100006,290.350006 L422.600006,323.000000 L412.850006,337.600006 M140.100006,374.600006 L118.849998,353.250000 L98.849998,323.500000 L85.000000,290.100006 L78.000000,255.100006 L78.000000,218.750000 L84.849998,183.850006 L98.599998,150.350006 L118.599998,120.349998 L144.000000,95.000000 L174.000000,74.849998 L206.850006,61.250000 L242.250000,54.099998 L278.600006,54.099998 L313.600006,61.000000 L347.000000,74.750000 L377.000000,94.750000 L393.500000,111.250000 L854.250000,111.250000 Q903.099976,115.349998 926.000000,147.250000 Q941.500000,165.100006 944.849976,200.350006 L945.000000,663.500000 Q944.500000,699.599976 918.849976,727.099976 Q888.349976,754.750000 858.250000,754.750000 L479.100006,755.000000 L261.750000,969.000000 L251.000000,966.750000 L242.500000,963.349976 Q222.600006,954.750000 210.600006,931.500000 L263.100006,755.000000 L234.100006,755.000000 L220.000000,754.250000 L209.250000,752.099976 L205.250000,750.849976 L197.100006,748.099976 L186.250000,742.750000 L176.100006,736.000000 L167.100006,728.099976 L159.100006,719.000000 Q144.100006,699.099976 141.000000,675.599976 L140.100006,664.250000 L140.100006,374.600006 "/>
		<path style="fill:rgb(255,255,255);opacity:1;stroke-width:0"
		 d="M412.850006,337.600006 L422.600006,323.000000 L436.100006,290.350006 L443.250000,255.000000 L443.250000,235.350006 L720.750000,235.350006 L720.849976,337.500000 L612.849976,337.600006 L612.849976,648.250000 L494.250000,648.250000 L494.350006,337.750000 L412.850006,337.600006 "/>
		<path style="stroke:rgb(0,0,0);stroke-width:23.050000;stroke-linecap:round;stroke-linejoin:round;fill:none"
		 d="M443.250000,218.250000 L436.350006,183.750000 L435.100006,180.500000 L422.350006,149.850006 L402.750000,120.500000 L393.500000,111.250000 L377.000000,94.750000 L347.000000,74.750000 L313.600006,61.000000 L278.600006,54.099998 L242.250000,54.099998 L206.850006,61.250000 L174.000000,74.849998 L144.000000,95.000000 L118.599998,120.349998 L98.599998,150.350006 L84.849998,183.850006 L78.000000,218.750000 L78.000000,255.100006 L85.000000,290.100006 L98.849998,323.500000 L118.849998,353.250000 L140.100006,374.600006 L144.100006,378.600006 L173.750000,398.350006 L207.500000,412.350006 L242.000000,419.250000 L279.100006,419.250000 L313.750000,412.350006 L347.100006,398.600006 L376.850006,378.750000 L402.500000,353.100006 L412.850006,337.600006 L422.600006,323.000000 L436.100006,290.350006 L443.250000,255.000000 L443.250000,235.350006 L443.250000,218.250000 		"/>
		<path style="stroke:rgb(0,0,0);stroke-width:23.050000;stroke-linecap:round;stroke-linejoin:round;fill:none"
		 d="M412.850006,337.600006 L494.350006,337.750000 L494.250000,648.250000 L612.849976,648.250000 L612.849976,337.600006 L720.849976,337.500000 L720.750000,235.350006 L443.250000,235.350006 		"/>
		<path style="stroke:rgb(0,0,0);stroke-width:23.050000;stroke-linecap:round;stroke-linejoin:round;fill:none"
		 d="M140.100006,374.600006 L140.100006,664.250000 L141.000000,675.599976 Q144.100006,699.099976 159.100006,719.000000 L167.100006,728.099976 L176.100006,736.000000 L186.250000,742.750000 L197.100006,748.099976 L205.250000,750.849976 L209.250000,752.099976 L220.000000,754.250000 L234.100006,755.000000 L263.100006,755.000000 L210.600006,931.500000 Q222.600006,954.750000 242.500000,963.349976 L251.000000,966.750000 L261.750000,969.000000 L479.100006,755.000000 L858.250000,754.750000 Q888.349976,754.750000 918.849976,727.099976 Q944.500000,699.599976 945.000000,663.500000 L944.849976,200.350006 Q941.500000,165.100006 926.000000,147.250000 Q903.099976,115.349998 854.250000,111.250000 L393.500000,111.250000 		"/>
	</g>
</svg>