<?xml version="1.0" encoding="iso-8859-1"?>
<!DOCTYPE svg PUBLIC "-//W3C//DTD SVG 20000303 Stylable//EN"
"http://www.w3.org/TR/2000/03/WD-SVG-20000303/DTD/svg-20000303-stylable.dtd">
<!-- Generator: --> 
<svg width="256pt" height="256pt" viewBox="0 0 256 256">
	<g  id="FRAME_0" style="visibility:visible" fill-rule="evenodd">
		<path style="fill:rgb(122,122,122);opacity:1;stroke-width:0"
		 d="M127.400002,19.400000 L148.600006,21.600000 L168.850006,27.799999 L175.050003,30.950001 L171.949997,37.200001 L171.350006,38.599998 L166.699997,47.799999 L161.500000,45.200001 L161.550003,45.099998 L144.850006,40.049999 L144.800003,40.200001 L127.449997,38.500000 L127.400002,38.349998 L110.050003,40.049999 L110.000000,40.099998 L93.349998,45.150002 L93.400002,45.400002 L77.900002,53.400002 L77.949997,53.400002 L64.400002,64.449997 L64.400002,64.500000 L64.400002,64.599998 L53.349998,78.000000 L53.299999,78.000000 L53.150002,78.349998 L45.099998,93.400002 L45.099998,93.599998 L40.000000,110.150002 L40.000000,110.199997 L38.299999,127.500000 L38.299999,127.599998 L40.099998,144.850006 L40.000000,144.899994 L45.150002,161.600006 L45.000000,161.699997 L53.400002,177.000000 L53.299999,177.100006 L64.449997,190.550003 L64.400002,190.699997 L77.949997,201.600006 L78.000000,201.600006 L77.949997,201.800003 L93.349998,209.800003 L93.400002,209.850006 L93.400002,210.000000 L110.050003,214.949997 L110.099998,215.050003 L127.550003,216.800003 L127.550003,216.649994 L144.949997,215.000000 L144.899994,214.899994 L161.600006,209.899994 L161.600006,209.800003 L177.000000,201.649994 L177.000000,201.600006 L181.500000,198.000000 L184.800003,202.300003 L193.000000,212.949997 L187.550003,217.350006 L168.800003,227.300003 L148.550003,233.500000 L127.400002,235.600006 L106.300003,233.449997 L86.099998,227.350006 L86.050003,227.300003 L67.400002,217.350006 L51.049999,203.899994 L37.599998,187.550003 L28.049999,169.750000 L27.650000,168.800003 L21.450001,148.600006 L19.400000,127.500000 L21.500000,106.400002 L21.600000,105.800003 L27.600000,86.199997 L37.599998,67.500000 L51.000000,51.150002 L67.400002,37.700001 L86.050003,27.700001 L106.449997,21.650000 L127.400002,19.400000 M193.600006,42.599998 L203.899994,51.099998 L190.500000,64.400002 L182.699997,58.099998 L188.800003,49.450001 L193.600006,42.599998 M127.500000,106.199997 L131.750000,106.349998 L135.750000,107.550003 L139.500000,109.599998 L142.800003,112.199997 L145.449997,115.500000 L147.199997,119.349998 L148.649994,123.300003 L149.050003,127.550003 L148.449997,131.699997 L147.300003,135.750000 L145.449997,139.500000 L142.649994,142.699997 L139.500000,145.449997 L135.750000,147.449997 L131.649994,148.699997 L127.449997,149.100006 L123.250000,148.699997 L123.199997,148.649994 L119.199997,147.449997 L119.150002,147.399994 L115.449997,145.449997 L115.400002,145.399994 L112.199997,142.800003 L111.949997,142.550003 L109.500000,139.500000 L107.500000,135.750000 L106.300003,131.699997 L105.900002,127.500000 L106.300003,123.300003 L107.500000,119.250000 L109.500000,115.550003 L112.199997,112.250000 L115.400002,109.599998 L119.199997,107.599998 L123.199997,106.349998 L127.500000,106.199997 M127.449997,116.699997 L125.349998,116.900002 L123.349998,117.500000 L121.300003,118.400002 L119.699997,119.800003 L118.349998,121.449997 L117.449997,123.349998 L117.449997,123.400002 L116.849998,125.400002 L116.650002,127.550003 L116.699997,129.649994 L117.300003,131.750000 L118.500000,133.550003 L119.699997,135.350006 L121.500000,136.550003 L123.400002,137.500000 L125.400002,138.100006 L127.500000,138.300003 L129.600006,138.100006 L131.600006,137.500000 L133.449997,136.550003 L135.100006,135.199997 L136.449997,133.550003 L137.449997,131.649994 L138.100006,129.600006 L138.300003,127.500000 L138.100006,125.400002 L137.449997,123.349998 L136.449997,121.449997 L135.100006,119.800003 L133.449997,118.500000 L131.600006,117.500000 L129.600006,116.900002 L127.449997,116.699997 M201.600006,177.000000 L217.350006,187.550003 L208.899994,197.850006 L200.000000,189.449997 L195.149994,184.800003 L201.600006,177.000000 "/>
		<path style="fill:rgb(148,0,254);opacity:1;stroke-width:0"
		 d="M175.050003,30.950001 L183.800003,13.250000 L204.800003,26.250000 L205.000000,26.400000 L193.600006,42.599998 L188.800003,49.450001 L182.699997,58.099998 L176.250000,67.199997 L171.800003,73.500000 L152.250000,101.000000 L151.800003,100.800003 L144.800003,95.800003 L143.649994,94.750000 L158.399994,64.750000 L160.699997,60.000000 L166.699997,47.799999 L171.350006,38.599998 L171.949997,37.200001 L175.050003,30.950001 "/>
		<path style="fill:rgb(180,180,180);opacity:1;stroke-width:0"
		 d="M127.400002,38.349998 L127.449997,38.500000 L144.800003,40.200001 L144.850006,40.049999 L161.550003,45.099998 L161.500000,45.200001 L166.699997,47.799999 L160.699997,60.000000 L158.399994,64.750000 L154.300003,62.599998 L141.149994,58.599998 L127.500000,57.250000 L113.800003,58.599998 L100.650002,62.599998 L88.449997,69.050003 L77.800003,77.800003 L69.300003,88.250000 L69.050003,88.400002 L62.599998,100.599998 L58.750000,113.400002 L58.599998,113.750000 L58.549999,113.800003 L57.200001,127.500000 L58.599998,141.199997 L62.599998,154.399994 L69.000000,166.500000 L69.300003,166.750000 L77.800003,177.199997 L88.400002,185.949997 L100.599998,192.399994 L113.750000,196.449997 L127.449997,197.850006 L141.149994,196.550003 L154.350006,192.550003 L166.399994,186.000000 L170.000000,183.050003 L170.199997,183.199997 L177.100006,192.250000 L181.500000,198.000000 L177.000000,201.600006 L177.000000,201.649994 L161.600006,209.800003 L161.600006,209.899994 L144.899994,214.899994 L144.949997,215.000000 L127.550003,216.649994 L127.550003,216.800003 L110.099998,215.050003 L110.050003,214.949997 L93.400002,210.000000 L93.400002,209.850006 L93.349998,209.800003 L77.949997,201.800003 L78.000000,201.600006 L77.949997,201.600006 L64.400002,190.699997 L64.449997,190.550003 L53.299999,177.100006 L53.400002,177.000000 L45.000000,161.699997 L45.150002,161.600006 L40.000000,144.899994 L40.099998,144.850006 L38.299999,127.599998 L38.299999,127.500000 L40.000000,110.199997 L40.000000,110.150002 L45.099998,93.599998 L45.099998,93.400002 L53.150002,78.349998 L53.299999,78.000000 L53.349998,78.000000 L64.400002,64.599998 L64.400002,64.500000 L64.400002,64.449997 L77.949997,53.400002 L77.900002,53.400002 L93.400002,45.400002 L93.349998,45.150002 L110.000000,40.099998 L110.050003,40.049999 L127.400002,38.349998 M182.699997,58.099998 L190.500000,64.400002 L190.449997,64.449997 L177.199997,77.800003 L176.750000,77.550003 L171.800003,73.500000 L176.250000,67.199997 L182.699997,58.099998 M181.399994,171.850006 L185.850006,166.600006 L201.600006,177.000000 L195.149994,184.800003 L188.050003,178.100006 L181.399994,171.850006 "/>
		<defs>
			<linearGradient id="GRAD_0" gradientUnits="userSpaceOnUse" x1="157.740000" y1="107.280000" x2="237.600000" y2="64.600000">
			<stop offset="0" style="stop-color:rgb(1,0,111)" opacity="1"/>
			<stop offset="1" style="stop-color:rgb(1,0,159)" opacity="1"/>
			</linearGradient>
		</defs>
		<path style="fill:url(#GRAD_0);stroke-width:0"
		 d="M245.050003,78.800003 L244.949997,78.849998 L244.899994,78.849998 L157.899994,107.199997 L233.350006,56.750000 L245.149994,78.650002 L245.050003,78.800003 "/>
		<defs>
			<linearGradient id="GRAD_1" gradientUnits="userSpaceOnUse" x1="162.140000" y1="116.970000" x2="245.390000" y2="79.230000">
			<stop offset="0" style="stop-color:rgb(1,0,111)" opacity="1"/>
			<stop offset="1" style="stop-color:rgb(1,0,159)" opacity="1"/>
			</linearGradient>
		</defs>
		<path style="fill:url(#GRAD_1);stroke-width:0"
		 d="M157.899994,107.199997 L244.899994,78.849998 L162.000000,116.849998 L161.800003,116.400002 L158.000000,107.949997 L157.750000,107.400002 L157.800003,107.250000 L157.899994,107.199997 "/>
		<path style="fill:rgb(0,152,0);opacity:1;stroke-width:0"
		 d="M162.600006,120.150002 L252.399994,102.650002 L254.850006,127.199997 L254.600006,127.500000 L163.050003,127.849998 L162.600006,121.000000 L162.600006,120.150002 "/>
		<defs>
			<linearGradient id="GRAD_2" gradientUnits="userSpaceOnUse" x1="163.520000" y1="131.110000" x2="252.510000" y2="151.950000">
			<stop offset="0" style="stop-color:rgb(111,0,0)" opacity="1"/>
			<stop offset="1" style="stop-color:rgb(159,0,0)" opacity="1"/>
			</linearGradient>
		</defs>
		<path style="fill:url(#GRAD_2);stroke-width:0"
		 d="M161.149994,141.399994 L161.050003,141.399994 L163.500000,131.100006 L252.300003,152.350006 L161.199997,141.449997 L161.149994,141.399994 "/>
		<defs>
			<linearGradient id="GRAD_3" gradientUnits="userSpaceOnUse" x1="161.110000" y1="141.420000" x2="247.760000" y2="167.700000">
			<stop offset="0" style="stop-color:rgb(111,0,0)" opacity="1"/>
			<stop offset="1" style="stop-color:rgb(159,0,0)" opacity="1"/>
			</linearGradient>
		</defs>
		<path style="fill:url(#GRAD_3);stroke-width:0"
		 d="M252.300003,152.350006 L252.199997,153.100006 L245.199997,176.250000 L161.199997,141.449997 L252.300003,152.350006 "/>
		<path style="fill:rgb(0,203,203);opacity:1;stroke-width:0"
		 d="M149.800003,156.550003 L149.600006,156.350006 L150.000000,155.949997 L156.899994,148.649994 L181.399994,171.850006 L188.050003,178.100006 L195.149994,184.800003 L200.000000,189.449997 L208.899994,197.850006 L223.199997,211.500000 L205.000000,228.550003 L193.000000,212.949997 L184.800003,202.300003 L181.500000,198.000000 L177.100006,192.250000 L170.199997,183.199997 L170.000000,183.050003 L149.800003,156.550003 "/>
	</g>
</svg>