<?xml version="1.0" encoding="iso-8859-1"?>
<!DOCTYPE svg PUBLIC "-//W3C//DTD SVG 20000303 Stylable//EN"
"http://www.w3.org/TR/2000/03/WD-SVG-20000303/DTD/svg-20000303-stylable.dtd">
<!-- Generator: --> 
<svg width="512pt" height="512pt" viewBox="0 0 512 512">
	<g  id="FRAME_0" style="visibility:visible" fill-rule="evenodd">
		<path style="fill:rgb(51,50,50);opacity:1;stroke-width:0"
		 d="M453.250000,498.250000 L58.000000,498.250000 Q42.500000,498.000000 26.750000,484.250000 Q12.750000,467.500000 12.750000,453.250000 L12.750000,13.000000 L450.500000,13.000000 Q469.500000,12.750000 484.250000,27.000000 Q498.250000,43.250000 498.250000,58.000000 L498.250000,452.000000 Q492.750000,493.250000 453.250000,498.250000 "/>
		<path style="stroke:rgb(92,135,165);stroke-width:17.300000;stroke-linecap:round;stroke-linejoin:round;fill:none"
		 d="M58.000000,498.250000 Q42.500000,498.000000 26.750000,484.250000 Q12.750000,467.500000 12.750000,453.250000 L12.750000,13.000000 L450.500000,13.000000 Q469.500000,12.750000 484.250000,27.000000 Q498.250000,43.250000 498.250000,58.000000 L498.250000,452.000000 Q492.750000,493.250000 453.250000,498.250000 L58.000000,498.250000 		"/>
	</g>
</svg>