<?xml version="1.0" encoding="UTF-8" standalone="no"?>
<!-- Generator: -->

<svg
   width="256pt"
   height="256pt"
   viewBox="0 0 256 256"
   version="1.1"
   id="svg22263"
   sodipodi:docname="app_icon.svg"
   inkscape:version="1.1 (c68e22c387, 2021-05-23)"
   xmlns:inkscape="http://www.inkscape.org/namespaces/inkscape"
   xmlns:sodipodi="http://sodipodi.sourceforge.net/DTD/sodipodi-0.dtd"
   xmlns="http://www.w3.org/2000/svg"
   xmlns:svg="http://www.w3.org/2000/svg">
  <defs
     id="defs22267" />
  <sodipodi:namedview
     id="namedview22265"
     pagecolor="#505050"
     bordercolor="#eeeeee"
     borderopacity="1"
     inkscape:pageshadow="0"
     inkscape:pageopacity="0"
     inkscape:pagecheckerboard="0"
     inkscape:document-units="pt"
     showgrid="false"
     inkscape:zoom="1"
     inkscape:cx="214.5"
     inkscape:cy="330.5"
     inkscape:window-width="1920"
     inkscape:window-height="1177"
     inkscape:window-x="1912"
     inkscape:window-y="-8"
     inkscape:window-maximized="1"
     inkscape:current-layer="svg22263" />
  <path
     id="rect27842"
     style="fill:#444444;stroke:#444444;stroke-width:13.9614;stroke-linejoin:round"
     d="M 43.592945,42.678958 H 209.59852 V 215.2047 H 43.592945 Z" />
  <g
     id="FRAME_0"
     style="visibility:visible"
     fill-rule="evenodd"
     transform="matrix(1.1161979,0,0,1.1161979,-14.884441,-14.928053)">
    <g
       id="g26538">
      <path
         style="opacity:1;fill:#2bbbd7;stroke-width:0"
         d="m 29.166639,54.75357 h -8 C 20.733638,19.816188 20.79253,19.682223 56.166637,19.753572 v 8 C 29.61554,27.790952 29.660236,28.201575 29.166639,54.75357 m 200.088481,0.247982 c 0.33434,-27.284748 0.40427,-27.356743 -26.85001,-26.999998 l -0.14999,-8 c 35.60319,-0.166641 35.61032,-0.148309 35,34.999998 h -8 M 70.336768,153.67046 70.48677,151.32045 h 26 6 l 0.25,7.75 -0.15,24.35001 h -0.35 -31.900002 v -29.75 m 61.400002,6.75 h 56.25 l -0.25,13.89999 h -69.5 l -0.15,-12.89999 -0.25,-0.25 0.25,-0.5 13.65,-0.25 M 93.713113,173.8069 c -0.213358,-6.91786 -0.106428,-5.93715 0,-12.8549 l -14.098745,-0.16798 v 12.8549 m 122.369272,55.42392 v -0.5 c 26.71283,0.30536 26.85931,0.01 27,-26.89999 2.64498,-0.24826 5.34008,-0.10001 8,-0.10001 0.62719,35.4596 0.50357,35.54471 -35,34.85001 v -7.35001 m -145.667349,7.35001 c -35.237248,0.39685 -35.370089,0.37076 -34.999998,-34.85001 h 8 c 0.0386,26.57401 0.854618,26.59639 26.9,27 l 0.1,7.85001"
         id="path22252"
         sodipodi:nodetypes="cccccccccccccccccccccccccccccccccccccccccc" />
      <path
         style="opacity:1;fill:#b2ebff;stroke-width:0"
         d="m 117.83677,76.320452 0.25,-0.5 69.9,-0.25 v 11.75 1.849998 l -0.39999,0.25 h -69.35001 l -0.15,-12.849998 -0.25,-0.25 M 93.767258,88.214776 V 75.023919 H 78.818719 V 88.214776 H 93.767258 M 70.23677,65.17045 l 0.25,-0.5 h 32 l 0.25,0.75 -0.15,31.400002 H 70.336768 l -0.1,-31.650002"
         id="path22256"
         sodipodi:nodetypes="ccccccccccccccccccccc" />
      <path
         style="opacity:1;fill:#2c2c2c;stroke-width:0"
         d="m 118.08677,76.570452 0.15,12.849998 h 69.35001 l -6.60001,11.99999 -0.39999,0.15001 -69.35001,0.34999 0.1,-1 V 87.320452 l 6.5,-11 0.25,0.25 m -47.85,-11.400002 0.1,31.650002 h 32.25 l -6.25,11.249998 h -26 v 2.25 29.85 h 31.9 l -5.749998,11.15 h -26 l -0.150002,2.35 v 29.75 h 31.9 l -7.65,12.9 -22.849998,0.25 -8.900002,-0.15 -0.25,-31.5 6.5,-11.35 -6.349998,-0.25 -0.25,-23.15 0.1,-8.75001 6.5,-11.25 -6.25,-0.25 -0.25,-30.99999 0.150002,-1.25 7.5,-12.5 m 47.599996,52.74999 0.25,0.25 0.15,12.90001 h 69.5 l -6.89999,12.1 -49.10001,0.25 -16.15,0.15 h -4.1 l -0.15,-1 v -13.65 l 6.5,-11.00001 m 0,43.25001 0.25,0.25 0.15,12.9 h 69.5 l -7.14999,12.1 -49.00001,0.25 -20.35,0.15 0.1,-1 v -13.65 l 6.5,-11"
         id="path22258"
         sodipodi:nodetypes="ccccccccccccccccccccccccccccccccccccccccccccccccccccccccc" />
      <path
         style="opacity:1;fill:#7cdef8;stroke-width:0"
         d="m 70.336768,110.32045 v -2.25 h 26 6.150002 l 0.1,24.25 v 6.75 1.1 h -0.35 -31.900002 v -29.85 m 47.500002,7.59999 0.25,-0.5 69.9,-0.25 -0.25,13.90001 h -69.5 l -0.15,-12.90001 -0.25,-0.25 M 93.955618,131.39679 V 117.36602 H 78.769519 v 14.03077 h 15.186099"
         id="path22260"
         sodipodi:nodetypes="cccccccccccccccccccccc" />
    </g>
  </g>
  <path
     style="visibility:visible;fill:#2bbbd7;fill-opacity:1;fill-rule:evenodd;stroke-width:0"
     d="m 186.60006,214.26728 c 12.89955,-2.07298 20.28231,-10.06263 22.14828,-23.96894 V 65.563064 c -0.40565,-5.873474 -2.6367,-11.142326 -6.69316,-15.806555 -6.6526,-5.959847 -12.33165,-8.551085 -17.03715,-7.773714 H 65.592067 c -4.056465,0 -8.478011,1.857054 -13.264639,5.571163 -6.571471,6.478095 -9.573254,13.43125 -9.005349,20.859467 l 0.121694,123.310085 c 0.08113,4.23236 2.231055,9.11253 6.449777,14.64051 4.786627,4.92335 10.019466,7.55777 15.698517,7.90326 H 186.60006 m 1.51983,17.8312 -126.318274,-0.12957 C 50.281257,230.41417 41.803248,225.87951 36.367588,218.36492 31.662089,212.05957 28.903694,205.1496 28.092401,197.63501 L 27.970707,59.910691 C 28.295224,49.545738 33.122416,40.174093 42.452281,31.795756 49.023753,26.699654 56.041436,24.151603 63.50533,24.151603 H 187.8765 c 9.49212,-0.431873 18.65973,4.405106 27.50283,14.510935 4.78663,6.132597 7.42333,13.906311 7.9101,23.321144 l -0.24337,135.521758 c -2.35276,19.52067 -13.99482,31.05168 -34.92617,34.59304"
     id="path23952"
     sodipodi:nodetypes="cccccsccccccccccccsccccc" />
</svg>
