<?xml version="1.0" encoding="iso-8859-1"?>
<!DOCTYPE svg PUBLIC "-//W3C//DTD SVG 20000303 Stylable//EN"
"http://www.w3.org/TR/2000/03/WD-SVG-20000303/DTD/svg-20000303-stylable.dtd">
<!-- Generator: --> 
<svg width="128pt" height="128pt" viewBox="0 0 128 128">
	<g  id="FRAME_0" style="visibility:visible" fill-rule="evenodd">
		<path style="fill:rgb(191,186,174);opacity:1;stroke-width:0"
		 d="M22.750000,5.100000 L22.750000,9.100000 L9.100000,9.100000 L9.100000,22.750000 L5.000000,22.750000 L5.000000,5.100000 L22.750000,5.100000 M117.849998,22.750000 L117.849998,9.100000 L104.349998,9.100000 L104.250000,5.100000 L122.000000,5.100000 L122.000000,22.750000 L117.849998,22.750000 M56.349998,40.000000 L56.500000,39.500000 L56.599998,39.099998 L91.849998,39.099998 L91.599998,46.099998 L56.599998,46.099998 L56.500000,40.349998 L56.349998,40.000000 M35.500000,47.000000 L45.849998,47.000000 L45.849998,36.500000 L35.500000,36.500000 L35.500000,47.000000 M32.500000,49.750000 L32.750000,49.000000 L32.500000,34.099998 L32.599998,33.599998 L48.750000,33.599998 L48.599998,49.750000 L32.500000,49.750000 M32.599998,56.599998 L32.750000,55.500000 L45.750000,55.500000 L48.750000,55.500000 L48.849998,63.599998 L48.750000,71.599998 L32.500000,71.599998 L32.599998,56.599998 M56.250000,61.000000 Q56.150002,60.099998 57.849998,60.099998 L91.599998,60.099998 L91.849998,63.599998 L91.599998,67.000000 L56.599998,67.000000 L56.500000,61.250000 L56.250000,61.000000 M35.500000,63.599998 L35.500000,68.750000 L45.849998,68.750000 L45.849998,63.599998 L45.849998,58.349998 L35.500000,58.349998 L35.500000,63.599998 M19.100000,19.100000 L19.100000,63.599998 L19.100000,96.349998 L19.250000,108.000000 L107.750000,108.000000 L101.250000,114.599998 L12.350000,114.599998 L12.350000,12.500000 L114.500000,12.500000 L114.599998,101.349998 L107.849998,107.849998 L107.750000,91.849998 L107.849998,63.599998 L107.750000,19.100000 L19.100000,19.100000 M32.599998,78.349998 L32.750000,77.250000 L45.750000,77.250000 L48.750000,77.250000 L49.000000,81.000000 L48.599998,93.349998 L32.500000,93.349998 L32.599998,78.349998 M56.500000,82.250000 Q60.000000,81.449997 91.849998,81.849998 L91.750000,88.750000 L56.599998,88.750000 L56.500000,83.000000 L56.250000,82.750000 L56.500000,82.250000 M35.500000,90.500000 L41.250000,90.500000 L45.849998,90.500000 L45.750000,85.099998 L45.849998,80.099998 L35.500000,80.099998 L35.500000,90.500000 M5.000000,122.000000 L5.000000,104.349998 L9.100000,104.349998 L9.000000,117.849998 L22.600000,118.000000 L22.750000,122.000000 L5.000000,122.000000 M104.250000,122.000000 L104.250000,118.250000 L117.849998,118.000000 L117.849998,104.349998 L122.000000,104.349998 L122.000000,122.000000 L104.250000,122.000000 "/>
		<path style="fill:rgb(70,70,70);opacity:1;stroke-width:0"
		 d="M56.349998,40.000000 L56.000000,40.099998 L53.250000,45.000000 L53.250000,51.500000 L53.099998,52.349998 L87.849998,52.250000 L88.349998,52.099998 L91.599998,46.099998 L91.849998,39.099998 L56.599998,39.099998 L56.500000,39.500000 L56.349998,40.000000 M35.500000,47.000000 L35.500000,36.500000 L45.849998,36.500000 L45.849998,47.000000 L35.500000,47.000000 M48.750000,33.599998 L32.599998,33.599998 L32.500000,34.099998 L28.750000,40.099998 L28.600000,41.349998 L28.850000,56.500000 L31.850000,56.599998 L28.600000,62.250000 L28.600000,63.599998 L28.850000,78.250000 L31.850000,78.349998 L28.600000,84.000000 L28.750000,99.500000 L29.100000,100.000000 L33.349998,100.000000 L44.849998,100.000000 L48.599998,93.349998 L49.000000,81.000000 L48.750000,77.250000 L45.750000,77.250000 L48.750000,71.599998 L48.849998,63.599998 L48.750000,55.500000 L45.750000,55.500000 L48.599998,49.750000 L48.750000,33.599998 M56.250000,61.000000 L54.500000,63.599998 L53.250000,66.000000 L53.250000,72.349998 L53.250000,73.349998 L55.349998,73.349998 L78.599998,73.250000 L88.250000,73.099998 L91.599998,67.000000 L91.849998,63.599998 L91.599998,60.099998 L57.849998,60.099998 Q56.150002,60.099998 56.250000,61.000000 M35.500000,63.599998 L35.500000,58.349998 L45.849998,58.349998 L45.849998,63.599998 L45.849998,68.750000 L35.500000,68.750000 L35.500000,63.599998 M19.100000,19.100000 L107.750000,19.100000 L107.849998,63.599998 L107.750000,91.849998 L107.849998,107.849998 L114.599998,101.349998 L114.599998,114.599998 L101.250000,114.599998 L107.750000,108.000000 L19.250000,108.000000 L19.100000,96.349998 L19.100000,63.599998 L19.100000,19.100000 M56.500000,82.250000 L56.250000,82.750000 L53.250000,87.750000 L53.250000,94.099998 L53.099998,95.099998 L88.099998,94.849998 L91.750000,88.750000 L91.849998,81.849998 Q60.000000,81.449997 56.500000,82.250000 M104.250000,88.500000 L103.349998,89.099998 L88.750000,103.849998 L104.250000,103.849998 L104.250000,89.750000 L104.250000,88.500000 M35.500000,90.500000 L35.500000,80.099998 L45.849998,80.099998 L45.750000,85.099998 L45.849998,90.500000 L41.250000,90.500000 L35.500000,90.500000 "/>
		<path style="fill:rgb(44,44,44);opacity:1;stroke-width:0"
		 d="M56.349998,40.000000 L56.500000,40.349998 L56.599998,46.099998 L91.599998,46.099998 L88.349998,52.099998 L87.849998,52.250000 L53.099998,52.349998 L53.250000,51.500000 L53.250000,45.000000 L56.000000,40.099998 L56.349998,40.000000 M32.500000,49.750000 L48.599998,49.750000 L45.750000,55.500000 L32.750000,55.500000 L32.599998,56.599998 L32.500000,71.599998 L48.750000,71.599998 L45.750000,77.250000 L32.750000,77.250000 L32.599998,78.349998 L32.500000,93.349998 L48.599998,93.349998 L44.849998,100.000000 L33.349998,100.000000 L29.100000,100.000000 L28.750000,99.500000 L28.600000,84.000000 L31.850000,78.349998 L28.850000,78.250000 L28.600000,63.599998 L28.600000,62.250000 L31.850000,56.599998 L28.850000,56.500000 L28.600000,41.349998 L28.750000,40.099998 L32.500000,34.099998 L32.750000,49.000000 L32.500000,49.750000 M56.250000,61.000000 L56.500000,61.250000 L56.599998,67.000000 L91.599998,67.000000 L88.250000,73.099998 L78.599998,73.250000 L55.349998,73.349998 L53.250000,73.349998 L53.250000,72.349998 L53.250000,66.000000 L54.500000,63.599998 L56.250000,61.000000 M56.250000,82.750000 L56.500000,83.000000 L56.599998,88.750000 L91.750000,88.750000 L88.099998,94.849998 L53.099998,95.099998 L53.250000,94.099998 L53.250000,87.750000 L56.250000,82.750000 "/>
		<path style="fill:rgb(234,232,225);opacity:1;stroke-width:0"
		 d="M104.250000,88.500000 L104.250000,89.750000 L104.250000,103.849998 L88.750000,103.849998 L103.349998,89.099998 L104.250000,88.500000 "/>
		<path style="fill:rgb(30,30,30);opacity:0.490196;stroke-width:0"
		 d="M19.600000,19.100000 L63.599998,19.100000 L70.250000,19.100000 L107.349998,19.100000 L107.849998,19.100000 L107.599998,19.500000 L108.000000,21.100000 L107.750000,56.599998 L107.849998,63.599998 L108.000000,64.500000 L107.750000,91.849998 L107.750000,107.750000 L107.750000,108.000000 L64.000000,108.000000 L63.599998,108.000000 L56.849998,108.000000 L19.600000,108.000000 L19.100000,108.000000 L19.000000,106.000000 L19.100000,96.349998 L19.250000,86.099998 L19.100000,63.599998 L19.000000,21.100000 L19.100000,19.500000 L19.100000,19.100000 L19.600000,19.100000 M21.500000,21.600000 L21.500000,63.599998 L21.600000,80.250000 L21.350000,81.500000 L21.500000,98.500000 L21.500000,105.500000 L54.349998,105.500000 L63.599998,105.500000 L105.349998,105.500000 L105.250000,105.099998 L105.500000,90.599998 L105.500000,63.599998 L105.500000,54.599998 L105.349998,54.250000 L105.349998,21.600000 L72.599998,21.600000 L63.599998,21.600000 L21.500000,21.600000 "/>
	</g>
</svg>