<?xml version="1.0" encoding="iso-8859-1"?>
<!DOCTYPE svg PUBLIC "-//W3C//DTD SVG 20000303 Stylable//EN"
"http://www.w3.org/TR/2000/03/WD-SVG-20000303/DTD/svg-20000303-stylable.dtd">
<!-- Generator: --> 
<svg width="256pt" height="256pt" viewBox="0 0 256 256">
	<g  id="FRAME_0" style="visibility:visible" fill-rule="evenodd">
		<path style="fill:rgb(127,127,127);opacity:1;stroke-width:0"
		 d="M115.750000,211.250000 Q117.000000,214.000000 133.000000,213.250000 L138.500000,211.750000 L140.250000,210.000000 L234.000000,112.250000 L236.250000,108.750000 Q253.500000,80.750000 239.500000,57.500000 Q231.500000,43.500000 212.500000,42.000000 L176.000000,43.250000 L171.750000,45.000000 L161.250000,52.750000 L135.500000,82.500000 Q132.750000,85.500000 130.750000,85.500000 L124.250000,85.500000 L121.000000,84.000000 L92.250000,51.500000 L82.000000,44.250000 L78.750000,43.250000 Q26.500000,38.250000 22.250000,49.750000 Q-3.250000,71.000000 20.750000,112.000000 L115.750000,211.250000 M134.500000,216.250000 L120.750000,216.250000 Q117.500000,216.250000 115.000000,214.750000 L64.750000,162.750000 L30.250000,126.500000 L16.250000,110.750000 Q-7.750000,68.750000 25.500000,43.500000 L29.750000,41.500000 L40.500000,39.000000 L80.250000,40.250000 L83.250000,41.250000 L94.750000,49.500000 L121.500000,80.500000 L125.250000,82.500000 L129.500000,82.500000 L133.250000,80.500000 L159.250000,50.500000 L165.750000,45.000000 L171.250000,41.500000 L175.750000,40.000000 L214.000000,39.000000 Q228.250000,38.250000 241.500000,55.250000 Q257.250000,83.750000 239.000000,110.250000 L236.500000,114.000000 L148.000000,206.500000 L140.000000,214.750000 L134.500000,216.250000 "/>
		<path style="fill:rgb(252,64,56);opacity:1;stroke-width:0"
		 d="M115.750000,211.250000 L20.750000,112.000000 Q-3.250000,71.000000 22.250000,49.750000 Q26.500000,38.250000 78.750000,43.250000 L82.000000,44.250000 L92.250000,51.500000 L121.000000,84.000000 L124.250000,85.500000 L130.750000,85.500000 Q132.750000,85.500000 135.500000,82.500000 L161.250000,52.750000 L171.750000,45.000000 L176.000000,43.250000 L212.500000,42.000000 Q231.500000,43.500000 239.500000,57.500000 Q253.500000,80.750000 236.250000,108.750000 L234.000000,112.250000 L140.250000,210.000000 L138.500000,211.750000 L133.000000,213.250000 Q117.000000,214.000000 115.750000,211.250000 "/>
	</g>
</svg>