<?xml version="1.0" encoding="UTF-8" standalone="no"?>
<!-- Generator: -->

<svg
   width="256pt"
   height="256pt"
   viewBox="0 0 256 256"
   version="1.1"
   id="svg7"
   sodipodi:docname="heart_disabled.svg"
   inkscape:version="1.1 (c68e22c387, 2021-05-23)"
   xmlns:inkscape="http://www.inkscape.org/namespaces/inkscape"
   xmlns:sodipodi="http://sodipodi.sourceforge.net/DTD/sodipodi-0.dtd"
   xmlns="http://www.w3.org/2000/svg"
   xmlns:svg="http://www.w3.org/2000/svg">
  <defs
     id="defs11" />
  <sodipodi:namedview
     id="namedview9"
     pagecolor="#505050"
     bordercolor="#eeeeee"
     borderopacity="1"
     inkscape:pageshadow="0"
     inkscape:pageopacity="0"
     inkscape:pagecheckerboard="0"
     inkscape:document-units="pt"
     showgrid="false"
     inkscape:zoom="2.2060547"
     inkscape:cx="169.08012"
     inkscape:cy="161.60071"
     inkscape:window-width="1920"
     inkscape:window-height="1147"
     inkscape:window-x="-8"
     inkscape:window-y="-8"
     inkscape:window-maximized="1"
     inkscape:current-layer="FRAME_0" />
  <g
     id="FRAME_0"
     style="visibility:visible"
     fill-rule="evenodd">
    <path
       style="opacity:1;fill:rgb(105, 105, 105);stroke-width:5;stroke:#bfbfbf;stroke-opacity:1;stroke-miterlimit:4;stroke-dasharray:none"
       d="M 115.75,211.25 20.75,112 c -16,-27.333333 -15.1175299,-48.423307 1.5,-62.25 7.210491,-6.561753 21.666667,-9.833333 56.5,-6.5 l 3.25,1 10.25,7.25 28.75,32.5 3.25,1.5 h 6.5 c 1.33333,0 2.91667,-1 4.75,-3 L 161.25,52.75 171.75,45 176,43.25 212.5,42 c 12.66667,1 21.66667,6.166667 27,15.5 9.33333,15.5 8.25,32.583333 -3.25,51.25 l -2.25,3.5 -93.75,97.75 -1.75,1.75 c -4.8588,1.8958 -21.11714,2.36081 -22.75,-0.5"
       id="path4"
       sodipodi:nodetypes="ccccccccsccccccccccc" />
  </g>
</svg>
