<?xml version="1.0" encoding="iso-8859-1"?>
<!DOCTYPE svg PUBLIC "-//W3C//DTD SVG 20000303 Stylable//EN"
"http://www.w3.org/TR/2000/03/WD-SVG-20000303/DTD/svg-20000303-stylable.dtd">
<!-- Generator: --> 
<svg width="128pt" height="128pt" viewBox="0 0 128 128">
	<g  id="FRAME_0" style="visibility:visible" fill-rule="evenodd">
		<path style="fill:rgb(158,158,158);opacity:1;stroke-width:0"
		 d="M7.200000,14.250000 L63.349998,14.250000 L63.400002,14.300000 L119.300003,14.250000 L119.400002,14.250000 L124.900002,14.300000 L124.900002,20.000000 L121.150002,20.000000 L120.900002,20.049999 L120.650002,20.150000 L120.400002,20.250000 L119.949997,20.549999 L119.699997,20.799999 L119.449997,21.049999 L119.300003,21.200001 L118.849998,21.500000 L118.800003,21.799999 L118.949997,22.049999 L118.599998,22.400000 L118.599998,22.700001 L118.500000,23.000000 L118.400002,23.350000 L118.750000,23.650000 L118.800003,24.000000 L118.800003,24.299999 L118.650002,24.600000 L119.000000,24.900000 L119.199997,25.200001 L119.349998,25.450001 L119.500000,25.700001 L119.699997,25.900000 L119.949997,26.150000 L120.400002,26.400000 L120.599998,26.549999 L120.900002,26.600000 L121.400002,26.650000 L124.900002,26.650000 L124.900002,32.400002 L124.900002,48.000000 L124.900002,48.000000 L124.900002,63.549999 L124.900002,79.099998 L124.900002,94.599998 L124.900002,100.349998 L121.150002,100.349998 L120.900002,100.400002 L120.599998,100.449997 L120.400002,100.599998 L119.949997,100.849998 L119.699997,101.099998 L119.449997,101.400002 L119.300003,101.550003 L118.900002,101.800003 L118.800003,102.099998 L118.949997,102.400002 L118.599998,102.699997 L118.599998,103.000000 L118.550003,103.349998 L118.400002,103.650002 L118.750000,104.000000 L118.599998,104.300003 L118.599998,104.599998 L118.949997,104.949997 L118.800003,105.199997 L118.849998,105.500000 L119.300003,105.800003 L119.449997,105.949997 L119.699997,106.199997 L119.949997,106.449997 L120.400002,106.750000 L120.599998,106.900002 L120.900002,106.949997 L121.400002,107.000000 L124.900002,107.000000 L124.900002,112.699997 L119.400002,112.750000 L119.400002,112.750000 L119.349998,112.750000 L119.250000,112.750000 L63.450001,112.750000 L63.400002,112.750000 L63.400002,112.750000 L63.349998,112.750000 L7.200000,112.750000 L1.850000,112.750000 L1.850000,112.599998 L1.850000,112.550003 L1.800000,107.000000 L5.250000,107.000000 L5.750000,106.949997 L6.000000,106.849998 L6.600000,106.750000 L6.750000,106.500000 L6.950000,106.349998 L7.150000,106.150002 L7.250000,105.949997 L7.550000,105.500000 L7.650000,105.199997 L7.800000,104.949997 L7.850000,104.599998 L7.950000,104.300003 L7.950000,104.000000 L8.000000,103.650002 L7.950000,103.349998 L7.950000,103.000000 L7.850000,102.699997 L7.800000,102.400002 L7.650000,102.099998 L7.550000,101.800003 L7.400000,101.550003 L7.200000,101.300003 L6.950000,101.000000 L6.750000,100.800003 L6.500000,100.650002 L6.000000,100.449997 L5.750000,100.400002 L5.250000,100.349998 L1.800000,100.349998 L1.850000,94.800003 L1.800000,94.599998 L1.800000,79.000000 L1.850000,78.699997 L1.800000,63.500000 L1.850000,63.200001 L1.800000,48.000000 L1.850000,32.650002 L1.850000,32.250000 L1.800000,26.650000 L5.250000,26.650000 L5.750000,26.600000 L6.000000,26.549999 L6.600000,26.400000 L6.750000,26.200001 L6.950000,26.000000 L7.150000,25.799999 L7.250000,25.600000 L7.550000,25.200001 L7.650000,24.900000 L7.800000,24.600000 L7.850000,24.299999 L7.950000,24.000000 L7.950000,23.650000 L8.000000,23.350000 L7.950000,23.000000 L7.850000,22.400000 L7.800000,22.049999 L7.650000,21.799999 L7.550000,21.500000 L7.400000,21.200001 L7.300000,21.049999 L7.250000,21.000000 L6.950000,20.650000 L6.750000,20.500000 L6.500000,20.350000 L6.000000,20.150000 L5.750000,20.049999 L5.250000,20.000000 L1.800000,20.000000 L1.850000,14.450000 L1.850000,14.400000 L7.200000,14.250000 M17.350000,20.000000 L17.250000,20.000000 L16.600000,20.100000 L16.400000,20.200001 L15.950000,20.400000 L15.700000,20.600000 L15.500000,20.799999 L15.350000,21.000000 L15.150000,21.200001 L15.000000,21.500000 L14.850000,21.799999 L14.750000,22.049999 L14.650000,22.400000 L14.350000,22.700001 L14.250000,23.000000 L14.550000,23.650000 L14.600000,24.000000 L14.650000,24.299999 L14.400000,24.600000 L14.850000,24.900000 L15.000000,25.200001 L14.800000,25.450001 L15.350000,25.700001 L15.500000,25.900000 L15.700000,26.100000 L15.950000,26.250000 L16.150000,26.400000 L16.500000,26.600000 L16.600000,26.600000 L16.650000,26.600000 L17.250000,26.650000 L20.799999,26.650000 L24.200001,26.650000 L24.650000,26.600000 L24.950001,26.549999 L25.200001,26.400000 L25.450001,26.250000 L25.650000,26.100000 L25.850000,25.900000 L26.049999,25.700001 L26.200001,25.450001 L26.400000,25.200001 L26.549999,24.900000 L26.600000,24.600000 L26.750000,24.299999 L26.799999,24.000000 L26.799999,23.650000 L26.799999,23.350000 L26.799999,22.700001 L26.750000,22.400000 L26.600000,22.049999 L26.549999,21.799999 L26.400000,21.500000 L26.200001,21.200001 L26.049999,21.000000 L25.850000,20.799999 L25.650000,20.600000 L25.450001,20.400000 L25.200001,20.250000 L24.950001,20.150000 L24.700001,20.049999 L24.299999,20.000000 L20.799999,20.000000 L17.350000,20.000000 M38.400002,20.049999 L38.150002,20.150000 L37.849998,20.250000 L37.599998,20.400000 L37.400002,20.600000 L37.200001,20.799999 L37.000000,21.000000 L36.799999,21.200001 L36.650002,21.500000 L36.549999,21.799999 L36.400002,22.049999 L36.349998,22.400000 L36.250000,23.000000 L36.200001,23.350000 L36.250000,24.000000 L36.349998,24.299999 L36.400002,24.600000 L36.549999,24.900000 L36.650002,25.200001 L36.799999,25.450001 L37.000000,25.700001 L37.200001,25.900000 L37.400002,26.100000 L37.599998,26.250000 L37.849998,26.400000 L38.150002,26.549999 L38.750000,26.650000 L42.400002,26.650000 L45.849998,26.650000 L46.150002,26.650000 L46.599998,26.549999 L46.900002,26.400000 L47.099998,26.299999 L47.349998,26.100000 L47.599998,25.900000 L47.750000,25.700001 L47.950001,25.450001 L48.099998,25.200001 L48.200001,24.900000 L48.349998,24.600000 L48.400002,24.299999 L48.450001,24.000000 L48.500000,23.650000 L48.549999,23.350000 L48.500000,23.000000 L48.450001,22.700001 L48.400002,22.400000 L48.349998,22.049999 L48.200001,21.799999 L48.099998,21.500000 L47.900002,21.200001 L47.750000,21.000000 L47.599998,20.799999 L47.349998,20.600000 L47.150002,20.400000 L46.849998,20.250000 L46.599998,20.150000 L46.349998,20.049999 L45.849998,20.000000 L42.400002,20.000000 L39.000000,20.000000 L38.400002,20.049999 M60.299999,20.000000 L60.049999,20.049999 L59.799999,20.150000 L59.400002,20.350000 L59.299999,20.400000 L59.099998,20.600000 L58.900002,20.799999 L58.700001,21.000000 L58.549999,21.200001 L58.400002,21.500000 L58.200001,21.799999 L58.150002,22.049999 L58.000000,22.400000 L58.000000,22.700001 L57.950001,23.350000 L57.950001,23.650000 L58.000000,24.000000 L58.000000,24.299999 L58.150002,24.600000 L58.200001,24.900000 L58.400002,25.200001 L58.549999,25.450001 L58.700001,25.700001 L58.900002,25.900000 L59.099998,26.100000 L59.299999,26.250000 L59.599998,26.400000 L59.799999,26.549999 L60.349998,26.650000 L63.500000,26.650000 L64.199997,26.650000 L67.699997,26.650000 L68.050003,26.600000 L68.599998,26.400000 L68.800003,26.299999 L69.050003,26.100000 L69.250000,25.950001 L69.400002,25.700001 L69.599998,25.450001 L69.800003,25.200001 L69.949997,24.900000 L70.000000,24.600000 L70.099998,24.299999 L70.199997,24.000000 L70.199997,23.650000 L70.199997,23.350000 L70.199997,22.700001 L70.099998,22.400000 L70.000000,22.049999 L69.949997,21.799999 L69.800003,21.500000 L69.599998,21.200001 L69.400002,21.000000 L69.250000,20.799999 L69.050003,20.600000 L68.800003,20.400000 L68.599998,20.250000 L68.300003,20.150000 L67.699997,20.000000 L64.250000,20.000000 L63.500000,20.000000 L60.299999,20.000000 M82.300003,20.000000 L81.400002,20.200001 L81.000000,20.400000 L80.750000,20.600000 L80.599998,20.799999 L80.349998,21.000000 L80.199997,21.200001 L80.050003,21.500000 L79.949997,21.799999 L79.800003,22.049999 L79.750000,22.400000 L79.650002,22.700001 L79.599998,23.350000 L79.599998,23.650000 L79.650002,24.000000 L79.750000,24.299999 L79.800003,24.600000 L79.949997,24.900000 L80.050003,25.200001 L80.199997,25.450001 L80.349998,25.700001 L80.599998,25.900000 L80.750000,26.100000 L80.949997,26.250000 L81.199997,26.400000 L81.599998,26.600000 L81.699997,26.600000 L82.300003,26.650000 L85.800003,26.650000 L89.300003,26.650000 L89.750000,26.600000 L90.000000,26.549999 L90.250000,26.400000 L90.550003,26.250000 L90.750000,26.100000 L90.949997,25.900000 L91.150002,25.700001 L91.300003,25.450001 L91.449997,25.200001 L91.599998,24.900000 L91.699997,24.600000 L91.800003,24.299999 L91.849998,24.000000 L91.900002,23.650000 L91.900002,23.350000 L91.849998,22.700001 L91.800003,22.400000 L91.699997,22.049999 L91.599998,21.799999 L91.449997,21.500000 L91.300003,21.200001 L91.150002,21.000000 L90.949997,20.799999 L90.750000,20.600000 L90.550003,20.400000 L90.250000,20.250000 L90.000000,20.150000 L89.800003,20.049999 L89.300003,20.000000 L85.849998,20.000000 L82.400002,20.000000 L82.300003,20.000000 M103.699997,20.000000 L103.599998,20.049999 L103.500000,20.049999 L103.199997,20.150000 L102.949997,20.250000 L102.699997,20.400000 L102.500000,20.600000 L102.250000,20.799999 L102.099998,21.000000 L101.900002,21.200001 L101.750000,21.500000 L101.599998,21.799999 L101.500000,22.049999 L101.400002,22.400000 L101.349998,23.000000 L101.300003,23.350000 L101.349998,24.000000 L101.400002,24.299999 L101.500000,24.600000 L101.599998,24.900000 L101.750000,25.200001 L101.900002,25.450001 L102.099998,25.700001 L102.250000,25.900000 L102.500000,26.100000 L102.699997,26.250000 L102.949997,26.400000 L103.199997,26.549999 L103.599998,26.600000 L103.699997,26.650000 L104.000000,26.650000 L107.449997,26.650000 L110.949997,26.650000 L111.199997,26.650000 L111.699997,26.549999 L111.949997,26.400000 L112.199997,26.299999 L112.400002,26.150000 L112.599998,26.000000 L112.800003,25.750000 L113.000000,25.500000 L113.199997,25.200001 L113.300003,24.900000 L113.400002,24.600000 L113.500000,24.299999 L113.599998,24.000000 L113.599998,23.650000 L113.599998,23.350000 L113.599998,23.000000 L113.550003,22.700001 L113.500000,22.400000 L113.400002,22.049999 L113.300003,21.799999 L113.199997,21.500000 L113.000000,21.200001 L112.800003,20.950001 L112.599998,20.700001 L112.400002,20.549999 L112.199997,20.400000 L111.949997,20.250000 L111.699997,20.150000 L111.400002,20.049999 L110.949997,20.000000 L107.449997,20.000000 L104.000000,20.000000 L103.750000,20.000000 L103.699997,20.000000 M7.200000,32.400002 L7.300000,32.450001 L7.200000,47.599998 L7.200000,48.000000 L7.200000,48.200001 L7.250000,63.500000 L7.200000,63.750000 L7.250000,79.000000 L7.200000,79.400002 L7.250000,94.599998 L7.300000,94.599998 L7.400000,94.599998 L63.450001,94.599998 L63.549999,94.599998 L119.250000,94.599998 L119.349998,94.599998 L119.400002,94.699997 L119.449997,94.599998 L119.400002,79.050003 L119.449997,79.000000 L119.400002,63.549999 L119.449997,63.500000 L119.349998,48.000000 L119.400002,47.950001 L119.500000,32.700001 L119.400002,32.400002 L119.349998,32.400002 L119.250000,32.400002 L63.500000,32.400002 L63.400002,32.400002 L63.349998,32.400002 L7.200000,32.400002 M16.950001,100.349998 L16.450001,100.449997 L16.200001,100.550003 L15.950000,100.699997 L15.700000,100.849998 L15.500000,101.050003 L15.300000,101.250000 L15.150000,101.550003 L15.000000,101.800003 L14.850000,102.099998 L14.400000,102.400002 L14.650000,102.699997 L14.600000,103.000000 L14.550000,103.650002 L14.550000,104.000000 L14.600000,104.300003 L14.650000,104.599998 L14.450000,104.949997 L14.850000,105.199997 L15.000000,105.500000 L14.850000,105.800003 L15.350000,106.000000 L15.500000,106.199997 L15.700000,106.400002 L15.950000,106.599998 L16.150000,106.750000 L16.549999,106.900002 L16.600000,106.949997 L16.650000,106.949997 L17.250000,107.000000 L20.799999,107.000000 L24.250000,107.000000 L24.650000,106.949997 L25.200001,106.750000 L25.450001,106.599998 L25.650000,106.400002 L25.850000,106.199997 L26.049999,106.000000 L26.200001,105.800003 L26.400000,105.500000 L26.549999,105.199997 L26.600000,104.949997 L26.750000,104.599998 L26.799999,104.300003 L26.799999,104.000000 L26.799999,103.650002 L26.799999,103.000000 L26.750000,102.699997 L26.600000,102.400002 L26.549999,102.099998 L26.400000,101.800003 L26.200001,101.550003 L26.049999,101.300003 L25.850000,101.099998 L25.650000,100.900002 L25.450001,100.750000 L25.200001,100.599998 L24.950001,100.449997 L24.650000,100.400002 L24.500000,100.349998 L24.400000,100.349998 L24.200001,100.349998 L20.650000,100.349998 L16.950001,100.349998 M38.599998,100.349998 L38.200001,100.400002 L38.150002,100.449997 L37.849998,100.599998 L37.599998,100.750000 L37.400002,100.900002 L37.200001,101.099998 L37.000000,101.300003 L36.799999,101.550003 L36.650002,101.800003 L36.549999,102.099998 L36.400002,102.400002 L36.349998,102.699997 L36.000000,103.000000 L36.250000,103.349998 L36.200001,103.650002 L36.250000,104.300003 L36.349998,104.599998 L36.400002,104.949997 L36.549999,105.199997 L36.650002,105.500000 L36.799999,105.800003 L37.000000,106.000000 L37.200001,106.199997 L37.400002,106.400002 L37.599998,106.599998 L37.849998,106.750000 L38.049999,106.849998 L38.250000,106.900002 L38.750000,107.000000 L38.950001,107.000000 L42.400002,107.000000 L45.849998,107.000000 L46.150002,107.000000 L46.599998,106.849998 L46.849998,106.750000 L47.099998,106.599998 L47.349998,106.400002 L47.599998,106.199997 L47.750000,106.000000 L47.900002,105.800003 L48.099998,105.500000 L48.200001,105.199997 L48.349998,104.949997 L48.400002,104.599998 L48.450001,104.300003 L48.500000,104.000000 L48.549999,103.650002 L48.500000,103.349998 L48.450001,103.000000 L48.400002,102.699997 L48.349998,102.400002 L48.200001,102.099998 L48.099998,101.800003 L48.000000,101.550003 L47.799999,101.300003 L47.599998,101.099998 L47.400002,100.900002 L47.200001,100.750000 L46.950001,100.599998 L46.750000,100.500000 L46.349998,100.400002 L45.849998,100.349998 L45.799999,100.349998 L42.250000,100.349998 L38.599998,100.349998 M60.299999,100.349998 L60.099998,100.400002 L59.799999,100.449997 L59.599998,100.599998 L59.299999,100.750000 L59.099998,100.900002 L58.900002,101.099998 L58.700001,101.300003 L58.549999,101.550003 L58.349998,101.800003 L58.099998,102.099998 L58.150002,102.400002 L58.000000,102.699997 L57.650002,103.000000 L57.950001,103.650002 L57.950001,104.000000 L58.000000,104.300003 L58.000000,104.599998 L58.150002,104.949997 L58.200001,105.199997 L58.400002,105.500000 L58.549999,105.800003 L58.700001,106.000000 L58.900002,106.199997 L59.099998,106.400002 L59.299999,106.599998 L59.599998,106.750000 L59.799999,106.849998 L60.099998,106.949997 L60.549999,107.000000 L63.500000,107.000000 L64.150002,107.000000 L67.699997,107.000000 L68.050003,106.949997 L68.599998,106.750000 L68.800003,106.599998 L69.050003,106.400002 L69.250000,106.250000 L69.400002,106.000000 L69.599998,105.800003 L69.800003,105.500000 L69.949997,105.199997 L70.000000,104.949997 L70.099998,104.599998 L70.199997,104.300003 L70.199997,104.000000 L70.199997,103.650002 L70.199997,103.000000 L70.099998,102.699997 L70.000000,102.400002 L69.949997,102.099998 L69.800003,101.800003 L69.599998,101.550003 L69.400002,101.300003 L69.250000,101.099998 L69.050003,100.900002 L68.800003,100.750000 L68.599998,100.599998 L68.300003,100.449997 L67.699997,100.349998 L64.199997,100.349998 L63.549999,100.349998 L60.549999,100.349998 L60.299999,100.349998 M82.300003,100.349998 L81.400002,100.500000 L81.199997,100.599998 L80.949997,100.750000 L80.750000,100.900002 L80.599998,101.099998 L80.349998,101.300003 L80.199997,101.550003 L80.050003,101.800003 L79.949997,102.099998 L79.800003,102.400002 L79.750000,102.699997 L79.349998,103.000000 L79.599998,103.650002 L79.599998,104.000000 L79.650002,104.300003 L79.750000,104.599998 L79.800003,104.949997 L79.949997,105.199997 L80.050003,105.500000 L80.199997,105.800003 L80.349998,106.000000 L80.599998,106.199997 L80.750000,106.400002 L81.000000,106.599998 L81.449997,106.800003 L81.699997,106.900002 L82.300003,107.000000 L85.800003,107.000000 L89.300003,107.000000 L89.750000,106.949997 L90.250000,106.750000 L90.550003,106.599998 L90.750000,106.400002 L90.949997,106.199997 L91.150002,106.000000 L91.300003,105.800003 L91.449997,105.500000 L91.599998,105.199997 L91.699997,104.949997 L91.800003,104.599998 L91.849998,104.300003 L91.900002,104.000000 L91.900002,103.650002 L91.849998,103.000000 L91.800003,102.699997 L91.699997,102.400002 L91.599998,102.099998 L91.449997,101.800003 L91.300003,101.550003 L91.150002,101.300003 L90.949997,101.099998 L90.750000,100.900002 L90.550003,100.750000 L90.250000,100.599998 L90.000000,100.449997 L89.750000,100.400002 L89.300003,100.349998 L85.849998,100.349998 L82.400002,100.349998 L82.300003,100.349998 M103.699997,100.349998 L103.599998,100.400002 L103.199997,100.449997 L102.949997,100.599998 L102.699997,100.750000 L102.500000,100.900002 L102.250000,101.099998 L102.099998,101.300003 L101.900002,101.550003 L101.750000,101.800003 L101.599998,102.099998 L101.500000,102.400002 L101.400002,102.699997 L101.050003,103.000000 L101.349998,103.349998 L101.300003,103.650002 L101.349998,104.300003 L101.400002,104.599998 L101.500000,104.949997 L101.599998,105.199997 L101.750000,105.500000 L101.900002,105.800003 L102.099998,106.000000 L102.250000,106.199997 L102.500000,106.400002 L102.699997,106.599998 L102.949997,106.750000 L103.150002,106.849998 L103.349998,106.900002 L103.599998,106.949997 L103.699997,107.000000 L104.000000,107.000000 L107.449997,107.000000 L110.949997,107.000000 L111.199997,107.000000 L111.699997,106.849998 L111.949997,106.750000 L112.199997,106.599998 L112.400002,106.449997 L112.599998,106.300003 L112.800003,106.050003 L113.000000,105.800003 L113.000000,105.800003 L113.199997,105.500000 L113.300003,105.199997 L113.400002,104.949997 L113.500000,104.599998 L113.550003,104.300003 L113.599998,104.000000 L113.599998,103.650002 L113.599998,103.349998 L113.550003,103.000000 L113.500000,102.699997 L113.400002,102.400002 L113.300003,102.099998 L113.199997,101.800003 L113.000000,101.550003 L112.800003,101.250000 L112.599998,101.000000 L112.400002,100.849998 L112.199997,100.699997 L111.949997,100.599998 L111.699997,100.449997 L111.400002,100.400002 L110.949997,100.349998 L107.449997,100.349998 L104.000000,100.349998 L103.750000,100.349998 L103.699997,100.349998 "/>
		<defs>
			<linearGradient id="GRAD_0" gradientUnits="userSpaceOnUse" x1="63.500000" y1="32.410000" x2="63.500000" y2="47.960000">
			<stop offset="0" style="stop-color:rgb(38,38,38)" opacity="1"/>
			<stop offset="1" style="stop-color:rgb(51,51,51)" opacity="1"/>
			</linearGradient>
		</defs>
		<path style="fill:url(#GRAD_0);stroke-width:0"
		 d="M7.200000,32.400002 L63.349998,32.400002 L63.400002,32.400002 L63.500000,32.400002 L119.250000,32.400002 L119.349998,32.400002 L119.400002,32.400002 L119.500000,32.700001 L119.400002,47.950001 L119.349998,48.000000 L63.750000,48.000000 L63.400002,47.799999 L56.099998,43.599998 L55.900002,43.500000 L55.799999,43.400002 L55.700001,43.400002 L55.599998,43.349998 L55.500000,43.250000 L55.400002,43.200001 L54.000000,42.400002 L53.599998,42.200001 L53.200001,42.099998 L52.599998,42.000000 L52.099998,42.099998 L51.650002,42.200001 L51.250000,42.400002 L50.849998,42.700001 L50.549999,43.000000 L50.299999,43.400002 L50.099998,43.799999 L50.099998,43.849998 L49.950001,44.200001 L7.300000,32.450001 L7.200000,32.400002 "/>
		<path style="fill:rgb(190, 186, 167);opacity:1;stroke-width:0"
		 d="M52.599998,42.000000 L53.200001,42.099998 L53.599998,42.200001 L53.500000,42.549999 L53.099998,43.200001 L53.000000,43.200001 L52.799999,43.200001 L52.549999,43.150002 L52.500000,43.150002 L52.349998,43.200001 L52.049999,43.250000 L52.049999,43.299999 L51.799999,43.349998 L51.799999,43.400002 L51.450001,43.450001 L51.599998,43.599998 L51.250000,43.700001 L51.400002,43.799999 L51.200001,44.000000 L51.099998,44.150002 L51.200001,44.250000 L50.950001,44.400002 L49.950001,44.200001 L50.099998,43.849998 L50.099998,43.799999 L50.299999,43.400002 L50.549999,43.000000 L50.849998,42.700001 L51.250000,42.400002 L51.650002,42.200001 L52.099998,42.099998 L52.599998,42.000000 M87.150002,61.799999 L87.349998,62.250000 L87.699997,62.599998 L87.650002,63.049999 L87.800003,63.500000 L87.800003,63.549999 L87.800003,64.000000 L87.500000,64.400002 L87.500000,64.849998 L87.199997,65.199997 L86.900002,65.550003 L86.699997,65.400002 L86.400002,64.800003 L86.199997,64.650002 L86.099998,64.750000 L86.400002,64.449997 L86.550003,64.199997 L86.599998,64.000000 L86.650002,63.750000 L86.699997,63.450001 L86.599998,63.049999 L86.599998,62.950001 L86.449997,62.750000 L86.349998,62.599998 L86.199997,62.400002 L86.150002,62.250000 L86.900002,61.450001 L87.150002,61.799999 M51.000000,82.599998 L51.150002,82.900002 L51.299999,83.150002 L51.400002,83.349998 L51.599998,83.550003 L51.900002,83.699997 L52.049999,83.800003 L52.150002,83.800003 L52.400002,83.800003 L52.900002,83.800003 L53.200001,83.800003 L53.200001,83.949997 L53.599998,84.800003 L53.150002,84.900002 L52.599998,85.000000 L52.099998,84.900002 L51.650002,84.800003 L51.250000,84.599998 L50.849998,84.300003 L50.849998,84.250000 L50.549999,84.000000 L50.299999,83.599998 L50.099998,83.199997 L50.099998,83.150002 L49.950001,82.800003 L50.000000,82.750000 L51.000000,82.599998 "/>
		<path style="fill:rgb(190, 186, 167);opacity:1;stroke-width:0"
		 d="M53.599998,42.200001 L54.000000,42.400002 L55.400002,43.200001 L55.500000,43.250000 L55.599998,43.349998 L55.700001,43.400002 L55.799999,43.400002 L55.900002,43.500000 L56.099998,43.599998 L63.400002,47.799999 L63.750000,48.000000 L81.800003,58.400002 L86.550003,61.200001 L86.900002,61.450001 L86.150002,62.250000 L85.900002,62.150002 L85.800003,62.049999 L85.750000,62.000000 L85.699997,62.000000 L85.500000,61.900002 L85.400002,61.849998 L85.349998,61.799999 L85.300003,61.799999 L85.250000,61.799999 L85.199997,61.799999 L85.199997,61.750000 L85.150002,61.750000 L85.050003,61.700001 L85.050003,61.650002 L85.000000,61.650002 L85.000000,61.599998 L84.949997,61.599998 L84.900002,61.599998 L84.849998,61.599998 L84.800003,61.549999 L84.800003,61.549999 L84.699997,61.450001 L84.599998,61.400002 L84.550003,61.400002 L84.500000,61.349998 L84.449997,61.349998 L84.400002,61.299999 L84.400002,61.299999 L84.349998,61.250000 L84.300003,61.250000 L84.250000,61.200001 L84.199997,61.200001 L84.150002,61.150002 L84.050003,61.099998 L84.000000,61.049999 L84.000000,61.049999 L83.949997,61.000000 L83.900002,61.000000 L83.849998,61.000000 L83.800003,61.000000 L83.750000,60.950001 L83.750000,60.900002 L83.699997,60.900002 L83.650002,60.849998 L83.599998,60.849998 L83.599998,60.799999 L83.550003,60.799999 L83.500000,60.799999 L83.449997,60.799999 L83.400002,60.700001 L83.300003,60.650002 L83.099998,60.549999 L83.000000,60.500000 L82.849998,60.400002 L82.800003,60.400002 L82.800003,60.400002 L82.599998,60.200001 L82.500000,60.200001 L82.449997,60.200001 L82.250000,60.049999 L82.000000,59.900002 L81.699997,59.750000 L81.400002,59.599998 L80.099998,58.799999 L79.800003,58.599998 L79.550003,58.450001 L79.050003,58.200001 L78.800003,58.000000 L78.500000,57.849998 L78.250000,57.750000 L78.050003,57.599998 L78.000000,57.599998 L77.800003,57.450001 L77.699997,57.400002 L77.500000,57.299999 L77.400002,57.250000 L77.300003,57.200001 L77.199997,57.150002 L77.150002,57.099998 L77.000000,57.000000 L76.949997,57.000000 L76.849998,56.950001 L76.750000,56.849998 L76.650002,56.799999 L76.599998,56.799999 L76.449997,56.700001 L76.400002,56.650002 L76.300003,56.599998 L76.199997,56.549999 L76.099998,56.500000 L76.000000,56.450001 L75.900002,56.400002 L75.800003,56.349998 L75.750000,56.299999 L75.599998,56.200001 L75.550003,56.200001 L75.449997,56.150002 L75.349998,56.049999 L75.250000,56.000000 L75.150002,55.950001 L75.050003,55.900002 L75.000000,55.849998 L74.849998,55.799999 L74.800003,55.750000 L74.699997,55.700001 L74.599998,55.599998 L74.500000,55.599998 L74.400002,55.549999 L74.300003,55.450001 L74.199997,55.400002 L74.000000,55.299999 L73.949997,55.250000 L73.750000,55.150002 L73.650002,55.099998 L73.449997,55.000000 L73.400002,54.950001 L73.199997,54.799999 L72.900002,54.650002 L72.650002,54.500000 L72.599998,54.500000 L68.199997,51.900002 L67.400002,51.450001 L67.150002,51.299999 L66.849998,51.150002 L66.400002,50.849998 L66.099998,50.700001 L65.800003,50.549999 L65.550003,50.400002 L65.349998,50.250000 L65.050003,50.099998 L64.800003,49.950001 L64.500000,49.799999 L64.300003,49.650002 L64.199997,49.599998 L64.000000,49.500000 L63.750000,49.349998 L63.450001,49.200001 L63.250000,49.049999 L63.200001,49.000000 L63.000000,48.900002 L62.900002,48.849998 L62.700001,48.750000 L62.400002,48.599998 L62.200001,48.450001 L62.150002,48.400002 L61.950001,48.299999 L61.849998,48.250000 L61.650002,48.150002 L61.599998,48.099998 L61.450001,48.000000 L61.400002,48.000000 L61.200001,47.849998 L61.099998,47.799999 L60.900002,47.700001 L60.799999,47.650002 L60.599998,47.549999 L60.549999,47.500000 L60.400002,47.400002 L60.349998,47.400002 L60.250000,47.349998 L60.150002,47.250000 L60.049999,47.200001 L59.849998,47.099998 L59.799999,47.049999 L59.599998,46.950001 L59.500000,46.900002 L59.400002,46.799999 L59.349998,46.799999 L59.299999,46.799999 L59.200001,46.750000 L59.099998,46.650002 L59.049999,46.650002 L59.000000,46.650002 L58.950001,46.599998 L58.799999,46.500000 L58.799999,46.500000 L58.750000,46.500000 L58.549999,46.349998 L58.500000,46.349998 L58.450001,46.349998 L58.349998,46.200001 L58.250000,46.200001 L58.200001,46.200001 L58.200001,46.200001 L58.049999,46.049999 L58.000000,46.000000 L57.950001,46.000000 L57.900002,46.000000 L57.799999,45.900002 L57.700001,45.849998 L57.650002,45.849998 L57.599998,45.849998 L57.500000,45.750000 L57.400002,45.700001 L57.299999,45.599998 L57.200001,45.599998 L57.150002,45.549999 L57.000000,45.450001 L56.950001,45.400002 L56.849998,45.400002 L56.750000,45.299999 L56.650002,45.250000 L56.549999,45.200001 L56.450001,45.150002 L56.400002,45.099998 L56.250000,45.000000 L56.200001,45.000000 L56.099998,44.950001 L56.000000,44.849998 L55.900002,44.799999 L55.799999,44.799999 L55.700001,44.700001 L55.599998,44.650002 L55.500000,44.599998 L55.400002,44.549999 L55.349998,44.500000 L55.200001,44.400002 L55.150002,44.400002 L55.049999,44.349998 L54.950001,44.250000 L54.849998,44.200001 L54.799999,44.200001 L54.650002,44.099998 L54.599998,44.049999 L54.450001,44.000000 L54.400002,43.950001 L54.299999,43.900002 L54.200001,43.799999 L54.099998,43.799999 L54.000000,43.750000 L53.900002,43.650002 L53.799999,43.599998 L53.750000,43.599998 L53.599998,43.500000 L53.549999,43.450001 L53.400002,43.400002 L53.400002,43.400002 L53.250000,43.299999 L53.099998,43.200001 L53.500000,42.549999 L53.599998,42.200001 M49.950001,44.200001 L50.950001,44.400002 L51.000000,44.500000 L51.099998,44.500000 L51.000000,44.799999 L51.000000,44.900002 L51.000000,45.049999 L51.000000,45.349998 L51.000000,46.049999 L51.000000,48.750000 L51.049999,54.000000 L51.049999,57.200001 L51.000000,82.300003 L51.099998,82.400002 L51.000000,82.599998 L50.000000,82.750000 L49.900002,82.250000 L49.950001,79.449997 L49.950001,79.000000 L49.849998,67.250000 L49.900002,63.500000 L49.849998,51.750000 L49.900002,48.000000 L49.950001,44.750000 L49.950001,44.200001 M86.199997,64.650002 L86.400002,64.800003 L86.699997,65.400002 L86.900002,65.550003 L86.550003,65.800003 L85.199997,66.599998 L84.949997,66.750000 L84.849998,66.800003 L84.650002,66.900002 L84.599998,66.949997 L84.550003,66.949997 L64.050003,78.849998 L64.000000,78.900002 L63.750000,79.000000 L63.400002,79.199997 L54.000000,84.599998 L53.599998,84.800003 L53.200001,83.949997 L53.200001,83.800003 L53.250000,83.699997 L53.549999,83.599998 L53.549999,83.550003 L53.599998,83.550003 L53.650002,83.500000 L53.700001,83.449997 L53.799999,83.400002 L53.849998,83.400002 L53.950001,83.349998 L54.000000,83.300003 L54.200001,83.199997 L54.250000,83.150002 L54.349998,83.150002 L54.400002,83.050003 L86.000000,64.900002 L86.000000,64.849998 L85.949997,64.800003 L86.000000,64.800003 L86.099998,64.750000 L86.199997,64.650002 "/>
		<path style="fill:rgb(150, 146, 137);opacity:1;stroke-width:0"
		 d="M52.500000,43.150002 L52.549999,43.150002 L52.799999,43.200001 L53.000000,43.200001 L53.099998,43.200001 L53.250000,43.299999 L53.400002,43.400002 L53.400002,43.400002 L53.549999,43.450001 L53.599998,43.500000 L53.750000,43.599998 L53.799999,43.599998 L53.900002,43.650002 L54.000000,43.750000 L54.099998,43.799999 L54.200001,43.799999 L54.299999,43.900002 L54.400002,43.950001 L54.450001,44.000000 L54.599998,44.049999 L54.650002,44.099998 L54.799999,44.200001 L54.849998,44.200001 L54.950001,44.250000 L55.049999,44.349998 L55.150002,44.400002 L55.200001,44.400002 L55.349998,44.500000 L55.400002,44.549999 L55.500000,44.599998 L55.599998,44.650002 L55.700001,44.700001 L55.799999,44.799999 L55.900002,44.799999 L56.000000,44.849998 L56.099998,44.950001 L56.200001,45.000000 L56.250000,45.000000 L56.400002,45.099998 L56.450001,45.150002 L56.549999,45.200001 L56.650002,45.250000 L56.750000,45.299999 L56.849998,45.400002 L56.950001,45.400002 L57.000000,45.450001 L57.150002,45.549999 L57.200001,45.599998 L57.299999,45.599998 L57.400002,45.700001 L57.500000,45.750000 L57.599998,45.849998 L57.650002,45.849998 L57.700001,45.849998 L57.799999,45.900002 L57.900002,46.000000 L57.950001,46.000000 L58.000000,46.000000 L58.049999,46.049999 L58.200001,46.200001 L58.200001,46.200001 L58.250000,46.200001 L58.349998,46.200001 L58.450001,46.349998 L58.500000,46.349998 L58.549999,46.349998 L58.750000,46.500000 L58.799999,46.500000 L58.799999,46.500000 L58.950001,46.599998 L59.000000,46.650002 L59.049999,46.650002 L59.099998,46.650002 L59.200001,46.750000 L59.299999,46.799999 L59.349998,46.799999 L59.400002,46.799999 L59.500000,46.900002 L59.599998,46.950001 L59.799999,47.049999 L59.849998,47.099998 L60.049999,47.200001 L60.150002,47.250000 L60.250000,47.349998 L60.349998,47.400002 L60.400002,47.400002 L60.549999,47.500000 L60.599998,47.549999 L60.799999,47.650002 L60.900002,47.700001 L61.099998,47.799999 L61.200001,47.849998 L61.400002,48.000000 L61.450001,48.000000 L61.599998,48.099998 L61.650002,48.150002 L61.849998,48.250000 L61.950001,48.299999 L62.150002,48.400002 L62.200001,48.450001 L62.400002,48.599998 L62.700001,48.750000 L62.900002,48.849998 L63.000000,48.900002 L63.200001,49.000000 L63.250000,49.049999 L63.450001,49.200001 L63.750000,49.349998 L64.000000,49.500000 L64.199997,49.599998 L64.300003,49.650002 L64.500000,49.799999 L64.800003,49.950001 L65.050003,50.099998 L65.349998,50.250000 L65.550003,50.400002 L65.800003,50.549999 L66.099998,50.700001 L66.400002,50.849998 L66.849998,51.150002 L67.150002,51.299999 L67.400002,51.450001 L68.199997,51.900002 L72.599998,54.500000 L72.650002,54.500000 L72.900002,54.650002 L73.199997,54.799999 L73.400002,54.950001 L73.449997,55.000000 L73.650002,55.099998 L73.750000,55.150002 L73.949997,55.250000 L74.000000,55.299999 L74.199997,55.400002 L74.300003,55.450001 L74.400002,55.549999 L74.500000,55.599998 L74.599998,55.599998 L74.699997,55.700001 L74.800003,55.750000 L74.849998,55.799999 L75.000000,55.849998 L75.050003,55.900002 L75.150002,55.950001 L75.250000,56.000000 L75.349998,56.049999 L75.449997,56.150002 L75.550003,56.200001 L75.599998,56.200001 L75.750000,56.299999 L75.800003,56.349998 L75.900002,56.400002 L76.000000,56.450001 L76.099998,56.500000 L76.199997,56.549999 L76.300003,56.599998 L76.400002,56.650002 L76.449997,56.700001 L76.599998,56.799999 L76.650002,56.799999 L76.750000,56.849998 L76.849998,56.950001 L76.949997,57.000000 L77.000000,57.000000 L77.150002,57.099998 L77.199997,57.150002 L77.300003,57.200001 L77.400002,57.250000 L77.500000,57.299999 L77.699997,57.400002 L77.800003,57.450001 L78.000000,57.599998 L78.050003,57.599998 L78.250000,57.750000 L78.500000,57.849998 L78.800003,58.000000 L79.050003,58.200001 L79.550003,58.450001 L79.800003,58.599998 L80.099998,58.799999 L81.400002,59.599998 L81.699997,59.750000 L82.000000,59.900002 L82.250000,60.049999 L82.449997,60.200001 L82.500000,60.200001 L82.599998,60.200001 L82.800003,60.400002 L82.800003,60.400002 L82.849998,60.400002 L83.000000,60.500000 L83.099998,60.549999 L83.300003,60.650002 L83.400002,60.700001 L83.449997,60.799999 L83.500000,60.799999 L83.550003,60.799999 L83.599998,60.799999 L83.599998,60.849998 L83.650002,60.849998 L83.699997,60.900002 L83.750000,60.900002 L83.750000,60.950001 L83.800003,61.000000 L83.849998,61.000000 L83.900002,61.000000 L83.949997,61.000000 L84.000000,61.049999 L84.000000,61.049999 L84.050003,61.099998 L84.150002,61.150002 L84.199997,61.200001 L84.250000,61.200001 L84.300003,61.250000 L84.349998,61.250000 L84.400002,61.299999 L84.400002,61.299999 L84.449997,61.349998 L84.500000,61.349998 L84.550003,61.400002 L84.599998,61.400002 L84.699997,61.450001 L84.800003,61.549999 L84.800003,61.549999 L84.849998,61.599998 L84.900002,61.599998 L84.949997,61.599998 L85.000000,61.599998 L85.000000,61.650002 L85.050003,61.650002 L85.050003,61.700001 L85.150002,61.750000 L85.199997,61.750000 L85.199997,61.799999 L85.250000,61.799999 L85.300003,61.799999 L85.349998,61.799999 L85.400002,61.849998 L85.500000,61.900002 L85.699997,62.000000 L85.750000,62.000000 L85.800003,62.049999 L85.900002,62.150002 L86.150002,62.250000 L86.199997,62.400002 L86.349998,62.599998 L86.449997,62.750000 L86.599998,62.950001 L86.599998,63.049999 L86.699997,63.450001 L86.650002,63.750000 L86.599998,64.000000 L86.550003,64.199997 L86.400002,64.449997 L86.099998,64.750000 L86.000000,64.800003 L85.949997,64.800003 L86.000000,64.849998 L86.000000,64.900002 L54.400002,83.050003 L54.349998,83.150002 L54.250000,83.150002 L54.200001,83.199997 L54.000000,83.300003 L53.950001,83.349998 L53.849998,83.400002 L53.799999,83.400002 L53.700001,83.449997 L53.650002,83.500000 L53.599998,83.550003 L53.549999,83.550003 L53.549999,83.599998 L53.250000,83.699997 L53.200001,83.800003 L52.900002,83.800003 L52.400002,83.800003 L52.150002,83.800003 L52.049999,83.800003 L51.900002,83.699997 L51.599998,83.550003 L51.400002,83.349998 L51.299999,83.150002 L51.150002,82.900002 L51.000000,82.599998 L51.099998,82.400002 L51.000000,82.300003 L51.049999,57.200001 L51.049999,54.000000 L51.000000,48.750000 L51.000000,46.049999 L51.000000,45.349998 L51.000000,45.049999 L51.000000,44.900002 L51.000000,44.799999 L51.099998,44.500000 L51.000000,44.500000 L50.950001,44.400002 L51.200001,44.250000 L51.099998,44.150002 L51.200001,44.000000 L51.400002,43.799999 L51.250000,43.700001 L51.599998,43.599998 L51.450001,43.450001 L51.799999,43.400002 L51.799999,43.349998 L52.049999,43.299999 L52.049999,43.250000 L52.349998,43.200001 L52.500000,43.150002 "/>
		<defs>
			<linearGradient id="GRAD_1" gradientUnits="userSpaceOnUse" x1="7.280000" y1="32.410000" x2="7.280000" y2="47.960000">
			<stop offset="0" style="stop-color:rgb(38,38,38)" opacity="1"/>
			<stop offset="1" style="stop-color:rgb(51,51,51)" opacity="1"/>
			</linearGradient>
		</defs>
		<path style="fill:url(#GRAD_1);stroke-width:0"
		 d="M49.950001,44.200001 L49.950001,44.750000 L49.900002,48.000000 L7.200000,48.000000 L7.200000,47.599998 L7.300000,32.450001 L49.950001,44.200001 "/>
		<path style="fill:rgb(51,51,51);opacity:1;stroke-width:0"
		 d="M49.900002,48.000000 L49.849998,51.750000 L49.900002,63.500000 L49.849998,67.250000 L49.950001,79.000000 L7.350000,79.000000 L7.250000,79.000000 L7.200000,63.750000 L7.250000,63.500000 L7.200000,48.200001 L7.200000,48.000000 L49.900002,48.000000 M63.750000,48.000000 L119.349998,48.000000 L119.449997,63.500000 L119.400002,63.549999 L119.449997,79.000000 L63.750000,79.000000 L64.000000,78.900002 L64.050003,78.849998 L84.550003,66.949997 L84.599998,66.949997 L84.650002,66.900002 L84.849998,66.800003 L84.949997,66.750000 L85.199997,66.599998 L86.550003,65.800003 L86.900002,65.550003 L87.199997,65.199997 L87.500000,64.849998 L87.500000,64.400002 L87.800003,64.000000 L87.800003,63.549999 L87.800003,63.500000 L87.650002,63.049999 L87.699997,62.599998 L87.349998,62.250000 L87.150002,61.799999 L86.900002,61.450001 L86.550003,61.200001 L81.800003,58.400002 L63.750000,48.000000 "/>
		<defs>
			<linearGradient id="GRAD_2" gradientUnits="userSpaceOnUse" x1="7.280000" y1="94.580000" x2="7.280000" y2="79.030000">
			<stop offset="0" style="stop-color:rgb(38,38,38)" opacity="1"/>
			<stop offset="1" style="stop-color:rgb(51,51,51)" opacity="1"/>
			</linearGradient>
		</defs>
		<path style="fill:url(#GRAD_2);stroke-width:0"
		 d="M7.250000,79.000000 L7.350000,79.000000 L49.950001,79.000000 L49.950001,79.449997 L49.900002,82.250000 L50.000000,82.750000 L49.950001,82.800003 L7.250000,94.599998 L7.200000,79.400002 L7.250000,79.000000 "/>
		<defs>
			<linearGradient id="GRAD_3" gradientUnits="userSpaceOnUse" x1="63.500000" y1="94.580000" x2="63.500000" y2="79.030000">
			<stop offset="0" style="stop-color:rgb(38,38,38)" opacity="1"/>
			<stop offset="1" style="stop-color:rgb(51,51,51)" opacity="1"/>
			</linearGradient>
		</defs>
		<path style="fill:url(#GRAD_3);stroke-width:0"
		 d="M63.750000,79.000000 L119.449997,79.000000 L119.400002,79.050003 L119.449997,94.599998 L119.400002,94.699997 L119.349998,94.599998 L119.250000,94.599998 L63.549999,94.599998 L63.450001,94.599998 L7.400000,94.599998 L7.300000,94.599998 L7.250000,94.599998 L49.950001,82.800003 L50.099998,83.150002 L50.099998,83.199997 L50.299999,83.599998 L50.549999,84.000000 L50.849998,84.250000 L50.849998,84.300003 L51.250000,84.599998 L51.650002,84.800003 L52.099998,84.900002 L52.599998,85.000000 L53.150002,84.900002 L53.599998,84.800003 L54.000000,84.599998 L63.400002,79.199997 L63.750000,79.000000 "/>
		<path style="fill:rgb(0,0,0);opacity:0;stroke-width:0"
		 d="M7.200000,14.250000 L1.850000,14.400000 L1.850000,14.450000 L1.800000,20.000000 L0.000000,20.000000 L0.000000,0.000000 L126.900002,0.000000 L127.000000,20.000000 L124.900002,20.000000 L124.849998,14.400000 L119.400002,14.250000 L119.300003,14.250000 L63.400002,14.300000 L63.349998,14.250000 L7.200000,14.250000 M1.800000,26.650000 L1.850000,32.250000 L1.850000,32.650002 L1.800000,48.000000 L1.850000,63.200001 L1.800000,63.500000 L1.850000,78.699997 L1.800000,79.000000 L1.800000,94.599998 L1.850000,94.800003 L1.800000,100.349998 L0.000000,100.349998 L0.000000,27.400000 L0.000000,26.650000 L1.800000,26.650000 M124.849998,32.299999 L124.900002,26.650000 L127.000000,26.650000 L127.000000,100.349998 L124.900002,100.349998 L124.849998,94.699997 L124.849998,79.300003 L124.849998,63.799999 L124.849998,48.200001 L124.900002,48.000000 L124.900002,32.400002 L124.849998,32.299999 M1.800000,107.000000 L1.850000,112.550003 L1.850000,112.599998 L1.800000,112.750000 L2.450000,112.750000 L7.200000,112.750000 L63.349998,112.750000 L63.400002,112.750000 L63.400002,112.750000 L63.450001,112.750000 L119.250000,112.750000 L119.349998,112.750000 L119.400002,112.750000 L119.400002,112.750000 L124.900002,112.750000 L124.849998,112.599998 L124.900002,107.000000 L127.000000,107.000000 L127.000000,127.000000 L0.050000,127.000000 L0.000000,107.050003 L1.800000,107.000000 "/>
	</g>
</svg>