<?xml version="1.0" encoding="iso-8859-1"?>
<!DOCTYPE svg PUBLIC "-//W3C//DTD SVG 20000303 Stylable//EN"
"http://www.w3.org/TR/2000/03/WD-SVG-20000303/DTD/svg-20000303-stylable.dtd">
<!-- Generator: --> 
<svg width="1024pt" height="1024pt" viewBox="0 0 1024 1024">
	<g  id="FRAME_0" style="visibility:visible" fill-rule="evenodd">
		<path style="fill:rgb(202,195,169);opacity:1;stroke-width:0"
		 d="M770.599976,526.599976 L770.500000,512.099976 L769.000000,489.350006 L767.500000,475.500000 L765.349976,461.500000 L762.500000,446.850006 L758.599976,431.750000 L753.750000,416.500000 Q731.849976,363.850006 710.500000,346.100006 L697.349976,334.100006 L683.750000,324.000000 L669.349976,315.250000 L654.500000,307.850006 L639.250000,301.750000 L623.250000,296.600006 L614.849976,294.500000 L608.349976,292.850006 L591.349976,289.600006 L579.750000,287.850006 L532.099976,284.850006 L545.599976,283.600006 L579.250000,281.750000 L593.750000,279.600006 L608.750000,276.600006 L622.599976,273.100006 L638.349976,268.100006 Q692.750000,245.500000 710.099976,223.850006 L721.099976,211.750000 L731.750000,197.350006 L739.849976,184.000000 L747.349976,169.000000 L753.750000,153.100006 L758.849976,137.000000 L760.500000,130.600006 L762.750000,121.500000 L765.500000,107.500000 L767.750000,91.849998 L769.750000,70.349998 L770.599976,43.000000 L771.349976,67.099998 L772.500000,82.099998 L773.750000,93.500000 L776.000000,108.500000 L779.349976,124.849998 L782.599976,137.750000 L787.750000,153.600006 L794.250000,169.600006 L801.849976,184.750000 L810.250000,198.350006 L820.849976,212.500000 L832.349976,225.000000 L845.000000,236.250000 L857.599976,245.600006 L871.599976,254.100006 L887.500000,262.000000 L905.599976,269.000000 L918.750000,273.100006 L933.000000,276.750000 L949.250000,279.850006 L962.599976,281.750000 L992.099976,283.350006 L1009.250000,284.750000 L1005.849976,285.000000 L961.599976,287.850006 L945.500000,290.350006 L930.349976,293.500000 L917.599976,296.750000 L901.099976,302.100006 L886.349976,308.100006 L871.750000,315.350006 L856.849976,324.500000 L843.250000,334.750000 L830.250000,346.750000 Q795.099976,385.100006 784.349976,426.350006 L782.000000,434.350006 L778.349976,449.100006 L775.500000,464.250000 L773.849976,475.100006 L771.500000,500.100006 L770.599976,526.599976 "/>
		<path style="fill:rgb(152,152,152);opacity:1;stroke-width:0"
		 d="M414.600006,965.099976 L350.850006,958.849976 L290.350006,940.500000 L234.600006,910.750000 L185.250000,870.349976 L145.000000,821.349976 L114.849998,765.000000 L96.500000,704.500000 L90.250000,641.250000 L96.500000,577.849976 L114.750000,517.599976 L144.500000,461.750000 L184.600006,412.600006 L233.750000,372.100006 L290.100006,341.850006 L351.000000,323.350006 L413.000000,317.250000 L477.600006,323.350006 L538.099976,341.750000 L594.349976,371.750000 L642.849976,411.500000 L683.349976,460.600006 L713.500000,516.750000 L732.099976,577.750000 L738.349976,641.000000 L732.099976,704.349976 L713.750000,765.000000 L684.000000,820.750000 L643.599976,870.099976 L594.599976,910.349976 L538.599976,940.349976 L477.750000,958.849976 L414.600006,965.099976 "/>
		<path style="stroke:rgb(25,25,25);stroke-width:17.300000;stroke-linecap:round;stroke-linejoin:round;fill:none"
		 d="M770.500000,512.099976 L769.000000,489.350006 L767.500000,475.500000 L765.349976,461.500000 L762.500000,446.850006 L758.599976,431.750000 L753.750000,416.500000 Q731.849976,363.850006 710.500000,346.100006 L697.349976,334.100006 L683.750000,324.000000 L669.349976,315.250000 L654.500000,307.850006 L639.250000,301.750000 L623.250000,296.600006 L614.849976,294.500000 L608.349976,292.850006 L591.349976,289.600006 L579.750000,287.850006 L532.099976,284.850006 L545.599976,283.600006 L579.250000,281.750000 L593.750000,279.600006 L608.750000,276.600006 L622.599976,273.100006 L638.349976,268.100006 Q692.750000,245.500000 710.099976,223.850006 L721.099976,211.750000 L731.750000,197.350006 L739.849976,184.000000 L747.349976,169.000000 L753.750000,153.100006 L758.849976,137.000000 L760.500000,130.600006 L762.750000,121.500000 L765.500000,107.500000 L767.750000,91.849998 L769.750000,70.349998 L770.599976,43.000000 L771.349976,67.099998 L772.500000,82.099998 L773.750000,93.500000 L776.000000,108.500000 L779.349976,124.849998 L782.599976,137.750000 L787.750000,153.600006 L794.250000,169.600006 L801.849976,184.750000 L810.250000,198.350006 L820.849976,212.500000 L832.349976,225.000000 L845.000000,236.250000 L857.599976,245.600006 L871.599976,254.100006 L887.500000,262.000000 L905.599976,269.000000 L918.750000,273.100006 L933.000000,276.750000 L949.250000,279.850006 L962.599976,281.750000 L992.099976,283.350006 L1009.250000,284.750000 L1005.849976,285.000000 L961.599976,287.850006 L945.500000,290.350006 L930.349976,293.500000 L917.599976,296.750000 L901.099976,302.100006 L886.349976,308.100006 L871.750000,315.350006 L856.849976,324.500000 L843.250000,334.750000 L830.250000,346.750000 Q795.099976,385.100006 784.349976,426.350006 L782.000000,434.350006 L778.349976,449.100006 L775.500000,464.250000 L773.849976,475.100006 L771.500000,500.100006 L770.599976,526.599976 L770.500000,512.099976 		"/>
		<path style="stroke:rgb(25,25,25);stroke-width:17.300000;stroke-linecap:round;stroke-linejoin:round;fill:none"
		 d="M350.850006,958.849976 L290.350006,940.500000 L234.600006,910.750000 L185.250000,870.349976 L145.000000,821.349976 L114.849998,765.000000 L96.500000,704.500000 L90.250000,641.250000 L96.500000,577.849976 L114.750000,517.599976 L144.500000,461.750000 L184.600006,412.600006 L233.750000,372.100006 L290.100006,341.850006 L351.000000,323.350006 L413.000000,317.250000 L477.600006,323.350006 L538.099976,341.750000 L594.349976,371.750000 L642.849976,411.500000 L683.349976,460.600006 L713.500000,516.750000 L732.099976,577.750000 L738.349976,641.000000 L732.099976,704.349976 L713.750000,765.000000 L684.000000,820.750000 L643.599976,870.099976 L594.599976,910.349976 L538.599976,940.349976 L477.750000,958.849976 L414.600006,965.099976 L350.850006,958.849976 		"/>
	</g>
</svg>