<?xml version="1.0" encoding="iso-8859-1"?>
<!DOCTYPE svg PUBLIC "-//W3C//DTD SVG 20000303 Stylable//EN"
"http://www.w3.org/TR/2000/03/WD-SVG-20000303/DTD/svg-20000303-stylable.dtd">
<!-- Generator: --> 
<svg width="1024pt" height="1024pt" viewBox="0 0 1024 1024">
	<g  id="FRAME_0" style="visibility:visible" fill-rule="evenodd">
		<path style="fill:rgb(127,127,127);opacity:1;stroke-width:0"
		 d="M296.500000,212.000000 Q321.000000,213.500000 330.500000,179.750000 Q329.250000,150.750000 307.000000,144.250000 L294.750000,142.500000 L217.000000,142.500000 L206.750000,144.250000 Q196.750000,147.250000 189.500000,157.000000 L184.750000,166.250000 Q179.250000,176.250000 189.500000,197.750000 L198.000000,205.750000 L207.000000,210.250000 L218.750000,212.000000 L296.500000,212.000000 M551.000000,212.000000 Q562.000000,211.750000 571.000000,205.500000 L578.750000,197.750000 L583.750000,188.000000 L585.250000,177.750000 Q583.750000,152.000000 561.000000,144.000000 L551.500000,142.500000 L546.500000,142.500000 L471.500000,142.500000 L461.250000,144.250000 Q450.750000,147.750000 444.000000,157.000000 L439.500000,166.000000 Q434.000000,199.750000 461.500000,210.250000 L473.250000,212.000000 L551.000000,212.000000 M805.750000,212.000000 Q816.750000,211.750000 825.750000,205.250000 L833.500000,197.500000 L838.250000,188.000000 L840.000000,177.000000 Q837.750000,152.250000 816.250000,144.250000 L804.000000,142.500000 L726.250000,142.500000 L716.000000,144.250000 Q705.000000,148.000000 698.750000,156.750000 L693.750000,167.000000 Q690.750000,175.500000 693.750000,187.500000 L698.750000,197.750000 L706.750000,205.500000 L716.250000,210.250000 L728.000000,212.000000 L805.750000,212.000000 M969.750000,768.250000 L969.500000,255.000000 L53.250000,255.250000 L53.000000,768.250000 L969.750000,768.250000 M296.750000,880.750000 Q307.250000,880.500000 316.500000,874.250000 L324.250000,866.500000 L329.250000,856.500000 L330.750000,846.250000 Q329.750000,821.250000 306.750000,813.000000 L295.000000,811.250000 L217.250000,811.250000 L206.750000,813.000000 Q196.250000,816.500000 189.500000,825.750000 L184.750000,835.000000 Q179.250000,845.250000 189.500000,866.250000 L197.500000,874.250000 L206.750000,879.000000 L219.000000,880.750000 L296.750000,880.750000 M551.500000,880.750000 Q562.000000,880.500000 571.250000,874.000000 L579.000000,866.250000 L583.750000,856.500000 L585.250000,846.750000 Q583.500000,820.500000 561.500000,813.000000 L549.750000,811.250000 L472.000000,811.250000 L461.500000,813.000000 Q450.500000,816.750000 444.250000,825.500000 L439.250000,835.250000 Q436.250000,845.250000 439.250000,856.750000 L444.000000,866.250000 L452.000000,874.250000 L462.000000,879.250000 L471.500000,880.750000 L476.500000,880.750000 L551.500000,880.750000 M806.000000,880.750000 Q815.500000,880.750000 824.750000,874.750000 L833.500000,866.250000 L838.250000,856.750000 L840.000000,845.750000 Q838.000000,821.000000 816.000000,813.000000 L804.250000,811.250000 L726.500000,811.250000 L716.000000,813.000000 Q705.000000,816.750000 698.750000,825.500000 L694.000000,835.000000 L692.250000,847.000000 L694.000000,857.250000 Q697.250000,867.000000 706.500000,874.250000 L716.000000,879.000000 L728.250000,880.750000 L806.000000,880.750000 M970.000000,969.250000 L53.000000,969.250000 L2.250000,919.000000 L2.250000,880.750000 L53.500000,880.750000 L64.250000,879.000000 Q87.000000,869.250000 87.750000,847.500000 Q86.500000,820.500000 64.000000,813.000000 L53.500000,811.250000 L2.250000,811.250000 L2.250000,214.250000 L2.250000,212.000000 L53.000000,212.000000 L65.000000,209.750000 Q85.500000,203.000000 87.750000,176.000000 Q87.500000,155.250000 64.000000,144.250000 L54.000000,142.500000 L2.250000,142.500000 L2.250000,104.250000 L53.000000,54.000000 L970.000000,54.000000 L1020.750000,104.250000 L1020.750000,142.500000 L969.500000,142.500000 L958.750000,144.250000 Q936.000000,154.000000 935.250000,175.750000 Q936.250000,202.250000 959.000000,210.250000 L969.500000,212.000000 L1020.750000,212.000000 L1020.750000,810.750000 L970.000000,811.250000 L959.000000,813.000000 Q936.750000,820.250000 935.250000,847.250000 Q935.250000,867.750000 959.000000,879.000000 L969.000000,880.750000 L1020.750000,880.750000 L1020.750000,918.500000 L970.000000,969.250000 "/>
		<path style="fill:rgb(56,56,56);opacity:1;stroke-width:0"
		 d="M407.750000,711.750000 L416.500000,708.250000 L442.500000,693.250000 L720.250000,532.750000 Q727.250000,528.000000 729.250000,522.000000 L730.750000,513.750000 Q728.250000,496.500000 713.750000,491.750000 L415.000000,319.250000 Q408.750000,315.250000 399.250000,316.750000 Q382.750000,320.250000 382.000000,339.500000 L382.000000,691.500000 Q389.000000,715.750000 407.750000,711.750000 M969.750000,768.250000 L53.000000,768.250000 L53.250000,255.250000 L969.500000,255.000000 L969.750000,768.250000 "/>
		<path style="fill:rgb(165,165,165);opacity:1;stroke-width:0"
		 d="M407.750000,711.750000 Q389.000000,715.750000 382.000000,691.500000 L382.000000,339.500000 Q382.750000,320.250000 399.250000,316.750000 Q408.750000,315.250000 415.000000,319.250000 L713.750000,491.750000 Q728.250000,496.500000 730.750000,513.750000 L729.250000,522.000000 Q727.250000,528.000000 720.250000,532.750000 L442.500000,693.250000 L416.500000,708.250000 L407.750000,711.750000 "/>
		<path style="stroke:rgb(38,38,38);stroke-width:8.650000;stroke-linecap:round;stroke-linejoin:round;fill:none"
		 d="M218.750000,212.000000 L207.000000,210.250000 L198.000000,205.750000 L189.500000,197.750000 Q179.250000,176.250000 184.750000,166.250000 L189.500000,157.000000 Q196.750000,147.250000 206.750000,144.250000 L217.000000,142.500000 L294.750000,142.500000 L307.000000,144.250000 Q329.250000,150.750000 330.500000,179.750000 Q321.000000,213.500000 296.500000,212.000000 L218.750000,212.000000 		"/>
		<path style="stroke:rgb(38,38,38);stroke-width:8.650000;stroke-linecap:round;stroke-linejoin:round;fill:none"
		 d="M473.250000,212.000000 L461.500000,210.250000 Q434.000000,199.750000 439.500000,166.000000 L444.000000,157.000000 Q450.750000,147.750000 461.250000,144.250000 L471.500000,142.500000 L546.500000,142.500000 L551.500000,142.500000 L561.000000,144.000000 Q583.750000,152.000000 585.250000,177.750000 L583.750000,188.000000 L578.750000,197.750000 L571.000000,205.500000 Q562.000000,211.750000 551.000000,212.000000 L473.250000,212.000000 		"/>
		<path style="stroke:rgb(38,38,38);stroke-width:8.650000;stroke-linecap:round;stroke-linejoin:round;fill:none"
		 d="M728.000000,212.000000 L716.250000,210.250000 L706.750000,205.500000 L698.750000,197.750000 L693.750000,187.500000 Q690.750000,175.500000 693.750000,167.000000 L698.750000,156.750000 Q705.000000,148.000000 716.000000,144.250000 L726.250000,142.500000 L804.000000,142.500000 L816.250000,144.250000 Q837.750000,152.250000 840.000000,177.000000 L838.250000,188.000000 L833.500000,197.500000 L825.750000,205.250000 Q816.750000,211.750000 805.750000,212.000000 L728.000000,212.000000 		"/>
		<path style="stroke:rgb(38,38,38);stroke-width:8.650000;stroke-linecap:round;stroke-linejoin:round;fill:none"
		 d="M382.000000,691.500000 L382.000000,339.500000 Q382.750000,320.250000 399.250000,316.750000 Q408.750000,315.250000 415.000000,319.250000 L713.750000,491.750000 Q728.250000,496.500000 730.750000,513.750000 L729.250000,522.000000 Q727.250000,528.000000 720.250000,532.750000 L442.500000,693.250000 L416.500000,708.250000 L407.750000,711.750000 Q389.000000,715.750000 382.000000,691.500000 		"/>
		<path style="stroke:rgb(38,38,38);stroke-width:8.650000;stroke-linecap:round;stroke-linejoin:round;fill:none"
		 d="M53.000000,768.250000 L53.250000,255.250000 L969.500000,255.000000 L969.750000,768.250000 L53.000000,768.250000 		"/>
		<path style="stroke:rgb(38,38,38);stroke-width:8.650000;stroke-linecap:round;stroke-linejoin:round;fill:none"
		 d="M219.000000,880.750000 L206.750000,879.000000 L197.500000,874.250000 L189.500000,866.250000 Q179.250000,845.250000 184.750000,835.000000 L189.500000,825.750000 Q196.250000,816.500000 206.750000,813.000000 L217.250000,811.250000 L295.000000,811.250000 L306.750000,813.000000 Q329.750000,821.250000 330.750000,846.250000 L329.250000,856.500000 L324.250000,866.500000 L316.500000,874.250000 Q307.250000,880.500000 296.750000,880.750000 L219.000000,880.750000 		"/>
		<path style="stroke:rgb(38,38,38);stroke-width:8.650000;stroke-linecap:round;stroke-linejoin:round;fill:none"
		 d="M476.500000,880.750000 L471.500000,880.750000 L462.000000,879.250000 L452.000000,874.250000 L444.000000,866.250000 L439.250000,856.750000 Q436.250000,845.250000 439.250000,835.250000 L444.250000,825.500000 Q450.500000,816.750000 461.500000,813.000000 L472.000000,811.250000 L549.750000,811.250000 L561.500000,813.000000 Q583.500000,820.500000 585.250000,846.750000 L583.750000,856.500000 L579.000000,866.250000 L571.250000,874.000000 Q562.000000,880.500000 551.500000,880.750000 L476.500000,880.750000 		"/>
		<path style="stroke:rgb(38,38,38);stroke-width:8.650000;stroke-linecap:round;stroke-linejoin:round;fill:none"
		 d="M728.250000,880.750000 L716.000000,879.000000 L706.500000,874.250000 Q697.250000,867.000000 694.000000,857.250000 L692.250000,847.000000 L694.000000,835.000000 L698.750000,825.500000 Q705.000000,816.750000 716.000000,813.000000 L726.500000,811.250000 L804.250000,811.250000 L816.000000,813.000000 Q838.000000,821.000000 840.000000,845.750000 L838.250000,856.750000 L833.500000,866.250000 L824.750000,874.750000 Q815.500000,880.750000 806.000000,880.750000 L728.250000,880.750000 		"/>
		<path style="stroke:rgb(38,38,38);stroke-width:8.650000;stroke-linecap:round;stroke-linejoin:round;fill:none"
		 d="M53.000000,969.250000 L2.250000,919.000000 L2.250000,880.750000 L53.500000,880.750000 L64.250000,879.000000 Q87.000000,869.250000 87.750000,847.500000 Q86.500000,820.500000 64.000000,813.000000 L53.500000,811.250000 L2.250000,811.250000 L2.250000,214.250000 L2.250000,212.000000 L53.000000,212.000000 L65.000000,209.750000 Q85.500000,203.000000 87.750000,176.000000 Q87.500000,155.250000 64.000000,144.250000 L54.000000,142.500000 L2.250000,142.500000 L2.250000,104.250000 L53.000000,54.000000 L970.000000,54.000000 L1020.750000,104.250000 L1020.750000,142.500000 L969.500000,142.500000 L958.750000,144.250000 Q936.000000,154.000000 935.250000,175.750000 Q936.250000,202.250000 959.000000,210.250000 L969.500000,212.000000 L1020.750000,212.000000 L1020.750000,810.750000 L970.000000,811.250000 L959.000000,813.000000 Q936.750000,820.250000 935.250000,847.250000 Q935.250000,867.750000 959.000000,879.000000 L969.000000,880.750000 L1020.750000,880.750000 L1020.750000,918.500000 L970.000000,969.250000 L53.000000,969.250000 		"/>
	</g>
</svg>