<?xml version="1.0" encoding="iso-8859-1"?>
<!DOCTYPE svg PUBLIC "-//W3C//DTD SVG 20000303 Stylable//EN"
"http://www.w3.org/TR/2000/03/WD-SVG-20000303/DTD/svg-20000303-stylable.dtd">
<!-- Generator: --> 
<svg width="1024pt" height="1024pt" viewBox="0 0 1024 1024">
	<g  id="FRAME_0" style="visibility:visible" fill-rule="evenodd">
		<path style="fill:rgb(66,66,66);opacity:1;stroke-width:0"
		 d="M186.500000,52.099998 L193.850006,52.099998 L276.850006,176.600006 L186.500000,52.099998 "/>
		<path style="fill:rgb(142,149,208);opacity:1;stroke-width:0"
		 d="M193.850006,52.099998 L347.000000,52.099998 L431.500000,178.850006 L506.850006,188.100006 L363.000000,305.600006 L359.600006,300.850006 L277.500000,177.600006 L277.250000,177.250000 L277.100006,177.000000 L276.850006,176.750000 L276.850006,176.600006 L193.850006,52.099998 "/>
		<path style="fill:rgb(101,101,101);opacity:1;stroke-width:0"
		 d="M179.000000,52.349998 L178.850006,52.099998 L186.500000,52.099998 L276.850006,176.600006 L276.850006,176.750000 L277.100006,177.000000 L277.250000,177.250000 L277.500000,177.600006 L359.600006,300.850006 L179.000000,52.349998 M830.099976,311.350006 L822.500000,215.250000 L844.000000,341.250000 L841.000000,375.000000 L830.099976,311.350006 M804.000000,503.750000 L788.500000,535.099976 L745.349976,585.500000 L781.849976,529.750000 L782.000000,529.500000 L782.349976,529.099976 L804.000000,503.750000 "/>
		<path style="fill:rgb(145,152,211);opacity:1;stroke-width:0"
		 d="M347.000000,52.099998 L500.750000,52.099998 L650.849976,70.750000 L506.850006,188.100006 L431.500000,178.850006 L347.000000,52.099998 "/>
		<path style="fill:rgb(0,100,196);opacity:1;stroke-width:0"
		 d="M650.849976,70.750000 L758.000000,124.500000 L822.500000,215.250000 L830.099976,311.350006 L837.750000,407.500000 L363.000000,305.600006 L362.750000,306.850006 L179.250000,961.500000 L179.000000,961.750000 L179.000000,52.349998 L359.600006,300.850006 L363.000000,305.600006 L506.850006,188.100006 L650.849976,70.750000 "/>
		<path style="fill:rgb(147,153,212);opacity:1;stroke-width:0"
		 d="M363.000000,305.600006 L837.750000,407.500000 L837.849976,407.600006 L612.000000,538.349976 L611.750000,538.500000 L611.500000,538.599976 L384.000000,670.250000 L362.750000,306.850006 L363.000000,305.600006 M384.000000,670.349976 L384.000000,962.000000 L179.000000,961.849976 L179.000000,961.750000 L179.250000,961.500000 L384.000000,670.349976 "/>
		<path style="fill:rgb(0,0,0);opacity:1;stroke-width:0"
		 d="M830.099976,311.350006 L841.000000,375.000000 L837.750000,407.500000 L830.099976,311.350006 M837.849976,407.600006 L828.599976,440.100006 L612.000000,538.349976 L837.849976,407.600006 M819.349976,472.750000 L804.000000,503.750000 L782.349976,529.099976 L818.000000,474.350006 L819.349976,472.750000 M745.349976,585.500000 L718.599976,604.000000 L781.849976,529.750000 L745.349976,585.500000 "/>
		<path style="fill:rgb(28,29,90);opacity:1;stroke-width:0"
		 d="M828.599976,440.100006 L819.349976,472.750000 L818.000000,474.350006 L782.349976,529.099976 L782.000000,529.500000 L781.849976,529.750000 L718.599976,604.000000 L691.750000,622.750000 L630.250000,649.099976 L560.250000,665.000000 L384.000000,670.250000 L384.000000,670.349976 L179.250000,961.500000 L362.750000,306.850006 L384.000000,670.250000 L611.500000,538.599976 L611.750000,538.500000 L612.000000,538.349976 L828.599976,440.100006 "/>
		<path style="stroke:rgb(255,255,255);stroke-width:19.800000;stroke-linecap:round;stroke-linejoin:round;fill:none"
		 d="M359.600006,300.850006 L363.000000,305.600006 L506.850006,188.100006 L650.849976,70.750000 L500.750000,52.099998 L347.000000,52.099998 L193.850006,52.099998 L276.850006,176.600006 L276.850006,176.750000 L277.100006,177.000000 L277.250000,177.250000 L277.500000,177.600006 L359.600006,300.850006 L179.000000,52.349998 L178.850006,52.099998 L186.500000,52.099998 L193.850006,52.099998 		"/>
		<path style="stroke:rgb(255,255,255);stroke-width:19.800000;stroke-linecap:round;stroke-linejoin:round;fill:none"
		 d="M650.849976,70.750000 L758.000000,124.500000 L822.500000,215.250000 L830.099976,311.350006 L837.750000,407.500000 L363.000000,305.600006 L362.750000,306.850006 L384.000000,670.250000 L611.500000,538.599976 L611.750000,538.500000 L612.000000,538.349976 L837.849976,407.600006 L837.750000,407.500000 L841.000000,375.000000 L844.000000,341.250000 L822.500000,215.250000 		"/>
		<path style="stroke:rgb(255,255,255);stroke-width:19.800000;stroke-linecap:round;stroke-linejoin:round;fill:none"
		 d="M837.849976,407.600006 L828.599976,440.100006 L819.349976,472.750000 L804.000000,503.750000 L788.500000,535.099976 L745.349976,585.500000 L781.849976,529.750000 L782.000000,529.500000 L782.349976,529.099976 L818.000000,474.350006 L819.349976,472.750000 		"/>
		<path style="stroke:rgb(255,255,255);stroke-width:19.800000;stroke-linecap:round;stroke-linejoin:round;fill:none"
		 d="M745.349976,585.500000 L718.599976,604.000000 L691.750000,622.750000 L630.250000,649.099976 L560.250000,665.000000 L384.000000,670.250000 L384.000000,670.349976 L179.250000,961.500000 L362.750000,306.850006 		"/>
		<path style="stroke:rgb(255,255,255);stroke-width:19.800000;stroke-linecap:round;stroke-linejoin:round;fill:none"
		 d="M179.250000,961.500000 L179.000000,961.750000 L179.000000,52.349998 		"/>
		<path style="stroke:rgb(255,255,255);stroke-width:19.800000;stroke-linecap:round;stroke-linejoin:round;fill:none"
		 d="M179.000000,961.750000 L179.000000,961.849976 L384.000000,962.000000 L384.000000,670.349976 		"/>
		<path style="fill:rgb(25,25,25);opacity:0.196078;stroke-width:0"
		 d="M500.100006,52.099998 L650.849976,70.750000 L758.000000,124.599998 L822.500000,215.250000 L822.750000,217.250000 L844.099976,342.100006 L837.849976,406.500000 L837.750000,407.500000 L819.500000,472.600006 L819.000000,473.000000 L818.000000,475.750000 L788.599976,535.000000 L745.849976,584.750000 L745.250000,585.750000 L743.349976,587.000000 L692.349976,622.099976 L690.599976,623.250000 L647.349976,641.750000 L644.500000,642.849976 L633.250000,646.250000 L632.849976,646.500000 L623.500000,649.250000 L606.500000,653.500000 L587.000000,657.500000 L565.849976,660.750000 L565.500000,660.849976 L543.750000,663.349976 L530.599976,664.500000 L509.500000,665.599976 L490.000000,666.000000 L393.250000,666.000000 L391.250000,666.000000 L384.600006,666.000000 L384.600006,669.750000 L384.600006,669.849976 L384.500000,670.000000 L384.600006,670.250000 L384.000000,670.250000 L383.850006,670.599976 L384.000000,962.000000 L179.000000,961.849976 L179.000000,961.750000 L179.000000,52.349998 L178.850006,52.099998 L193.850006,52.099998 L500.100006,52.099998 M415.350006,208.600006 L385.250000,208.750000 L385.350006,263.850006 L385.100006,264.850006 L385.250000,287.250000 L385.100006,287.500000 L385.250000,295.350006 L385.100006,301.250000 L385.250000,310.350006 L385.250000,503.100006 L469.250000,503.100006 Q555.750000,502.350006 596.099976,466.100006 Q617.750000,446.850006 627.750000,420.500000 L633.000000,404.500000 L636.099976,389.600006 L638.250000,371.850006 L638.500000,364.750000 L638.849976,355.250000 L638.250000,336.850006 L636.250000,320.000000 L632.599976,303.750000 Q623.000000,272.350006 608.349976,257.350006 Q587.099976,231.750000 549.849976,220.000000 L541.000000,217.100006 L526.250000,213.600006 L508.850006,210.850006 L489.000000,209.100006 L481.250000,209.000000 L470.350006,208.600006 L415.350006,208.600006 "/>
		<path style="fill:rgb(130,130,130);opacity:0.196078;stroke-width:0"
		 d="M500.100006,52.099998 L193.850006,52.099998 L178.850006,52.099998 L179.000000,52.349998 L179.000000,961.750000 L179.000000,961.849976 L384.000000,962.000000 L383.850006,670.599976 L384.000000,670.250000 L384.600006,670.250000 L384.600006,993.000000 L170.750000,993.000000 L170.750000,43.750000 L548.849976,44.849998 L589.750000,48.349998 L626.000000,54.000000 L661.500000,62.250000 L694.750000,73.099998 L724.500000,86.250000 L751.849976,102.099998 L774.849976,119.250000 L796.250000,139.750000 L814.000000,161.600006 L829.500000,186.500000 L841.750000,212.850006 L851.849976,243.000000 L859.099976,276.100006 L863.099976,308.750000 L864.599976,346.350006 L864.250000,362.500000 L862.849976,381.850006 L860.849976,398.750000 L857.750000,416.350006 L854.500000,430.600006 L850.349976,445.000000 L844.849976,461.000000 L838.849976,475.600006 L832.000000,490.000000 L823.500000,505.100006 L815.500000,517.750000 L806.599976,530.099976 L796.500000,542.750000 L786.000000,554.500000 L774.599976,565.849976 L761.250000,578.000000 L749.000000,588.000000 L735.349976,598.000000 L718.849976,608.750000 L707.500000,615.349976 L691.099976,624.000000 L674.750000,631.500000 L657.849976,638.250000 L647.349976,641.750000 L690.599976,623.250000 L692.349976,622.099976 L743.349976,587.000000 L745.250000,585.750000 L745.849976,584.750000 L788.599976,535.000000 L818.000000,475.750000 L819.000000,473.000000 L819.500000,472.600006 L837.750000,407.500000 L837.849976,406.500000 L844.099976,342.100006 L822.750000,217.250000 L822.500000,215.250000 L758.000000,124.599998 L650.849976,70.750000 L500.100006,52.099998 "/>
		<path style="stroke:rgb(230,230,230);stroke-width:19.800000;stroke-linecap:round;stroke-linejoin:round;fill:none"
		 d="M822.750000,217.250000 L837.849976,406.500000 L844.099976,342.100006 L822.750000,217.250000 L822.500000,215.250000 L758.000000,124.599998 L650.849976,70.750000 L500.100006,52.099998 L193.850006,52.099998 L178.850006,52.099998 L179.000000,52.349998 L359.600006,300.850006 L193.850006,52.099998 		"/>
		<path style="stroke:rgb(230,230,230);stroke-width:19.800000;stroke-linecap:round;stroke-linejoin:round;fill:none"
		 d="M481.250000,209.000000 L650.849976,70.750000 		"/>
		<path style="stroke:rgb(230,230,230);stroke-width:19.800000;stroke-linecap:round;stroke-linejoin:round;fill:none"
		 d="M359.600006,300.850006 L363.000000,305.600006 L363.250000,305.100006 L385.100006,287.500000 		"/>
		<path style="stroke:rgb(230,230,230);stroke-width:19.800000;stroke-linecap:round;stroke-linejoin:round;fill:none"
		 d="M385.250000,310.350006 L363.000000,305.600006 L362.750000,306.850006 L384.000000,670.250000 L384.500000,670.000000 		"/>
		<path style="stroke:rgb(230,230,230);stroke-width:19.800000;stroke-linecap:round;stroke-linejoin:round;fill:none"
		 d="M837.849976,406.500000 L837.750000,407.500000 L638.500000,364.750000 		"/>
		<path style="stroke:rgb(230,230,230);stroke-width:19.800000;stroke-linecap:round;stroke-linejoin:round;fill:none"
		 d="M391.250000,666.000000 L837.750000,407.500000 L819.500000,472.600006 L819.000000,473.000000 L818.849976,473.100006 L818.599976,473.500000 L818.500000,473.750000 L818.000000,474.250000 L817.849976,474.750000 L745.849976,584.750000 L788.599976,535.000000 L818.000000,475.750000 L819.000000,473.000000 		"/>
		<path style="stroke:rgb(230,230,230);stroke-width:19.800000;stroke-linecap:round;stroke-linejoin:round;fill:none"
		 d="M647.349976,641.750000 L690.599976,623.250000 L692.349976,622.099976 L743.349976,587.000000 L745.250000,585.750000 L745.849976,584.750000 		"/>
		<path style="stroke:rgb(230,230,230);stroke-width:19.800000;stroke-linecap:round;stroke-linejoin:round;fill:none"
		 d="M384.600006,670.250000 L384.000000,670.250000 L383.850006,670.599976 L179.250000,961.500000 L362.750000,306.850006 		"/>
		<path style="stroke:rgb(230,230,230);stroke-width:19.800000;stroke-linecap:round;stroke-linejoin:round;fill:none"
		 d="M179.250000,961.500000 L179.000000,961.750000 L179.000000,52.349998 		"/>
		<path style="stroke:rgb(230,230,230);stroke-width:19.800000;stroke-linecap:round;stroke-linejoin:round;fill:none"
		 d="M179.000000,961.750000 L179.000000,961.849976 L384.000000,962.000000 L383.850006,670.599976 		"/>
		<path style="stroke:rgb(255,255,255);stroke-width:19.800000;stroke-linecap:round;stroke-linejoin:round;fill:none"
		 d="M470.350006,208.600006 L481.250000,209.000000 L489.000000,209.100006 L508.850006,210.850006 L526.250000,213.600006 L541.000000,217.100006 L549.849976,220.000000 Q587.099976,231.750000 608.349976,257.350006 Q623.000000,272.350006 632.599976,303.750000 L636.250000,320.000000 L638.250000,336.850006 L638.849976,355.250000 L638.500000,364.750000 L638.250000,371.850006 L636.099976,389.600006 L633.000000,404.500000 L627.750000,420.500000 Q617.750000,446.850006 596.099976,466.100006 Q555.750000,502.350006 469.250000,503.100006 L385.250000,503.100006 L385.250000,310.350006 L385.100006,301.250000 L385.250000,295.350006 L385.100006,287.500000 L385.250000,287.250000 L385.100006,264.850006 L385.350006,263.850006 L385.250000,208.750000 L415.350006,208.600006 L470.350006,208.600006 		"/>
		<path style="stroke:rgb(255,255,255);stroke-width:19.800000;stroke-linecap:round;stroke-linejoin:round;fill:none"
		 d="M691.099976,624.000000 L707.500000,615.349976 L718.849976,608.750000 L735.349976,598.000000 L749.000000,588.000000 L761.250000,578.000000 L774.599976,565.849976 L786.000000,554.500000 L796.500000,542.750000 L806.599976,530.099976 L815.500000,517.750000 L823.500000,505.100006 L832.000000,490.000000 L838.849976,475.600006 L844.849976,461.000000 L850.349976,445.000000 L854.500000,430.600006 L857.750000,416.350006 L860.849976,398.750000 L862.849976,381.850006 L864.250000,362.500000 L864.599976,346.350006 L863.099976,308.750000 L859.099976,276.100006 L851.849976,243.000000 L841.750000,212.850006 L829.500000,186.500000 L814.000000,161.600006 L796.250000,139.750000 L774.849976,119.250000 L751.849976,102.099998 L724.500000,86.250000 L694.750000,73.099998 L661.500000,62.250000 L626.000000,54.000000 L589.750000,48.349998 L548.849976,44.849998 L170.750000,43.750000 L170.750000,993.000000 L384.600006,993.000000 L384.600006,670.250000 L384.500000,670.000000 L384.600006,669.849976 L384.600006,669.750000 L384.600006,666.000000 L391.250000,666.000000 L393.250000,666.000000 L490.000000,666.000000 L509.500000,665.599976 L530.599976,664.500000 L543.750000,663.349976 L565.500000,660.849976 L565.849976,660.750000 L587.000000,657.500000 L606.500000,653.500000 L623.500000,649.250000 L632.849976,646.500000 L633.250000,646.250000 L644.500000,642.849976 L647.349976,641.750000 L657.849976,638.250000 L674.750000,631.500000 L691.099976,624.000000 		"/>
	</g>
</svg>