<?xml version="1.0" encoding="UTF-8" standalone="no"?>
<!-- Generator: -->

<svg
   width="1024pt"
   height="1024pt"
   viewBox="0 0 1024 1024"
   version="1.1"
   id="svg172"
   sodipodi:docname="relic.svg"
   inkscape:version="1.1 (c68e22c387, 2021-05-23)"
   xmlns:inkscape="http://www.inkscape.org/namespaces/inkscape"
   xmlns:sodipodi="http://sodipodi.sourceforge.net/DTD/sodipodi-0.dtd"
   xmlns="http://www.w3.org/2000/svg"
   xmlns:svg="http://www.w3.org/2000/svg">
  <defs
     id="defs176" />
  <sodipodi:namedview
     id="namedview174"
     pagecolor="#505050"
     bordercolor="#eeeeee"
     borderopacity="1"
     inkscape:pageshadow="0"
     inkscape:pageopacity="0"
     inkscape:pagecheckerboard="0"
     inkscape:document-units="pt"
     showgrid="false"
     inkscape:zoom="0.19498953"
     inkscape:cx="248.73131"
     inkscape:cy="1310.3268"
     inkscape:window-width="1920"
     inkscape:window-height="1147"
     inkscape:window-x="-8"
     inkscape:window-y="-8"
     inkscape:window-maximized="1"
     inkscape:current-layer="FRAME_0" />
  <g
     id="FRAME_0"
     style="visibility:visible"
     fill-rule="evenodd">
    <path
       style="opacity:1;fill:#98948b;stroke-width:0"
       d="m 511.25,26 0.5,-0.25 485.5,486 h -183.5 l -1.25,-0.5 -158.75,-51.25 0.75,2 q 18.25,51 -2.75,107 l -1.25,3 -5.5,11.5 -5.25,8.75 -12,16.5 q -31.25,35 -64.5,45 l -2,0.75 Q 509.75,672.75 454,651.75 l -3,-1.25 -17.75,-9.25 -6.25,-3.75 -13,-9.75 q -28.75,-23 -44.75,-64.5 l -0.75,-2 q -18.5,-50.5 2.75,-107 l 1.25,-3 9.25,-17.75 3.75,-6.25 9.75,-13 Q 418,385.5 459.75,369.5 l 2,-0.75 Q 512,350.25 569,371.5 l 3,1.25 L 511.5,209.5 511.25,26"
       id="path147" />
    <path
       style="opacity:1;fill:#cbc6ba;stroke-width:0"
       d="m 511.25,26 0.25,183.5 -1,1.75 -50.75,158.25 q -41.75,16 -64.5,44.75 l -9.75,13 -3.75,6.25 -9.25,17.75 -163.25,60.5 H 25.75 L 511.25,26"
       id="path149" />
    <path
       style="opacity:1;fill:#e5dfd1;stroke-width:0"
       d="m 511.5,209.5 60.5,163.25 -3,-1.25 -57.75,-64 -49.5,61.25 -2,0.75 50.75,-158.25 1,-1.75 m -140.25,244.75 -64,57.5 61.25,49.5 0.75,2 -159.5,-51.25 -0.5,-0.25 163.25,-60.5 -1.25,3 m 282.5,5.75 158.75,51.25 1.25,0.5 -163.25,60.25 1.25,-3 64,-57.5 -61.25,-49.5 -0.75,-2 M 454,651.75 l 57.75,64 49.5,-61.25 2,-0.75 L 512,812.5 511.25,813.75 451,650.5 l 3,1.25"
       id="path151" />
    <path
       style="opacity:1;fill:#323232;stroke-width:0"
       d="m 461.75,368.75 49.5,-61.25 57.75,64 q -57,-21.25 -107.25,-2.75 m -90.5,85.5 q -21.25,56.5 -2.75,107 l -61.25,-49.5 64,-57.5 M 651.75,569 q 21,-56 2.75,-107 l 61.25,49.5 -64,57.5 M 454,651.75 q 55.75,21 107.25,2.75 l -49.5,61.25 -57.75,-64"
       id="path153" />
    <path
       style="opacity:1;fill:#7f7c74;stroke-width:0"
       d="m 25.75,511.75 h 183.5 l 0.5,0.25 159.5,51.25 q 16,41.5 44.75,64.5 l 13,9.75 6.25,3.75 17.75,9.25 60.25,163.25 v 183.5 L 25.75,511.75"
       id="path155" />
    <path
       style="opacity:1;fill:#5f5d57;stroke-width:0"
       d="m 813.75,511.75 h 183.5 l -485.5,485.75 -0.5,-0.25 V 813.75 L 512,812.5 563.25,653.75 q 33.25,-10 64.5,-45 l 12,-16.5 5.25,-8.75 5.5,-11.5 163.25,-60.25"
       id="path157" />
    <path
       style="fill:none;stroke:#262626;stroke-width:17.3;stroke-linecap:round;stroke-linejoin:round"
       d="m 395.25,414.25 c 15.16667,-19.16667 36.66667,-34.08333 64.5,-44.75 l 2,-0.75 C 495.25,356.41667 531,357.33333 569,371.5 l 3,1.25 10.5,5 11,6.5 15.25,11.25 c 23.33333,21 38.33333,42.5 45,64.5 l 0.75,2 c 12.16667,34 11.25,69.66667 -2.75,107 l -1.25,3 -5.5,11.5 -5.25,8.75 -12,16.5 c -20.83333,23.33333 -42.33333,38.33333 -64.5,45 l -2,0.75 C 526.91667,666.66667 491.16667,665.75 454,651.75 l -3,-1.25 -17.75,-9.25 -6.25,-3.75 -13,-9.75 c -19.16667,-15.33333 -34.08333,-36.83333 -44.75,-64.5 l -0.75,-2 c -12.33333,-33.66667 -11.41667,-69.33333 2.75,-107 l 1.25,-3 9.25,-17.75 3.75,-6.25 9.75,-13"
       id="path159"
       sodipodi:nodetypes="ccccccccccccccccccccccccccccc" />
    <path
       style="fill:none;stroke:#262626;stroke-width:17.3;stroke-linecap:round;stroke-linejoin:round"
       d="M 812.5,511.25 653.75,460"
       id="path161"
       sodipodi:nodetypes="cc" />
    <path
       style="fill:none;stroke:#262626;stroke-width:17.3;stroke-linecap:round;stroke-linejoin:round"
       d="m 511.25,26 0.5,-0.25 485.5,486 -485.5,485.75 -0.5,-0.25 L 25.75,511.75 511.25,26"
       id="path163" />
    <path
       style="fill:none;stroke:#262626;stroke-width:17.3;stroke-linecap:round;stroke-linejoin:round"
       d="M 396,511.75 511.75,627.25 627,511.75 511.25,396 396,511.75 h 231"
       id="path165" />
    <path
       style="fill:none;stroke:#262626;stroke-width:17.3;stroke-linecap:round;stroke-linejoin:round"
       d="M 368.5,561.25 209.75,512"
       id="path167"
       sodipodi:nodetypes="cc" />
    <path
       style="fill:none;stroke:#262626;stroke-width:17.3;stroke-linecap:round;stroke-linejoin:round"
       d="M 512,812.5 563.25,653.75"
       id="path169"
       sodipodi:nodetypes="cc" />
    <path
       style="fill:none;stroke:#262626;stroke-width:17.3;stroke-linecap:round;stroke-linejoin:round"
       d="M 510.5,211.25 459.75,369.5"
       id="path1049"
       sodipodi:nodetypes="cc" />
    <path
       style="fill:none;stroke:#262626;stroke-width:17.3;stroke-linecap:round;stroke-linejoin:round"
       d="M 812.5,511.25 653.75,460"
       id="path1127"
       sodipodi:nodetypes="cc" />
  </g>
</svg>
