<?xml version="1.0" encoding="iso-8859-1"?>
<!DOCTYPE svg PUBLIC "-//W3C//DTD SVG 20000303 Stylable//EN"
"http://www.w3.org/TR/2000/03/WD-SVG-20000303/DTD/svg-20000303-stylable.dtd">
<!-- Generator: --> 
<svg width="1024pt" height="1024pt" viewBox="0 0 1024 1024">
	<g  id="FRAME_0" style="visibility:visible" fill-rule="evenodd">
		<path style="fill:rgb(178,178,178);opacity:1;stroke-width:0"
		 d="M511.250000,125.500000 L511.600006,124.750000 L566.000000,263.750000 L620.349976,402.500000 L769.250000,411.350006 L918.099976,420.250000 L802.849976,515.000000 L687.750000,609.599976 L725.250000,753.849976 L762.750000,897.349976 L762.849976,898.349976 L762.500000,898.099976 L636.849976,817.750000 L511.500000,737.750000 L386.000000,817.750000 L260.350006,898.349976 L260.250000,897.849976 L297.750000,753.750000 L335.250000,609.599976 L220.100006,515.000000 L104.849998,420.350006 L253.750000,411.350006 L402.500000,402.600006 L456.850006,264.000000 L511.250000,125.500000 "/>
		<path style="stroke:rgb(204,204,204);stroke-width:19.800000;stroke-linecap:round;stroke-linejoin:round;fill:none"
		 d="M511.350006,253.000000 L511.500000,253.250000 L549.599976,349.750000 L566.000000,263.750000 L511.600006,124.750000 L511.250000,125.500000 L511.350006,253.000000 		"/>
		<path style="stroke:rgb(204,204,204);stroke-width:19.800000;stroke-linecap:round;stroke-linejoin:round;fill:none"
		 d="M511.250000,125.500000 L456.850006,264.000000 L457.250000,264.600006 L473.350006,349.750000 L511.500000,253.250000 		"/>
		<path style="stroke:rgb(204,204,204);stroke-width:19.800000;stroke-linecap:round;stroke-linejoin:round;fill:none"
		 d="M566.000000,263.750000 L620.349976,402.500000 L769.250000,411.350006 L918.099976,420.250000 L796.250000,459.850006 L691.849976,453.600006 L587.750000,447.350006 L549.599976,349.750000 		"/>
		<path style="stroke:rgb(204,204,204);stroke-width:19.800000;stroke-linecap:round;stroke-linejoin:round;fill:none"
		 d="M456.850006,264.000000 L402.500000,402.600006 L253.750000,411.350006 L104.849998,420.350006 L226.750000,459.850006 L331.000000,453.600006 L253.750000,411.350006 		"/>
		<path style="stroke:rgb(204,204,204);stroke-width:19.800000;stroke-linecap:round;stroke-linejoin:round;fill:none"
		 d="M402.500000,402.600006 L435.100006,447.350006 L473.350006,349.750000 		"/>
		<path style="stroke:rgb(204,204,204);stroke-width:19.800000;stroke-linecap:round;stroke-linejoin:round;fill:none"
		 d="M587.750000,447.350006 L620.349976,402.500000 		"/>
		<path style="stroke:rgb(204,204,204);stroke-width:19.800000;stroke-linecap:round;stroke-linejoin:round;fill:none"
		 d="M331.000000,453.600006 L435.100006,447.350006 		"/>
		<path style="stroke:rgb(204,204,204);stroke-width:19.800000;stroke-linecap:round;stroke-linejoin:round;fill:none"
		 d="M691.849976,453.600006 L769.250000,411.350006 		"/>
		<path style="stroke:rgb(204,204,204);stroke-width:19.800000;stroke-linecap:round;stroke-linejoin:round;fill:none"
		 d="M226.750000,459.850006 L307.250000,526.099976 L220.100006,515.000000 L104.849998,420.350006 		"/>
		<path style="stroke:rgb(204,204,204);stroke-width:19.800000;stroke-linecap:round;stroke-linejoin:round;fill:none"
		 d="M796.250000,459.850006 L715.750000,526.099976 L802.849976,515.000000 L918.099976,420.250000 		"/>
		<path style="stroke:rgb(204,204,204);stroke-width:19.800000;stroke-linecap:round;stroke-linejoin:round;fill:none"
		 d="M307.250000,526.099976 L388.100006,592.500000 L335.250000,609.599976 L220.100006,515.000000 		"/>
		<path style="stroke:rgb(204,204,204);stroke-width:19.800000;stroke-linecap:round;stroke-linejoin:round;fill:none"
		 d="M715.750000,526.099976 L634.849976,592.500000 L687.750000,609.599976 L802.849976,515.000000 		"/>
		<path style="stroke:rgb(204,204,204);stroke-width:19.800000;stroke-linecap:round;stroke-linejoin:round;fill:none"
		 d="M388.100006,592.500000 L361.600006,693.750000 L297.750000,753.750000 L335.250000,609.599976 		"/>
		<path style="stroke:rgb(204,204,204);stroke-width:19.800000;stroke-linecap:round;stroke-linejoin:round;fill:none"
		 d="M634.849976,592.500000 L661.250000,693.750000 L725.250000,753.849976 L687.750000,609.599976 		"/>
		<path style="stroke:rgb(204,204,204);stroke-width:19.800000;stroke-linecap:round;stroke-linejoin:round;fill:none"
		 d="M361.600006,693.750000 L335.350006,794.599976 L423.350006,738.599976 L424.600006,737.500000 L511.600006,682.250000 L511.500000,737.750000 L636.849976,817.750000 L599.599976,738.599976 L511.600006,682.250000 		"/>
		<path style="stroke:rgb(204,204,204);stroke-width:19.800000;stroke-linecap:round;stroke-linejoin:round;fill:none"
		 d="M599.599976,738.599976 L687.349976,794.500000 L661.250000,693.750000 		"/>
		<path style="stroke:rgb(204,204,204);stroke-width:19.800000;stroke-linecap:round;stroke-linejoin:round;fill:none"
		 d="M423.350006,738.599976 L386.000000,817.750000 L511.500000,737.750000 		"/>
		<path style="stroke:rgb(204,204,204);stroke-width:19.800000;stroke-linecap:round;stroke-linejoin:round;fill:none"
		 d="M297.750000,753.750000 L260.250000,897.849976 L335.350006,794.599976 		"/>
		<path style="stroke:rgb(204,204,204);stroke-width:19.800000;stroke-linecap:round;stroke-linejoin:round;fill:none"
		 d="M636.849976,817.750000 L762.500000,898.099976 L687.349976,794.500000 		"/>
		<path style="stroke:rgb(204,204,204);stroke-width:19.800000;stroke-linecap:round;stroke-linejoin:round;fill:none"
		 d="M260.250000,897.849976 L260.350006,898.349976 L386.000000,817.750000 		"/>
		<path style="stroke:rgb(204,204,204);stroke-width:19.800000;stroke-linecap:round;stroke-linejoin:round;fill:none"
		 d="M725.250000,753.849976 L762.750000,897.349976 L762.849976,898.349976 L762.500000,898.099976 		"/>
	</g>
</svg>