<?xml version="1.0" encoding="UTF-8" standalone="no"?>
<!-- Generator: -->

<svg
   width="1024pt"
   height="1024pt"
   viewBox="0 0 1024 1024"
   version="1.1"
   id="svg263"
   sodipodi:docname="star_disabled.svg"
   inkscape:version="1.1 (c68e22c387, 2021-05-23)"
   xmlns:inkscape="http://www.inkscape.org/namespaces/inkscape"
   xmlns:sodipodi="http://sodipodi.sourceforge.net/DTD/sodipodi-0.dtd"
   xmlns="http://www.w3.org/2000/svg"
   xmlns:svg="http://www.w3.org/2000/svg">
  <defs
     id="defs267" />
  <sodipodi:namedview
     id="namedview265"
     pagecolor="#505050"
     bordercolor="#eeeeee"
     borderopacity="1"
     inkscape:pageshadow="0"
     inkscape:pageopacity="0"
     inkscape:pagecheckerboard="0"
     inkscape:document-units="pt"
     showgrid="false"
     inkscape:zoom="0.55151367"
     inkscape:cx="682.66667"
     inkscape:cy="682.66667"
     inkscape:window-width="1920"
     inkscape:window-height="1147"
     inkscape:window-x="-8"
     inkscape:window-y="-8"
     inkscape:window-maximized="1"
     inkscape:current-layer="svg263" />
  <g
     id="FRAME_0"
     style="visibility:visible"
     fill-rule="evenodd">
    <path
       style="fill:rgb(105,105,105);opacity:1;stroke-width:0"
       d="M511.250000,125.500000 L511.600006,124.750000 L566.000000,263.750000 L620.349976,402.500000 L769.250000,411.350006 L918.099976,420.250000 L802.849976,515.000000 L687.750000,609.599976 L725.250000,753.849976 L762.750000,897.349976 L762.849976,898.349976 L762.500000,898.099976 L636.849976,817.750000 L511.500000,737.750000 L386.000000,817.750000 L260.350006,898.349976 L260.250000,897.849976 L297.750000,753.750000 L335.250000,609.599976 L220.100006,515.000000 L104.849998,420.350006 L253.750000,411.350006 L402.500000,402.600006 L456.850006,264.000000 L511.250000,125.500000 "
       id="path218" />
    <path
       style="fill:none;stroke:#cccccc;stroke-width:19.8;stroke-linecap:round;stroke-linejoin:round"
       d="M 511.25,125.5 456.85001,264 402.5,402.60001"
       id="path222"
       sodipodi:nodetypes="ccc" />
    <path
       style="fill:none;stroke:#cccccc;stroke-width:19.8;stroke-linecap:round;stroke-linejoin:round"
       d="M 511.25,125.5 620.34998,402.5 769.25,411.35001 918.09998,420.25"
       id="path224"
       sodipodi:nodetypes="cccc" />
    <path
       style="fill:none;stroke:#cccccc;stroke-width:19.8;stroke-linecap:round;stroke-linejoin:round"
       d="m 402.5,402.60001 -297.65,17.75 230.4,189.24997"
       id="path226"
       sodipodi:nodetypes="ccc" />
    <path
       style="fill:none;stroke:#cccccc;stroke-width:19.8;stroke-linecap:round;stroke-linejoin:round"
       d="M 687.75,609.59998 918.09998,420.25"
       id="path238"
       sodipodi:nodetypes="cc" />
    <path
       style="fill:none;stroke:#cccccc;stroke-width:19.8;stroke-linecap:round;stroke-linejoin:round"
       d="m 386,817.75 125.5,-80"
       id="path252"
       sodipodi:nodetypes="cc" />
    <path
       style="fill:none;stroke:#cccccc;stroke-width:19.8;stroke-linecap:round;stroke-linejoin:round"
       d="m 335.25,609.59998 -75,288.25"
       id="path254"
       sodipodi:nodetypes="cc" />
    <path
       style="fill:none;stroke:#cccccc;stroke-width:19.8;stroke-linecap:round;stroke-linejoin:round"
       d="m 511.5,737.75 251,160.34998"
       id="path256"
       sodipodi:nodetypes="cc" />
    <path
       style="stroke:rgb(204,204,204);stroke-width:19.800000;stroke-linecap:round;stroke-linejoin:round;fill:none"
       d="M260.250000,897.849976 L260.350006,898.349976 L386.000000,817.750000   "
       id="path258" />
    <path
       style="fill:none;stroke:#cccccc;stroke-width:19.8;stroke-linecap:round;stroke-linejoin:round"
       d="m 687.75,609.59998 75,287.75 0.1,1 -0.34998,-0.25"
       id="path260"
       sodipodi:nodetypes="cccc" />
  </g>
</svg>
