<?xml version="1.0" encoding="iso-8859-1"?>
<!DOCTYPE svg PUBLIC "-//W3C//DTD SVG 20000303 Stylable//EN"
"http://www.w3.org/TR/2000/03/WD-SVG-20000303/DTD/svg-20000303-stylable.dtd">
<!-- Generator: --> 
<svg width="1024pt" height="1024pt" viewBox="0 0 1024 1024">
	<g  id="FRAME_0" style="visibility:visible" fill-rule="evenodd">
		<path style="fill:rgb(32,32,32);opacity:1;stroke-width:0"
		 d="M789.250000,57.750000 L789.000000,58.099998 L781.599976,67.599998 L775.349976,77.599998 L774.349976,79.349998 L773.750000,80.349998 L771.500000,84.599998 L770.500000,86.500000 L769.349976,88.599998 L764.000000,99.099998 L754.849976,119.750000 L754.599976,120.349998 L754.349976,121.000000 L754.000000,122.000000 L753.750000,122.500000 L753.500000,123.099998 L753.349976,123.500000 L753.099976,124.099998 L752.849976,124.750000 L745.349976,144.600006 L745.250000,145.000000 L745.250000,145.350006 L741.000000,145.350006 L749.349976,123.099998 L754.849976,110.599998 L753.500000,110.500000 L753.599976,110.000000 L758.099976,100.000000 L762.099976,92.599998 L761.750000,92.250000 L759.099976,91.750000 L759.250000,91.349998 L763.849976,82.500000 L768.000000,76.099998 L765.099976,74.849998 L763.000000,73.349998 L757.099976,81.250000 L747.750000,96.349998 L737.849976,115.599998 L729.599976,136.850006 L727.000000,145.250000 L723.500000,145.250000 L727.099976,133.850006 L731.099976,124.099998 L731.000000,123.750000 L731.349976,123.500000 L731.250000,123.099998 L731.599976,122.849998 L732.250000,120.500000 L733.099976,119.000000 L735.250000,112.750000 L743.750000,93.349998 L755.099976,71.000000 L755.500000,70.849998 L755.500000,70.349998 L756.099976,69.849998 L756.099976,69.349998 L757.099976,68.250000 L757.099976,67.750000 L757.750000,67.250000 L757.750000,66.750000 L758.099976,66.599998 L765.000000,55.099998 Q784.099976,24.600000 807.750000,26.500000 L810.750000,27.250000 L817.099976,31.100000 L820.750000,34.099998 L827.000000,44.250000 L831.099976,58.099998 L833.000000,71.599998 L833.750000,92.849998 L832.849976,112.750000 L830.750000,133.350006 L828.750000,146.600006 L828.349976,148.500000 L826.099976,161.750000 L826.000000,162.250000 L825.849976,162.850006 L825.599976,164.000000 L825.500000,164.600006 L820.750000,187.750000 L820.599976,188.250000 L820.500000,188.750000 L814.500000,213.000000 L814.250000,213.750000 L814.099976,214.100006 L813.849976,215.000000 L813.750000,215.350006 L813.349976,216.600006 L806.849976,238.850006 L806.750000,239.250000 L806.599976,239.600006 L806.500000,240.000000 L805.849976,241.750000 L805.750000,242.100006 L805.599976,242.500000 L805.500000,242.850006 L799.000000,262.350006 L798.750000,263.000000 L798.099976,264.600006 L797.849976,265.250000 L797.599976,265.750000 L797.500000,266.100006 L797.250000,266.750000 L797.000000,267.350006 L789.599976,286.350006 L779.099976,309.350006 L778.250000,311.250000 L778.000000,311.500000 L776.849976,313.850006 L771.349976,324.500000 L768.099976,329.500000 L764.000000,336.000000 L763.000000,337.750000 L762.349976,338.750000 L761.750000,339.750000 L760.599976,341.350006 L759.250000,343.100006 L758.750000,343.750000 Q730.000000,382.600006 707.099976,362.500000 L706.000000,361.250000 L699.849976,351.500000 L695.750000,338.100006 L693.750000,324.100006 L693.099976,310.250000 L693.000000,302.000000 L694.250000,278.100006 L699.349976,277.250000 L698.750000,287.600006 L702.000000,287.100006 L701.500000,294.100006 L701.599976,305.000000 L705.849976,305.000000 L706.099976,298.600006 L707.500000,287.100006 L707.599976,287.500000 L709.000000,288.000000 L710.349976,276.750000 L715.349976,277.000000 L714.349976,287.600006 L713.750000,302.350006 L714.099976,319.100006 L715.849976,333.250000 L716.000000,333.750000 L719.000000,343.350006 L721.599976,347.350006 Q723.599976,349.750000 728.500000,346.100006 L736.000000,339.350006 L744.750000,328.250000 L744.750000,327.750000 L752.099976,316.350006 L762.250000,296.600006 L763.349976,294.250000 L771.349976,276.500000 L773.099976,271.350006 L777.250000,261.600006 L788.750000,228.000000 L794.349976,208.500000 L796.099976,202.000000 L796.000000,201.000000 L801.250000,181.100006 L801.599976,178.000000 L804.349976,165.600006 L804.250000,164.350006 L804.349976,163.850006 L804.750000,163.850006 L805.500000,159.850006 L807.349976,147.750000 L807.599976,145.850006 L809.349976,136.100006 L811.500000,117.349998 L812.849976,92.500000 L812.349976,74.099998 L810.349976,61.000000 L807.599976,52.099998 Q804.849976,46.750000 803.500000,47.099998 Q802.349976,46.349998 797.250000,49.750000 L790.250000,56.500000 L789.250000,57.750000 M755.849976,334.350006 L761.750000,326.350006 L767.099976,317.250000 L768.849976,317.600006 L770.750000,314.500000 L776.599976,304.100006 L785.599976,286.500000 L804.000000,239.000000 L812.750000,209.250000 L819.250000,182.250000 L821.500000,171.350006 L821.099976,170.750000 L820.349976,170.600006 L820.349976,170.100006 L823.000000,157.850006 L827.099976,131.500000 L828.250000,120.099998 L827.000000,119.500000 L826.849976,119.849998 L826.849976,119.349998 L828.250000,106.849998 L828.750000,96.849998 L825.599976,95.750000 L824.099976,95.750000 L824.599976,81.099998 L824.349976,75.349998 L821.849976,75.349998 L821.500000,83.849998 L820.250000,95.250000 L820.000000,95.599998 L818.500000,95.849998 L817.349976,107.099998 L810.099976,153.250000 L804.849976,179.500000 L798.500000,205.600006 L790.599976,233.100006 L782.250000,258.000000 L773.500000,280.600006 L768.349976,291.750000 L769.500000,292.750000 L769.349976,293.100006 L764.750000,303.500000 L759.750000,312.850006 L760.849976,313.850006 L760.750000,314.350006 L755.849976,323.600006 L751.000000,331.250000 L754.250000,333.750000 L755.849976,334.350006 "/>
		<path style="fill:rgb(53,41,2);opacity:1;stroke-width:0"
		 d="M723.500000,145.250000 L727.000000,145.250000 L741.000000,145.350006 L745.250000,145.350006 L792.099976,145.500000 L807.599976,145.850006 L807.349976,147.750000 L775.250000,147.250000 L710.849976,147.000000 L636.250000,147.100006 L595.750000,146.750000 L580.349976,147.100006 Q543.000000,149.500000 510.500000,169.250000 L496.350006,179.000000 L429.250000,243.600006 L287.500000,384.750000 L155.500000,518.099976 L102.099998,575.599976 L93.250000,592.500000 L87.849998,610.500000 L86.099998,628.849976 L88.250000,649.500000 L93.599998,667.000000 L102.500000,683.500000 L126.599998,711.599976 L184.250000,770.599976 L300.850006,887.250000 L351.850006,936.849976 L380.250000,960.849976 L397.100006,969.750000 L415.500000,975.099976 L434.250000,976.849976 Q465.100006,975.099976 488.000000,960.349976 L546.500000,905.849976 L688.599976,765.099976 L829.599976,623.250000 L874.500000,576.500000 L884.250000,566.250000 L894.349976,551.500000 L902.750000,535.349976 L909.250000,518.250000 L913.349976,501.350006 L915.750000,481.000000 L914.849976,428.250000 L915.349976,263.500000 L914.349976,240.100006 L914.599976,238.100006 L914.099976,224.250000 L909.849976,204.350006 L909.000000,202.500000 L900.599976,187.000000 L887.599976,172.350006 L874.750000,161.500000 L858.349976,153.000000 L838.750000,148.850006 L828.349976,148.500000 L828.750000,146.600006 L838.750000,147.000000 L859.000000,151.250000 L876.099976,160.100006 L889.849976,171.850006 L902.599976,186.500000 L911.500000,203.250000 L915.349976,220.850006 L916.000000,223.850006 L917.250000,262.750000 L916.750000,426.350006 L917.500000,462.250000 L917.500000,481.600006 L915.349976,501.000000 L911.250000,518.000000 L904.849976,535.250000 L895.849976,552.599976 L885.849976,567.099976 L858.000000,596.349976 L832.099976,623.349976 L729.849976,726.250000 L693.250000,763.000000 L548.349976,906.599976 L488.850006,962.000000 L471.100006,971.349976 L453.750000,976.599976 L433.750000,978.750000 L414.100006,976.750000 L395.500000,971.099976 L378.500000,962.000000 L348.600006,936.000000 L284.500000,873.349976 L197.100006,786.000000 L125.500000,712.750000 L118.000000,704.099976 L118.099998,703.849976 L117.250000,703.250000 L117.349998,703.000000 L114.849998,700.500000 L115.000000,700.250000 L101.000000,684.500000 L92.500000,668.250000 L92.000000,667.849976 L87.750000,653.349976 L87.250000,652.599976 L87.000000,650.849976 L86.500000,650.099976 L86.000000,648.099976 L84.250000,628.099976 L86.000000,610.500000 L91.599998,591.500000 L98.099998,579.250000 L98.599998,578.849976 L99.250000,577.099976 L100.500000,575.349976 L100.849998,574.099976 L157.500000,513.349976 L209.250000,461.500000 L209.350006,461.000000 L234.350006,436.100006 L235.250000,434.850006 L287.100006,382.500000 L422.250000,248.000000 L438.000000,232.350006 L495.750000,177.100006 Q522.599976,155.600006 561.849976,147.600006 L580.349976,145.250000 L591.500000,145.000000 L723.500000,145.250000 M710.349976,276.750000 L704.500000,276.750000 L699.349976,277.250000 L694.250000,278.100006 Q649.349976,289.750000 635.349976,323.750000 Q619.599976,365.600006 637.849976,396.350006 Q659.000000,430.000000 689.599976,436.350006 Q726.750000,443.100006 751.349976,426.750000 Q783.349976,404.850006 788.750000,372.350006 Q793.349976,337.250000 776.849976,313.850006 L778.000000,311.500000 L778.250000,311.250000 Q792.099976,329.000000 792.849976,362.500000 Q792.349976,392.750000 762.349976,422.000000 Q738.750000,442.000000 703.500000,441.000000 Q671.000000,438.850006 647.000000,413.600006 Q627.500000,392.850006 625.500000,359.500000 Q625.349976,325.750000 647.250000,301.350006 Q671.849976,276.100006 704.500000,273.850006 Q735.000000,272.100006 763.349976,294.250000 L762.250000,296.600006 Q738.349976,277.600006 715.349976,277.000000 L710.349976,276.750000 "/>
		<path style="fill:rgb(85,85,85);opacity:1;stroke-width:0"
		 d="M727.000000,145.250000 L729.599976,136.850006 L737.849976,115.599998 L747.750000,96.349998 L757.099976,81.250000 L763.000000,73.349998 L765.099976,74.849998 L768.000000,76.099998 L763.849976,82.500000 L759.250000,91.349998 L759.099976,91.750000 L761.750000,92.250000 L762.099976,92.599998 L758.099976,100.000000 L753.599976,110.000000 L753.500000,110.500000 L754.849976,110.599998 L749.349976,123.099998 L741.000000,145.350006 L727.000000,145.250000 M699.349976,277.250000 L704.500000,276.750000 L710.349976,276.750000 L709.000000,288.000000 L707.599976,287.500000 L707.500000,287.100006 L706.099976,298.600006 L705.849976,305.000000 L701.599976,305.000000 L701.500000,294.100006 L702.000000,287.100006 L698.750000,287.600006 L699.349976,277.250000 M755.849976,334.350006 L754.250000,333.750000 L751.000000,331.250000 L755.849976,323.600006 L760.750000,314.350006 L760.849976,313.850006 L759.750000,312.850006 L764.750000,303.500000 L769.349976,293.100006 L769.500000,292.750000 L768.349976,291.750000 L773.500000,280.600006 L782.250000,258.000000 L790.599976,233.100006 L798.500000,205.600006 L804.849976,179.500000 L810.099976,153.250000 L817.349976,107.099998 L818.500000,95.849998 L820.000000,95.599998 L820.250000,95.250000 L821.500000,83.849998 L821.849976,75.349998 L824.349976,75.349998 L824.599976,81.099998 L824.099976,95.750000 L825.599976,95.750000 L828.750000,96.849998 L828.250000,106.849998 L826.849976,119.349998 L826.849976,119.849998 L827.000000,119.500000 L828.250000,120.099998 L827.099976,131.500000 L823.000000,157.850006 L820.349976,170.100006 L820.349976,170.600006 L821.099976,170.750000 L821.500000,171.350006 L819.250000,182.250000 L812.750000,209.250000 L804.000000,239.000000 L785.599976,286.500000 L776.599976,304.100006 L770.750000,314.500000 L768.849976,317.600006 L767.099976,317.250000 L761.750000,326.350006 L755.849976,334.350006 "/>
		<path style="fill:rgb(200,157,8);opacity:1;stroke-width:0"
		 d="M828.349976,148.500000 L838.750000,148.850006 L858.349976,153.000000 L874.750000,161.500000 L887.599976,172.350006 L900.599976,187.000000 L909.000000,202.500000 L909.849976,204.350006 L914.099976,224.250000 L914.599976,238.100006 L914.349976,240.100006 L915.349976,263.500000 L914.849976,428.250000 L915.750000,481.000000 L913.349976,501.350006 L909.250000,518.250000 L902.750000,535.349976 L894.349976,551.500000 L884.250000,566.250000 L874.500000,576.500000 L829.599976,623.250000 L688.599976,765.099976 L546.500000,905.849976 L488.000000,960.349976 Q465.100006,975.099976 434.250000,976.849976 L415.500000,975.099976 L397.100006,969.750000 L380.250000,960.849976 L351.850006,936.849976 L300.850006,887.250000 L184.250000,770.599976 L126.599998,711.599976 L102.500000,683.500000 L93.599998,667.000000 L88.250000,649.500000 L86.099998,628.849976 L87.849998,610.500000 L93.250000,592.500000 L102.099998,575.599976 L155.500000,518.099976 L287.500000,384.750000 L429.250000,243.600006 L496.350006,179.000000 L510.500000,169.250000 Q543.000000,149.500000 580.349976,147.100006 L595.750000,146.750000 L636.250000,147.100006 L710.849976,147.000000 L775.250000,147.250000 L807.349976,147.750000 L805.500000,159.850006 L804.750000,163.850006 L804.349976,163.850006 L804.250000,164.350006 L804.349976,165.600006 L801.599976,178.000000 L801.250000,181.100006 L796.000000,201.000000 L796.099976,202.000000 L794.349976,208.500000 L788.750000,228.000000 L777.250000,261.600006 L773.099976,271.350006 L771.349976,276.500000 L763.349976,294.250000 Q735.000000,272.100006 704.500000,273.850006 Q671.849976,276.100006 647.250000,301.350006 Q625.349976,325.750000 625.500000,359.500000 Q627.500000,392.850006 647.000000,413.600006 Q671.000000,438.850006 703.500000,441.000000 Q738.750000,442.000000 762.349976,422.000000 Q792.349976,392.750000 792.849976,362.500000 Q792.099976,329.000000 778.250000,311.250000 L779.099976,309.350006 L789.599976,286.350006 L797.000000,267.350006 L797.250000,266.750000 L797.500000,266.100006 L797.599976,265.750000 L797.849976,265.250000 L798.099976,264.600006 L798.750000,263.000000 L799.000000,262.350006 L805.500000,242.850006 L805.599976,242.500000 L805.750000,242.100006 L805.849976,241.750000 L806.500000,240.000000 L806.599976,239.600006 L806.750000,239.250000 L806.849976,238.850006 L813.349976,216.600006 L813.750000,215.350006 L813.849976,215.000000 L814.099976,214.100006 L814.250000,213.750000 L814.500000,213.000000 L820.500000,188.750000 L820.599976,188.250000 L820.750000,187.750000 L825.500000,164.600006 L825.599976,164.000000 L825.849976,162.850006 L826.000000,162.250000 L826.099976,161.750000 L828.349976,148.500000 "/>
		<path style="stroke:rgb(139,73,1);stroke-width:21.600000;stroke-linecap:round;stroke-linejoin:round;fill:none"
		 d="M803.349976,45.349998 L804.000000,46.500000 		"/>
		<path style="stroke:rgb(139,73,1);stroke-width:21.600000;stroke-linecap:round;stroke-linejoin:round;fill:none"
		 d="M800.849976,45.349998 L803.599976,47.099998 		"/>
		<path style="stroke:rgb(139,73,1);stroke-width:21.600000;stroke-linecap:round;stroke-linejoin:round;fill:none"
		 d="M800.599976,47.099998 L802.000000,47.099998 		"/>
		<path style="stroke:rgb(139,73,1);stroke-width:21.600000;stroke-linecap:round;stroke-linejoin:round;fill:none"
		 d="M804.000000,46.599998 L804.599976,47.599998 		"/>
		<path style="stroke:rgb(139,73,1);stroke-width:21.600000;stroke-linecap:round;stroke-linejoin:round;fill:none"
		 d="M796.750000,50.000000 L797.250000,49.750000 L790.250000,56.500000 L789.849976,56.750000 		"/>
		<path style="stroke:rgb(139,73,1);stroke-width:21.600000;stroke-linecap:round;stroke-linejoin:round;fill:none"
		 d="M788.750000,58.349998 L789.000000,58.099998 L789.250000,57.750000 L790.250000,56.500000 		"/>
		<path style="stroke:rgb(139,73,1);stroke-width:21.600000;stroke-linecap:round;stroke-linejoin:round;fill:none"
		 d="M786.349976,61.349998 L786.500000,61.099998 		"/>
		<path style="stroke:rgb(139,73,1);stroke-width:21.600000;stroke-linecap:round;stroke-linejoin:round;fill:none"
		 d="M780.349976,69.599998 L780.500000,69.349998 		"/>
		<path style="stroke:rgb(139,73,1);stroke-width:21.600000;stroke-linecap:round;stroke-linejoin:round;fill:none"
		 d="M745.250000,145.350006 L792.099976,145.500000 L807.599976,145.850006 L807.349976,147.750000 L805.500000,159.850006 L804.750000,163.850006 L804.349976,163.850006 L804.250000,164.350006 L804.349976,165.600006 L801.599976,178.000000 L801.250000,181.100006 L796.000000,201.000000 L796.099976,202.000000 L794.349976,208.500000 L788.750000,228.000000 L777.250000,261.600006 L773.099976,271.350006 L771.349976,276.500000 L763.349976,294.250000 L762.250000,296.600006 Q738.349976,277.600006 715.349976,277.000000 L710.349976,276.750000 L704.500000,276.750000 L699.349976,277.250000 L694.250000,278.100006 L693.000000,302.000000 L693.099976,310.250000 L693.750000,324.100006 L695.750000,338.100006 L699.849976,351.500000 L706.000000,361.250000 L707.099976,362.500000 Q730.000000,382.600006 758.750000,343.750000 L759.250000,343.100006 L760.599976,341.350006 L761.750000,339.750000 L762.349976,338.750000 L763.000000,337.750000 L764.000000,336.000000 L768.099976,329.500000 L771.349976,324.500000 L776.849976,313.850006 L778.000000,311.500000 L778.250000,311.250000 L779.099976,309.350006 L789.599976,286.350006 L797.000000,267.350006 L797.250000,266.750000 L797.500000,266.100006 L797.599976,265.750000 L797.849976,265.250000 L798.099976,264.600006 L798.750000,263.000000 L799.000000,262.350006 L805.500000,242.850006 L805.599976,242.500000 L805.750000,242.100006 L805.849976,241.750000 L806.500000,240.000000 L806.599976,239.600006 L806.750000,239.250000 L806.849976,238.850006 L813.349976,216.600006 L813.750000,215.350006 L813.849976,215.000000 L814.099976,214.100006 L814.250000,213.750000 L814.500000,213.000000 L820.500000,188.750000 L820.599976,188.250000 L820.750000,187.750000 L825.500000,164.600006 L825.599976,164.000000 L825.849976,162.850006 L826.000000,162.250000 L826.099976,161.750000 L828.349976,148.500000 L828.750000,146.600006 L830.750000,133.350006 L832.849976,112.750000 L833.750000,92.849998 L833.000000,71.599998 L831.099976,58.099998 L827.000000,44.250000 L820.750000,34.099998 L817.099976,31.100000 L810.750000,27.250000 L807.750000,26.500000 Q784.099976,24.600000 765.000000,55.099998 L758.099976,66.599998 L757.750000,66.750000 L757.750000,67.250000 L757.099976,67.750000 L757.099976,68.250000 L756.099976,69.349998 L756.099976,69.849998 L755.500000,70.349998 L755.500000,70.849998 L755.099976,71.000000 L743.750000,93.349998 L735.250000,112.750000 L733.099976,119.000000 L732.250000,120.500000 L731.599976,122.849998 L731.250000,123.099998 L731.349976,123.500000 L731.000000,123.750000 L731.099976,124.099998 L727.099976,133.850006 L723.500000,145.250000 L727.000000,145.250000 L741.000000,145.350006 L745.250000,145.350006 L745.250000,145.000000 L745.349976,144.600006 L752.849976,124.750000 L753.099976,124.099998 L753.349976,123.500000 L753.500000,123.099998 L753.750000,122.500000 L754.000000,122.000000 L754.349976,121.000000 L754.599976,120.349998 L754.849976,119.750000 L764.000000,99.099998 L769.349976,88.599998 L770.500000,86.500000 L771.500000,84.599998 L773.750000,80.349998 L774.349976,79.349998 L775.349976,77.599998 L781.599976,67.599998 L789.000000,58.099998 		"/>
		<path style="stroke:rgb(139,73,1);stroke-width:21.600000;stroke-linecap:round;stroke-linejoin:round;fill:none"
		 d="M833.349976,96.250000 L833.349976,95.849998 		"/>
		<path style="stroke:rgb(139,73,1);stroke-width:21.600000;stroke-linecap:round;stroke-linejoin:round;fill:none"
		 d="M832.849976,106.000000 L832.849976,105.599998 		"/>
		<path style="stroke:rgb(139,73,1);stroke-width:21.600000;stroke-linecap:round;stroke-linejoin:round;fill:none"
		 d="M832.750000,108.849998 L832.750000,108.349998 		"/>
		<path style="stroke:rgb(139,73,1);stroke-width:21.600000;stroke-linecap:round;stroke-linejoin:round;fill:none"
		 d="M795.849976,145.600006 L796.250000,145.600006 		"/>
		<path style="stroke:rgb(139,73,1);stroke-width:21.600000;stroke-linecap:round;stroke-linejoin:round;fill:none"
		 d="M807.599976,145.850006 L809.349976,136.100006 L811.500000,117.349998 L812.849976,92.500000 L812.349976,74.099998 L810.349976,61.000000 L807.599976,52.099998 Q804.849976,46.750000 803.500000,47.099998 Q802.349976,46.349998 797.250000,49.750000 		"/>
		<path style="stroke:rgb(139,73,1);stroke-width:21.600000;stroke-linecap:round;stroke-linejoin:round;fill:none"
		 d="M876.750000,161.000000 L876.599976,160.750000 		"/>
		<path style="stroke:rgb(139,73,1);stroke-width:21.600000;stroke-linecap:round;stroke-linejoin:round;fill:none"
		 d="M878.349976,162.350006 L878.599976,162.600006 		"/>
		<path style="stroke:rgb(139,73,1);stroke-width:21.600000;stroke-linecap:round;stroke-linejoin:round;fill:none"
		 d="M879.250000,163.100006 L879.500000,163.350006 		"/>
		<path style="stroke:rgb(139,73,1);stroke-width:21.600000;stroke-linecap:round;stroke-linejoin:round;fill:none"
		 d="M890.349976,172.750000 L890.750000,173.100006 		"/>
		<path style="stroke:rgb(139,73,1);stroke-width:21.600000;stroke-linecap:round;stroke-linejoin:round;fill:none"
		 d="M891.250000,173.750000 L891.099976,173.500000 		"/>
		<path style="stroke:rgb(139,73,1);stroke-width:21.600000;stroke-linecap:round;stroke-linejoin:round;fill:none"
		 d="M891.849976,174.500000 L891.599976,174.100006 		"/>
		<path style="stroke:rgb(139,73,1);stroke-width:21.600000;stroke-linecap:round;stroke-linejoin:round;fill:none"
		 d="M892.250000,175.000000 L892.500000,175.250000 		"/>
		<path style="stroke:rgb(139,73,1);stroke-width:21.600000;stroke-linecap:round;stroke-linejoin:round;fill:none"
		 d="M899.000000,182.750000 L899.250000,183.000000 		"/>
		<path style="stroke:rgb(139,73,1);stroke-width:21.600000;stroke-linecap:round;stroke-linejoin:round;fill:none"
		 d="M899.599976,183.500000 L900.000000,183.850006 		"/>
		<path style="stroke:rgb(139,73,1);stroke-width:21.600000;stroke-linecap:round;stroke-linejoin:round;fill:none"
		 d="M900.250000,184.250000 L900.750000,184.750000 		"/>
		<path style="stroke:rgb(139,73,1);stroke-width:21.600000;stroke-linecap:round;stroke-linejoin:round;fill:none"
		 d="M901.500000,185.600006 L901.250000,185.250000 		"/>
		<path style="stroke:rgb(139,73,1);stroke-width:21.600000;stroke-linecap:round;stroke-linejoin:round;fill:none"
		 d="M902.250000,186.500000 L902.000000,186.100006 		"/>
		<path style="stroke:rgb(139,73,1);stroke-width:21.600000;stroke-linecap:round;stroke-linejoin:round;fill:none"
		 d="M902.750000,187.250000 L902.599976,187.000000 		"/>
		<path style="stroke:rgb(139,73,1);stroke-width:21.600000;stroke-linecap:round;stroke-linejoin:round;fill:none"
		 d="M911.000000,202.850006 L910.750000,202.350006 		"/>
		<path style="stroke:rgb(139,73,1);stroke-width:21.600000;stroke-linecap:round;stroke-linejoin:round;fill:none"
		 d="M911.599976,204.750000 L911.599976,204.350006 		"/>
		<path style="stroke:rgb(139,73,1);stroke-width:21.600000;stroke-linecap:round;stroke-linejoin:round;fill:none"
		 d="M911.750000,205.350006 L911.750000,205.000000 		"/>
		<path style="stroke:rgb(139,73,1);stroke-width:21.600000;stroke-linecap:round;stroke-linejoin:round;fill:none"
		 d="M915.000000,220.850006 L915.099976,221.100006 		"/>
		<path style="stroke:rgb(139,73,1);stroke-width:21.600000;stroke-linecap:round;stroke-linejoin:round;fill:none"
		 d="M915.750000,225.250000 L915.750000,224.100006 		"/>
		<path style="stroke:rgb(139,73,1);stroke-width:21.600000;stroke-linecap:round;stroke-linejoin:round;fill:none"
		 d="M915.849976,227.600006 L915.849976,226.850006 		"/>
		<path style="stroke:rgb(139,73,1);stroke-width:21.600000;stroke-linecap:round;stroke-linejoin:round;fill:none"
		 d="M915.849976,229.250000 L915.849976,228.250000 		"/>
		<path style="stroke:rgb(139,73,1);stroke-width:21.600000;stroke-linecap:round;stroke-linejoin:round;fill:none"
		 d="M916.000000,233.100006 L916.000000,232.250000 		"/>
		<path style="stroke:rgb(139,73,1);stroke-width:21.600000;stroke-linecap:round;stroke-linejoin:round;fill:none"
		 d="M916.099976,237.100006 L916.099976,236.250000 		"/>
		<path style="stroke:rgb(139,73,1);stroke-width:21.600000;stroke-linecap:round;stroke-linejoin:round;fill:none"
		 d="M916.250000,241.100006 L916.250000,240.250000 		"/>
		<path style="stroke:rgb(139,73,1);stroke-width:21.600000;stroke-linecap:round;stroke-linejoin:round;fill:none"
		 d="M916.750000,256.100006 L916.750000,255.500000 		"/>
		<path style="stroke:rgb(139,73,1);stroke-width:21.600000;stroke-linecap:round;stroke-linejoin:round;fill:none"
		 d="M916.849976,260.100006 L916.849976,258.750000 		"/>
		<path style="stroke:rgb(139,73,1);stroke-width:21.600000;stroke-linecap:round;stroke-linejoin:round;fill:none"
		 d="M917.000000,264.100006 L917.000000,262.750000 		"/>
		<path style="stroke:rgb(139,73,1);stroke-width:21.600000;stroke-linecap:round;stroke-linejoin:round;fill:none"
		 d="M917.000000,265.100006 L917.000000,264.500000 		"/>
		<path style="stroke:rgb(139,73,1);stroke-width:21.600000;stroke-linecap:round;stroke-linejoin:round;fill:none"
		 d="M720.849976,347.000000 L721.599976,347.350006 L719.000000,343.350006 L716.000000,333.750000 L715.849976,333.250000 L714.099976,319.100006 L713.750000,302.350006 L714.349976,287.600006 L714.349976,287.250000 		"/>
		<path style="stroke:rgb(139,73,1);stroke-width:21.600000;stroke-linecap:round;stroke-linejoin:round;fill:none"
		 d="M917.000000,290.350006 L917.000000,273.850006 		"/>
		<path style="stroke:rgb(139,73,1);stroke-width:21.600000;stroke-linecap:round;stroke-linejoin:round;fill:none"
		 d="M713.849976,297.350006 L713.849976,296.750000 		"/>
		<path style="stroke:rgb(139,73,1);stroke-width:21.600000;stroke-linecap:round;stroke-linejoin:round;fill:none"
		 d="M713.750000,300.250000 L713.750000,299.750000 		"/>
		<path style="stroke:rgb(139,73,1);stroke-width:21.600000;stroke-linecap:round;stroke-linejoin:round;fill:none"
		 d="M713.599976,304.100006 L713.599976,302.500000 		"/>
		<path style="stroke:rgb(139,73,1);stroke-width:21.600000;stroke-linecap:round;stroke-linejoin:round;fill:none"
		 d="M715.349976,277.000000 L714.349976,287.600006 		"/>
		<path style="stroke:rgb(139,73,1);stroke-width:21.600000;stroke-linecap:round;stroke-linejoin:round;fill:none"
		 d="M718.750000,342.850006 L718.599976,342.600006 		"/>
		<path style="stroke:rgb(139,73,1);stroke-width:21.600000;stroke-linecap:round;stroke-linejoin:round;fill:none"
		 d="M728.099976,346.500000 L728.349976,346.250000 		"/>
		<path style="stroke:rgb(139,73,1);stroke-width:21.600000;stroke-linecap:round;stroke-linejoin:round;fill:none"
		 d="M721.599976,347.350006 Q723.599976,349.750000 728.500000,346.100006 L736.000000,339.350006 L744.750000,328.250000 L744.750000,327.750000 L752.099976,316.350006 L762.250000,296.600006 		"/>
		<path style="stroke:rgb(139,73,1);stroke-width:21.600000;stroke-linecap:round;stroke-linejoin:round;fill:none"
		 d="M721.250000,348.350006 L722.849976,348.250000 		"/>
		<path style="stroke:rgb(139,73,1);stroke-width:21.600000;stroke-linecap:round;stroke-linejoin:round;fill:none"
		 d="M723.000000,348.850006 L724.250000,348.250000 		"/>
		<path style="stroke:rgb(139,73,1);stroke-width:21.600000;stroke-linecap:round;stroke-linejoin:round;fill:none"
		 d="M916.849976,352.250000 L916.849976,337.850006 		"/>
		<path style="stroke:rgb(139,73,1);stroke-width:21.600000;stroke-linecap:round;stroke-linejoin:round;fill:none"
		 d="M725.349976,368.600006 L726.250000,368.600006 		"/>
		<path style="stroke:rgb(139,73,1);stroke-width:21.600000;stroke-linecap:round;stroke-linejoin:round;fill:none"
		 d="M916.750000,380.750000 L916.750000,374.250000 		"/>
		<path style="stroke:rgb(139,73,1);stroke-width:21.600000;stroke-linecap:round;stroke-linejoin:round;fill:none"
		 d="M694.250000,278.100006 Q649.349976,289.750000 635.349976,323.750000 Q619.599976,365.600006 637.849976,396.350006 Q659.000000,430.000000 689.599976,436.350006 Q726.750000,443.100006 751.349976,426.750000 Q783.349976,404.850006 788.750000,372.350006 Q793.349976,337.250000 776.849976,313.850006 		"/>
		<path style="stroke:rgb(139,73,1);stroke-width:21.600000;stroke-linecap:round;stroke-linejoin:round;fill:none"
		 d="M916.750000,419.750000 L916.599976,409.350006 		"/>
		<path style="stroke:rgb(139,73,1);stroke-width:21.600000;stroke-linecap:round;stroke-linejoin:round;fill:none"
		 d="M916.599976,428.250000 L916.599976,426.600006 		"/>
		<path style="stroke:rgb(139,73,1);stroke-width:21.600000;stroke-linecap:round;stroke-linejoin:round;fill:none"
		 d="M917.000000,452.250000 L917.000000,450.500000 		"/>
		<path style="stroke:rgb(139,73,1);stroke-width:21.600000;stroke-linecap:round;stroke-linejoin:round;fill:none"
		 d="M917.099976,459.350006 L917.099976,455.100006 		"/>
		<path style="stroke:rgb(139,73,1);stroke-width:21.600000;stroke-linecap:round;stroke-linejoin:round;fill:none"
		 d="M917.250000,467.750000 L917.250000,462.250000 		"/>
		<path style="stroke:rgb(139,73,1);stroke-width:21.600000;stroke-linecap:round;stroke-linejoin:round;fill:none"
		 d="M917.099976,476.350006 L917.099976,474.350006 		"/>
		<path style="stroke:rgb(139,73,1);stroke-width:21.600000;stroke-linecap:round;stroke-linejoin:round;fill:none"
		 d="M915.849976,494.850006 L915.849976,494.350006 		"/>
		<path style="stroke:rgb(139,73,1);stroke-width:21.600000;stroke-linecap:round;stroke-linejoin:round;fill:none"
		 d="M915.750000,496.000000 L915.750000,495.500000 		"/>
		<path style="stroke:rgb(139,73,1);stroke-width:21.600000;stroke-linecap:round;stroke-linejoin:round;fill:none"
		 d="M915.599976,497.100006 L915.599976,496.500000 		"/>
		<path style="stroke:rgb(139,73,1);stroke-width:21.600000;stroke-linecap:round;stroke-linejoin:round;fill:none"
		 d="M915.500000,498.250000 L915.500000,497.600006 		"/>
		<path style="stroke:rgb(139,73,1);stroke-width:21.600000;stroke-linecap:round;stroke-linejoin:round;fill:none"
		 d="M915.349976,499.250000 L915.349976,498.600006 		"/>
		<path style="stroke:rgb(139,73,1);stroke-width:21.600000;stroke-linecap:round;stroke-linejoin:round;fill:none"
		 d="M915.250000,500.250000 L915.250000,499.600006 		"/>
		<path style="stroke:rgb(139,73,1);stroke-width:21.600000;stroke-linecap:round;stroke-linejoin:round;fill:none"
		 d="M915.099976,501.100006 L915.099976,500.750000 		"/>
		<path style="stroke:rgb(139,73,1);stroke-width:21.600000;stroke-linecap:round;stroke-linejoin:round;fill:none"
		 d="M915.000000,501.600006 L915.000000,501.250000 		"/>
		<path style="stroke:rgb(139,73,1);stroke-width:21.600000;stroke-linecap:round;stroke-linejoin:round;fill:none"
		 d="M911.500000,515.500000 L911.599976,515.250000 		"/>
		<path style="stroke:rgb(139,73,1);stroke-width:21.600000;stroke-linecap:round;stroke-linejoin:round;fill:none"
		 d="M911.349976,516.000000 L911.500000,515.750000 		"/>
		<path style="stroke:rgb(139,73,1);stroke-width:21.600000;stroke-linecap:round;stroke-linejoin:round;fill:none"
		 d="M904.849976,534.250000 L905.000000,534.000000 		"/>
		<path style="stroke:rgb(139,73,1);stroke-width:21.600000;stroke-linecap:round;stroke-linejoin:round;fill:none"
		 d="M904.500000,535.500000 L904.599976,535.000000 		"/>
		<path style="stroke:rgb(139,73,1);stroke-width:21.600000;stroke-linecap:round;stroke-linejoin:round;fill:none"
		 d="M903.500000,537.349976 L903.750000,537.000000 		"/>
		<path style="stroke:rgb(139,73,1);stroke-width:21.600000;stroke-linecap:round;stroke-linejoin:round;fill:none"
		 d="M896.000000,551.849976 L896.500000,550.849976 		"/>
		<path style="stroke:rgb(139,73,1);stroke-width:21.600000;stroke-linecap:round;stroke-linejoin:round;fill:none"
		 d="M895.099976,553.250000 L895.250000,553.000000 		"/>
		<path style="stroke:rgb(139,73,1);stroke-width:21.600000;stroke-linecap:round;stroke-linejoin:round;fill:none"
		 d="M894.849976,553.599976 L895.000000,553.349976 		"/>
		<path style="stroke:rgb(139,73,1);stroke-width:21.600000;stroke-linecap:round;stroke-linejoin:round;fill:none"
		 d="M894.599976,554.000000 L894.750000,553.750000 		"/>
		<path style="stroke:rgb(139,73,1);stroke-width:21.600000;stroke-linecap:round;stroke-linejoin:round;fill:none"
		 d="M893.750000,555.099976 L894.000000,554.849976 		"/>
		<path style="stroke:rgb(139,73,1);stroke-width:21.600000;stroke-linecap:round;stroke-linejoin:round;fill:none"
		 d="M886.750000,565.349976 L886.849976,565.099976 		"/>
		<path style="stroke:rgb(139,73,1);stroke-width:21.600000;stroke-linecap:round;stroke-linejoin:round;fill:none"
		 d="M886.500000,565.750000 L886.599976,565.500000 		"/>
		<path style="stroke:rgb(139,73,1);stroke-width:21.600000;stroke-linecap:round;stroke-linejoin:round;fill:none"
		 d="M886.250000,566.099976 L886.349976,565.849976 		"/>
		<path style="stroke:rgb(139,73,1);stroke-width:21.600000;stroke-linecap:round;stroke-linejoin:round;fill:none"
		 d="M884.250000,568.599976 L885.250000,567.500000 		"/>
		<path style="stroke:rgb(139,73,1);stroke-width:21.600000;stroke-linecap:round;stroke-linejoin:round;fill:none"
		 d="M881.349976,571.599976 L882.599976,570.250000 		"/>
		<path style="stroke:rgb(139,73,1);stroke-width:21.600000;stroke-linecap:round;stroke-linejoin:round;fill:none"
		 d="M878.500000,574.599976 L879.750000,573.250000 		"/>
		<path style="stroke:rgb(139,73,1);stroke-width:21.600000;stroke-linecap:round;stroke-linejoin:round;fill:none"
		 d="M875.500000,577.750000 L876.849976,576.250000 		"/>
		<path style="stroke:rgb(139,73,1);stroke-width:21.600000;stroke-linecap:round;stroke-linejoin:round;fill:none"
		 d="M872.849976,580.349976 L874.000000,579.250000 		"/>
		<path style="stroke:rgb(139,73,1);stroke-width:21.600000;stroke-linecap:round;stroke-linejoin:round;fill:none"
		 d="M870.250000,583.099976 L871.099976,582.250000 		"/>
		<path style="stroke:rgb(139,73,1);stroke-width:21.600000;stroke-linecap:round;stroke-linejoin:round;fill:none"
		 d="M867.750000,585.750000 L868.250000,585.250000 		"/>
		<path style="stroke:rgb(139,73,1);stroke-width:21.600000;stroke-linecap:round;stroke-linejoin:round;fill:none"
		 d="M839.750000,615.000000 L840.099976,614.500000 		"/>
		<path style="stroke:rgb(139,73,1);stroke-width:21.600000;stroke-linecap:round;stroke-linejoin:round;fill:none"
		 d="M837.349976,617.500000 L837.849976,616.849976 		"/>
		<path style="stroke:rgb(139,73,1);stroke-width:21.600000;stroke-linecap:round;stroke-linejoin:round;fill:none"
		 d="M834.849976,620.099976 L835.500000,619.349976 		"/>
		<path style="stroke:rgb(139,73,1);stroke-width:21.600000;stroke-linecap:round;stroke-linejoin:round;fill:none"
		 d="M832.349976,622.750000 L833.099976,621.849976 		"/>
		<path style="stroke:rgb(139,73,1);stroke-width:21.600000;stroke-linecap:round;stroke-linejoin:round;fill:none"
		 d="M822.349976,632.849976 L830.849976,624.250000 		"/>
		<path style="stroke:rgb(139,73,1);stroke-width:21.600000;stroke-linecap:round;stroke-linejoin:round;fill:none"
		 d="M800.750000,654.500000 L811.250000,644.000000 		"/>
		<path style="stroke:rgb(139,73,1);stroke-width:21.600000;stroke-linecap:round;stroke-linejoin:round;fill:none"
		 d="M784.849976,670.500000 L789.000000,666.349976 		"/>
		<path style="stroke:rgb(139,73,1);stroke-width:21.600000;stroke-linecap:round;stroke-linejoin:round;fill:none"
		 d="M705.250000,750.599976 L708.349976,747.349976 		"/>
		<path style="stroke:rgb(139,73,1);stroke-width:21.600000;stroke-linecap:round;stroke-linejoin:round;fill:none"
		 d="M689.500000,766.349976 L695.599976,760.250000 		"/>
		<path style="stroke:rgb(139,73,1);stroke-width:21.600000;stroke-linecap:round;stroke-linejoin:round;fill:none"
		 d="M685.099976,770.750000 L689.349976,766.500000 		"/>
		<path style="stroke:rgb(139,73,1);stroke-width:21.600000;stroke-linecap:round;stroke-linejoin:round;fill:none"
		 d="M675.849976,779.849976 L676.500000,779.250000 		"/>
		<path style="stroke:rgb(139,73,1);stroke-width:21.600000;stroke-linecap:round;stroke-linejoin:round;fill:none"
		 d="M596.099976,858.849976 L598.000000,857.099976 		"/>
		<path style="stroke:rgb(139,73,1);stroke-width:21.600000;stroke-linecap:round;stroke-linejoin:round;fill:none"
		 d="M579.099976,875.750000 L584.849976,870.099976 		"/>
		<path style="stroke:rgb(139,73,1);stroke-width:21.600000;stroke-linecap:round;stroke-linejoin:round;fill:none"
		 d="M565.000000,889.849976 L571.849976,883.000000 		"/>
		<path style="stroke:rgb(139,73,1);stroke-width:21.600000;stroke-linecap:round;stroke-linejoin:round;fill:none"
		 d="M551.849976,902.849976 L558.750000,896.000000 		"/>
		<path style="stroke:rgb(139,73,1);stroke-width:21.600000;stroke-linecap:round;stroke-linejoin:round;fill:none"
		 d="M546.099976,908.349976 L546.750000,907.750000 		"/>
		<path style="stroke:rgb(139,73,1);stroke-width:21.600000;stroke-linecap:round;stroke-linejoin:round;fill:none"
		 d="M544.599976,909.750000 L545.099976,909.250000 		"/>
		<path style="stroke:rgb(139,73,1);stroke-width:21.600000;stroke-linecap:round;stroke-linejoin:round;fill:none"
		 d="M543.000000,911.250000 L543.349976,910.849976 		"/>
		<path style="stroke:rgb(139,73,1);stroke-width:21.600000;stroke-linecap:round;stroke-linejoin:round;fill:none"
		 d="M541.349976,912.750000 L541.750000,912.349976 		"/>
		<path style="stroke:rgb(139,73,1);stroke-width:21.600000;stroke-linecap:round;stroke-linejoin:round;fill:none"
		 d="M539.849976,914.099976 L540.099976,913.849976 		"/>
		<path style="stroke:rgb(139,73,1);stroke-width:21.600000;stroke-linecap:round;stroke-linejoin:round;fill:none"
		 d="M534.750000,919.099976 L535.000000,918.849976 		"/>
		<path style="stroke:rgb(139,73,1);stroke-width:21.600000;stroke-linecap:round;stroke-linejoin:round;fill:none"
		 d="M508.350006,943.500000 L508.600006,943.250000 		"/>
		<path style="stroke:rgb(139,73,1);stroke-width:21.600000;stroke-linecap:round;stroke-linejoin:round;fill:none"
		 d="M506.500000,945.250000 L506.850006,944.849976 		"/>
		<path style="stroke:rgb(139,73,1);stroke-width:21.600000;stroke-linecap:round;stroke-linejoin:round;fill:none"
		 d="M504.750000,946.849976 L505.250000,946.349976 		"/>
		<path style="stroke:rgb(139,73,1);stroke-width:21.600000;stroke-linecap:round;stroke-linejoin:round;fill:none"
		 d="M503.000000,948.500000 L503.500000,948.000000 		"/>
		<path style="stroke:rgb(139,73,1);stroke-width:21.600000;stroke-linecap:round;stroke-linejoin:round;fill:none"
		 d="M501.100006,950.250000 L501.850006,949.500000 		"/>
		<path style="stroke:rgb(139,73,1);stroke-width:21.600000;stroke-linecap:round;stroke-linejoin:round;fill:none"
		 d="M499.350006,951.849976 L500.250000,951.000000 		"/>
		<path style="stroke:rgb(139,73,1);stroke-width:21.600000;stroke-linecap:round;stroke-linejoin:round;fill:none"
		 d="M497.600006,953.500000 L498.350006,952.750000 		"/>
		<path style="stroke:rgb(139,73,1);stroke-width:21.600000;stroke-linecap:round;stroke-linejoin:round;fill:none"
		 d="M495.750000,955.250000 L496.600006,954.349976 		"/>
		<path style="stroke:rgb(139,73,1);stroke-width:21.600000;stroke-linecap:round;stroke-linejoin:round;fill:none"
		 d="M494.000000,956.849976 L494.850006,956.000000 		"/>
		<path style="stroke:rgb(139,73,1);stroke-width:21.600000;stroke-linecap:round;stroke-linejoin:round;fill:none"
		 d="M492.250000,958.500000 L493.000000,957.750000 		"/>
		<path style="stroke:rgb(139,73,1);stroke-width:21.600000;stroke-linecap:round;stroke-linejoin:round;fill:none"
		 d="M490.350006,960.250000 L491.250000,959.349976 		"/>
		<path style="stroke:rgb(139,73,1);stroke-width:21.600000;stroke-linecap:round;stroke-linejoin:round;fill:none"
		 d="M488.850006,961.599976 L489.500000,961.000000 		"/>
		<path style="stroke:rgb(139,73,1);stroke-width:21.600000;stroke-linecap:round;stroke-linejoin:round;fill:none"
		 d="M485.600006,963.599976 L486.100006,963.349976 		"/>
		<path style="stroke:rgb(139,73,1);stroke-width:21.600000;stroke-linecap:round;stroke-linejoin:round;fill:none"
		 d="M828.750000,146.600006 L838.750000,147.000000 L859.000000,151.250000 L876.099976,160.100006 L889.849976,171.850006 L902.599976,186.500000 L911.500000,203.250000 L915.349976,220.850006 L916.000000,223.850006 L917.250000,262.750000 L916.750000,426.350006 L917.500000,462.250000 L917.500000,481.600006 L915.349976,501.000000 L911.250000,518.000000 L904.849976,535.250000 L895.849976,552.599976 L885.849976,567.099976 L858.000000,596.349976 L832.099976,623.349976 L729.849976,726.250000 L693.250000,763.000000 L548.349976,906.599976 L488.850006,962.000000 L471.100006,971.349976 L453.750000,976.599976 L433.750000,978.750000 L414.100006,976.750000 L395.500000,971.099976 L378.500000,962.000000 L348.600006,936.000000 L284.500000,873.349976 L197.100006,786.000000 L125.500000,712.750000 L118.000000,704.099976 L118.099998,703.849976 L117.250000,703.250000 L117.349998,703.000000 L114.849998,700.500000 L115.000000,700.250000 L101.000000,684.500000 L92.500000,668.250000 L92.000000,667.849976 L87.750000,653.349976 L87.250000,652.599976 L87.000000,650.849976 L86.500000,650.099976 L86.000000,648.099976 L84.250000,628.099976 L86.000000,610.500000 L91.599998,591.500000 L98.099998,579.250000 L98.599998,578.849976 L99.250000,577.099976 L100.500000,575.349976 L100.849998,574.099976 L157.500000,513.349976 L209.250000,461.500000 L209.350006,461.000000 L234.350006,436.100006 L235.250000,434.850006 L287.100006,382.500000 L422.250000,248.000000 L438.000000,232.350006 L495.750000,177.100006 Q522.599976,155.600006 561.849976,147.600006 L580.349976,145.250000 L591.500000,145.000000 L723.500000,145.250000 		"/>
	</g>
</svg>