<?xml version="1.0" encoding="UTF-8" standalone="no"?>
<!-- Generator: -->

<svg
   width="1024pt"
   height="1024pt"
   viewBox="0 0 1024 1024"
   version="1.1"
   id="svg597"
   sodipodi:docname="treeExpandGrey.svg"
   inkscape:version="1.1 (c68e22c387, 2021-05-23)"
   xmlns:inkscape="http://www.inkscape.org/namespaces/inkscape"
   xmlns:sodipodi="http://sodipodi.sourceforge.net/DTD/sodipodi-0.dtd"
   xmlns="http://www.w3.org/2000/svg"
   xmlns:svg="http://www.w3.org/2000/svg">
  <defs
     id="defs601" />
  <sodipodi:namedview
     id="namedview599"
     pagecolor="#505050"
     bordercolor="#eeeeee"
     borderopacity="1"
     inkscape:pageshadow="0"
     inkscape:pageopacity="0"
     inkscape:pagecheckerboard="0"
     inkscape:document-units="pt"
     showgrid="false"
     inkscape:zoom="0.64"
     inkscape:cx="1033.5938"
     inkscape:cy="521.09375"
     inkscape:window-width="1920"
     inkscape:window-height="1147"
     inkscape:window-x="-8"
     inkscape:window-y="-8"
     inkscape:window-maximized="1"
     inkscape:current-layer="svg597" />
  <g
     id="FRAME_0"
     style="visibility:visible"
     fill-rule="evenodd">
    <path
       style="fill:#4d4d4d;opacity:1;stroke-width:0"
       d="M453.000000,187.250000 L451.500000,432.500000 L205.750000,432.500000 L205.000000,514.250000 L230.500000,514.250000 L451.250000,514.750000 L450.000000,759.750000 L475.500000,759.750000 L532.000000,760.000000 L532.500000,641.500000 L533.250000,514.500000 L778.500000,514.750000 L779.250000,514.750000 L779.500000,483.000000 L779.750000,433.000000 L533.750000,432.750000 L534.000000,314.250000 L534.500000,237.500000 L534.750000,187.250000 L453.000000,187.250000 M54.500000,907.750000 L58.500000,38.750000 L930.000000,39.500000 L926.000000,908.500000 L54.500000,907.750000 "
       id="path570" />
    <path
       id="path572"
       style="opacity:1;fill:#b3b3b3;stroke-width:0"
       d="m 436.59766,172.24023 c -0.49869,81.24739 -0.99458,162.4948 -1.49219,243.74219 -81.90169,0.0154 -163.80339,0.0208 -245.70508,0.0176 -0.35032,38.23568 -0.70082,76.47135 -1.05078,114.70703 82.11263,0.16836 164.22526,0.33305 246.33789,0.5 -0.28479,81.66738 -0.6379,163.33481 -1.31641,245 38.35482,0.1108 76.70964,0.22509 115.06446,0.33594 0.34117,-81.84081 0.73758,-163.68141 1.22461,-245.52149 81.98698,0.0828 163.97396,0.16446 245.96093,0.24805 0.29556,-38.24897 0.50036,-76.49855 0.71485,-114.74805 -82.01432,-0.0842 -164.02865,-0.16652 -246.04297,-0.25 0.1897,-81.8411 0.43592,-163.68252 1.08594,-245.52148 -38.25717,0 -76.51433,0 -114.77149,0 -0.003,0.49674 -0.007,0.99349 -0.01,1.49023 z" />
    <path
       style="opacity:1;fill:#030302;stroke-width:0"
       d="m 54.5,907.75 871.5,0.75 38,76 -871.5,-0.75 -38,-76"
       id="path574"
       sodipodi:nodetypes="ccccc" />
    <path
       style="fill:rgb(1,1,1);opacity:1;stroke-width:0"
       d="M930.000000,39.500000 L930.750000,39.750000 L968.500000,115.250000 L964.000000,984.500000 L926.000000,908.500000 L930.000000,39.500000 "
       id="path576" />
    <path
       style="stroke:rgb(24,23,17);stroke-width:8.650000;stroke-linecap:round;stroke-linejoin:round;fill:none"
       d="M58.500000,38.750000 L930.000000,39.500000 L926.000000,908.500000 L54.500000,907.750000 L58.500000,38.750000   "
       id="path590" />
    <path
       style="stroke:rgb(24,23,17);stroke-width:8.650000;stroke-linecap:round;stroke-linejoin:round;fill:none"
       d="M926.000000,908.500000 L964.000000,984.500000 L92.500000,983.750000 L54.500000,907.750000   "
       id="path592" />
    <path
       style="stroke:rgb(24,23,17);stroke-width:8.650000;stroke-linecap:round;stroke-linejoin:round;fill:none"
       d="M964.000000,984.500000 L968.500000,115.250000 L930.750000,39.750000 L930.000000,39.500000   "
       id="path594" />
  </g>
</svg>
