<?xml version="1.0" encoding="iso-8859-1"?>
<!DOCTYPE svg PUBLIC "-//W3C//DTD SVG 20000303 Stylable//EN"
"http://www.w3.org/TR/2000/03/WD-SVG-20000303/DTD/svg-20000303-stylable.dtd">
<!-- Generator: --> 
<svg width="128pt" height="128pt" viewBox="0 0 128 128">
	<g  id="FRAME_0" style="visibility:visible" fill-rule="evenodd">
		<path style="fill:rgb(181,172,158);opacity:1;stroke-width:0"
		 d="M63.500000,6.000000 L64.250000,6.250000 L65.000000,6.750000 L66.250000,7.500000 L67.000000,8.000000 L67.250000,8.000000 L72.750000,11.750000 L72.250000,51.750000 L115.500000,78.000000 L115.500000,85.250000 L115.500000,96.500000 L72.750000,121.500000 L54.000000,121.250000 L22.500000,102.750000 L11.250000,96.000000 L10.750000,84.500000 L11.000000,77.250000 L53.750000,51.750000 L54.000000,11.750000 L63.500000,6.000000 M63.500000,116.000000 L106.000000,90.750000 L62.750000,64.500000 L20.500000,89.750000 L20.250000,90.500000 L63.500000,116.000000 "/>
		<path style="fill:rgb(178,178,178);opacity:1;stroke-width:0"
		 d="M72.750000,11.750000 L73.250000,11.750000 L73.750000,12.000000 L74.250000,12.500000 L74.750000,12.750000 L75.250000,13.000000 L75.750000,13.250000 L76.250000,13.750000 L76.750000,14.000000 L77.250000,14.250000 L77.750000,14.500000 L78.250000,15.000000 L78.750000,15.250000 L79.250000,15.500000 L79.750000,15.750000 L80.500000,16.250000 L81.250000,16.750000 L81.750000,17.000000 L82.500000,17.500000 L83.250000,18.000000 L83.750000,18.250000 L84.500000,18.750000 L85.000000,19.000000 L85.500000,19.500000 L86.000000,19.750000 L86.500000,20.000000 L87.000000,20.250000 L87.750000,20.750000 L88.500000,21.250000 L89.000000,21.500000 L89.750000,22.000000 L90.500000,22.500000 L91.000000,22.750000 L91.750000,23.250000 L92.500000,23.750000 L93.000000,24.000000 L93.750000,24.500000 L95.000000,25.250000 L95.750000,25.750000 L97.000000,26.500000 L97.750000,27.000000 L99.000000,27.750000 L99.750000,28.250000 L101.000000,29.000000 L103.000000,30.250000 L105.000000,31.500000 L107.000000,32.750000 L115.750000,38.250000 L115.500000,78.000000 L72.250000,51.750000 L72.750000,11.750000 M53.750000,51.750000 L11.000000,77.250000 L12.000000,37.500000 L54.000000,11.750000 L53.750000,51.750000 M63.500000,116.000000 L20.250000,90.500000 L20.500000,89.750000 L62.750000,64.500000 L106.000000,90.750000 L63.500000,116.000000 "/>
		<path style="stroke:rgb(0,0,0);stroke-width:1.450000;stroke-linecap:round;stroke-linejoin:round;fill:none"
		 d="M64.250000,6.250000 L65.000000,6.750000 L66.250000,7.500000 L67.000000,8.000000 L67.250000,8.000000 L72.750000,11.750000 L72.250000,51.750000 L72.250000,59.000000 L62.750000,55.250000 L53.500000,59.000000 L53.750000,51.750000 L54.000000,11.750000 L63.500000,6.000000 L64.250000,6.250000 		"/>
		<path style="stroke:rgb(0,0,0);stroke-width:1.450000;stroke-linecap:round;stroke-linejoin:round;fill:none"
		 d="M72.750000,11.750000 L73.250000,11.750000 L73.750000,12.000000 L74.250000,12.500000 L74.750000,12.750000 L75.250000,13.000000 L75.750000,13.250000 L76.250000,13.750000 L76.750000,14.000000 L77.250000,14.250000 L77.750000,14.500000 L78.250000,15.000000 L78.750000,15.250000 L79.250000,15.500000 L79.750000,15.750000 L80.500000,16.250000 L81.250000,16.750000 L81.750000,17.000000 L82.500000,17.500000 L83.250000,18.000000 L83.750000,18.250000 L84.500000,18.750000 L85.000000,19.000000 L85.500000,19.500000 L86.000000,19.750000 L86.500000,20.000000 L87.000000,20.250000 L87.750000,20.750000 L88.500000,21.250000 L89.000000,21.500000 L89.750000,22.000000 L90.500000,22.500000 L91.000000,22.750000 L91.750000,23.250000 L92.500000,23.750000 L93.000000,24.000000 L93.750000,24.500000 L95.000000,25.250000 L95.750000,25.750000 L97.000000,26.500000 L97.750000,27.000000 L99.000000,27.750000 L99.750000,28.250000 L101.000000,29.000000 L103.000000,30.250000 L105.000000,31.500000 L107.000000,32.750000 L115.750000,38.250000 L115.500000,78.000000 L72.250000,51.750000 		"/>
		<path style="stroke:rgb(0,0,0);stroke-width:1.450000;stroke-linecap:round;stroke-linejoin:round;fill:none"
		 d="M53.750000,51.750000 L11.000000,77.250000 L12.000000,37.500000 L54.000000,11.750000 		"/>
		<path style="stroke:rgb(0,0,0);stroke-width:1.450000;stroke-linecap:round;stroke-linejoin:round;fill:none"
		 d="M11.000000,77.250000 L10.750000,84.500000 L53.500000,59.000000 		"/>
		<path style="stroke:rgb(0,0,0);stroke-width:1.450000;stroke-linecap:round;stroke-linejoin:round;fill:none"
		 d="M72.250000,59.000000 L115.500000,85.250000 L115.500000,78.000000 		"/>
		<path style="stroke:rgb(0,0,0);stroke-width:1.450000;stroke-linecap:round;stroke-linejoin:round;fill:none"
		 d="M20.250000,90.500000 L20.500000,89.750000 L62.750000,64.500000 L106.000000,90.750000 L63.500000,116.000000 L20.250000,90.500000 		"/>
		<path style="stroke:rgb(0,0,0);stroke-width:1.450000;stroke-linecap:round;stroke-linejoin:round;fill:none"
		 d="M115.500000,85.250000 L115.500000,96.500000 L72.750000,121.500000 L54.000000,121.250000 L22.500000,102.750000 L11.250000,96.000000 L10.750000,84.500000 		"/>
	</g>
</svg>