<?xml version="1.0" encoding="iso-8859-1"?>
<!DOCTYPE svg PUBLIC "-//W3C//DTD SVG 20000303 Stylable//EN"
"http://www.w3.org/TR/2000/03/WD-SVG-20000303/DTD/svg-20000303-stylable.dtd">
<!-- Generator: --> 
<svg width="128pt" height="128pt" viewBox="0 0 128 128">
	<g  id="FRAME_0" style="visibility:visible" fill-rule="evenodd">
		<path style="fill:rgb(181,172,158);opacity:1;stroke-width:0"
		 d="M58.000000,27.750000 L63.000000,24.750000 L68.250000,27.500000 L91.250000,41.250000 L91.000000,46.250000 L91.000000,52.000000 L69.750000,64.750000 L58.500000,65.250000 L35.750000,51.750000 L35.500000,45.750000 L35.750000,41.000000 L58.000000,27.750000 M51.500000,42.250000 L40.500000,48.750000 L51.000000,54.750000 Q64.500000,70.500000 75.750000,55.000000 L86.000000,49.000000 L75.500000,42.750000 Q75.250000,40.250000 69.000000,36.500000 L63.000000,35.500000 L56.500000,37.250000 L51.500000,42.250000 M91.250000,59.500000 L101.000000,59.250000 L123.500000,72.750000 L124.000000,80.250000 L124.000000,86.250000 L101.000000,99.750000 L90.750000,99.500000 L80.750000,93.500000 L68.750000,86.250000 L68.500000,79.750000 L91.250000,66.250000 L91.250000,59.500000 M26.500000,60.250000 L36.250000,60.000000 L36.500000,66.250000 L59.750000,79.750000 L59.750000,85.750000 L39.500000,98.000000 Q37.750000,99.750000 33.750000,99.500000 L27.250000,99.500000 L7.250000,88.000000 L4.250000,86.000000 L4.000000,80.000000 L4.000000,73.750000 L26.500000,60.250000 M32.250000,96.500000 L54.250000,83.250000 L54.500000,82.500000 L32.750000,69.500000 L31.250000,69.250000 L10.250000,82.000000 L9.250000,83.250000 L32.250000,96.500000 M96.250000,96.750000 L118.750000,83.000000 L96.000000,69.250000 L73.250000,83.000000 L96.250000,96.750000 "/>
		<path style="fill:rgb(42,80,242);opacity:1;stroke-width:0"
		 d="M51.500000,42.250000 L56.500000,37.250000 L63.000000,35.500000 L69.000000,36.500000 Q75.250000,40.250000 75.500000,42.750000 L77.250000,48.750000 L75.750000,55.000000 Q64.500000,70.500000 51.000000,54.750000 L49.750000,50.000000 L51.500000,42.250000 "/>
		<path style="fill:rgb(178,178,178);opacity:1;stroke-width:0"
		 d="M36.500000,66.250000 L36.250000,60.000000 L59.500000,73.250000 L59.750000,79.750000 L36.500000,66.250000 M91.250000,66.250000 L68.500000,79.750000 L68.500000,72.750000 L91.250000,59.500000 L91.250000,66.250000 M32.250000,96.500000 L9.250000,83.250000 L10.250000,82.000000 L31.250000,69.250000 L32.750000,69.500000 L54.500000,82.500000 L54.250000,83.250000 L32.250000,96.500000 M96.250000,96.750000 L73.250000,83.000000 L96.000000,69.250000 L118.750000,83.000000 L96.250000,96.750000 "/>
		<path style="stroke:rgb(0,0,0);stroke-width:1.450000;stroke-linecap:round;stroke-linejoin:round;fill:none"
		 d="M63.000000,24.750000 L68.250000,27.500000 L68.000000,32.000000 L63.000000,29.500000 L58.250000,32.250000 L58.000000,27.750000 L63.000000,24.750000 		"/>
		<path style="stroke:rgb(0,0,0);stroke-width:1.450000;stroke-linecap:round;stroke-linejoin:round;fill:none"
		 d="M51.500000,42.250000 L40.500000,48.750000 L51.000000,54.750000 L49.750000,50.000000 L51.500000,42.250000 L56.500000,37.250000 L63.000000,35.500000 L69.000000,36.500000 Q75.250000,40.250000 75.500000,42.750000 L77.250000,48.750000 L75.750000,55.000000 L86.000000,49.000000 L75.500000,42.750000 		"/>
		<path style="stroke:rgb(0,0,0);stroke-width:1.450000;stroke-linecap:round;stroke-linejoin:round;fill:none"
		 d="M58.250000,32.250000 L35.500000,45.750000 L35.750000,41.000000 L58.000000,27.750000 		"/>
		<path style="stroke:rgb(0,0,0);stroke-width:1.450000;stroke-linecap:round;stroke-linejoin:round;fill:none"
		 d="M68.000000,32.000000 L91.000000,46.250000 L91.250000,41.250000 L68.250000,27.500000 		"/>
		<path style="stroke:rgb(0,0,0);stroke-width:1.450000;stroke-linecap:round;stroke-linejoin:round;fill:none"
		 d="M35.500000,45.750000 L35.750000,51.750000 L58.500000,65.250000 L69.750000,64.750000 L91.000000,52.000000 L91.000000,46.250000 		"/>
		<path style="stroke:rgb(0,0,0);stroke-width:1.450000;stroke-linecap:round;stroke-linejoin:round;fill:none"
		 d="M101.000000,66.500000 L124.000000,80.250000 L123.500000,72.750000 L101.000000,59.250000 L101.000000,66.500000 L91.250000,66.250000 L91.250000,59.500000 L101.000000,59.250000 		"/>
		<path style="stroke:rgb(0,0,0);stroke-width:1.450000;stroke-linecap:round;stroke-linejoin:round;fill:none"
		 d="M36.500000,66.250000 L59.750000,79.750000 L59.500000,73.250000 L36.250000,60.000000 L36.500000,66.250000 L31.000000,66.750000 L26.750000,66.250000 L26.500000,60.250000 L36.250000,60.000000 		"/>
		<path style="stroke:rgb(0,0,0);stroke-width:1.450000;stroke-linecap:round;stroke-linejoin:round;fill:none"
		 d="M51.000000,54.750000 Q64.500000,70.500000 75.750000,55.000000 		"/>
		<path style="stroke:rgb(0,0,0);stroke-width:1.450000;stroke-linecap:round;stroke-linejoin:round;fill:none"
		 d="M91.250000,66.250000 L68.500000,79.750000 L68.500000,72.750000 L91.250000,59.500000 		"/>
		<path style="stroke:rgb(0,0,0);stroke-width:1.450000;stroke-linecap:round;stroke-linejoin:round;fill:none"
		 d="M26.750000,66.250000 L4.000000,80.000000 L4.000000,73.750000 L26.500000,60.250000 		"/>
		<path style="stroke:rgb(0,0,0);stroke-width:1.450000;stroke-linecap:round;stroke-linejoin:round;fill:none"
		 d="M9.250000,83.250000 L10.250000,82.000000 L31.250000,69.250000 L32.750000,69.500000 L54.500000,82.500000 L54.250000,83.250000 L32.250000,96.500000 L9.250000,83.250000 		"/>
		<path style="stroke:rgb(0,0,0);stroke-width:1.450000;stroke-linecap:round;stroke-linejoin:round;fill:none"
		 d="M73.250000,83.000000 L96.000000,69.250000 L118.750000,83.000000 L96.250000,96.750000 L73.250000,83.000000 		"/>
		<path style="stroke:rgb(0,0,0);stroke-width:1.450000;stroke-linecap:round;stroke-linejoin:round;fill:none"
		 d="M4.000000,80.000000 L4.250000,86.000000 L7.250000,88.000000 L27.250000,99.500000 L33.750000,99.500000 Q37.750000,99.750000 39.500000,98.000000 L59.750000,85.750000 L59.750000,79.750000 		"/>
		<path style="stroke:rgb(0,0,0);stroke-width:1.450000;stroke-linecap:round;stroke-linejoin:round;fill:none"
		 d="M68.500000,79.750000 L68.750000,86.250000 L80.750000,93.500000 L90.750000,99.500000 L101.000000,99.750000 L124.000000,86.250000 L124.000000,80.250000 		"/>
	</g>
</svg>