<?xml version="1.0" encoding="iso-8859-1"?>
<!DOCTYPE svg PUBLIC "-//W3C//DTD SVG 20000303 Stylable//EN"
"http://www.w3.org/TR/2000/03/WD-SVG-20000303/DTD/svg-20000303-stylable.dtd">
<!-- Generator: --> 
<svg width="128pt" height="128pt" viewBox="0 0 128 128">
	<g  id="FRAME_0" style="visibility:visible" fill-rule="evenodd">
		<path style="fill:rgb(181,172,158);opacity:1;stroke-width:0"
		 d="M53.500000,29.250000 L63.250000,23.750000 L72.250000,29.250000 L114.750000,55.000000 Q116.500000,55.750000 115.750000,64.750000 L115.500000,75.750000 L73.000000,100.500000 L59.750000,100.500000 L54.000000,100.500000 L11.000000,75.250000 L10.250000,63.750000 L10.500000,55.000000 L53.500000,29.250000 M63.500000,95.000000 L106.000000,70.000000 L62.500000,44.000000 L19.750000,69.500000 L63.500000,95.000000 "/>
		<path style="stroke:rgb(0,0,0);stroke-width:1.450000;stroke-linecap:round;stroke-linejoin:round;fill:none"
		 d="M63.250000,23.750000 L72.250000,29.250000 L72.000000,38.250000 L63.000000,32.750000 L53.250000,38.250000 L53.500000,29.250000 L63.250000,23.750000 		"/>
		<path style="stroke:rgb(0,0,0);stroke-width:1.450000;stroke-linecap:round;stroke-linejoin:round;fill:none"
		 d="M53.250000,38.250000 L10.250000,63.750000 L10.500000,55.000000 L53.500000,29.250000 		"/>
		<path style="stroke:rgb(0,0,0);stroke-width:1.450000;stroke-linecap:round;stroke-linejoin:round;fill:none"
		 d="M72.250000,29.250000 L114.750000,55.000000 Q116.500000,55.750000 115.750000,64.750000 L72.000000,38.250000 		"/>
		<path style="stroke:rgb(0,0,0);stroke-width:1.450000;stroke-linecap:round;stroke-linejoin:round;fill:none"
		 d="M19.750000,69.500000 L62.500000,44.000000 L106.000000,70.000000 L63.500000,95.000000 L19.750000,69.500000 		"/>
		<path style="stroke:rgb(0,0,0);stroke-width:1.450000;stroke-linecap:round;stroke-linejoin:round;fill:none"
		 d="M115.750000,64.750000 L115.500000,75.750000 L73.000000,100.500000 L59.750000,100.500000 L54.000000,100.500000 L11.000000,75.250000 L10.250000,63.750000 		"/>
	</g>
</svg>