<?xml version="1.0" encoding="iso-8859-1"?>
<!DOCTYPE svg PUBLIC "-//W3C//DTD SVG 20000303 Stylable//EN"
"http://www.w3.org/TR/2000/03/WD-SVG-20000303/DTD/svg-20000303-stylable.dtd">
<!-- Generator: --> 
<svg width="128pt" height="128pt" viewBox="0 0 128 128">
	<g  id="FRAME_0" style="visibility:visible" fill-rule="evenodd">
		<path style="fill:rgb(178,178,178);opacity:1;stroke-width:0"
		 d="M54.000000,11.750000 L54.500000,12.000000 L53.500000,51.750000 L17.000000,74.250000 Q12.000000,77.750000 11.000000,77.000000 L12.000000,37.750000 L54.000000,11.750000 M72.750000,12.000000 L73.750000,12.000000 L115.500000,38.250000 L115.250000,78.000000 L72.250000,51.750000 L72.750000,12.000000 M63.000000,64.500000 L106.000000,90.500000 L63.250000,116.250000 L20.500000,90.750000 L63.000000,64.500000 "/>
		<path style="stroke:rgb(0,0,0);stroke-width:1.450000;stroke-linecap:round;stroke-linejoin:round;fill:none"
		 d="M72.750000,12.000000 L72.250000,51.750000 L77.250000,50.000000 L77.500000,19.750000 L110.750000,40.250000 L115.500000,38.250000 L73.750000,12.000000 L72.750000,12.000000 L77.500000,19.750000 		"/>
		<path style="stroke:rgb(0,0,0);stroke-width:1.450000;stroke-linecap:round;stroke-linejoin:round;fill:none"
		 d="M49.250000,19.750000 L49.000000,49.750000 L53.500000,51.750000 L54.500000,12.000000 L54.000000,11.750000 L12.000000,37.750000 L16.500000,39.750000 L49.250000,19.750000 L54.000000,11.750000 		"/>
		<path style="stroke:rgb(0,0,0);stroke-width:1.450000;stroke-linecap:round;stroke-linejoin:round;fill:none"
		 d="M16.500000,39.750000 L15.750000,69.750000 L49.000000,49.750000 		"/>
		<path style="stroke:rgb(0,0,0);stroke-width:1.450000;stroke-linecap:round;stroke-linejoin:round;fill:none"
		 d="M110.750000,40.250000 L110.750000,70.250000 L77.250000,50.000000 		"/>
		<path style="stroke:rgb(0,0,0);stroke-width:1.450000;stroke-linecap:round;stroke-linejoin:round;fill:none"
		 d="M64.000000,71.250000 L30.750000,91.500000 L20.500000,90.750000 L63.000000,64.500000 L106.000000,90.500000 L97.250000,91.250000 L64.000000,71.250000 L63.000000,64.500000 		"/>
		<path style="stroke:rgb(0,0,0);stroke-width:1.450000;stroke-linecap:round;stroke-linejoin:round;fill:none"
		 d="M15.750000,69.750000 L11.000000,77.000000 L12.000000,37.750000 		"/>
		<path style="stroke:rgb(0,0,0);stroke-width:1.450000;stroke-linecap:round;stroke-linejoin:round;fill:none"
		 d="M11.000000,77.000000 Q12.000000,77.750000 17.000000,74.250000 L53.500000,51.750000 		"/>
		<path style="stroke:rgb(0,0,0);stroke-width:1.450000;stroke-linecap:round;stroke-linejoin:round;fill:none"
		 d="M72.250000,51.750000 L115.250000,78.000000 L110.750000,70.250000 		"/>
		<path style="stroke:rgb(0,0,0);stroke-width:1.450000;stroke-linecap:round;stroke-linejoin:round;fill:none"
		 d="M115.250000,78.000000 L115.500000,38.250000 		"/>
		<path style="stroke:rgb(0,0,0);stroke-width:1.450000;stroke-linecap:round;stroke-linejoin:round;fill:none"
		 d="M30.750000,91.500000 L64.250000,111.250000 L97.250000,91.250000 		"/>
		<path style="stroke:rgb(0,0,0);stroke-width:1.450000;stroke-linecap:round;stroke-linejoin:round;fill:none"
		 d="M64.250000,111.250000 L63.250000,116.250000 L20.500000,90.750000 		"/>
		<path style="stroke:rgb(0,0,0);stroke-width:1.450000;stroke-linecap:round;stroke-linejoin:round;fill:none"
		 d="M106.000000,90.500000 L63.250000,116.250000 		"/>
	</g>
</svg>