<?xml version="1.0" encoding="UTF-8" standalone="no"?>
<!-- Generator: -->

<svg
   width="256pt"
   height="256pt"
   viewBox="0 0 256 256"
   version="1.1"
   id="svg895"
   sodipodi:docname="variant.svg"
   inkscape:version="1.1 (c68e22c387, 2021-05-23)"
   xmlns:inkscape="http://www.inkscape.org/namespaces/inkscape"
   xmlns:sodipodi="http://sodipodi.sourceforge.net/DTD/sodipodi-0.dtd"
   xmlns="http://www.w3.org/2000/svg"
   xmlns:svg="http://www.w3.org/2000/svg">
  <defs
     id="defs899" />
  <sodipodi:namedview
     id="namedview897"
     pagecolor="#505050"
     bordercolor="#eeeeee"
     borderopacity="1"
     inkscape:pageshadow="0"
     inkscape:pageopacity="0"
     inkscape:pagecheckerboard="0"
     inkscape:document-units="pt"
     showgrid="false"
     inkscape:zoom="1.8582269"
     inkscape:cx="38.47754"
     inkscape:cy="176.24328"
     inkscape:window-width="1920"
     inkscape:window-height="1147"
     inkscape:window-x="-8"
     inkscape:window-y="-8"
     inkscape:window-maximized="1"
     inkscape:current-layer="svg895" />
  <g
     id="FRAME_0"
     style="visibility:visible"
     fill-rule="evenodd">
    <path
       style="opacity:1;fill:#7d6dab;stroke-width:0;fill-opacity:1"
       d="m 67,91.75 58.5,-36 h 1.25 l 60,36 60.25,35.5 -0.25,0.75 -58.75,35.5 -30.25,-18 c -30,-17.75 -30,-17.75 -0.5,-35.75 l -30.75,-18 -29.25,18 -30.25,-18"
       id="path878"
       sodipodi:nodetypes="cccccccccccc" />
    <path
       style="opacity:1;fill:#a47a7a;stroke-width:0;fill-opacity:1"
       d="m 67,91.75 30.25,18 c -1.707121,21.2355 -6.50231,11.21428 0.75,36 l 30.5,17.75 29.25,-18 30.25,18 -58.5,36 h -1.25 L 68.5,163.75 8,128 8.25,127.25 67,91.75"
       id="path880"
       sodipodi:nodetypes="cccccccccccc" />
    <path
       style="opacity:1;fill:#cbcbcb;stroke-width:0"
       d="m 97.25,109.75 29.25,-18 30.75,18 28.48371,16.60552 C 172.63015,136.19698 167.42152,138.17482 157.75,145.5 L 128.5,163.5 98,145.75 C 81.018818,137.33138 79.620015,135.20679 66.775383,127.61532 L 97.25,109.75"
       id="path882"
       sodipodi:nodetypes="ccccccccc" />
    <path
       style="stroke:rgb(0,0,0);stroke-width:4.300000;stroke-linecap:round;stroke-linejoin:round;fill:none"
       d="M125.500000,55.750000 L126.750000,55.750000 L186.750000,91.750000 L157.250000,109.750000 L126.500000,91.750000 L97.250000,109.750000 L67.000000,91.750000 L125.500000,55.750000   "
       id="path884" />
    <path
       style="fill:none;stroke:#000000;stroke-width:4.3;stroke-linecap:round;stroke-linejoin:round"
       d="m 157.25,109.75 -29.5,18 -30.5,-18"
       id="path886"
       sodipodi:nodetypes="ccc" />
    <path
       style="fill:none;stroke:#000000;stroke-width:4.3;stroke-linecap:round;stroke-linejoin:round"
       d="m 157.75,145.5 -30,-17.75 -29.75,18"
       id="path888"
       sodipodi:nodetypes="ccc" />
    <path
       style="stroke:rgb(0,0,0);stroke-width:4.300000;stroke-linecap:round;stroke-linejoin:round;fill:none"
       d="M67.000000,91.750000 L8.250000,127.250000 L8.000000,128.000000 L68.500000,163.750000 L98.000000,145.750000 L128.500000,163.500000 L157.750000,145.500000 L188.000000,163.500000 L246.750000,128.000000 L247.000000,127.250000 L186.750000,91.750000   "
       id="path890" />
    <path
       style="stroke:rgb(0,0,0);stroke-width:4.300000;stroke-linecap:round;stroke-linejoin:round;fill:none"
       d="M68.500000,163.750000 L128.250000,199.500000 L129.500000,199.500000 L188.000000,163.500000   "
       id="path892" />
  </g>
</svg>
