{"accessors": [{"count": 24192, "min": [0], "max": [4223], "bufferView": 0, "componentType": 5123, "byteOffset": 0, "type": "SCALAR"}, {"count": 4223, "min": [-0.9999997615814209, -1.0, -0.9999997019767761], "max": [1.0, 1.0, 0.9999998807907104], "bufferView": 1, "componentType": 5126, "byteOffset": 0, "type": "VEC3"}, {"componentType": 5126, "count": 4223, "bufferView": 2, "type": "VEC3", "byteOffset": 0}, {"componentType": 5126, "count": 4285, "bufferView": 3, "type": "VEC2", "byteOffset": 0}], "scenes": [{"nodes": [0, 1, 2, 3, 4], "name": "defaultScene"}], "scene": 0, "meshes": [{"primitives": [{"indices": 0, "attributes": {"POSITION": 1, "TEXCOORD_0": 3, "NORMAL": 2}, "mode": 4}]}], "nodes": [{"translation": [1.8939258685635216, 1.240716315584338, 0.6527716720716482], "scale": [1.0, 1.0, 1.0], "rotation": [-0.21198745494793164, 0.5446559679349328, 0.14460803721273402, 0.7984357902242613]}, {"translation": [0.3948520943993682, 1000.1004628251973, -0.8788052534509384], "scale": [1.0, 1.0, 1.0], "rotation": [-0.7071067811865476, 0.0, 0.0, 0.7071067811865476]}, {"translation": [0.0, 0.0, 1000.1], "scale": [1.0, 1.0, 1.0], "rotation": [0.0, 0.0, 0.0, 1.0]}, {"translation": [1000.1, 0.0, 0.0], "scale": [1.0, 1.0, 1.0], "rotation": [0.0, 0.7071067811865476, 0.0, 0.7071067811865476]}, {"translation": [0.0, 0.0, 0.0], "scale": [1.0, 1.0, 1.0], "rotation": [0.0, 0.0, 0.0, 1.0], "mesh": 0}], "bufferViews": [{"buffer": 0, "byteLength": 48384, "byteOffset": 0, "target": 34963}, {"buffer": 0, "byteLength": 50676, "byteOffset": 48384, "target": 34962}, {"buffer": 0, "byteLength": 50676, "byteOffset": 99060, "target": 34962}, {"buffer": 0, "byteLength": 34280, "byteOffset": 149736, "target": 34962}], "buffers": [{"byteLength": 184016, "uri": "latlong.bin"}], "asset": {"version": "2.0", "generator": "maya-glTFExport"}}