<?xml version="1.0" encoding="iso-8859-1"?>
<!DOCTYPE svg PUBLIC "-//W3C//DTD SVG 20000303 Stylable//EN"
"http://www.w3.org/TR/2000/03/WD-SVG-20000303/DTD/svg-20000303-stylable.dtd">
<!-- Generator: --> 
<svg width="256pt" height="256pt" viewBox="0 0 256 256">
	<g  id="FRAME_0" style="visibility:visible" fill-rule="evenodd">
		<defs>
			<radialGradient id="GRAD_0" gradientUnits="userSpaceOnUse" cx="127.610000" cy="144.280000" r="93.120101">
			<stop offset="0" style="stop-color:rgb(255,255,183)" opacity="1"/>
			<stop offset="1" style="stop-color:rgb(255,159,46)" opacity="1"/>
			</radialGradient>
		</defs>
		<path style="fill:url(#GRAD_0);stroke-width:0"
		 d="M146.250000,65.750000 L152.250000,66.750000 Q164.750000,71.250000 165.500000,73.500000 Q192.500000,134.750000 171.500000,163.500000 Q164.250000,177.000000 136.000000,186.250000 L124.500000,186.750000 L111.000000,185.000000 L95.500000,181.750000 L89.250000,181.500000 L89.500000,185.250000 Q105.750000,219.750000 143.000000,215.750000 Q177.250000,210.750000 192.250000,182.500000 Q183.500000,210.250000 161.750000,226.750000 Q90.000000,226.000000 83.000000,186.000000 Q71.250000,145.500000 125.250000,88.000000 L127.750000,87.250000 L137.250000,98.750000 L145.250000,111.500000 L147.750000,117.500000 L148.750000,122.250000 L149.250000,129.750000 L148.000000,138.000000 L144.250000,146.000000 L135.000000,159.250000 L134.000000,164.000000 Q152.750000,168.750000 166.250000,146.500000 Q179.250000,114.250000 146.250000,65.750000 "/>
		<defs>
			<radialGradient id="GRAD_1" gradientUnits="userSpaceOnUse" cx="145.330000" cy="182.790000" r="138.913591">
			<stop offset="0" style="stop-color:rgb(255,166,112)" opacity="1"/>
			<stop offset="1" style="stop-color:rgb(241,136,84)" opacity="1"/>
			</radialGradient>
		</defs>
		<path style="fill:url(#GRAD_1);stroke-width:0"
		 d="M165.500000,73.500000 L159.750000,61.500000 L147.750000,44.000000 Q154.250000,45.250000 159.500000,50.250000 L174.250000,66.250000 L180.750000,76.500000 L188.250000,90.500000 L191.500000,97.250000 L197.500000,115.500000 Q207.500000,152.000000 192.250000,182.500000 Q177.250000,210.750000 143.000000,215.750000 Q105.750000,219.750000 89.500000,185.250000 L89.250000,181.500000 L95.500000,181.750000 L111.000000,185.000000 L124.500000,186.750000 L136.000000,186.250000 Q164.250000,177.000000 171.500000,163.500000 Q192.500000,134.750000 165.500000,73.500000 "/>
		<defs>
			<radialGradient id="GRAD_2" gradientUnits="userSpaceOnUse" cx="144.370000" cy="145.650000" r="142.735729">
			<stop offset="0" style="stop-color:rgb(255,149,91)" opacity="1"/>
			<stop offset="1" style="stop-color:rgb(197,80,40)" opacity="1"/>
			</radialGradient>
		</defs>
		<path style="fill:url(#GRAD_2);stroke-width:0"
		 d="M161.750000,226.750000 L170.000000,227.250000 L177.250000,226.750000 L182.250000,229.500000 L178.000000,232.500000 Q173.000000,235.250000 163.000000,235.750000 L135.750000,237.000000 L129.000000,237.000000 Q63.500000,232.500000 53.000000,155.500000 L55.000000,141.500000 L59.000000,128.250000 L70.500000,107.250000 L85.750000,88.250000 L95.500000,70.250000 L100.000000,58.500000 L100.500000,45.000000 L97.000000,37.750000 L87.000000,23.500000 L84.750000,18.750000 L85.250000,15.750000 Q91.500000,12.250000 122.250000,35.250000 L137.000000,51.000000 L146.250000,65.750000 Q179.250000,114.250000 166.250000,146.500000 Q152.750000,168.750000 134.000000,164.000000 L135.000000,159.250000 L144.250000,146.000000 L148.000000,138.000000 L149.250000,129.750000 L148.750000,122.250000 L147.750000,117.500000 L145.250000,111.500000 L137.250000,98.750000 L127.750000,87.250000 L125.250000,88.000000 Q71.250000,145.500000 83.000000,186.000000 Q90.000000,226.000000 161.750000,226.750000 "/>
		<path style="stroke:rgb(0,0,0);stroke-width:4.300000;stroke-linecap:round;stroke-linejoin:round;fill:none"
		 d="M152.250000,66.750000 Q164.750000,71.250000 165.500000,73.500000 L159.750000,61.500000 L147.750000,44.000000 Q154.250000,45.250000 159.500000,50.250000 L174.250000,66.250000 L180.750000,76.500000 L188.250000,90.500000 L191.500000,97.250000 L197.500000,115.500000 Q207.500000,152.000000 192.250000,182.500000 Q183.500000,210.250000 161.750000,226.750000 Q90.000000,226.000000 83.000000,186.000000 Q71.250000,145.500000 125.250000,88.000000 L127.750000,87.250000 L137.250000,98.750000 L145.250000,111.500000 L147.750000,117.500000 L148.750000,122.250000 L149.250000,129.750000 L148.000000,138.000000 L144.250000,146.000000 L135.000000,159.250000 L134.000000,164.000000 Q152.750000,168.750000 166.250000,146.500000 Q179.250000,114.250000 146.250000,65.750000 L152.250000,66.750000 		"/>
		<path style="stroke:rgb(0,0,0);stroke-width:4.300000;stroke-linecap:round;stroke-linejoin:round;fill:none"
		 d="M192.250000,182.500000 Q177.250000,210.750000 143.000000,215.750000 Q105.750000,219.750000 89.500000,185.250000 L89.250000,181.500000 L95.500000,181.750000 L111.000000,185.000000 L124.500000,186.750000 L136.000000,186.250000 Q164.250000,177.000000 171.500000,163.500000 Q192.500000,134.750000 165.500000,73.500000 		"/>
		<path style="stroke:rgb(0,0,0);stroke-width:4.300000;stroke-linecap:round;stroke-linejoin:round;fill:none"
		 d="M161.750000,226.750000 L170.000000,227.250000 L177.250000,226.750000 L182.250000,229.500000 L178.000000,232.500000 Q173.000000,235.250000 163.000000,235.750000 L135.750000,237.000000 L129.000000,237.000000 Q63.500000,232.500000 53.000000,155.500000 L55.000000,141.500000 L59.000000,128.250000 L70.500000,107.250000 L85.750000,88.250000 L95.500000,70.250000 L100.000000,58.500000 L100.500000,45.000000 L97.000000,37.750000 L87.000000,23.500000 L84.750000,18.750000 L85.250000,15.750000 Q91.500000,12.250000 122.250000,35.250000 L137.000000,51.000000 L146.250000,65.750000 		"/>
	</g>
</svg>