<?xml version="1.0" encoding="UTF-8" standalone="no"?>
<!-- Generator: -->

<svg
   width="256pt"
   height="256pt"
   viewBox="0 0 256 256"
   version="1.1"
   id="svg52598"
   sodipodi:docname="mayatools.svg"
   inkscape:version="1.1 (c68e22c387, 2021-05-23)"
   xmlns:inkscape="http://www.inkscape.org/namespaces/inkscape"
   xmlns:sodipodi="http://sodipodi.sourceforge.net/DTD/sodipodi-0.dtd"
   xmlns="http://www.w3.org/2000/svg"
   xmlns:svg="http://www.w3.org/2000/svg">
  <defs
     id="defs52602" />
  <sodipodi:namedview
     id="namedview52600"
     pagecolor="#505050"
     bordercolor="#eeeeee"
     borderopacity="1"
     inkscape:pageshadow="0"
     inkscape:pageopacity="0"
     inkscape:pagecheckerboard="0"
     inkscape:document-units="pt"
     showgrid="false"
     inkscape:zoom="1.1030273"
     inkscape:cx="145.50863"
     inkscape:cy="169.08012"
     inkscape:window-width="1920"
     inkscape:window-height="1147"
     inkscape:window-x="-8"
     inkscape:window-y="-8"
     inkscape:window-maximized="1"
     inkscape:current-layer="svg52598" />
  <g
     id="FRAME_0"
     style="visibility:visible"
     fill-rule="evenodd">
    <path
       style="opacity:1;fill:#70d0ce;stroke-width:0"
       d="m 158.67187,57.828132 7.31252,-0.562502 36.74998,-0.562498 4.6875,0.09375 -32.99998,64.125008 v 0.0937 l -0.65627,1.3125 -0.0937,0.0937 v 0.18748 l -0.0937,0.1875 -0.0937,0.0937 -0.0937,0.1875 -0.0937,0.0937 v 0.18752 l -0.0937,0.1875 h -0.0937 l -0.28123,0.56248 -0.0937,0.18752 -0.0937,0.0937 -0.0937,0.1875 v 0.0937 l -0.0937,0.18748 -3.28125,5.90627 -10.5,-72.937508"
       id="path52565" />
    <path
       style="opacity:1;fill:#44ded8;stroke-width:0"
       d="m 44.296863,58.578132 1.125012,-0.562499 43.406238,-4.968753 2.718757,-0.281248 h 0.65625 l 31.96875,80.812508 0.0937,0.46875 0.56249,1.03125 1.31253,3.56248 0.18748,0.37502 0.0937,0.28125 0.0937,0.1875 0.0937,0.1875 0.0937,0.18748 0.0937,0.1875 v 0.18752 l 0.28127,0.375 v 0.0937 l 0.74998,2.0625 0.0937,0.37498 0.375,1.03127 0.18752,0.28125 0.18748,0.37498 0.0937,0.375 0.18752,0.37502 0.0937,0.0937 v 0.28125 l 0.0937,0.0937 0.0937,0.28125 0.0937,0.0937 0.0937,0.37501 0.18748,0.37499 11.4375,29.4375 -29.4375,0.65626 -25.218747,-43.125 -0.09376,-0.46875 -6.375003,-11.25 -0.281238,-0.37501 -0.09375,-0.0937 v -0.18752 l -0.281254,-0.375 -0.09374,-0.0937 v -0.18748 l -0.187511,-0.1875 -0.09374,-0.1875 -0.09376,-0.1875 -0.09374,-0.18752 -0.09375,-0.18748 -0.09375,-0.0937 -0.187498,-0.37502 -0.09374,-0.1875 -0.281252,-0.46875 v -0.0937 L 44.296863,58.578132"
       id="path52567" />
    <path
       style="opacity:1;fill:#6dd1cf;stroke-width:0"
       d="m 44.296863,60.453132 0.187512,0.375001 2.718745,4.6875 0.281253,0.562499 0.09374,0.09375 0.09375,0.187506 0.09375,0.187497 0.09374,0.187496 0.09376,0.187505 0.09374,0.09375 0.187512,0.375001 0.09374,0.187496 37.406278,69.281257 -41.437512,69.5625 V 60.453132"
       id="path52571" />
    <path
       style="opacity:1;fill:#6dd0ce;stroke-width:0"
       d="m 207.42187,59.046882 -0.84375,146.531258 -36.84373,-71.15627 5.90623,-12.1875 27.75,-55.687488 v 0 l 0.0937,-0.187496 0.0937,-0.187506 0.0937,-0.09375 v -0.187497 l 0.0937,-0.09376 0.0937,-0.187496 0.0937,-0.187497 0.0937,-0.09376 3.37502,-6.281246"
       id="path52573" />
    <path
       style="opacity:1;fill:#6ee8e7;stroke-width:0"
       d="m 169.17187,130.76564 v 0.28125 l -43.3125,2.15625 32.8125,-75.375008 10.5,72.937508"
       id="path52577" />
    <path
       style="opacity:1;fill:#6cf9f8;stroke-width:0"
       d="m 169.17187,131.04689 v 0.37498 l -26.62498,44.06252 -1.50002,-3.28125 v -0.1875 l -0.0937,-0.1875 -0.0937,-0.18749 -0.18748,-0.37501 v -0.0937 l -14.81252,-37.96877 43.3125,-2.15625"
       id="path52579" />
    <path
       style="opacity:1;fill:#6acdcb;stroke-width:0"
       d="m 206.57812,205.57814 -0.0937,0.1875 -36.18751,-0.75 -0.56247,-70.59377 36.84373,71.15627 m -162.281257,0.84375 41.437512,-69.5625 -2.156252,69.375 -36.187507,0.375 -3.093753,-0.1875"
       id="path52581" />
    <path
       style="fill:none;stroke:#000000;stroke-width:4.6875;stroke-linecap:round;stroke-linejoin:round;stroke-miterlimit:4;stroke-dasharray:none"
       d="m 44.296863,58.578132 c 13.559629,25.361184 27.911606,50.231718 41.999986,75.093558 l 0.09376,0.46875 C 73.894488,110.38292 53.568955,75.827299 44.296861,58.577928 l 1.125011,-0.562498 43.406239,-4.968754 2.718758,-0.281248 h 0.65625 l 31.968751,80.812482 0.0937,0.46875 16.78065,42.56253 -15.1869,-43.40627 32.8125,-75.375004 7.31252,-0.562503 36.74998,-0.562497 4.6875,0.09375 v 2.250002 l -3.37501,6.281247 -0.0937,0.09376 -0.0937,0.187496 -0.0937,0.187497 -0.0937,0.09376 v 0.187496 l -0.0937,0.09375 -0.0937,0.187507 -0.0937,0.187496 v 0 c -55.69939,113.606963 -33.65379,66.678753 4.03071,-9.749781"
       id="path52583"
       sodipodi:nodetypes="cccccccccccccccccccccccccccc" />
    <path
       style="fill:none;stroke:#000000;stroke-width:4.6875;stroke-linecap:round;stroke-linejoin:round;stroke-miterlimit:4;stroke-dasharray:none"
       d="m 142.54689,175.48439 27.1875,-41.06252"
       id="path52589"
       sodipodi:nodetypes="cc" />
    <path
       style="fill:none;stroke:#000000;stroke-width:4.6875;stroke-linecap:round;stroke-linejoin:round;stroke-miterlimit:4;stroke-dasharray:none"
       d="m 141.04687,176.60939 -29.4375,0.65626 -25.218747,-43.12501"
       id="path52591" />
    <path
       style="fill:none;stroke:#000000;stroke-width:4.6875;stroke-linecap:round;stroke-linejoin:round;stroke-miterlimit:4;stroke-dasharray:none"
       d="m 169.73439,134.42187 0.56247,70.59377 36.18751,0.75 0.0937,-0.1875 0.84375,-146.531258"
       id="path52593" />
    <path
       style="fill:none;stroke:#000000;stroke-width:4.6875;stroke-linecap:round;stroke-linejoin:round;stroke-miterlimit:4;stroke-dasharray:none"
       d="m 86.296849,133.67169 -2.718726,72.5627 -36.187507,0.375 -3.093753,-0.1875 V 60.453132"
       id="path52595"
       sodipodi:nodetypes="ccccc" />
    <path
       style="opacity:1;fill:#cbcbcb;stroke-width:0"
       d="m 184.7223,152.5162 c 3.99356,-0.60905 1.84874,26.3412 1.85004,32.65695 h 0.0201 l -0.0804,0.80436 c 6.68976,3.85283 13.50251,7.51794 20.06874,11.58275 6.60931,-3.95137 13.29306,-7.78251 19.96818,-11.62297 v -34.84882 l 1.89025,1.40763 c 8.88341,8.42109 13.11259,17.81455 12.38711,30.00255 -1.85913,12.22124 -11.59767,23.68317 -21.07418,28.43407 v 31.34986 h -0.50272 c -9.26245,0 -17.00847,0 -25.35739,0 h -0.50273 c -0.0925,-10.442 0.16056,-20.88846 0,-31.32975 v -0.0201 l -0.0201,-0.0201 c -13.42559,-8.26631 -20.46539,-17.42522 -21.23505,-31.79224 0.0237,-9.39451 6.37185,-19.78265 12.5882,-26.60414 l 1.87014,-1.40763"
       id="path52575"
       sodipodi:nodetypes="cccccccccccccccccccc" />
    <path
       style="fill:none;stroke:#000000;stroke-width:1.20654;stroke-linecap:round;stroke-linejoin:round;stroke-miterlimit:4;stroke-dasharray:none"
       d="m 186.59244,151.10858 c -0.0286,12.4296 -0.14311,24.19402 -0.0804,34.86893 6.68976,3.85283 13.50251,7.51794 20.06874,11.58275 7.15369,-4.26956 13.561,-7.93667 19.96818,-11.62297 v -34.84882 c 9.34295,6.27758 13.61903,16.92528 14.47845,28.03188 -0.26653,14.54487 -9.21381,25.99445 -21.27527,31.81237 v 31.34986 c -8.62004,0 -17.24007,0 -25.86011,0 h -0.50273 l 0.0201,-30.02267 -0.0201,-1.30708 v -0.0201 l -0.0201,-0.0201 c -13.4256,-8.26632 -20.46539,-17.42522 -21.23505,-31.79224 0.0818,-10.62036 4.80508,-19.63048 12.5882,-26.60414 l 1.87014,-1.40763"
       id="path52585"
       sodipodi:nodetypes="ccccccccccccccccc" />
  </g>
</svg>
