<?xml version="1.0" encoding="UTF-8" standalone="no"?>
<!-- Generator: -->

<svg
   width="256pt"
   height="256pt"
   viewBox="0 0 256 256"
   version="1.1"
   id="svg63756"
   sodipodi:docname="nuketools.svg"
   inkscape:version="1.1 (c68e22c387, 2021-05-23)"
   xmlns:inkscape="http://www.inkscape.org/namespaces/inkscape"
   xmlns:sodipodi="http://sodipodi.sourceforge.net/DTD/sodipodi-0.dtd"
   xmlns="http://www.w3.org/2000/svg"
   xmlns:svg="http://www.w3.org/2000/svg">
  <defs
     id="defs63760" />
  <sodipodi:namedview
     id="namedview63758"
     pagecolor="#505050"
     bordercolor="#eeeeee"
     borderopacity="1"
     inkscape:pageshadow="0"
     inkscape:pageopacity="0"
     inkscape:pagecheckerboard="0"
     inkscape:document-units="pt"
     showgrid="false"
     inkscape:zoom="0.27575684"
     inkscape:cx="-255.66003"
     inkscape:cy="168.62683"
     inkscape:window-width="1920"
     inkscape:window-height="1147"
     inkscape:window-x="-8"
     inkscape:window-y="-8"
     inkscape:window-maximized="1"
     inkscape:current-layer="svg63756" />
  <g
     id="FRAME_0"
     style="visibility:visible"
     fill-rule="evenodd"
     transform="matrix(1.8375,0,0,1.8375,-109.33457,-12.290184)">
    <path
       style="opacity:1;fill:#ffd84b;stroke-width:0"
       d="m 124.5,34.450001 4.45,-0.25 4.44999,0.25 4.40001,0.700001 4.34999,1.099998 4.20002,1.5 2.89999,1.150002 0.5,0.25 0.60001,0.5 1,0.349998 0.79998,0.5 h 0.05 l 2,1.400002 3.55,2.699996 3.25,3 3,3.25 2.64999,3.550004 2.30001,3.799999 1.90001,4 1.54998,3.850002 v 0.349999 L 173.45,70.75 l 0.69999,4.400002 h 0.05 v 0.04999 l 0.19999,4.400001 -0.25,4.5 -0.64999,4.349999 -1.10001,4.350006 -1.5,4.199997 -1.89999,3.999995 -2.3,3.8 -2.65,3.6 -3.05,3.3 -3.25,3.05 -3.60001,2.6 -3.84999,2.25 -4,2 -4.19999,1.5 -4.30001,1.1 -4.40001,0.6 -4.5,0.25 -4.49999,-0.25 -4.4,-0.65 -4.35,-1.1 -4.1,-1.45 -4.05,-1.95 -0.1,-0.05 -3.75,-2.2 -3.6,-2.7 -0.05,-0.05 -3.199997,-2.9 -0.05,-0.15 -2.949997,-3.2 -0.05,-0.05 L 91.099998,104.8 88.800003,101 86.949997,96.949997 85.400002,92.800003 84.349998,88.400002 83.650002,84 83.449997,79.599998 83.650002,75.150002 84.25,70.949997 l 0.150002,-0.25 1.049995,-4.299995 1.5,-4.200001 1.850006,-4 2.299995,-3.850003 2.700005,-3.549999 L 96.75,47.450001 100.05,44.5 l 3.55,-2.700001 4,-2.200001 3.9,-2 4.2,-1.5 4.4,-1 4.4,-0.649997 m 4.39999,6.25 -3.79999,0.200001 -3.8,0.549999 -3.65,0.950001 -3.7,1.199996 -3.45,1.600003 -3.25,2 L 105.05,49 105,49.05 104.95,49.1 104.2,49.500002 102.1,51.6 l -0.75,0.450001 -1.3,1.650002 -1.200002,1.200001 -0.25,0.5 -0.900001,1.199996 -0.75,1.050004 L 96.599998,58 l -0.549995,1.049999 -0.75,1.25 L 94.650002,61.25 93,64.75 91.699997,68.349998 90.800003,72 l -0.600006,3.800003 -0.149994,3.799995 0.149994,3.800004 0.5,3.799995 0.900001,3.700005 1.300004,3.650001 L 94.550003,98 96.5,101.3 l 2.300003,3.1 2.549997,2.85 2.85,2.55 3.1,2.25 3.3,2 3.4,1.6 3.65,1.35 3.75,0.95 3.8,0.55 3.8,0.1 3.8,-0.2 3.80001,-0.55 3.75,-0.9 3.44999,-1.45 3.45,-1.65 1.10001,-0.7 0.64999,-0.4 0.75,-0.4 0.5,-0.35 0.25,-0.1 0.25,-0.2 0.3,-0.25 0.34999,-0.25 0.60001,-0.45 1.10001,-0.8 0.5,-0.3 0.79998,-0.8 1.55001,-1.45 0.44999,-0.3 1.15001,-1.35 1.45,-1.5 2.25,-3.05 1.95,-3.250003 L 164.85001,94.5 166.14999,90.900002 167,87.199997 167.60001,83.400002 167.8,79.599998 167.60001,75.800003 167.05,72 166.10001,68.300003 164.8,64.699997 163.5,62 163.2,61.25 162.3,59.799999 162.05,59.400002 161.2,58 160.75,57.400002 160.60001,57.200001 160.5,57.049999 160.39999,56.900002 160.25,56.75 160.10001,56.549999 160,56.400002 159.85001,56.200001 159.75,56.049999 V 56 L 158.95,54.900002 158.7,54.700001 158.55,54.5 156.39999,52.099998 154.55,50.450001 153.60001,49.5 150.8,47.5 150.5,47.200001 147.35001,45.400002 147.25,45.299999 143.8,43.599998 h -0.19999 l -0.80001,-0.25 -2.6,-0.949996 -3.7,-0.950001 -3.75,-0.549999 -3.85001,-0.200001"
       id="path63595" />
    <path
       style="opacity:1;fill:#ffce3d;stroke-width:0"
       d="M 149.75,39.150002 151,39.5 l 0.25,0.25 0.89999,0.75 -0.79998,-0.5 -1,-0.349998 -0.60001,-0.5 m -5.95,4.449996 3.45,1.700001 0.10001,0.100003 3.14999,1.799999 0.3,0.299999 2.80001,2 0.94999,0.950001 1.84999,1.649997 L 158.55,54.5 l 0.15,0.200001 0.25,0.200001 L 159.75,56 v 0.05 l 0.10001,0.150002 L 160,56.400003 160.10001,56.55 160.25,56.750001 160.39999,56.900003 160.5,57.05 l 0.10001,0.150002 0.14999,0.2 L 161.2,58 l 0.85,1.400002 0.25,0.399997 0.9,1.450001 0.3,0.75 -1.3,0.650002 -0.05,0.05 -0.1,0.05 -0.05,0.05 -0.2,0.100003 -0.1,0.05 -0.1,0.05 v 0 l -3.10001,1.5 -0.2,0.199997 -0.1,0.05 -0.05,0.05 h -0.05 l -2.05001,1.099999 -0.5,0.299995 h -0.1 l -0.05,0.05 -0.1,0.05 -0.19999,0.1 -0.10001,0.04999 -0.05,0.05 -0.1,0.05 -0.05,0.04999 -0.19999,0.1 -0.10001,0.05 -0.10001,0.05 h -0.05 -0.05 l -6.5,3.399994 -0.1,0.05 v 0.150002 0.04999 0.100006 l -0.05,0.549995 -0.05,0.5 -0.10001,0.550004 -0.10001,0.5 -0.14999,0.549995 -0.05,0.550003 -0.05,0.550003 L 147,74.849998 146.95,75.400002 146.85001,76 146.75,76.599998 146.60001,77.25 146.5,77.949997 l -0.10001,0.700005 -0.14999,0.75 -0.10001,0.799995 L 146,81.050003 145.8,82 l -0.15001,1.050003 -0.19999,1.149994 -0.25,1 0.19999,0.200005 0.45002,0.699996 0.44999,0.75 0.5,0.800004 0.45,0.799995 0.55,0.850006 0.55001,0.899994 0.54998,0.900001 0.60001,1.099999 0.64999,0.950005 L 150.8,94.25 l 0.59999,1.050003 0.20002,0.149994 0.79998,1.400001 0.35001,0.599999 0.2,0.400001 0.5,0.800004 1.25,2.099998 0.19999,0.15 0.45002,0.75 0.25,0.45 1.19999,2.1 0.75,1.45 v 0.1 l -1.15001,1.35 -0.44999,0.3 -1.55001,1.45 -0.79998,0.8 -0.5,0.3 -1.10001,0.8 -0.60001,0.45 -0.34999,0.25 -0.3,0.25 -0.25,0.2 -0.25,0.1 -0.5,0.35 -0.75,0.4 -9.14999,1.8 -1.45002,0.05 L 137,114.1 h -0.05 l -1.45,-0.9 -1.14999,-1.25 -0.80001,-1.5 -0.35,-1.65 0.1,-0.05 -0.1,-0.4 -0.5,-6.5 0.1,-0.05 -0.15001,-0.9 L 131.75,87.900002 v -0.1 l -0.5,-0.450005 -10.9,-11.699996 0.05,-0.05 h -0.5 L 107.3,74.550003 100.8,74 l -1.499997,-0.300003 -1.450005,-0.849999 -1.199996,-1.199996 -0.849999,-1.450005 -0.400001,-1.649994 -0.1,-1.5 0.1,-0.150001 v -0.05 l 0.04999,-0.150001 0.05,-0.1 0.05,-0.75 0.04999,-0.25 0.25,-1.599998 1.099999,-6.349998 0.75,-1.050004 0.900001,-1.199996 0.25,-0.5 1.199998,-1.200001 1.3,-1.650002 0.75,-0.450001 2.1,-2.099998 0.75,-0.400002 0.05,-0.05 0.05,-0.05 3.45,2.200001 L 111,53 l 0.15,0.05 1.85,1.25 2.45,1.700001 0.1,0.05 L 122.6,61 l 0.2,0.200001 3.5,-0.700001 2.80001,-0.549999 2.44999,-0.5 2.2,-0.450001 1.95,-0.349998 1.1,-0.100003 0.34999,-1.099998 0.05,-0.05 V 57.25 l 0.05,-0.05 4.75,-10.25 0.2,-0.600003 0.05,-0.1 1.35001,-2.650002 h 0.2 m -10.75,23.5 -0.05,0.05 -0.14999,0.04999 h -0.05 l -1.44999,0.200005 -0.45002,0.349998 -0.1,0.05 L 130.35001,68 130,68.349998 l -0.60001,0.599999 -0.19999,0.5 -0.30001,0.5 -0.1,0.25 v 0.650001 L 128.45,72 l 0.1,0.1 v 0.200005 l 0.05,1.049995 0.2,0.4 0.2,0.800003 0.14999,0.349999 0.20002,0.25 L 129.8,76 l 0.2,0.25 0.3,0.25 1,1.150002 1.2,0.799995 0.8,0.25 0.5,0.25 1.4,0.150001 1.65001,-0.349998 0.29998,-0.199997 0.80001,-0.350006 0.65001,-0.799995 0.19999,-0.200005 0.4,-1 L 139.35001,76 l 0.25,-1.699997 0.05,-0.100006 -0.19999,-1.299995 0.15001,-0.1 -0.40001,-1.25 -0.05,-0.100006 -0.05,-0.1 L 138.3,70.050003 138.2,70 136.95,68.599998 136.8,68.199997 135.64999,67.800003 134.39999,67.25 V 67.2 L 133.05,67.1"
       id="path63599" />
    <path
       style="opacity:1;fill:#b66a1f;stroke-width:0"
       d="m 142.8,43.349998 0.80001,0.25 L 142.25,46.25 142.8,43.349998"
       id="path63601" />
    <path
       style="opacity:1;fill:#b76b1f;stroke-width:0"
       d="m 142.25,46.25 -0.05,0.1 -0.2,0.600003 -1.2,0.75 0.30001,-0.900002 L 142.8,43.349998 142.25,46.25"
       id="path63605" />
    <path
       style="opacity:1;fill:#b96c20;stroke-width:0"
       d="m 142,46.950001 -4.75,10.25 -0.05,0.05 v 0.150002 l -0.05,0.05 -0.34999,1.099998 -1.1,0.100003 0.55,-1.25 0.60001,-1.25 0.54998,-1.350003 0.65001,-1.349998 0.59999,-1.150002 0.35,-0.85 0.39999,-0.700001 0.5,-1.299999 L 140.2,49.049999 V 49 48.95 L 140.25,48.799998 140.8,47.7 142,46.95"
       id="path63607" />
    <path
       style="opacity:1;fill:#da7f26;stroke-width:0"
       d="M 96.949997,57.650002 95.849998,64 l -0.25,1.599998 0.450005,-6.549999 L 96.599998,58 96.949997,57.650002"
       id="path63609" />
    <path
       style="opacity:1;fill:#db8026;stroke-width:0"
       d="m 95.300003,60.299999 0.75,-1.25 -0.450005,6.549999 -0.04999,0.25 -0.05,0.75 -0.05,0.1 -0.04999,0.150001 v 0.05 l -0.1,0.150001 -1.150001,0.75 1.150001,-7.500004 M 99.25,73.75 99.3,73.7 l 1.5,0.3 -1.3,1 -0.1,-0.05 -0.15,-1.2"
       id="path63611" />
    <path
       style="opacity:1;fill:#7d4915;stroke-width:0"
       d="m 163.5,62 -0.89999,0.650002 -2.45002,1.25 -0.54998,0.299995 L 160,64 l 1.60001,-1 v 0 l 0.1,-0.05 0.1,-0.05 0.2,-0.100003 0.05,-0.05 0.1,-0.05 0.05,-0.05 L 163.5,62"
       id="path63613" />
    <path
       style="opacity:1;fill:#7e4a15;stroke-width:0"
       d="m 159.60001,64.199997 h -0.05 l -0.1,0.05 -0.2,0.150002 h -0.05 l -0.1,0.04999 L 159,64.5 l -0.25,0.150002 -0.3,0.150001 -0.30001,0.149994 -0.1,0.05 H 158 l -0.2,0.150002 -0.1,0.04999 h -0.05 -0.05 l 0.5,-0.399994 h 0.05 l 0.05,-0.05 0.1,-0.05 L 158.5,64.5 161.60001,63 160,64 l -0.39999,0.199997"
       id="path63615" />
    <path
       style="opacity:1;fill:#804b16;stroke-width:0"
       d="m 158.10001,64.800003 -0.5,0.399994 v 0.05 L 155.55,66.400002 155.2,66.550003 154.85001,66.75 154.55,66.900002 l -0.35,0.199996 -0.34999,0.1 L 153.5,67.400002 153.14999,67.599998 152.8,67.800003 152.45,68 l -0.4,0.199997 -0.35,0.200005 -0.4,0.199996 -0.44999,0.200005 h -0.05 l -0.05,0.04999 h -0.05 L 150.4,69.049998 v 0 l -0.1,0.04999 -0.1,0.05 -0.05,0.04999 h -0.1 l -0.1,0.100006 -0.1,0.04999 -0.05,0.05 h -0.1 l -0.1,0.04999 -0.05,0.05 -0.15001,0.1 -0.19999,0.1 -0.1,0.05 -0.20002,0.1 -0.59999,0.349999 -0.44999,0.200005 H 147.7 V 70.25 l 0.1,-0.05 6.5,-3.399994 h 0.05 0.05 l 0.10001,-0.05 0.10001,-0.05 0.19999,-0.1 0.05,-0.04999 0.1,-0.05 0.05,-0.05 0.10001,-0.04999 0.19999,-0.1 0.1,-0.05 0.05,-0.05 h 0.1 l 0.5,-0.299995 2.05001,-1.099999"
       id="path63617" />
    <path
       style="opacity:1;fill:#d27b24;stroke-width:0"
       d="m 133.05,67.099998 1.34999,0.1 v 0.05 L 133.05,68.15 l -0.05,-1 0.05,-0.05"
       id="path63619" />
    <path
       style="opacity:1;fill:#ad651e;stroke-width:0"
       d="m 133,67.150002 -1.25,0.900001 -1.10001,0.199997 -0.54998,0.1 V 68.30001 L 132.8,67.199997 h 0.05 l 0.15,-0.04999"
       id="path63621" />
    <path
       style="opacity:1;fill:#a15e1c;stroke-width:0"
       d="m 131.35001,67.400002 1.44999,-0.200005 -2.69999,1.100006 v 0.04999 H 130 l 0.10001,-0.04999 0.69999,-0.5 0.1,-0.05 0.45002,-0.349998"
       id="path63623" />
    <path
       style="opacity:1;fill:#e88828;stroke-width:0"
       d="M 135.64999,67.800003 133.05,68.150002 134.39999,67.25 l 1.25,0.550003"
       id="path63625" />
    <path
       style="opacity:1;fill:#e68728;stroke-width:0"
       d="m 94.150002,67.800003 1.150001,-0.75 -0.05,0.299995 -1.199997,2.050004 0.1,-1.599999"
       id="path63627" />
    <path
       style="opacity:1;fill:#fd9a2d;stroke-width:0"
       d="m 135.64999,67.800003 1.15001,0.399994 0.15,0.400001 -1.34999,0.849999 0.05,-1.649994 v 0 M 133.55,110.45 l -1.35,0.8 1,-2.2 v -0.25 l 0.35,1.65"
       id="path63629" />
    <path
       style="opacity:1;fill:#f18d29;stroke-width:0"
       d="m 135.64999,67.800003 v 0 l -1.25,0.849999 -1.39999,-0.5 h 0.05 l 2.59999,-0.349999"
       id="path63631" />
    <path
       style="opacity:1;fill:#8c5218;stroke-width:0"
       d="m 130.8,67.800003 -0.69999,0.5 L 130,68.349998 130.35001,68 130.8,67.800003"
       id="path63633" />
    <path
       style="opacity:1;fill:#c57322;stroke-width:0"
       d="m 131.75,68.050003 1.25,-0.900001 0.05,1 H 133 l -1.25,-0.1"
       id="path63635" />
    <path
       style="opacity:1;fill:#f18d2a;stroke-width:0"
       d="m 95.400002,68.550003 -0.1,0.349999 -1.25,0.5 1.199997,-2.050004 0.05,-0.299995 0.1,1.5"
       id="path63637" />
    <path
       style="opacity:1;fill:#fe9b2e;stroke-width:0"
       d="m 95.400002,68.550003 0.400001,1.649994 v 0 L 94.449997,71 l 0.850006,-2.099998 0.1,-0.349999"
       id="path63639" />
    <path
       style="opacity:1;fill:#fc962c;stroke-width:0"
       d="m 134.39999,68.650002 1.25,-0.849999 -0.05,1.649994 -0.65001,-0.349999 -0.55001,-0.449996"
       id="path63641" />
    <path
       style="opacity:1;fill:#fd972d;stroke-width:0"
       d="m 94.050003,69.400002 1.25,-0.5 L 94.449997,71 94.050003,69.400002"
       id="path63643" />
    <path
       style="opacity:1;fill:#ff9f2f;stroke-width:0"
       d="M 135.60001,69.449997 136.95,68.599998 138.2,70 l -2.55001,-0.5 -0.05,-0.05 m -2.04999,41 0.05,0.2 -0.60001,2.15 -0.8,-1.55 1.35,-0.8 m 1.95,2.75 -0.05,0.05 -1.30001,0.8 0.20002,-2.1 1.14999,1.25"
       id="path63645" />
    <path
       style="opacity:1;fill:#ffa02f;stroke-width:0"
       d="m 138.2,70 0.1,0.05 0.80001,1.299995 0.05,0.1 -1.39999,0.75 0.55,-1.899994 L 137,70.900002 136.45,70.5 135.64999,69.5 138.2,70 m -43.750003,1 1.350006,-0.800003 -0.5,2.200005 L 94.900002,71.849998 94.449997,71 m 0.850006,1.599998 1.399994,-0.799995 L 96.550003,73.75 95.650002,72.949997 95.300003,72.599998 M 134.35001,111.95 134.14999,114.05 133,112.8 l 0.60001,-2.15 -0.05,-0.2 0.80001,1.5"
       id="path63647" />
    <path
       style="opacity:1;fill:#ffa12f;stroke-width:0"
       d="m 95.800003,70.199997 0.849999,1.450005 0.04999,0.150001 -1.399994,0.799995 v -0.199996 l 0.5,-2.200005 v 0 M 137,70.900002 l 1.3,-0.599999 -0.55,1.899994 -0.39999,-0.549995 -0.35001,-0.75"
       id="path63649" />
    <path
       style="opacity:1;fill:#ff9d2e;stroke-width:0"
       d="m 139.14999,71.449997 0.05,0.100006 0.40001,1.25 -1.80001,-0.5 -0.05,-0.100006 1.39999,-0.75"
       id="path63651" />
    <path
       style="opacity:1;fill:#ff9e2e;stroke-width:0"
       d="m 96.650002,71.650002 1.199996,1.199996 -0.04999,0.05 -1.25,0.849998 0.149994,-1.949997 -0.04999,-0.150001"
       id="path63653" />
    <path
       style="opacity:1;fill:#ff9a2d;stroke-width:0"
       d="m 137.8,72.300003 1.80001,0.5 -0.15001,0.1 -1.25,0.849998 -0.30001,-1 -0.1,-0.449997"
       id="path63655" />
    <path
       style="opacity:1;fill:#f5922b;stroke-width:0"
       d="m 97.849998,72.849998 1.450005,0.849999 -0.05,0.05 -1.25,0.849998 h -0.1 l -0.1,-1.699996 0.04999,-0.05"
       id="path63657" />
    <path
       style="opacity:1;fill:#f7922b;stroke-width:0"
       d="m 138.2,73.75 1.25,-0.849998 -0.15,0.299995 -1,1.550003 -0.1,-1"
       id="path63659" />
    <path
       style="opacity:1;fill:#fa972c;stroke-width:0"
       d="m 96.550003,73.75 1.25,-0.849998 0.1,1.699996 -1.35,-0.849998"
       id="path63661" />
    <path
       style="opacity:1;fill:#ef8d29;stroke-width:0"
       d="m 139.64999,74.199997 -0.05,0.100006 -1.25,0.899994 -0.05,-0.449997 1,-1.550003 0.15,-0.299995 0.19999,1.299995"
       id="path63663" />
    <path
       style="opacity:1;fill:#ce7923;stroke-width:0"
       d="m 107.3,74.550003 v 0.04999 L 99.5,75 l 1.3,-1 6.5,0.550003"
       id="path63665" />
    <path
       style="opacity:1;fill:#e68628;stroke-width:0"
       d="M 98,74.599998 99.25,73.75 99.400002,74.949997 98,74.599998"
       id="path63667" />
    <path
       style="opacity:1;fill:#cc7823;stroke-width:0"
       d="m 107.3,74.550003 12.6,1.049995 h 0.5 l -0.05,0.05 L 119,76.550003 112.35,76 l -5.9,-0.5 -0.45,-0.05 1.3,-0.849999 v -0.04999"
       id="path63669" />
    <path
       style="opacity:1;fill:#cd7823;stroke-width:0"
       d="M 99.5,75 107.3,74.599998 106,75.449997 99.5,75"
       id="path63671" />
    <path
       style="opacity:1;fill:#de8226;stroke-width:0"
       d="m 138.35001,75.199997 1.25,-0.899994 -0.25,1.699997 -1,-0.800003"
       id="path63673" />
    <path
       style="opacity:1;fill:#d57d24;stroke-width:0"
       d="m 138.2,75.75 0.15001,-0.550003 1,0.800003 L 139.2,76.199997 138.05,76.900002 138.2,75.75"
       id="path63675" />
    <path
       style="opacity:1;fill:#ffa130;stroke-width:0"
       d="m 119,76.550003 1.35,-0.900001 10.9,11.699996 0.5,0.450005 v 0.1 l -1.35001,0.849998 -0.1,-0.05 -1.1,-1.199997 -1.15,-1.25 -1.2,-1.349998 -1.25,-1.25 -1.25,-1.400002 -1.4,-1.449997 -1.5,-1.600006 -1.45,-1.649994 h -0.1 L 119.5,77 119,76.550003"
       id="path63677" />
    <path
       style="opacity:1;fill:#be6f20;stroke-width:0"
       d="m 139.2,76.199997 -0.30001,0.400001 -1.39999,1.450005 0.05,-0.200005 0.5,-0.949996 1.15,-0.700005"
       id="path63679" />
    <path
       style="opacity:1;fill:#b0671e;stroke-width:0"
       d="m 138.8,77.199997 -0.19999,0.200005 -1.10001,0.650001 1.39999,-1.450005 0.30001,-0.400001 -0.4,1"
       id="path63681" />
    <path
       style="opacity:1;fill:#945719;stroke-width:0"
       d="m 138.60001,77.400002 -0.65001,0.799995 -0.45,-0.1 v -0.04999 l 1.10001,-0.650001"
       id="path63683" />
    <path
       style="opacity:1;fill:#864f17;stroke-width:0"
       d="m 137.5,78.099998 0.45,0.1 -0.80001,0.350006 0.35001,-0.450005"
       id="path63685" />
    <path
       style="opacity:1;fill:#f6902b;stroke-width:0"
       d="m 131.75,87.900002 0.89999,12.999998 0.15001,0.9 -0.1,0.05 -1.25,0.75 -0.25,-1.75 -0.15,-2.400003 L 130.89999,96.25 130.8,94.199997 130.60001,92.25 V 90.699997 L 130.5,90.400002 130.55,89.75 130.5,89.550003 130.39999,88.75 131.75,87.900002"
       id="path63687" />
    <path
       style="opacity:1;fill:#f7902b;stroke-width:0"
       d="m 132.7,101.85 0.5,6.5 -1.80001,-4.95 0.05,-0.35 v -0.45 l 1.25,-0.75"
       id="path63689" />
    <path
       style="opacity:1;fill:#f8912b;stroke-width:0"
       d="m 131.60001,106.3 -0.05,-2.5 -0.15001,-0.4 1.80001,4.95 0.1,0.4 -0.1,0.05 -1.25,0.8 -0.15,-0.3 -0.19999,-3"
       id="path63691" />
    <path
       style="opacity:1;fill:#fb962c;stroke-width:0"
       d="m 131.95,109.6 1.25,-0.8 v 0.25 l -1,2.2 -0.15,-0.55 -0.1,-1.1"
       id="path63693" />
    <path
       style="opacity:1;fill:#a8631d;stroke-width:0"
       d="M 148.35001,113.15 139.8,115.2 h -0.15001 l -0.19999,0.05 -0.15,0.05 -0.15001,0.05 -0.25,0.05 H 138.75 138.60001 l 1.25,-0.85 9.14999,-1.8 -0.64999,0.4"
       id="path63695" />
    <path
       style="opacity:1;fill:#f9952c;stroke-width:0"
       d="m 135.5,113.2 1.45,0.9 -0.1,0.05 -1.30001,0.85 -0.1,-1.75 0.05,-0.05"
       id="path63697" />
    <path
       style="opacity:1;fill:#a7621d;stroke-width:0"
       d="m 148.35001,113.15 -1.10001,0.7 -7.45,1.35 8.55001,-2.05"
       id="path63699" />
    <path
       style="opacity:1;fill:#fc992d;stroke-width:0"
       d="m 135.45,113.25 0.1,1.75 -1.40001,-0.9 v -0.05 l 1.30001,-0.8"
       id="path63701" />
    <path
       style="opacity:1;fill:#df8327;stroke-width:0"
       d="M 136.95,114.1 H 137 l 1.39999,0.5 -1.34999,0.8 -0.19999,-1.25 0.1,-0.05"
       id="path63703" />
    <path
       style="opacity:1;fill:#b86c1f;stroke-width:0"
       d="m 139.85001,114.55 -1.25,0.85 -0.20002,-0.8 1.45002,-0.05"
       id="path63705" />
    <path
       style="opacity:1;fill:#eb8a29;stroke-width:0"
       d="m 136.85001,114.15 0.19999,1.25 -0.05,0.05 -1.45,-0.45 1.30001,-0.85"
       id="path63707" />
    <path
       style="opacity:1;fill:#c67422;stroke-width:0"
       d="M 138.60001,115.4 137,115.45 l 0.05,-0.05 1.34999,-0.8 0.20002,0.8"
       id="path63709" />
    <path
       style="fill:none;stroke:#000000;stroke-width:2.5;stroke-linecap:round;stroke-linejoin:round;stroke-miterlimit:4;stroke-dasharray:none"
       d="m 128.95,34.200001 4.44999,0.25 4.40001,0.700001 c 8.86564,2.220169 16.59374,6.35191 23.2,12.449996 l 3,3.25 2.64999,3.550004 2.30001,3.799999 1.90001,4 1.54998,3.850002 v 0.349999 L 173.45,70.75 l 0.69999,4.400002 h 0.05 v 0.04999 l 0.19999,4.400001 -0.25,4.5 -0.64999,4.349999 -1.10001,4.350006 -1.5,4.199997 -1.89999,3.999995 -2.3,3.8 -2.65,3.6 -3.05,3.3 -3.25,3.05 -3.60001,2.6 -3.84999,2.25 -4,2 -4.19999,1.5 -4.30001,1.1 -4.40001,0.6 -4.5,0.25 -4.49999,-0.25 -4.4,-0.65 -4.35,-1.1 -4.1,-1.45 -4.05,-1.95 -0.1,-0.05 -3.75,-2.2 -3.6,-2.7 -0.05,-0.05 -3.199997,-2.9 -0.05,-0.15 -2.949997,-3.2 -0.05,-0.05 L 91.099998,104.8 88.800003,101 86.949997,96.949997 85.400002,92.800003 84.349998,88.400002 83.650002,84 83.449997,79.599998 83.650002,75.150002 84.25,70.949997 l 0.150002,-0.25 1.049995,-4.299995 1.5,-4.200001 1.850006,-4 2.299995,-3.850003 2.700005,-3.549999 L 96.75,47.450001 100.05,44.5 l 3.55,-2.700001 4,-2.200001 3.9,-2 4.2,-1.5 4.4,-1 4.4,-0.649997 4.45,-0.25"
       id="path63711"
       sodipodi:nodetypes="cccccccccccccccccccccccccccccccccccccccccccccccccccccccccccccccccccc" />
  </g>
  <path
     style="visibility:visible;fill:#cbcbcb;stroke-width:0"
     d="m 192.12739,152.83023 c -0.0932,5.34079 -0.0214,27.74882 -0.0201,34.06457 h 0.0201 l -0.0804,0.80436 c 6.68976,3.85283 13.50251,7.51794 20.06874,11.58275 6.60931,-3.95137 13.29306,-7.78251 19.96818,-11.62297 v -34.84882 l 1.89025,1.40763 c 8.88341,8.42109 13.11259,17.81455 12.38711,30.00255 -1.85913,12.22124 -11.59767,23.68317 -21.07418,28.43407 v 31.34986 h -0.50272 -25.35739 -0.50273 c -0.0925,-10.442 0.16056,-20.88846 0,-31.32975 v -0.0201 l -0.0201,-0.0201 c -13.42559,-8.26631 -20.46539,-17.42522 -21.23505,-31.79224 0.0237,-9.39451 8.24194,-21.19032 14.45829,-28.01181 l 5e-5,4e-5"
     id="path52575"
     sodipodi:nodetypes="cccccccccccccccccccc" />
  <path
     d="m 192.12739,152.83023 c -0.0286,12.4296 -0.14311,24.19402 -0.0804,34.86893 6.68976,3.85283 13.50251,7.51794 20.06874,11.58275 7.15368,-4.26956 13.56099,-7.93667 19.96818,-11.62297 v -34.84882 c 9.34295,6.27758 13.61903,16.92528 14.47845,28.03188 -0.26653,14.54487 -9.21381,25.99445 -21.27528,31.81237 v 31.34986 h -25.8601 -0.50273 l 0.0201,-30.02267 -0.0201,-1.30708 v -0.0201 l -0.0201,-0.0201 c -13.4256,-8.26632 -20.4654,-17.42522 -21.23505,-31.79224 0.0818,-10.62036 4.80507,-19.63048 12.5882,-26.60414 l 1.87014,-1.40763 m -5e-5,34.06453 -0.0804,0.80436 c 6.68975,3.85283 13.50251,7.51794 20.06874,11.58275 6.6093,-3.95137 13.29306,-7.78251 19.96818,-11.62297 v -34.84882 l 1.89024,1.40763 c 8.88342,8.42109 13.1126,17.81455 12.38712,30.00255 -1.85913,12.22124 -11.59767,23.68317 -21.07419,28.43407 v 31.34986 h -0.50271 -25.35739 -0.50273 c -0.0925,-10.442 0.16056,-20.88846 0,-31.32975 v -0.0201 l -0.0201,-0.0201 c -13.4256,-8.26631 -20.4654,-17.42522 -21.23505,-31.79224 0.0237,-9.39451 6.37185,-19.78265 12.5882,-26.60414 l 1.87014,-1.40763"
     style="fill:none;stroke:#000000;stroke-width:0.904905;stroke-linecap:round;stroke-linejoin:round;stroke-miterlimit:4;stroke-dasharray:none"
     id="path64760"
     sodipodi:nodetypes="ccccccccccccccccccccccccccccccccccc" />
</svg>
