<?xml version="1.0" encoding="iso-8859-1"?>
<!DOCTYPE svg PUBLIC "-//W3C//DTD SVG 20000303 Stylable//EN"
"http://www.w3.org/TR/2000/03/WD-SVG-20000303/DTD/svg-20000303-stylable.dtd">
<!-- Generator: --> 
<svg width="128pt" height="128pt" viewBox="0 0 128 128">
	<g  id="FRAME_0" style="visibility:visible" fill-rule="evenodd">
		<path style="fill:rgb(87,94,109);opacity:1;stroke-width:0"
		 d="M104.000000,30.799999 L90.500000,17.650000 L90.500000,30.799999 L104.000000,30.799999 M78.150002,31.000000 L43.000000,31.000000 L42.799999,24.650000 L78.000000,24.500000 L78.150002,31.000000 M98.500000,75.650002 L42.799999,75.650002 L42.650002,70.800003 L98.650002,70.650002 L98.500000,75.650002 M98.650002,84.500000 L42.799999,84.500000 L42.650002,80.150002 L42.650002,79.650002 L98.650002,79.650002 L98.650002,84.500000 M97.800003,98.300003 L64.300003,98.300003 L63.799999,98.300003 L63.799999,93.300003 L97.300003,93.300003 L97.800003,93.300003 L97.800003,98.300003 M26.299999,104.150002 L27.500000,104.150002 L30.500000,105.150002 L33.000000,106.500000 L33.150002,11.000000 L31.799999,8.650000 L29.799999,7.300000 L28.000000,6.650000 L25.500000,6.800000 L23.500000,7.800000 L21.799999,9.650000 L20.799999,14.500000 L21.000000,37.799999 L20.000000,106.300003 L22.799999,104.650002 L26.299999,104.150002 M36.799999,106.800003 L36.799999,111.500000 L98.650002,111.500000 L102.500000,111.300003 L106.300003,111.300003 L106.300003,106.800003 L106.300003,34.150002 L88.150002,34.150002 L87.150002,33.000000 L87.000000,14.500000 L36.650002,14.500000 L36.799999,106.800003 M28.299999,107.650002 L25.650000,107.500000 L22.650000,109.000000 L21.150000,110.650002 L20.500000,112.300003 L20.299999,115.500000 L21.299999,117.650002 L23.000000,119.500000 L28.500000,120.300003 L98.650002,120.300003 L98.650002,115.000000 L33.299999,115.000000 L33.150002,111.500000 L33.150002,110.150002 L30.799999,108.650002 L28.299999,107.650002 M16.799999,111.300003 L17.150000,14.500000 L17.650000,10.500000 L19.000000,7.650000 L21.799999,4.650000 L25.000000,3.300000 L29.000000,3.300000 L32.150002,4.500000 L35.299999,7.300000 L36.799999,11.150000 L89.500000,11.150000 L110.000000,31.299999 L110.300003,111.300003 L110.150002,114.650002 L102.500000,114.650002 L102.500000,120.300003 L102.300003,123.800003 L28.299999,123.800003 L23.650000,123.300003 L20.500000,122.000000 L18.500000,119.800003 L16.650000,115.500000 L16.799999,111.300003 "/>
		<path style="fill:rgb(152,152,152);opacity:1;stroke-width:0"
		 d="M104.000000,30.799999 L90.500000,30.799999 L90.500000,17.650000 L104.000000,30.799999 M26.299999,104.150002 L22.799999,104.650002 L20.000000,106.300003 L21.000000,37.799999 L20.799999,14.500000 L21.799999,9.650000 L23.500000,7.800000 L25.500000,6.800000 L28.000000,6.650000 L29.799999,7.300000 L31.799999,8.650000 L33.150002,11.000000 L33.000000,106.500000 L30.500000,105.150002 L27.500000,104.150002 L26.299999,104.150002 M36.799999,106.800003 L106.300003,106.800003 L106.300003,111.300003 L102.500000,111.300003 L98.650002,111.500000 L36.799999,111.500000 L36.799999,106.800003 "/>
		<path style="fill:rgb(210,210,210);opacity:1;stroke-width:0"
		 d="M78.150002,31.000000 L78.000000,24.500000 L42.799999,24.650000 L43.000000,31.000000 L78.150002,31.000000 M98.650002,64.150002 L98.650002,39.150002 L42.799999,39.150002 L42.799999,64.150002 L98.650002,64.150002 M98.500000,75.650002 L98.650002,70.650002 L42.650002,70.800003 L42.799999,75.650002 L98.500000,75.650002 M98.650002,84.500000 L98.650002,79.650002 L42.650002,79.650002 L42.650002,80.150002 L42.799999,84.500000 L98.650002,84.500000 M97.800003,98.300003 L97.800003,93.300003 L97.300003,93.300003 L63.799999,93.300003 L63.799999,98.300003 L64.300003,98.300003 L97.800003,98.300003 M58.650002,102.150002 L58.799999,90.500000 L43.650002,90.500000 L43.650002,102.150002 L58.650002,102.150002 M36.799999,106.800003 L36.650002,14.500000 L87.000000,14.500000 L87.150002,33.000000 L88.150002,34.150002 L106.300003,34.150002 L106.300003,106.800003 L36.799999,106.800003 "/>
		<path style="fill:rgb(167,57,57);opacity:1;stroke-width:0"
		 d="M98.650002,64.150002 L42.799999,64.150002 L42.799999,39.150002 L98.650002,39.150002 L98.650002,64.150002 "/>
		<path style="fill:rgb(76,74,70);opacity:1;stroke-width:0"
		 d="M58.650002,102.150002 L43.650002,102.150002 L43.650002,90.500000 L58.799999,90.500000 L58.650002,102.150002 "/>
	</g>
</svg>