<?xml version="1.0" encoding="UTF-8" standalone="no"?>
<!-- Generator: -->

<svg
   width="512pt"
   height="512pt"
   viewBox="0 0 512 512"
   version="1.1"
   id="svg1357"
   sodipodi:docname="windowed.svg"
   inkscape:version="1.1 (c68e22c387, 2021-05-23)"
   xmlns:inkscape="http://www.inkscape.org/namespaces/inkscape"
   xmlns:sodipodi="http://sodipodi.sourceforge.net/DTD/sodipodi-0.dtd"
   xmlns="http://www.w3.org/2000/svg"
   xmlns:svg="http://www.w3.org/2000/svg">
  <defs
     id="defs1361" />
  <sodipodi:namedview
     id="namedview1359"
     pagecolor="#505050"
     bordercolor="#eeeeee"
     borderopacity="1"
     inkscape:pageshadow="0"
     inkscape:pageopacity="0"
     inkscape:pagecheckerboard="0"
     inkscape:document-units="pt"
     showgrid="false"
     inkscape:zoom="0.27575684"
     inkscape:cx="524.01239"
     inkscape:cy="640.05665"
     inkscape:window-width="1920"
     inkscape:window-height="1147"
     inkscape:window-x="-8"
     inkscape:window-y="-8"
     inkscape:window-maximized="1"
     inkscape:current-layer="svg1357" />
  <g
     id="FRAME_0"
     style="visibility:visible"
     fill-rule="evenodd"
     transform="matrix(1.2709164,0,0,1.2709164,-69.169927,-69.248427)">
    <path
       style="opacity:1;fill:#999999;stroke-width:0;fill-opacity:1"
       d="m 110,392.5 v 8.75 h 10.75 c -4.33333,-1.16667 -6.66667,-2.16667 -7,-3 L 110,392.5 m 0,-176.75 3,-5 c 1.83333,-2.16667 4.66667,-3.41667 8.5,-3.75 H 286 c 7.66667,-0.33333 12.25,0.58333 13.75,2.75 2.5,1.5 4,4.5 4.5,9 V 387.5 c 1.33333,6 -2.41667,10.58333 -11.25,13.75 L 401,401 V 110 H 110 v 105.75 m 317,234 H 84.25 c -4.5,0 -9.666667,-2.16667 -15.5,-6.5 L 64.5,438 62.25,432.75 61.25,427 V 89.25 c -1.333333,-6.166667 1,-13.083333 7,-20.75 L 73,64.75 78.25,62.5 84,61.5 h 342.75 c 4.5,-0.333333 9.66667,1.833333 15.5,6.5 2.83333,1.5 5.33333,6.916667 7.5,16.25 V 425.5 C 448.58333,439.66667 441,447.75 427,449.75"
       id="path1346"
       sodipodi:nodetypes="ccccccccccccccccccscccccccccccccc" />
    <path
       style="fill:none;stroke:#000000;stroke-width:2.15;stroke-linecap:round;stroke-linejoin:round"
       d="m 110,392.5 v 8.75 h 10.75 q -6.5,-1.75 -7,-3 L 110,392.5 V 215.75 l 3,-5 q 2.75,-3.25 8.5,-3.75 H 286 q 11.5,-0.5 13.75,2.75 3.75,2.25 4.5,9 V 387.5 q 2,9 -11.25,13.75 H 120.75"
       id="path1350" />
    <path
       style="fill:none;stroke:#000000;stroke-width:2.15;stroke-linecap:round;stroke-linejoin:round"
       d="M 293,401.25 401,401 V 110 H 110 v 105.75"
       id="path1352" />
    <path
       style="fill:none;stroke:#000000;stroke-width:2.15;stroke-linecap:round;stroke-linejoin:round"
       d="m 84.25,449.75 q -6.75,0 -15.5,-6.5 L 64.5,438 62.25,432.75 61.25,427 V 89.25 q -2,-9.25 7,-20.75 L 73,64.75 78.25,62.5 84,61.5 h 342.75 q 6.75,-0.5 15.5,6.5 4.25,2.25 7.5,16.25 V 425.5 Q 448,446.75 427,449.75 H 84.25"
       id="path1354" />
  </g>
</svg>
