<?xml version="1.0" encoding="iso-8859-1"?>
<!DOCTYPE svg PUBLIC "-//W3C//DTD SVG 20000303 Stylable//EN"
"http://www.w3.org/TR/2000/03/WD-SVG-20000303/DTD/svg-20000303-stylable.dtd">
<!-- Generator: --> 
<svg width="256pt" height="256pt" viewBox="0 0 256 256">
	<g  id="FRAME_0" style="visibility:visible" fill-rule="evenodd">
		<path style="fill:rgb(205,205,205);opacity:1;stroke-width:0"
		 d="M85.750000,14.500000 L94.500000,11.250000 L110.750000,7.750000 L124.500000,6.750000 L141.750000,7.500000 L158.000000,10.500000 L171.750000,15.000000 L185.500000,21.500000 Q211.500000,36.000000 209.250000,43.500000 Q236.250000,56.500000 247.250000,110.000000 L248.500000,130.500000 L247.750000,141.500000 L246.000000,151.750000 Q240.500000,180.250000 232.250000,179.750000 L226.750000,196.500000 L223.250000,201.750000 L214.750000,211.500000 L207.000000,218.750000 L200.000000,224.500000 L187.500000,232.750000 L171.500000,240.250000 L159.000000,244.500000 L145.250000,247.250000 L130.000000,248.500000 L114.000000,247.750000 L110.500000,243.750000 Q83.750000,249.250000 41.750000,213.250000 L30.750000,200.500000 L24.250000,190.750000 L17.250000,177.500000 L10.250000,158.000000 Q7.750000,152.750000 12.000000,148.500000 L7.750000,135.750000 L6.750000,131.750000 L6.500000,125.250000 L7.250000,113.500000 L9.250000,102.250000 L10.750000,95.500000 L17.000000,78.250000 L23.000000,66.500000 L30.250000,55.500000 L40.000000,44.000000 L53.250000,32.000000 L66.500000,23.000000 L72.250000,24.000000 L76.250000,20.500000 L85.750000,14.500000 M140.000000,91.000000 Q120.250000,91.500000 97.250000,104.000000 Q91.000000,124.750000 96.500000,151.250000 Q117.500000,163.500000 138.500000,165.250000 Q156.000000,151.500000 166.250000,128.750000 Q155.750000,104.000000 140.000000,91.000000 "/>
		<path style="stroke:rgb(0,0,0);stroke-width:10.800000;stroke-linecap:round;stroke-linejoin:round;fill:none"
		 d="M140.000000,91.000000 Q155.750000,104.000000 166.250000,128.750000 Q156.000000,151.500000 138.500000,165.250000 Q117.500000,163.500000 96.500000,151.250000 Q91.000000,124.750000 97.250000,104.000000 Q120.250000,91.500000 140.000000,91.000000 Q124.750000,73.750000 80.250000,62.000000 L70.000000,55.500000 Q53.750000,42.750000 72.250000,24.000000 L76.250000,20.500000 L85.750000,14.500000 L94.500000,11.250000 L110.750000,7.750000 L124.500000,6.750000 L141.750000,7.500000 L158.000000,10.500000 L171.750000,15.000000 L185.500000,21.500000 Q211.500000,36.000000 209.250000,43.500000 Q187.500000,32.500000 179.500000,49.250000 L177.500000,54.000000 L175.500000,62.500000 Q177.500000,109.250000 166.250000,128.750000 		"/>
		<path style="stroke:rgb(0,0,0);stroke-width:10.800000;stroke-linecap:round;stroke-linejoin:round;fill:none"
		 d="M78.000000,46.500000 Q76.500000,46.250000 74.750000,41.500000 L75.500000,37.250000 Q76.250000,35.250000 80.000000,34.000000 Q94.000000,37.250000 82.750000,47.250000 L78.000000,46.500000 		"/>
		<path style="stroke:rgb(0,0,0);stroke-width:10.800000;stroke-linecap:round;stroke-linejoin:round;fill:none"
		 d="M194.000000,63.750000 Q190.500000,61.500000 190.000000,59.750000 L190.250000,54.500000 Q190.750000,52.250000 195.000000,50.750000 L198.500000,51.000000 Q201.000000,51.750000 202.500000,55.000000 L202.250000,60.250000 Q201.250000,62.750000 197.250000,64.000000 L194.000000,63.750000 		"/>
		<path style="stroke:rgb(0,0,0);stroke-width:10.800000;stroke-linecap:round;stroke-linejoin:round;fill:none"
		 d="M97.250000,104.000000 L82.250000,114.000000 L72.250000,123.250000 L67.000000,129.000000 L57.000000,144.500000 L50.000000,153.000000 L38.750000,161.250000 Q15.500000,165.500000 12.000000,148.500000 L7.750000,135.750000 L6.750000,131.750000 L6.500000,125.250000 L7.250000,113.500000 L9.250000,102.250000 L10.750000,95.500000 L17.000000,78.250000 L23.000000,66.500000 L30.250000,55.500000 L40.000000,44.000000 L53.250000,32.000000 L66.500000,23.000000 L72.250000,24.000000 		"/>
		<path style="stroke:rgb(0,0,0);stroke-width:10.800000;stroke-linecap:round;stroke-linejoin:round;fill:none"
		 d="M26.750000,150.250000 Q23.500000,147.500000 24.000000,146.250000 L24.750000,140.750000 Q26.250000,138.500000 29.500000,138.000000 L33.250000,138.500000 L36.750000,142.250000 L36.500000,147.500000 Q35.750000,149.500000 31.750000,151.250000 L26.750000,150.250000 		"/>
		<path style="stroke:rgb(0,0,0);stroke-width:10.800000;stroke-linecap:round;stroke-linejoin:round;fill:none"
		 d="M211.500000,177.000000 L208.750000,173.250000 L209.000000,168.500000 Q210.750000,164.750000 214.250000,164.750000 L218.000000,165.250000 L221.250000,168.750000 L221.250000,174.000000 Q220.750000,176.000000 216.250000,178.000000 L211.500000,177.000000 		"/>
		<path style="stroke:rgb(0,0,0);stroke-width:10.800000;stroke-linecap:round;stroke-linejoin:round;fill:none"
		 d="M138.500000,165.250000 Q163.500000,169.500000 202.500000,153.750000 L216.750000,153.000000 Q236.000000,154.500000 232.250000,179.750000 Q240.500000,180.250000 246.000000,151.750000 L247.750000,141.500000 L248.500000,130.500000 L247.250000,110.000000 Q236.250000,56.500000 209.250000,43.500000 		"/>
		<path style="stroke:rgb(0,0,0);stroke-width:10.800000;stroke-linecap:round;stroke-linejoin:round;fill:none"
		 d="M114.250000,218.250000 L117.250000,219.000000 Q120.000000,220.750000 120.750000,224.000000 L119.500000,229.000000 Q119.000000,230.500000 114.500000,231.750000 Q100.500000,225.750000 114.250000,218.250000 		"/>
		<path style="stroke:rgb(0,0,0);stroke-width:10.800000;stroke-linecap:round;stroke-linejoin:round;fill:none"
		 d="M96.500000,151.250000 L99.250000,161.500000 L102.500000,170.000000 L106.500000,178.250000 L111.000000,185.750000 L122.750000,200.500000 L127.500000,208.000000 L132.500000,222.000000 Q130.500000,246.000000 110.500000,243.750000 Q83.750000,249.250000 41.750000,213.250000 L30.750000,200.500000 L24.250000,190.750000 L17.250000,177.500000 L10.250000,158.000000 Q7.750000,152.750000 12.000000,148.500000 		"/>
		<path style="stroke:rgb(0,0,0);stroke-width:10.800000;stroke-linecap:round;stroke-linejoin:round;fill:none"
		 d="M232.250000,179.750000 L226.750000,196.500000 L223.250000,201.750000 L214.750000,211.500000 L207.000000,218.750000 L200.000000,224.500000 L187.500000,232.750000 L171.500000,240.250000 L159.000000,244.500000 L145.250000,247.250000 L130.000000,248.500000 L114.000000,247.750000 L110.500000,243.750000 		"/>
	</g>
</svg>