<?xml version="1.0" encoding="iso-8859-1"?>
<!DOCTYPE svg PUBLIC "-//W3C//DTD SVG 20000303 Stylable//EN"
"http://www.w3.org/TR/2000/03/WD-SVG-20000303/DTD/svg-20000303-stylable.dtd">
<!-- Generator: --> 
<svg width="1024pt" height="1024pt" viewBox="0 0 1024 1024">
	<g  id="FRAME_0" style="visibility:visible" fill-rule="evenodd">
		<path style="fill:rgb(203,86,81);opacity:1;stroke-width:0"
		 d="M755.500000,448.000000 L755.349976,401.750000 L616.599976,401.750000 L616.750000,383.350006 L616.599976,262.850006 L570.250000,262.850006 L570.250000,448.000000 L755.500000,448.000000 M448.000000,452.750000 L448.100006,303.000000 L447.750000,267.600006 L401.600006,267.600006 L401.600006,278.750000 L401.600006,406.500000 L262.750000,406.600006 L262.750000,452.750000 L448.000000,452.750000 M760.250000,570.349976 L575.000000,570.349976 L575.000000,755.500000 L621.250000,755.500000 L621.349976,616.599976 L760.250000,616.599976 L760.250000,570.349976 M452.600006,760.250000 L452.750000,575.099976 L267.500000,575.099976 L267.500000,621.349976 L406.350006,621.349976 L406.250000,687.099976 L406.350006,760.250000 L452.600006,760.250000 M540.349976,864.500000 L540.500000,540.500000 L864.500000,540.500000 L864.500000,482.600006 L540.500000,482.600006 L540.500000,158.600006 L482.500000,158.600006 L482.500000,482.600006 L158.500000,482.600006 L158.500000,540.500000 L482.350006,540.500000 L482.500000,541.349976 L482.500000,864.500000 L540.349976,864.500000 M512.099976,974.500000 L491.250000,974.000000 L465.850006,972.250000 L444.500000,969.599976 L422.600006,965.849976 L398.850006,960.599976 L379.850006,955.349976 L357.850006,948.250000 L334.500000,939.349976 L313.500000,930.099976 L294.000000,920.250000 L274.250000,909.099976 L255.000000,897.000000 L235.750000,883.500000 L219.250000,870.599976 L200.500000,854.599976 L186.500000,841.250000 L169.850006,824.000000 L154.600006,806.500000 L139.500000,787.250000 L127.599998,770.349976 L115.849998,752.000000 L103.250000,730.000000 L94.000000,711.599976 L84.000000,689.349976 L75.500000,667.599976 L69.000000,647.750000 L62.750000,625.500000 L57.599998,603.000000 L53.849998,581.599976 L51.000000,559.250000 L49.099998,535.349976 L48.500000,512.099976 L49.000000,491.250000 L50.750000,466.000000 L53.349998,444.600006 L57.250000,422.000000 L62.099998,400.100006 L67.599998,380.000000 L75.500000,355.600006 L83.599998,334.600006 L92.250000,315.100006 L103.099998,293.250000 L114.349998,273.500000 L126.000000,255.100006 L139.500000,235.850006 L152.350006,219.350006 L167.100006,202.100006 L181.750000,186.600006 L200.500000,168.500000 L216.500000,154.750000 L235.750000,139.600006 L252.600006,127.750000 L272.000000,115.349998 L291.000000,104.500000 L313.500000,93.000000 L331.350006,85.099998 L355.250000,75.750000 L377.600006,68.349998 L398.850006,62.500000 L418.850006,58.000000 L441.350006,54.000000 L464.750000,51.000000 L487.600006,49.250000 L510.850006,48.599998 L531.750000,49.099998 L557.099976,50.849998 L578.500000,53.500000 L600.349976,57.250000 L620.250000,61.599998 L643.099976,67.750000 L665.099976,74.849998 L688.500000,83.750000 L708.000000,92.349998 L728.750000,102.750000 L748.750000,114.000000 L765.599976,124.599998 L785.599976,138.500000 L803.750000,152.500000 L821.000000,167.250000 L836.500000,181.850006 L853.099976,199.100006 L868.349976,216.600006 L883.500000,235.850006 L895.349976,252.750000 L907.099976,271.100006 L919.750000,293.100006 L929.000000,311.500000 L939.000000,333.750000 L946.500000,353.100006 L954.000000,375.350006 L960.250000,397.600006 L965.349976,420.100006 L969.099976,441.500000 L972.000000,463.850006 L973.849976,487.750000 L974.500000,511.000000 L974.000000,531.849976 L972.250000,557.099976 L969.599976,578.500000 L965.750000,601.099976 L960.849976,623.000000 L955.349976,643.099976 L948.250000,665.099976 L939.349976,688.500000 L930.750000,708.000000 L920.349976,728.750000 L909.099976,748.750000 L898.500000,765.599976 L884.599976,785.599976 L870.599976,803.750000 L855.849976,821.000000 L841.250000,836.500000 L824.000000,853.099976 L806.500000,868.349976 L787.250000,883.500000 L770.349976,895.349976 L752.000000,907.099976 L730.000000,919.750000 L711.599976,929.000000 L689.349976,939.000000 L670.000000,946.500000 L647.750000,954.000000 L625.500000,960.250000 L603.000000,965.349976 L581.599976,969.099976 L559.250000,972.000000 L535.349976,973.849976 L512.099976,974.500000 "/>
		<path style="fill:rgb(203,203,203);opacity:1;stroke-width:0"
		 d="M755.500000,448.000000 L570.250000,448.000000 L570.250000,262.850006 L616.599976,262.850006 L616.750000,383.350006 L616.599976,401.750000 L755.349976,401.750000 L755.500000,448.000000 M448.000000,452.750000 L262.750000,452.750000 L262.750000,406.600006 L401.600006,406.500000 L401.600006,278.750000 L401.600006,267.600006 L447.750000,267.600006 L448.100006,303.000000 L448.000000,452.750000 M760.250000,570.349976 L760.250000,616.599976 L621.349976,616.599976 L621.250000,755.500000 L575.000000,755.500000 L575.000000,570.349976 L760.250000,570.349976 M452.600006,760.250000 L406.350006,760.250000 L406.250000,687.099976 L406.350006,621.349976 L267.500000,621.349976 L267.500000,575.099976 L452.750000,575.099976 L452.600006,760.250000 "/>
		<path style="fill:rgb(45,45,45);opacity:1;stroke-width:0"
		 d="M540.349976,864.500000 L482.500000,864.500000 L482.500000,541.349976 L482.350006,540.500000 L158.500000,540.500000 L158.500000,482.600006 L482.500000,482.600006 L482.500000,158.600006 L540.500000,158.600006 L540.500000,482.600006 L864.500000,482.600006 L864.500000,540.500000 L540.500000,540.500000 L540.349976,864.500000 "/>
		<path style="fill:rgb(50,50,50);opacity:1;stroke-width:0"
		 d="M512.099976,974.500000 L535.349976,973.849976 L559.250000,972.000000 L581.599976,969.099976 L603.000000,965.349976 L625.500000,960.250000 L647.750000,954.000000 L670.000000,946.500000 L689.349976,939.000000 L711.599976,929.000000 L730.000000,919.750000 L752.000000,907.099976 L770.349976,895.349976 L787.250000,883.500000 L806.500000,868.349976 L824.000000,853.099976 L841.250000,836.500000 L855.849976,821.000000 L870.599976,803.750000 L884.599976,785.599976 L898.500000,765.599976 L909.099976,748.750000 L920.349976,728.750000 L930.750000,708.000000 L939.349976,688.500000 L948.250000,665.099976 L955.349976,643.099976 L960.849976,623.000000 L965.750000,601.099976 L969.599976,578.500000 L972.250000,557.099976 L974.000000,531.849976 L974.500000,511.000000 L973.849976,487.750000 L972.000000,463.850006 L969.099976,441.500000 L965.349976,420.100006 L960.250000,397.600006 L954.000000,375.350006 L946.500000,353.100006 L939.000000,333.750000 L929.000000,311.500000 L919.750000,293.100006 L907.099976,271.100006 L895.349976,252.750000 L883.500000,235.850006 L868.349976,216.600006 L853.099976,199.100006 L836.500000,181.850006 L821.000000,167.250000 L803.750000,152.500000 L785.599976,138.500000 L765.599976,124.599998 L748.750000,114.000000 L728.750000,102.750000 L708.000000,92.349998 L688.500000,83.750000 L665.099976,74.849998 L643.099976,67.750000 L620.250000,61.599998 L600.349976,57.250000 L578.500000,53.500000 L557.099976,50.849998 L531.750000,49.099998 L510.850006,48.599998 L487.600006,49.250000 L464.750000,51.000000 L441.350006,54.000000 L418.850006,58.000000 L398.850006,62.500000 L377.600006,68.349998 L355.250000,75.750000 L331.350006,85.099998 L313.500000,93.000000 L291.000000,104.500000 L272.000000,115.349998 L252.600006,127.750000 L235.750000,139.600006 L216.500000,154.750000 L200.500000,168.500000 L181.750000,186.600006 L167.100006,202.100006 L152.350006,219.350006 L139.500000,235.850006 L126.000000,255.100006 L114.349998,273.500000 L103.099998,293.250000 L92.250000,315.100006 L83.599998,334.600006 L75.500000,355.600006 L67.599998,380.000000 L62.099998,400.100006 L57.250000,422.000000 L53.349998,444.600006 L50.750000,466.000000 L49.000000,491.250000 L48.500000,512.099976 L49.099998,535.349976 L51.000000,559.250000 L53.849998,581.599976 L57.599998,603.000000 L62.750000,625.500000 L69.000000,647.750000 L75.500000,667.599976 L84.000000,689.349976 L94.000000,711.599976 L103.250000,730.000000 L115.849998,752.000000 L127.599998,770.349976 L139.500000,787.250000 L154.600006,806.500000 L169.850006,824.000000 L186.500000,841.250000 L200.500000,854.599976 L219.250000,870.599976 L235.750000,883.500000 L255.000000,897.000000 L274.250000,909.099976 L294.000000,920.250000 L313.500000,930.099976 L334.500000,939.349976 L357.850006,948.250000 L379.850006,955.349976 L398.850006,960.599976 L422.600006,965.849976 L444.500000,969.599976 L465.850006,972.250000 L491.250000,974.000000 L512.099976,974.500000 M512.849976,997.599976 L486.750000,997.000000 L466.500000,995.500000 L442.000000,992.599976 L420.500000,989.000000 L394.000000,983.250000 L372.600006,977.349976 L347.750000,969.250000 L327.250000,961.349976 L303.850006,951.099976 L282.500000,940.349976 L263.500000,929.599976 L244.100006,917.500000 L222.750000,902.599976 L206.000000,889.599976 L187.850006,874.250000 L169.750000,857.250000 L151.100006,837.849976 L137.000000,821.500000 L122.250000,802.750000 L107.250000,781.599976 L94.500000,761.500000 L83.250000,741.599976 L72.099998,719.599976 L62.599998,698.250000 L54.000000,676.000000 L46.349998,653.000000 L40.750000,632.750000 L34.849998,607.250000 L30.600000,583.000000 L28.000000,561.750000 L26.100000,538.099976 L25.350000,512.849976 L26.000000,486.750000 L27.500000,466.500000 L30.500000,441.100006 L34.250000,419.250000 L39.750000,394.100006 L45.849998,371.850006 L53.599998,348.250000 L61.599998,327.350006 L71.849998,304.000000 L82.599998,282.600006 L93.349998,263.600006 L105.500000,244.250000 L120.349998,222.850006 L133.350006,206.100006 L148.750000,188.000000 L165.750000,169.850006 L185.100006,151.250000 L201.500000,137.100006 L220.250000,122.349998 L241.350006,107.349998 L261.500000,94.599998 L281.350006,83.349998 L303.350006,72.250000 L324.750000,62.750000 L347.000000,54.099998 L370.000000,46.500000 L390.250000,40.849998 L415.750000,35.000000 L440.000000,30.750000 L461.250000,28.100000 L484.850006,26.250000 L510.100006,25.500000 L536.250000,26.100000 L556.500000,27.600000 L581.000000,30.500000 L602.500000,34.099998 L629.000000,39.849998 L650.349976,45.750000 L675.250000,53.849998 L695.750000,61.750000 L719.099976,72.000000 L740.500000,82.750000 L759.500000,93.500000 L778.849976,105.599998 L800.250000,120.500000 L817.000000,133.500000 L835.099976,148.850006 L853.250000,165.850006 L871.849976,185.250000 L886.000000,201.600006 L900.750000,220.350006 L915.750000,241.500000 L928.500000,261.600006 L939.750000,281.500000 L950.849976,303.500000 L960.349976,324.850006 L969.000000,347.100006 L976.599976,370.100006 L982.250000,390.350006 L988.099976,415.850006 L992.349976,440.100006 L995.000000,461.350006 L996.849976,485.000000 L997.599976,510.250000 L997.000000,536.349976 L995.500000,556.599976 L992.500000,582.000000 L988.750000,603.849976 L983.250000,629.000000 L977.099976,651.250000 L969.349976,674.849976 L961.349976,695.750000 L951.099976,719.099976 L940.349976,740.500000 L929.599976,759.500000 L917.500000,778.849976 L902.599976,800.250000 L889.599976,817.000000 L874.250000,835.099976 L857.250000,853.250000 L837.849976,871.849976 L821.500000,886.000000 L802.750000,900.750000 L781.599976,915.750000 L761.500000,928.500000 L741.599976,939.750000 L719.599976,950.849976 L698.250000,960.349976 L676.000000,969.000000 L653.000000,976.599976 L632.750000,982.250000 L607.250000,988.099976 L583.000000,992.349976 L561.750000,995.000000 L538.099976,996.849976 L512.849976,997.599976 "/>
	</g>
</svg>