<?xml version="1.0" encoding="UTF-8" standalone="no"?>
<!-- Generator: -->

<svg
   width="1024pt"
   height="1024pt"
   viewBox="0 0 1024 1024"
   version="1.1"
   id="svg33"
   sodipodi:docname="capture_hilight.svg"
   inkscape:version="1.1 (c68e22c387, 2021-05-23)"
   xmlns:inkscape="http://www.inkscape.org/namespaces/inkscape"
   xmlns:sodipodi="http://sodipodi.sourceforge.net/DTD/sodipodi-0.dtd"
   xmlns="http://www.w3.org/2000/svg"
   xmlns:svg="http://www.w3.org/2000/svg">
  <defs
     id="defs37" />
  <sodipodi:namedview
     id="namedview35"
     pagecolor="#505050"
     bordercolor="#eeeeee"
     borderopacity="1"
     inkscape:pageshadow="0"
     inkscape:pageopacity="0"
     inkscape:pagecheckerboard="0"
     inkscape:document-units="pt"
     showgrid="false"
     inkscape:zoom="0.35355339"
     inkscape:cx="91.923881"
     inkscape:cy="190.91883"
     inkscape:window-width="1920"
     inkscape:window-height="1147"
     inkscape:window-x="-8"
     inkscape:window-y="-8"
     inkscape:window-maximized="1"
     inkscape:current-layer="FRAME_0" />
  <g
     id="FRAME_0"
     style="visibility:visible"
     fill-rule="evenodd">
    <path
       style="fill:rgb(203,86,81);opacity:1;stroke-width:0"
       d="M755.500000,448.000000 L755.349976,401.750000 L616.599976,401.750000 L616.750000,383.350006 L616.599976,262.850006 L570.250000,262.850006 L570.250000,448.000000 L755.500000,448.000000 M448.000000,452.750000 L448.100006,303.000000 L447.750000,267.600006 L401.600006,267.600006 L401.600006,278.750000 L401.600006,406.500000 L262.750000,406.600006 L262.750000,452.750000 L448.000000,452.750000 M760.250000,570.349976 L575.000000,570.349976 L575.000000,755.500000 L621.250000,755.500000 L621.349976,616.599976 L760.250000,616.599976 L760.250000,570.349976 M452.600006,760.250000 L452.750000,575.099976 L267.500000,575.099976 L267.500000,621.349976 L406.350006,621.349976 L406.250000,687.099976 L406.350006,760.250000 L452.600006,760.250000 M540.349976,864.500000 L540.500000,540.500000 L864.500000,540.500000 L864.500000,482.600006 L540.500000,482.600006 L540.500000,158.600006 L482.500000,158.600006 L482.500000,482.600006 L158.500000,482.600006 L158.500000,540.500000 L482.350006,540.500000 L482.500000,541.349976 L482.500000,864.500000 L540.349976,864.500000 M512.099976,974.500000 L491.250000,974.000000 L465.850006,972.250000 L444.500000,969.599976 L422.600006,965.849976 L398.850006,960.599976 L379.850006,955.349976 L357.850006,948.250000 L334.500000,939.349976 L313.500000,930.099976 L294.000000,920.250000 L274.250000,909.099976 L255.000000,897.000000 L235.750000,883.500000 L219.250000,870.599976 L200.500000,854.599976 L186.500000,841.250000 L169.850006,824.000000 L154.600006,806.500000 L139.500000,787.250000 L127.599998,770.349976 L115.849998,752.000000 L103.250000,730.000000 L94.000000,711.599976 L84.000000,689.349976 L75.500000,667.599976 L69.000000,647.750000 L62.750000,625.500000 L57.599998,603.000000 L53.849998,581.599976 L51.000000,559.250000 L49.099998,535.349976 L48.500000,512.099976 L49.000000,491.250000 L50.750000,466.000000 L53.349998,444.600006 L57.250000,422.000000 L62.099998,400.100006 L67.599998,380.000000 L75.500000,355.600006 L83.599998,334.600006 L92.250000,315.100006 L103.099998,293.250000 L114.349998,273.500000 L126.000000,255.100006 L139.500000,235.850006 L152.350006,219.350006 L167.100006,202.100006 L181.750000,186.600006 L200.500000,168.500000 L216.500000,154.750000 L235.750000,139.600006 L252.600006,127.750000 L272.000000,115.349998 L291.000000,104.500000 L313.500000,93.000000 L331.350006,85.099998 L355.250000,75.750000 L377.600006,68.349998 L398.850006,62.500000 L418.850006,58.000000 L441.350006,54.000000 L464.750000,51.000000 L487.600006,49.250000 L510.850006,48.599998 L531.750000,49.099998 L557.099976,50.849998 L578.500000,53.500000 L600.349976,57.250000 L620.250000,61.599998 L643.099976,67.750000 L665.099976,74.849998 L688.500000,83.750000 L708.000000,92.349998 L728.750000,102.750000 L748.750000,114.000000 L765.599976,124.599998 L785.599976,138.500000 L803.750000,152.500000 L821.000000,167.250000 L836.500000,181.850006 L853.099976,199.100006 L868.349976,216.600006 L883.500000,235.850006 L895.349976,252.750000 L907.099976,271.100006 L919.750000,293.100006 L929.000000,311.500000 L939.000000,333.750000 L946.500000,353.100006 L954.000000,375.350006 L960.250000,397.600006 L965.349976,420.100006 L969.099976,441.500000 L972.000000,463.850006 L973.849976,487.750000 L974.500000,511.000000 L974.000000,531.849976 L972.250000,557.099976 L969.599976,578.500000 L965.750000,601.099976 L960.849976,623.000000 L955.349976,643.099976 L948.250000,665.099976 L939.349976,688.500000 L930.750000,708.000000 L920.349976,728.750000 L909.099976,748.750000 L898.500000,765.599976 L884.599976,785.599976 L870.599976,803.750000 L855.849976,821.000000 L841.250000,836.500000 L824.000000,853.099976 L806.500000,868.349976 L787.250000,883.500000 L770.349976,895.349976 L752.000000,907.099976 L730.000000,919.750000 L711.599976,929.000000 L689.349976,939.000000 L670.000000,946.500000 L647.750000,954.000000 L625.500000,960.250000 L603.000000,965.349976 L581.599976,969.099976 L559.250000,972.000000 L535.349976,973.849976 L512.099976,974.500000 "
       id="path24" />
    <path
       style="fill:rgb(203,203,203);opacity:1;stroke-width:0"
       d="M755.500000,448.000000 L570.250000,448.000000 L570.250000,262.850006 L616.599976,262.850006 L616.750000,383.350006 L616.599976,401.750000 L755.349976,401.750000 L755.500000,448.000000 M448.000000,452.750000 L262.750000,452.750000 L262.750000,406.600006 L401.600006,406.500000 L401.600006,278.750000 L401.600006,267.600006 L447.750000,267.600006 L448.100006,303.000000 L448.000000,452.750000 M760.250000,570.349976 L760.250000,616.599976 L621.349976,616.599976 L621.250000,755.500000 L575.000000,755.500000 L575.000000,570.349976 L760.250000,570.349976 M452.600006,760.250000 L406.350006,760.250000 L406.250000,687.099976 L406.350006,621.349976 L267.500000,621.349976 L267.500000,575.099976 L452.750000,575.099976 L452.600006,760.250000 "
       id="path26" />
    <path
       style="fill:rgb(45,45,45);opacity:1;stroke-width:0"
       d="M540.349976,864.500000 L482.500000,864.500000 L482.500000,541.349976 L482.350006,540.500000 L158.500000,540.500000 L158.500000,482.600006 L482.500000,482.600006 L482.500000,158.600006 L540.500000,158.600006 L540.500000,482.600006 L864.500000,482.600006 L864.500000,540.500000 L540.500000,540.500000 L540.349976,864.500000 "
       id="path28" />
    <path
       style="fill:none;stroke:#e8726d;stroke-width:73.703px;stroke-linecap:butt;stroke-linejoin:miter;stroke-opacity:1"
       d="M 506.95334,36.88737 C 792.96772,38.448011 986.8203,256.06214 986.8203,546.35753 986.12545,793.56916 803.47687,987.14714 513.902,987.14714 277.27798,987.14714 37.014695,798.60334 37.014695,503.21021 32.050551,244.32637 257.99245,42.572418 506.95334,36.88737 Z"
       id="path3834"
       sodipodi:nodetypes="ccccc"
       inkscape:label="path3834" />
    <path
       style="fill:none;stroke:#2d2d2d;stroke-width:30.0607px;stroke-linecap:butt;stroke-linejoin:miter;stroke-opacity:1"
       d="m 505.90852,106.63447 c 244.89112,1.33238 410.8715,187.11911 410.8715,434.95702 -0.59497,211.05542 -156.98224,376.32144 -404.92191,376.32144 -202.60214,0 -408.32027,-160.96812 -408.32027,-413.15818 C 99.287449,283.73426 292.74333,111.48804 505.90852,106.63447 Z"
       id="path6088"
       sodipodi:nodetypes="ccccc"
       inkscape:label="path3834" />
  </g>
</svg>
