<?xml version="1.0" encoding="iso-8859-1"?>
<!DOCTYPE svg PUBLIC "-//W3C//DTD SVG 20000303 Stylable//EN"
"http://www.w3.org/TR/2000/03/WD-SVG-20000303/DTD/svg-20000303-stylable.dtd">
<!-- Generator: --> 
<svg width="256pt" height="256pt" viewBox="0 0 256 256">
	<g  id="FRAME_0" style="visibility:visible" fill-rule="evenodd">
		<path style="fill:rgb(127,127,127);opacity:1;stroke-width:0"
		 d="M99.000000,152.350006 Q125.250000,149.250000 139.000000,132.100006 Q153.500000,115.099998 152.350006,90.599998 Q148.350006,63.750000 132.850006,51.750000 Q115.500000,36.599998 91.500000,37.750000 Q69.000000,39.000000 52.000000,57.250000 Q37.000000,73.849998 38.000000,99.349998 Q40.250000,122.750000 56.849998,137.850006 Q75.000000,153.500000 99.000000,152.350006 M142.000000,152.600006 Q124.750000,168.500000 91.000000,168.850006 Q61.349998,166.850006 40.599998,145.100006 Q25.750000,132.100006 20.850000,98.849998 Q19.100000,69.250000 39.849998,44.599998 Q58.349998,23.350000 91.250000,20.100000 Q120.000000,18.500000 144.100006,38.250000 Q165.850006,56.349998 169.600006,89.349998 Q169.850006,122.500000 153.500000,141.000000 L157.350006,137.350006 L234.000000,213.000000 L229.750000,218.000000 Q234.500000,221.000000 234.750000,223.350006 L234.500000,230.350006 L229.850006,235.000000 Q221.350006,237.350006 217.850006,231.100006 L217.600006,231.000000 L212.850006,235.350006 L137.250000,157.750000 L137.100006,157.500000 L142.000000,152.600006 "/>
		<path style="stroke:rgb(0,0,0);stroke-width:11.500000;stroke-linecap:round;stroke-linejoin:round;fill:none"
		 d="M56.849998,137.850006 Q40.250000,122.750000 38.000000,99.349998 Q37.000000,73.849998 52.000000,57.250000 Q69.000000,39.000000 91.500000,37.750000 Q115.500000,36.599998 132.850006,51.750000 Q148.350006,63.750000 152.350006,90.599998 Q153.500000,115.099998 139.000000,132.100006 Q125.250000,149.250000 99.000000,152.350006 Q75.000000,153.500000 56.849998,137.850006 		"/>
		<path style="stroke:rgb(0,0,0);stroke-width:11.500000;stroke-linecap:round;stroke-linejoin:round;fill:none"
		 d="M150.500000,144.600006 L153.500000,141.000000 Q169.850006,122.500000 169.600006,89.349998 Q165.850006,56.349998 144.100006,38.250000 Q120.000000,18.500000 91.250000,20.100000 Q58.349998,23.350000 39.849998,44.599998 Q19.100000,69.250000 20.850000,98.849998 Q25.750000,132.100006 40.599998,145.100006 Q61.349998,166.850006 91.000000,168.850006 Q124.750000,168.500000 142.000000,152.600006 L150.500000,144.600006 		"/>
		<path style="stroke:rgb(0,0,0);stroke-width:11.500000;stroke-linecap:round;stroke-linejoin:round;fill:none"
		 d="M142.000000,152.600006 L137.100006,157.500000 L137.250000,157.750000 L212.850006,235.350006 L217.600006,231.000000 L217.850006,231.100006 Q221.350006,237.350006 229.850006,235.000000 L234.500000,230.350006 L234.750000,223.350006 Q234.500000,221.000000 229.750000,218.000000 L234.000000,213.000000 L157.350006,137.350006 L153.500000,141.000000 		"/>
	</g>
</svg>