<?xml version="1.0" encoding="iso-8859-1"?>
<!DOCTYPE svg PUBLIC "-//W3C//DTD SVG 20000303 Stylable//EN"
"http://www.w3.org/TR/2000/03/WD-SVG-20000303/DTD/svg-20000303-stylable.dtd">
<!-- Generator: --> 
<svg width="256pt" height="256pt" viewBox="0 0 256 256">
	<g  id="FRAME_0" style="visibility:visible" fill-rule="evenodd">
		<path style="fill:rgb(97,97,97);opacity:1;stroke-width:0"
		 d="M146.750000,8.750000 Q88.750000,3.750000 57.750000,29.500000 Q110.500000,-9.500000 181.250000,18.750000 Q242.250000,46.000000 249.250000,128.750000 Q244.000000,206.750000 177.750000,237.750000 Q159.250000,248.750000 116.500000,247.750000 Q82.250000,245.250000 50.000000,219.250000 L53.250000,221.500000 L54.000000,222.000000 Q110.250000,262.250000 168.500000,239.000000 Q173.750000,241.500000 201.000000,223.500000 L215.500000,210.500000 L225.750000,198.250000 Q251.250000,161.250000 247.500000,122.250000 L248.500000,121.250000 L248.000000,118.500000 L248.000000,117.750000 L247.750000,117.000000 L247.500000,111.500000 L247.250000,110.750000 L247.250000,110.500000 L247.000000,109.500000 L246.750000,108.250000 L246.500000,107.000000 L246.500000,106.750000 Q230.500000,32.250000 160.250000,12.250000 L159.250000,11.000000 L156.250000,10.500000 L155.750000,10.500000 L155.250000,10.250000 L148.250000,9.000000 L147.000000,8.750000 L146.750000,8.750000 M19.000000,77.250000 L16.000000,83.750000 L11.750000,96.500000 L8.750000,110.250000 L9.500000,104.000000 L12.500000,92.000000 L16.250000,81.500000 L19.250000,75.500000 L19.000000,77.250000 M7.500000,128.750000 L7.750000,116.250000 L8.500000,112.250000 L7.500000,128.750000 L8.750000,144.500000 Q12.000000,174.000000 34.250000,200.000000 L34.250000,202.750000 L38.500000,207.250000 L44.500000,214.250000 Q16.250000,189.500000 8.750000,144.500000 L7.750000,138.500000 L7.500000,128.750000 "/>
		<path style="fill:rgb(205,205,205);opacity:1;stroke-width:0"
		 d="M146.750000,8.750000 L147.000000,8.750000 L148.250000,9.000000 L155.250000,10.250000 L155.750000,10.500000 L156.250000,10.500000 L159.250000,11.000000 L160.250000,12.250000 Q230.500000,32.250000 246.500000,106.750000 L246.500000,107.000000 L246.750000,108.250000 L247.000000,109.500000 L247.250000,110.500000 L247.250000,110.750000 L247.500000,111.500000 L247.750000,117.000000 L248.000000,117.750000 L248.000000,118.500000 L248.500000,121.250000 L247.500000,122.250000 Q251.250000,161.250000 225.750000,198.250000 L215.500000,210.500000 L201.000000,223.500000 Q173.750000,241.500000 168.500000,239.000000 Q110.250000,262.250000 54.000000,222.000000 L53.250000,221.500000 L50.000000,219.250000 L49.750000,219.000000 L48.750000,218.250000 L47.250000,216.750000 L46.750000,216.500000 L44.500000,214.250000 L38.500000,207.250000 L34.250000,202.750000 L34.250000,200.000000 Q12.000000,174.000000 8.750000,144.500000 L7.500000,128.750000 L8.500000,112.250000 L8.500000,112.000000 L8.750000,110.500000 L8.750000,110.250000 L11.750000,96.500000 L16.000000,83.750000 L19.000000,77.250000 L19.250000,75.500000 L22.000000,69.250000 L26.500000,62.500000 L27.000000,61.750000 L27.250000,61.250000 L28.250000,59.750000 Q42.000000,39.250000 57.750000,29.500000 Q88.750000,3.750000 146.750000,8.750000 M162.750000,110.500000 Q148.750000,96.750000 123.500000,89.500000 Q100.250000,103.500000 89.750000,122.500000 Q96.250000,146.250000 109.750000,161.750000 Q131.750000,164.250000 154.750000,155.500000 Q164.750000,130.500000 162.750000,110.500000 "/>
		<path style="stroke:rgb(0,0,0);stroke-width:8.650000;stroke-linecap:round;stroke-linejoin:round;fill:none"
		 d="M146.750000,8.750000 L139.000000,9.500000 Q135.250000,10.750000 135.500000,12.750000 L137.000000,15.750000 L143.250000,37.750000 L145.500000,42.250000 L153.000000,64.250000 L160.250000,91.250000 L161.750000,98.750000 L162.750000,110.500000 Q148.750000,96.750000 123.500000,89.500000 L108.750000,86.250000 L73.000000,83.250000 L45.000000,82.250000 L24.250000,79.250000 L19.750000,79.500000 L19.000000,77.250000 L19.250000,75.500000 L22.000000,69.250000 L26.500000,62.500000 L27.000000,61.750000 L27.250000,61.250000 L28.250000,59.750000 Q42.000000,39.250000 57.750000,29.500000 Q88.750000,3.750000 146.750000,8.750000 L147.000000,8.750000 L148.250000,9.000000 L155.250000,10.250000 L155.750000,10.500000 L156.250000,10.500000 L159.250000,11.000000 L160.250000,12.250000 L156.250000,10.500000 		"/>
		<path style="stroke:rgb(0,0,0);stroke-width:8.650000;stroke-linecap:round;stroke-linejoin:round;fill:none"
		 d="M248.000000,118.500000 L248.500000,121.250000 L247.500000,122.250000 L248.000000,118.500000 L248.000000,117.750000 L247.750000,117.000000 L247.500000,111.500000 L247.250000,110.750000 L247.250000,110.500000 L247.000000,109.500000 L246.750000,108.250000 L246.500000,107.000000 L246.500000,106.750000 Q230.500000,32.250000 160.250000,12.250000 		"/>
		<path style="stroke:rgb(0,0,0);stroke-width:8.650000;stroke-linecap:round;stroke-linejoin:round;fill:none"
		 d="M19.000000,77.250000 L16.000000,83.750000 L11.750000,96.500000 L8.750000,110.250000 L9.500000,104.000000 L12.500000,92.000000 L16.250000,81.500000 L19.250000,75.500000 		"/>
		<path style="stroke:rgb(0,0,0);stroke-width:8.650000;stroke-linecap:round;stroke-linejoin:round;fill:none"
		 d="M8.500000,112.250000 L7.500000,128.750000 L7.750000,116.250000 L8.500000,112.250000 L8.500000,112.000000 L8.750000,110.500000 L8.750000,110.250000 		"/>
		<path style="stroke:rgb(0,0,0);stroke-width:8.650000;stroke-linecap:round;stroke-linejoin:round;fill:none"
		 d="M162.750000,110.500000 Q164.750000,130.500000 154.750000,155.500000 Q131.750000,164.250000 109.750000,161.750000 Q96.250000,146.250000 89.750000,122.500000 Q100.250000,103.500000 123.500000,89.500000 		"/>
		<path style="stroke:rgb(0,0,0);stroke-width:8.650000;stroke-linecap:round;stroke-linejoin:round;fill:none"
		 d="M7.750000,138.500000 L7.500000,128.750000 L8.750000,144.500000 L7.750000,138.500000 		"/>
		<path style="stroke:rgb(0,0,0);stroke-width:8.650000;stroke-linecap:round;stroke-linejoin:round;fill:none"
		 d="M246.500000,106.750000 Q242.500000,93.750000 237.250000,97.250000 L219.250000,110.750000 L196.000000,130.750000 L182.250000,140.750000 L165.250000,151.250000 L154.750000,155.500000 		"/>
		<path style="stroke:rgb(0,0,0);stroke-width:8.650000;stroke-linecap:round;stroke-linejoin:round;fill:none"
		 d="M34.250000,200.000000 L34.250000,202.750000 L38.500000,207.250000 L34.250000,200.000000 Q12.000000,174.000000 8.750000,144.500000 Q16.250000,189.500000 44.500000,214.250000 L38.500000,207.250000 		"/>
		<path style="stroke:rgb(0,0,0);stroke-width:8.650000;stroke-linecap:round;stroke-linejoin:round;fill:none"
		 d="M40.000000,207.250000 L39.750000,206.750000 		"/>
		<path style="stroke:rgb(0,0,0);stroke-width:8.650000;stroke-linecap:round;stroke-linejoin:round;fill:none"
		 d="M40.500000,208.000000 L40.250000,207.500000 		"/>
		<path style="stroke:rgb(0,0,0);stroke-width:8.650000;stroke-linecap:round;stroke-linejoin:round;fill:none"
		 d="M41.750000,210.000000 L40.750000,208.250000 		"/>
		<path style="stroke:rgb(0,0,0);stroke-width:8.650000;stroke-linecap:round;stroke-linejoin:round;fill:none"
		 d="M44.500000,214.250000 L46.750000,216.500000 L47.250000,216.750000 L48.750000,218.250000 L49.750000,219.000000 L50.000000,219.250000 L53.250000,221.500000 L54.000000,222.000000 L56.000000,223.000000 L57.000000,223.500000 		"/>
		<path style="stroke:rgb(0,0,0);stroke-width:8.650000;stroke-linecap:round;stroke-linejoin:round;fill:none"
		 d="M48.750000,217.250000 L43.750000,212.250000 		"/>
		<path style="stroke:rgb(0,0,0);stroke-width:8.650000;stroke-linecap:round;stroke-linejoin:round;fill:none"
		 d="M49.500000,218.250000 L50.750000,219.250000 		"/>
		<path style="stroke:rgb(0,0,0);stroke-width:8.650000;stroke-linecap:round;stroke-linejoin:round;fill:none"
		 d="M51.000000,219.500000 L52.500000,220.500000 		"/>
		<path style="stroke:rgb(0,0,0);stroke-width:8.650000;stroke-linecap:round;stroke-linejoin:round;fill:none"
		 d="M52.750000,220.750000 L53.750000,221.250000 		"/>
		<path style="stroke:rgb(0,0,0);stroke-width:8.650000;stroke-linecap:round;stroke-linejoin:round;fill:none"
		 d="M54.500000,222.000000 L54.250000,221.500000 		"/>
		<path style="stroke:rgb(0,0,0);stroke-width:8.650000;stroke-linecap:round;stroke-linejoin:round;fill:none"
		 d="M56.000000,223.000000 L59.500000,225.250000 L60.750000,225.000000 L66.000000,203.250000 L72.500000,168.500000 L80.750000,140.000000 L83.500000,133.500000 L89.750000,122.500000 		"/>
		<path style="stroke:rgb(0,0,0);stroke-width:8.650000;stroke-linecap:round;stroke-linejoin:round;fill:none"
		 d="M109.750000,161.750000 L117.750000,171.000000 L123.000000,175.750000 L138.750000,188.250000 L160.250000,203.250000 L174.250000,212.000000 L189.000000,223.000000 Q185.750000,236.000000 168.500000,239.000000 Q173.750000,241.500000 201.000000,223.500000 L215.500000,210.500000 L225.750000,198.250000 Q251.250000,161.250000 247.500000,122.250000 		"/>
		<path style="stroke:rgb(0,0,0);stroke-width:8.650000;stroke-linecap:round;stroke-linejoin:round;fill:none"
		 d="M54.000000,222.000000 Q110.250000,262.250000 168.500000,239.000000 		"/>
		<path style="stroke:rgb(0,0,0);stroke-width:8.650000;stroke-linecap:round;stroke-linejoin:round;fill:none"
		 d="M50.000000,219.250000 Q82.250000,245.250000 116.500000,247.750000 Q159.250000,248.750000 177.750000,237.750000 Q244.000000,206.750000 249.250000,128.750000 Q242.250000,46.000000 181.250000,18.750000 Q110.500000,-9.500000 57.750000,29.500000 		"/>
	</g>
</svg>